<?xml version="1.0" encoding="UTF-8"?>
<svg id="Layer_1" data-name="Layer 1" xmlns="http://www.w3.org/2000/svg" viewBox="0 0 361.78 274.6">
  <defs>
    <style>
      .cls-1 {
        stroke-width: 0px;
      }
    </style>
  </defs>
  <path class="cls-1" d="M8.7,116.06c5.37-2.86,10.62-3.57,16-3.72,2.47-.07,4.94-.18,7.41-.31,4.01-.22,8-.39,11.92.9,6.83,2.24,10.05,6.35,10.28,13.47.07,2.29.09,4.6-.17,6.87-.92,8-.6,16.02-.56,24.04.02,4.01-.08,8.02-.1,12.03,0,1.69-.32,3.47,1.01,4.89,5.08.91,13.98.59,19.55-.78,1.87-5.03,2.77-10.47,3.24-15.95.54-6.27.66-12.58,1.07-18.87.16-2.46.48-4.93.98-7.35.66-3.16,2.54-5.57,5.41-7.03,4.93-2.5,9.87-5.03,14.93-7.26,7.51-3.31,13.48,1.37,15.11,6.88,1.84,6.23,3.2,12.54,3.13,19.14-.3,26.2-2.38,52.26-5.5,78.26-.89,7.39-1.19,14.84-1.81,22.26-.35,4.18-.74,8.37-1.25,12.53-.81,6.67-4.53,11.21-10.63,13.81-1.92.82-3.93,1.52-5.96,1.99-9.64,2.24-19.1-2.52-23.09-11.57-2.68-6.09-3.64-12.47-2.45-19.04,1.12-6.19,2.51-12.34,3.74-18.52.37-1.86.68-3.75.8-5.64.11-1.68-.76-2.93-2.41-3.49-1.8-.61-3.58-1.48-5.44-1.72-4.95-.66-9.88-.49-14.78.73-2.53.63-4.06,2.1-4.6,4.53-.66,2.97-1.31,5.98-1.64,9-.84,7.78-1.41,15.59-2.28,23.37-.38,3.4-1.02,6.8-1.96,10.09-1.73,6.04-6.03,9.02-12.24,9.39-5,.3-9.94-.23-14.76-1.5-6.4-1.68-10.04-6.13-11.15-12.46-.55-3.16-.63-6.5-.33-9.7.82-8.74,1.82-17.47,2.99-26.17,2.11-15.73,3.57-31.51,3.32-47.39-.18-11.48.48-22.9,1.59-34.32.53-5.5.45-11.06.62-16.59.05-1.5,0-3.01,0-4.82Z"/>
  <path class="cls-1" d="M127.77,136.65c4.59-4.76,9.73-8.67,15.2-12.17.64-.41,1.35-.77,2.07-.96,9.58-2.4,18.88-2.35,27.66,2.98,1.92,1.17,3.24,2.6,3.71,4.79.97,4.47,2.05,8.93,2.9,13.42,1.96,10.31,3.67,20.68,5.78,30.96.96,4.65,2.6,9.17,4.01,13.72.26.84.85,1.57,1.21,2.22,1.65-.04,1.73-1.2,2.11-1.97,2.66-5.5,5.18-11.07,7.9-16.53,4.11-8.24,6.9-16.96,9.81-25.65.91-2.72,1.58-5.53,2.76-8.13,1.17-2.58,2.71-5.02,4.32-7.36,1.32-1.92,3.26-3.19,5.55-3.83,1.84-.51,3.68-1.02,5.49-1.62,2.44-.82,4.81-.75,7.31-.12,4.43,1.12,9,1.72,13.05,4.09,2.33,1.36,4.49,2.91,6.04,5.17,1.4,2.03,1.9,4.07.48,6.38-1,1.62-1.67,3.44-2.59,5.11-9.07,16.42-16.31,33.66-22.94,51.17-5.82,15.36-12.26,30.46-19.36,45.27-3.31,6.9-6.86,13.65-11.56,19.73-2.58,3.34-5.4,6.43-8.87,8.89-3.53,2.5-7.26,3.03-11.4,1.59-2.51-.87-4.4-2.32-5.56-4.63-1.03-2.04-1.94-4.16-2.7-6.31-2.48-7.04-5.46-13.85-8.88-20.47-6.95-13.46-11.95-27.59-15.75-42.29-4.92-19.03-10.69-37.84-16.08-56.74-.62-2.18-1.49-4.31-1.66-6.73Z"/>
  <path class="cls-1" d="M20.87,7.44c2.22-1.55,4.01-2.94,5.93-4.1,1.78-1.08,3.62-2.18,5.58-2.81,4.51-1.46,7.78.12,9.76,4.49,1.27,2.82,2,5.81,1.74,8.91-.42,4.94-1.04,9.87-1.57,14.8-.18,1.71-.43,3.41-.53,5.12-.04.72.2,1.47.37,2.63,1.21-.39,2.42-.46,3.12-1.09.96-.86,1.6-2.12,2.27-3.26,4.59-7.85,10.8-14.31,17.5-20.33,2.14-1.92,4.5-3.54,7.3-4.41,4.22-1.31,7.07-.02,8.58,4.2,1.83,5.11,1.67,10.22-1.31,14.86-2.68,4.17-5.63,8.17-8.61,12.13-2.75,3.66-5.7,7.16-8.72,10.94.75,1.04,1.35,1.95,2.04,2.8,8.08,9.89,13.78,21.04,17.42,33.26.49,1.63.77,3.37.86,5.07.17,3.08-1.21,5.04-4.05,6.24-3.78,1.6-7.42,1.33-11.03-.57-4.13-2.18-7.62-5.12-10.41-8.82-3.44-4.58-6.68-9.31-10.06-13.93-1.67-2.28-2.99-4.88-5.77-6.77-.65.75-1.47,1.31-1.75,2.07-.91,2.49-1.82,5.01-2.38,7.59-.92,4.29-1.39,8.67-2.37,12.95-.59,2.58-1.6,5.1-2.75,7.5-.72,1.5-1.88,2.91-3.15,4-2.32,2-5.22,1.54-6.91-1-.83-1.26-1.44-2.69-1.99-4.1-2.28-5.93-3.51-12.07-3.63-18.45-.2-9.96.63-19.85,1.66-29.73,1.22-11.78,2.28-23.57,2.47-35.42.03-1.69.27-3.38.38-4.74Z"/>
  <path class="cls-1" d="M286.18,52.65c1.87-3.61,3.11-6.17,4.51-8.64,1.22-2.15,2.46-4.33,4-6.26,2.03-2.54,4.27-2.72,7.08-.97,2.5,1.55,4.34,3.71,5.7,6.3.96,1.84,1.93,3.67,3.21,6.08.71-1.76,1.25-2.91,1.64-4.1,1.48-4.53,2.71-9.16,4.4-13.61,2.22-5.88,5.86-10.7,11.66-13.57.68-.34,1.34-.75,2.06-.99,2.79-.95,5.16.27,5.5,3.19.31,2.63.35,5.36.02,7.99-1.02,7.95-2.2,15.86-4.17,23.67-1.21,4.78-1.76,9.75-2.28,14.67-.85,7.97-1.11,16.02-3.45,23.76-.66,2.19-1.47,4.34-2.39,6.43-.53,1.2-1.32,2.34-2.2,3.32-2.04,2.27-4.54,2.24-6.3-.18-1.11-1.53-1.98-3.26-2.73-5-1.2-2.8-2.24-5.68-3.3-8.54-2.02-5.41-4.98-10.3-8.27-15.01-.53-.75-1.24-1.38-1.76-1.94-1.97.1-2.42,1.51-2.87,2.69-2.3,6.06-4.51,12.16-6.72,18.25-.71,1.97-1.28,4-2.01,5.96-.33.88-.81,1.74-1.38,2.48-1.68,2.17-3.96,2.17-5.72-.15-2.07-2.73-4.06-5.55-5.87-8.46-2.64-4.23-4.47-8.85-5.89-13.63-2.56-8.6-4.97-17.24-7.73-25.77-1.76-5.43-3.72-10.85-6.17-16-1.98-4.16-1.51-7.78.86-11.3,1.37-2.04,3.06-3.93,4.89-5.58,4.23-3.83,9.82-3.59,13.8.61,1.41,1.49,2.54,3.36,3.42,5.24,2.26,4.86,3.91,9.94,4.9,15.22.66,3.56,1.45,7.11,2.23,10.65.15.69.55,1.32,1.35,3.19Z"/>
  <path class="cls-1" d="M181.63,69.89c.27-8.61,1.35-17.14,3.83-25.39,1.2-3.99,3.01-7.82,4.76-11.63,4.48-9.75,12.54-15.59,21.99-19.89,2.24-1.02,4.38-1.02,6.66-.28,3.53,1.14,6.63,2.99,9.14,5.68,2.86,3.06,5.7,6.17,8.28,9.48,3.64,4.65,5.6,10.05,5.32,15.98-.6,12.59-1.68,25.14-5.31,37.31-1.48,4.96-3.36,9.74-6.72,13.8-3.51,4.25-7.77,7.22-13.27,8.38-4.09.86-8.02.25-11.83-1.05-3.41-1.17-6.76-2.64-9.96-4.32-5.29-2.77-8.88-7.1-10.75-12.82-1.62-4.95-2.28-10.03-2.15-15.23ZM209.52,75.77c2.24-1.07,3.16-3.2,4.16-5.21,3.95-7.96,3.66-16.19,1.46-24.53-.77-2.93-2.91-4.24-5.6-4.97-3.89,9.35-3.91,27.61-.02,34.71Z"/>
  <path class="cls-1" d="M118.57,62.15c-.31,5-.09,9.36.04,13.73.09,2.86.2,5.73.05,8.59-.26,5.19-3.15,8.89-7.22,11.76-2.73,1.93-5.68,2-8.7.61-2.72-1.25-4.09-3.26-3.92-6.33.24-4.57.36-9.15.58-13.73.54-11.06,1.37-22.1,2.68-33.11.81-6.82,1.08-13.7,1.65-20.55.3-3.61.61-7.23,1.12-10.82.3-2.12,1.11-4.15,3.54-4.72,2.43-.57,4.12.82,5.28,2.64,3.08,4.82,6.12,9.68,8.92,14.67,3.93,6.99,7.71,14.06,10.01,21.82.46,1.57.84,3.4,2.74,4.31,2.75-1.67,3.05-4.65,3.59-7.39.62-3.18.78-6.45,1.41-9.63.67-3.36,1.48-6.71,2.56-9.96,1.15-3.48,3.1-6.57,5.79-9.1,1.24-1.16,2.62-2.26,4.12-3.04,4.12-2.16,7.3-.73,8.04,3.8.65,3.94,1.13,7.98,1.08,11.96-.21,16.61-.54,33.23-1.09,49.84-.13,3.96-.85,8.01-2,11.81-2.24,7.39-7.1,8.84-12.88,3.71-8.29-7.34-16.22-15.1-22.1-24.64-1.1-1.79-2.34-3.48-3.56-5.19-.19-.27-.61-.37-1.74-1.01Z"/>
  <path class="cls-1" d="M345.77,248.33c1.7-2.11,3.06-3.9,4.52-5.6,1.11-1.29,2.28-2.57,3.56-3.69,1.31-1.14,2.97-.78,3.88.73.49.81.91,1.68,1.21,2.58,2.69,8.1,3.44,16.38,2.36,24.84-.05.38-.1.76-.22,1.12-.37,1.09-.77,2.48-2.04,2.44-.99-.04-2.23-.73-2.84-1.53-1.14-1.49-1.95-3.25-2.8-4.94-.65-1.3-1.17-2.66-1.78-4.08q-4.56,3.48-10.1,2.31c-.49,1.19-.83,2.5-1.54,3.58-.93,1.41-1.98,2.81-3.27,3.88-1.76,1.46-3.75,1.6-5.81.23-2-1.33-3.49-2.62-3.08-5.48,1.13-7.94,2.32-15.85,4.86-23.48.48-1.44.99-2.9,1.75-4.19,1.09-1.85,3.56-2.06,4.82-.37,1.12,1.51,1.95,3.26,2.82,4.94,1.12,2.15,1.94,4.48,3.71,6.72Z"/>
  <path class="cls-1" d="M305.26,208c.74-4.51,1.35-9.05,2.27-13.52.8-3.9,3.07-6.47,7.36-6.82,1.1-.09,2.16-.62,3.24-.95,4.75-1.46,9.06.02,11.19,4.34,2.88,5.84,3.71,12.01,1.6,18.33-1.61,4.83-4.67,8.71-8.39,12.1-5.68,5.16-13.78,1.98-15.67-4.4-.85-2.89-1.08-5.97-1.6-9.08ZM319.64,206.41c.17-.08.36-.13.5-.25.96-.8,1.28-2.23.65-2.94-.1-.11-.33-.19-.46-.15-1.22.35-.99,1.41-1.03,2.29-.01.34.22.7.34,1.05Z"/>
  <path class="cls-1" d="M303.48,164.5c2.12,2.54,1.84,5.53.85,8.48-2,5.95-8.26,8.73-14.24,6.69-6.61-2.25-10.87-5.6-9.93-15.65.33-3.59.87-7.19,1.71-10.7,1.55-6.48,8.32-11.51,14.73-11.32,3.31.1,5.89,1.36,7.49,4.34.81,1.51,1.51,3.09,2.46,4.51,2.5,3.73-1.08,10.05-5.65,11.22-1.85.48-3.39-.33-4.61-1.63-1.28-1.37-2.42-2.87-3.65-4.36-1.97,2.83-2.07,3.43-1.59,9.2,4.05-.66,8.07-2.06,12.43-.78Z"/>
  <path class="cls-1" d="M277.58,130.13c2.46.02,4.42,1.45,5.1,3.81.79,2.74.33,5.31-1.34,7.62-3.17,4.37-9.22,4.01-11.92-.67-.93-1.61-.89-3.3-.29-4.97,1.18-3.34,4.85-5.82,8.45-5.79Z"/>
</svg>