<?xml version="1.0" encoding="UTF-8"?>
<svg id="Layer_1" data-name="Layer 1" xmlns="http://www.w3.org/2000/svg" viewBox="0 0 173.83 58.2">
  <defs>
    <style>
      .cls-1 {
        stroke-width: 0px;
      }
    </style>
  </defs>
  <path class="cls-1" d="M40.53,33.87c-.37-.6-1.23-.64-1.92-.56-4.51.44-10.3,2.94-12.47-1.01-1.42-3.39-1.21-9.83,3.67-9.76,9.06,2.72,33.07-5.52,36.11,3.42.85,3.02-.15,7.46-3.75,8.09-2.9.9-6.2-.54-7.93,2.01-2.07,3.02-1.81,9.9-6.35,14.76-2.54,2.7-6.29,4.39-9.83,4.88C-8.82,60.93-16.07-4.7,37.1.27c3.92.37,7.11,1.05,10.7,1.76,6.29,1.29,11.62,5.67,10.36,11.57-.81,4.25-4.42,5.96-8.31,6.83-17.41,4.69-14.82-9.25-26.72-5.88-5.98,1.86-9.74,8.36-8.26,14.5,2.38,15.04,25.93,23.83,25.74,4.94l-.08-.13Z"/>
  <path class="cls-1" d="M88.92,58.1c-42.13-.24-10.51-71.07,22.76-53.74,20.98,8.46,14.54,34.75-.29,46.37-6.09,5.02-14.08,8.02-22.26,7.38h-.21ZM106.56,26.4c-.7-23.06-26.16-3.5-20.13,12.25,1.96,5.08,7.68,4.78,11.83,2.13,4.75-2.81,9.01-8.54,8.32-14.21v-.17Z"/>
  <path class="cls-1" d="M153.94,29.78c-.27-.3-.63-.44-1.03-.5-1.64-.16-3.9.03-6.29.24-2.56.23-5.3.5-7.77.51-3.41.1-9.23-.73-7.66-5,2.49-3.57,13.54-1.81,19.24-2.58,2.89-.2,4.1-1.44,4.62-4.23.37-1.56,1.14-2.06,2.93-2,4.08.13,11.78,3.51,15.08,5.08,1.37.54.65,1.43-.22,2.15-3.94,3.38-9.16,5.48-12.76,9.44-2.27,2.49-4.26,2.21-5.37-1.53-.17-.51-.36-1.07-.67-1.47l-.1-.11Z"/>
</svg>