<?xml version="1.0" encoding="UTF-8"?>
<svg id="Layer_1" data-name="Layer 1" xmlns="http://www.w3.org/2000/svg" viewBox="0 0 330.28 54.1">
  <defs>
    <style>
      .cls-1 {
        stroke-width: 0px;
      }
    </style>
  </defs>
  <path class="cls-1" d="M26.98,29.42c-.51,1.51-.9,3.07-1.56,4.51-.66,1.45-1.4,2.95-2.44,4.13-1.22,1.37-2.73.86-3.17-.95-.27-1.1-.3-2.26-.32-3.4-.06-4-.03-8-.12-11.99-.03-1.3-.13-2.67-1.4-3.6-1.78.36-2.21,1.8-2.55,3.14-.74,2.86-1.3,5.76-1.96,8.63-.62,2.69-1.19,5.39-1.93,8.05-.38,1.36-.99,2.69-1.7,3.91-1.07,1.85-2.67,2.99-4.95,2.7-2.13-.27-3.6-1.62-4.06-3.55-.56-2.37-.93-4.88-.8-7.3.34-6.7,2.1-13.15,4.06-19.53.8-2.61,2.05-5.1,3.21-7.59.43-.93,1.13-1.77,1.84-2.53,3.42-3.69,7.89-3.38,10.51.9,1.34,2.17,3.2,3.66,5.24,5.39.69-1.23,1.17-2.37,1.91-3.32,1.51-1.94,2.93-4.04,4.79-5.6,2.81-2.36,5.78-1.75,7.25,1.6,1.24,2.83,2.09,5.94,2.52,9.01,1.12,8.07.69,16.16-.53,24.19-.3,1.95-.83,3.94-1.66,5.73-1.77,3.82-5.71,4.23-8.13.78-1.1-1.57-1.72-3.59-2.16-5.5-.59-2.56-.8-5.21-1.17-7.82-.24,0-.48,0-.72,0Z"/>
  <path class="cls-1" d="M315.38,33.63c.41-2.43.76-4.88,1.25-7.29.92-4.47,2.81-8.49,5.92-11.86,1.23-1.33,2.54-2.82,4.61-2.26,2.2.59,2.75,2.63,2.91,4.5.23,2.54.29,5.16-.02,7.68-.71,5.66-1.65,11.3-2.61,16.93-.3,1.76-.79,3.55-1.55,5.16-1.34,2.84-4.14,4.2-7.12,3.26-1.93-.61-3.86-1.69-5.4-3-1.86-1.59-3.35-3.63-4.94-5.52-2.45-2.91-4.83-5.88-7.29-8.79-.72-.85-1.61-1.56-2.42-2.32-1.75.89-2.16,2.45-2.46,3.88-.72,3.44-1.22,6.93-1.79,10.39-.08.47-.07.95-.13,1.42-.48,3.8-2.71,5.71-6.56,5.62-1.95-.05-3.31-1.07-3.6-2.99-.16-1.1-.21-2.35.14-3.38,2.66-7.91,3.68-16.12,4.79-24.33.19-1.4.51-2.83,1.04-4.13.95-2.38,2.88-3.36,5.31-2.52,1.58.54,3.18,1.4,4.4,2.53,2.08,1.93,3.92,4.14,5.77,6.31,3.08,3.6,6.09,7.27,9.13,10.91.21-.06.43-.13.64-.19Z"/>
  <path class="cls-1" d="M166.21,41.63c2.3-.21,4.47-.44,6.64-.59,1.04-.07,2.1-.07,3.14.03,2.09.2,3.15,1.32,3.02,3.39-.16,2.6-.88,5.06-2.49,7.19-1.17,1.54-2.79,2.5-4.65,2.46-5.41-.12-10.85-.22-16.22-.79-3.33-.36-4.65-2.05-4.63-5.16.06-9.9.02-19.83,1.96-29.6.39-1.94,1.02-3.87,1.79-5.7,1.07-2.53,3.09-3.94,5.89-3.56,4.43.6,8.83,1.39,13.24,2.12,1.47.24,2.3,1.18,2.77,2.57.67,2.01,1.17,4.02.63,6.15-.75,2.94-2.47,4.37-5.51,4.34-1.23,0-2.45-.27-3.67-.44-2.17-.3-2.7.08-3.04,2.28-.09.56-.12,1.14-.09,1.71.09,1.75.58,2.2,2.34,1.95,1.79-.25,3.55-.72,5.34-.94,3.19-.4,4.18.64,3.83,3.86-.4,3.76-2.37,5.38-6.16,5.05-.57-.05-1.13-.16-1.7-.19-2.93-.17-3.42.52-2.43,3.88Z"/>
  <path class="cls-1" d="M268.53,34.21c.42-1.01.94-1.99,1.23-3.04.61-2.2,1.03-4.46,1.67-6.65,1.16-3.99,2.96-7.65,6.02-10.55.96-.91,2.03-1.77,3.2-2.35,2.25-1.12,3.77-.05,3.69,2.43-.02.47-.13.94-.21,1.41-1.34,7.9-3.19,15.68-5.99,23.2-.86,2.31-1.99,4.53-3.18,6.7-.67,1.24-1.58,2.4-2.58,3.39-2.91,2.9-5.95,2.76-8.58-.39-1.1-1.31-1.96-2.81-2.98-4.19-.77-1.05-1.61-2.05-2.77-3.51-.68,1.4-1.22,2.34-1.6,3.34-.68,1.78-1.14,3.65-1.93,5.37-1.02,2.23-2.58,2.39-4.18.53-2.03-2.36-3.1-5.24-3.94-8.18-1.23-4.3-2.32-8.65-3.55-12.95-.92-3.2-1.87-6.4-3-9.53-.62-1.72-.75-3.28.21-5.15,1.18-.12,2.49-.34,3.79-.36,4.8-.05,6.92,1.58,8.19,6.26.37,1.38.65,2.78.95,4.18.29,1.36.56,2.72.93,4.52.9-.97,1.43-1.59,2.02-2.15,2.38-2.31,5.44-2.14,7.39.56.94,1.29,1.51,2.85,2.26,4.28.61,1.16,1.06,2.48,2.93,2.83Z"/>
  <path class="cls-1" d="M59.36,38.82c1.34-10.85,2.68-21.7,4.02-32.55.15-1.22.19-2.46.39-3.68.32-1.95.63-2.16,2.64-2.15,10.51.06,18.36,7.18,19.41,17.88.61,6.23-.24,12.33-2.46,18.22-3.38,8.99-10.54,11.66-20.14,10.13-2.45-.39-3.52-1.87-3.69-4.4-.07-1.14-.01-2.28-.01-3.42-.06,0-.11-.02-.17-.03ZM69.61,34.34c2.41-2.31,3.68-5.13,4.62-8.12.77-2.46.32-3.25-2.09-4.03-.6-.19-1.25-.25-2.14-.41-.41,4.28-1.15,8.35-.38,12.55Z"/>
  <path class="cls-1" d="M88.81,37.06c.88-9.2,1.76-18.48,2.66-27.75.09-.94.32-1.88.56-2.79.51-1.96,1.26-2.61,3.26-2.19,5.94,1.25,11.54,3.32,15.85,7.86,3.87,4.07,5.21,9.06,4.49,14.49-1.05,8.02-4.92,14.51-11.43,19.35-2.56,1.9-5.39,3.22-8.67,3.24-3.53.03-5.6-1.53-6.19-5.02-.39-2.33-.36-4.72-.53-7.19ZM99.94,23.28c-.78,5.01-1.5,9.62-2.25,14.47,6.37-2.78,7.37-9,2.25-14.47Z"/>
  <path class="cls-1" d="M133.59,38.29c2.21-.59,3.83-1.18,5.51-1.44,1.86-.29,3.79-.54,5.64-.35,2.28.23,3.43,1.91,3.37,4.21-.15,5.52-4.77,10.16-10.25,10.11-2.94-.03-5.9-.21-8.82-.54-1.59-.18-3.17-.67-4.68-1.24-4.99-1.89-6.66-4.25-6.16-9.57.63-6.63,1.63-13.23,2.45-19.84.34-2.74.63-5.49.96-8.23.15-1.21.36-2.41.58-3.85,3.43.06,6.63.2,9.66,1.45,2.58,1.06,3.58,2.93,3.22,6.01-.33,2.84-.91,5.64-1.21,8.48-.36,3.41-.61,6.83-.76,10.25-.06,1.38.28,2.78.48,4.54Z"/>
  <path class="cls-1" d="M191.23,13.35c6.27,0,12.55-.02,18.82,0,2.31,0,4.19,1.54,4.63,3.91.57,3.05.33,6.08-.77,9.01-.82,2.17-2.37,3.36-4.76,3.45-1.61.06-3.24.18-4.83.47-1.98.36-2.44.84-2.52,2.86-.15,3.52-.14,7.05-.19,10.57-.03,1.81.03,3.63-.11,5.43-.18,2.35-1.48,4.01-3.81,4.4-2.13.36-4.36.57-6.5.36-2.49-.24-3.47-1.76-3.04-4.21.29-1.68.87-3.31,1.28-4.98,1.1-4.43,2.19-8.87,3.28-13.3.09-.37.15-.75.18-1.13.44-4.44-.1-4.73-3.91-4.25-.75.09-1.53.02-2.28-.08-2.52-.34-3.48-1.41-3.59-3.95-.02-.57.02-1.14.08-1.71.65-5.89,2.12-7.19,8.03-6.85Z"/>
  <path class="cls-1" d="M239.77,34.34c-.28,6.12-2.78,11.49-8.04,15.35-4.96,3.65-9.97,2.47-12.98-2.88-1.25-2.21-1.76-4.6-1.78-7.12-.06-5.67.96-11.19,2.47-16.62.95-3.43,2.86-4.79,6.5-4.68,4.59.13,8.23,2.15,10.87,5.9,2.04,2.9,2.81,6.21,2.97,10.05ZM226.94,41.62c2.3-1.8,4-7.24,2.89-9.52-.26-.55-1.12-1.15-1.68-1.12-.58.03-1.47.69-1.61,1.23-.37,1.36-.5,2.81-.52,4.23-.02,1.75-.21,3.59.92,5.18Z"/>
  <path class="cls-1" d="M46.16,12.54c0-2.47,0-4.94,0-7.41,0-2.11.36-2.62,2.31-3.38,5.8-2.28,8.87-.4,9.06,5.86.32,10.6-.81,21.09-3.2,31.41-.49,2.1-1.46,4.11-2.43,6.05-.71,1.41-1.98,2.41-3.7,2.2-1.69-.21-2.62-1.46-3.2-2.94-1.09-2.76-.75-5.62-.52-8.46.63-7.77,1.29-15.53,1.93-23.3-.09,0-.17-.02-.26-.02Z"/>
</svg>