<?xml version="1.0" encoding="UTF-8"?>
<svg id="Layer_1" data-name="Layer 1" xmlns="http://www.w3.org/2000/svg" viewBox="0 0 292.97 244.38">
  <defs>
    <style>
      .cls-1 {
        stroke-width: 0px;
      }
    </style>
  </defs>
  <path class="cls-1" d="M15.3,211.23c-.07-6.27.05-12.64.98-18.97,1.31-10.63,5.3-21.06,16.71-23.55,7.9-1.81,16.87-2.31,24.06,1.31,4.16,2.09,7.73,5.17,11.04,8.41,6.82,5.93,14.49,19.94,24.83,17.21,4.66-1.38,8.31-6.91,10.29-11.84,2.77-6.1,1.93-14.72,6.79-19.48,3.58-3.55,10.12-4.49,14.93-2.66,15.32,5.89,13.87,40.43,12.26,54.11-.94,5.98-1.39,13.89-7.24,17.08-6.86,2.98-15.29.48-22.21-1.38-17.11-5.18-30.25-19.11-47.24-24.51-12.07-2.48-11.82,14.67-14.56,22.58-1.2,4.2-3.07,8.3-6.43,11.17-5.85,5.28-15.79,5-20.3-1.67-5.07-8.05-3.33-18.5-3.91-27.61v-.2Z"/>
  <path class="cls-1" d="M157.48,165.56c1.82-15.78,42.99-7.52,50.88.14,10.65,9.04,12.04,13.42,27.53,10.05,12.29-2.34,15.34-16.3,27.25-19.87,7.27-2.71,34.68-.92,29.1,11.41-1.24,2.5-3.55,4.51-5.79,6.22-6.89,5.1-14.46,9.44-21.95,13.65-5.34,3.09-11.43,5.92-14.12,11.25-3.69,7.65-.62,17.07-3.64,24.86-1.28,3.41-3.94,5.67-7.56,6.63-3.7.98-7.68.94-11.5.99-11.29.24-19.88-2.82-21.86-14.65-1.33-6.45-.64-13.75-4.29-19.47-2.49-3.96-6.69-6.51-10.72-8.75-8.15-4.46-16.53-8.64-24.58-13.27-3.47-2.14-8.31-4.64-8.74-9.05v-.14Z"/>
  <path class="cls-1" d="M26.6,26.92c0,2.7.4,10.99,3.59,9.97,1.21-.54,2.26-3.22,2.85-6.45.68-3.69,1.26-7.53,2.85-10.8,4.75-9.8,14.19-7.93,16.69,2.15,3.73,16.08,6.2,42.97-2.65,57.45-2.63,4.09-7.71,7.52-12.38,5.03-10.05-6.17-.67-21.84-6.39-26.97-5.29-2.46-7.04,7.99-7.67,11.65-.97,5.73-3.64,13.5-10.48,12.69-11.65-3-10.46-18.63-9.56-28.14,1.03-9.74,2.19-19.46,3.62-29.1.44-2.79.97-5.64,2.03-8.22,1.81-4.73,6.41-9.15,11.49-6.94,5.61,2.71,5.94,11.67,5.99,17.49v.2Z"/>
  <path class="cls-1" d="M258.59,41.96c.75-1.43-2.53-4.79-5.05-7.34-4.28-4.07-9.08-7.89-12.4-12.64-11.97-16.51,11.88-32.24,21.31-13.43,5.22,10.79,8.71,22.41,12.92,33.59,1.09,3.15,2.39,6.54,2.68,9.82.67,5.48-3.46,8.66-8.65,7.79-10.49-1.89-21.1-11.99-29.12-18.81-2.55-2.16-5.45-5.08-8.69-5.82-4.11-.4-2.85,3.99-.24,6.3,4.54,4.08,12.1,5.86,15.11,11.76,5.18,8.51-.13,18.44-9.44,20.48-9.58,2.27-13.56-6.27-14.48-14.33-1.02-8.2-2.86-16.29-4.98-24.29-1.15-5.07-3.26-10.95-2.72-16,.65-6.22,6.87-6.32,11.2-3.68,9.25,5.62,16.05,14.49,24.31,21.36,1.87,1.63,4.04,3.54,6.11,4.69,1.02.56,1.75.77,2.08.57l.04-.02Z"/>
  <path class="cls-1" d="M98.58,18.41c1.5-1.5,3.94-2.22,6.64-2.31,10.64-.29,21.24,5.41,26.54,14.82,4.21,8.41,6.21,18.16,5.88,27.56-1.05,11.9-9.86,23.61-21.59,26.72-6.33,1.62-16.05,2.02-19.91-3.91-2.78-4.63-.45-10.67.34-16.14,1.17-7.19,1.43-14.51,1.25-21.82-.12-4.09-.41-8.17-.8-12.24-.34-4.69-1.46-9.3,1.53-12.55l.11-.11ZM122.26,55.68c-.24-6.28-.88-13.58-4.6-18.83-2.57-3.25-5.85-1.89-6.81,1.81-1.49,6.14-.52,12.65-.86,18.93.07,4.23-1,10.57.51,13.68,1.14,2.57,4.19,1.83,5.92.17,4.27-3.82,5.75-9.98,5.83-15.55v-.22Z"/>
  <path class="cls-1" d="M74.71,63.21c2.26-.73,2.6-5.79,2.81-9.41.6-10.15-3.26-20.5-1.78-30.56.51-3.71,3.41-8.14,7.38-7.53,5.6.86,8.07,7.85,9.23,12.82,2.84,12.78,2.23,26.25-1.21,38.86-2.71,10.41-10.35,18.58-21.2,19.63-16.76,1.29-12.32-12.71-10.56-23.6,1.33-10.32,1.88-20.93.32-31.22-.58-5.05-3.15-13.09,1.42-16.57,1.11-.72,2.49-.79,3.8-.16,3.48,1.74,4.77,6.25,5.61,9.86,1.99,8.99,1.94,18.37,1.84,27.54.14,2.64-.23,9.18,2.3,10.33h.06Z"/>
  <path class="cls-1" d="M179.3,49.36c.18-8.87.89-23.03,7.01-29.54,6.83-6.93,16.74-2.11,21.25,5.07,10.17,14.42,15.01,52.6-9.19,55.23-17.27.92-18.42-17.62-19.07-30.56v-.21ZM196,41.87c-2.93,1.39-2.52,14.54-.24,16.6.92.57,1.42-.9,1.69-1.76,1-3.24,1.32-12.81-1.37-14.83h-.08Z"/>
  <path class="cls-1" d="M129.83,148.61c-10.42.54-15.79-13.38-25.82-13.98-4.1-.31-9.01,1.41-12.21,4.11-4.15,3.27-5.22,9.23-9.04,12.7-3.76,3.43-9.05,4.44-13.93,5.29-12.58,1.8-14.32-3.71-7.24-12.91,6.72-9.87,10.43-21.47,15.61-32.19,2.48-4.84,5.69-11.15,11.63-11.83,8.03-.9,18.83,13.3,24.67,18.73,5.04,5.24,9.65,10.87,13.85,16.8,2.56,3.7,8.87,11.42,2.63,13.26l-.14.02ZM97.1,126.16c.38-.88-.08-2.17-1.03-3.72-1.17-1.87-2.7-3.99-4.08-5.73-.81-.86-1.56-2.19-2.79-2.07-1.03.26-1.18,3.31-1.2,6.15-.01,2.51-.06,5.27,1.06,6.5,1.5,1.89,6.9.76,7.99-1.01l.05-.12Z"/>
  <path class="cls-1" d="M175.71,41.09c.28,4.8-2.71,15.87-9.05,10.7-3.57-3.53-4.64-9.22-7.69-13.13-1.57-2.2-4.69-4.47-7.19-2.39-2.56,1.9-2.75,7.56-1.4,10.99,1.31,3.93,4.14,7.07,7.52,9.49,4.1,2.95,8.9,5.45,11.5,9.92,4.86,7.61-.02,16.71-8.44,18.6-6.9,1.82-14.83-1.89-17.7-8.5-1.97-3.81-1.35-10.36,3.96-9.32,3.32.63,6.65,4.21,9.44,5.38,1,.45,2.69.95,3.18-.33.21-2.21-1.77-3.63-4.27-5.07-3-1.58-6.51-2.61-9.33-4.56-5.82-3.81-7.67-11.15-8.21-18.33-.38-7.8-.42-16.44,3.83-23.27,4.55-7.14,14.87-9.94,22.05-5.43,8.39,5.11,11.71,15.65,11.8,25.06v.2Z"/>
  <path class="cls-1" d="M208.57,86.92c1.46-2.7,5.02-3.59,7.93-4.35,4.36-1.04,8.74-2.17,13.13-3.03,3.72-.68,8.18-1.15,11.34,1.25,1.45,1.11,2.33,2.93,1.76,4.65-2.1,5.27-10.53,3.6-14.6,6.12-2.05,1.18-2.93,3.18-2.72,5.76.58,4.73,2.82,10.54,7.67,12.35,3.46,1.39,8.51.61,11.73,2.35,2.77,1.24,4.54,4.92,2.25,7.41-1.82,2.21-6.17,2.68-8.4,4.14-2.29,1.36-2.24,3.99-.54,5.76,4.58,4.59,11.62,3.4,18.07,3.84,4.29.02,10.2,2.25,9.36,7.43-1.82,6.97-11.36,5.86-17.23,6.2-6.56,0-14.82.8-19.9-2.91-4.89-3.63-6.02-10.19-7.82-15.69-3.37-11.26-7.33-22.11-11.42-33.15-.92-2.49-1.79-5.9-.66-8l.06-.12Z"/>
  <path class="cls-1" d="M26.87,136.58c3.29.14,5.43-3.96,7.12-6.45,5.38-8.63,10.34-17.65,16.16-26.02,2.13-2.87,5.02-6.09,8.64-6.52,4.28-.38,6.13,3.8,5.38,7.88-1.1,5.83-5.14,10.8-8.35,15.68-6.98,10.14-13.83,20.4-21.76,29.88-2.42,2.77-5.68,6.67-9.51,6.37-4.13-.54-6.21-5.55-7.82-9.05-3.91-9.11-7.04-18.61-10.35-28.01-1.57-4.54-3.15-9.08-4.63-13.65-.89-2.77-1.84-5.83-1.75-8.65,0-6.34,6.55-8.67,10.53-3.87,1.83,2.11,2.88,5,3.72,7.69,2.62,8.72,4.85,17.6,7.35,26.34.98,2.92,1.95,7.43,5.15,8.37l.11.02Z"/>
  <path class="cls-1" d="M117.8,98.12c2.55-2.89,9.35-2.31,13.01-1.4,5.58,1.53,7.77,6.94,9.52,12.45,1.52,4.55,2.95,9.14,4.5,13.68,1.51,4.39,3.39,9,7.02,11.24,6.49,4.28,14.89-.89,21.73.83,2.89.72,5.18,3.73,4.74,6.63-1.21,6.43-10.06,5.68-15.35,6.5-6.31.44-13.6,2.7-18.85-1.02-2.96-2.13-4.51-5.79-6-9.06-4.82-10.94-11.02-21.4-17.59-31.5-1.4-2.47-4.09-5.44-2.79-8.27l.06-.09Z"/>
  <path class="cls-1" d="M276.31,88.48c2.01-2.59.35-9.22,2.25-13.39,1.2-4.51,8.08-9.92,11.13-4.1,1.63,3.69-.2,8.75-1.27,12.67-1.14,3.97-2.34,7.93-3,12.01-1.54,11.14.81,22.67,2.04,33.76.77,4.81,1.89,13.59-4.41,14.58-13.59-.08-3.42-37.6-18.34-49.7-4.07-4.06-9.34-7.03-13.58-10.82-6.8-6.59-1.62-9.96,5.23-6.15,4.45,2.38,8.51,5.48,12.55,8.45,2.44,1.74,5.81,4.12,7.33,2.74l.07-.06Z"/>
  <path class="cls-1" d="M172.54,90.96c2.09-2.97,7.58-2.99,10.48-1.17,2.03,1.21,3.27,3.35,4.11,5.58,3.42,9.85,4.96,20.56,9.71,29.9,2.3,3.86,6.03,5.19,10.8,4.95,5.28-.45,12.06-.13,10.76,6.98-1.42,7.11-9.62,8.09-15.69,7.96-5.45-.08-11.41.87-15.1-2.83-1.69-1.72-2.49-4.33-3-6.76-.71-3.51-1.4-7.04-2.3-10.5-2.2-8.77-5.62-17.31-8.87-25.72-.96-2.52-2.39-5.91-.97-8.28l.07-.11Z"/>
</svg>