<?xml version="1.0" encoding="UTF-8"?>
<svg id="Layer_1" data-name="Layer 1" xmlns="http://www.w3.org/2000/svg" viewBox="0 0 266.81 78.38">
  <defs>
    <style>
      .cls-1 {
        stroke-width: 0px;
      }
    </style>
  </defs>
  <path class="cls-1" d="M237.91,64.34c.22,1.32.5,2.63.66,3.95.31,2.51-.47,3.8-2.9,4.46-2.83.76-5.69,1.41-8.56,2-2.12.44-4.88-1.64-5.35-4.06-.31-1.61-.41-3.26-.56-4.89-1.34-14.6-2.68-29.21-4.01-43.81-.41-4.56-.89-9.11-1.15-13.68-.2-3.48.89-5.05,4.25-5.88,2.6-.64,5.35-1.19,7.99-1.03,6.08.36,12.17.93,18.18,1.88,5.19.82,9.38,3.59,12.11,8.25,4.11,7.01,3.64,14.1-1.74,20.19-3.26,3.69-6.89,7.04-10.39,10.51-.82.81-1.78,1.47-3.02,2.47,2.11,1.63,3.72,2.95,5.4,4.15,4.39,3.14,8.87,6.16,13.2,9.37,1.49,1.1,2.82,2.51,3.91,4.01,1.52,2.07,1.01,4.03-1.23,5.33-1.1.64-2.34,1.12-3.58,1.42-4.44,1.09-8.88,2.19-13.37,3.07-3.75.73-5.02-.03-6.79-3.41-.79-1.51-1.58-3.03-2.36-4.54-.23.08-.47.17-.7.25ZM232.09,17.71c.85,3.68,1.54,6.65,2.34,10.09,3.32-2.05,6.22-3.74,6.79-8.09-2.98-.65-5.71-1.25-9.13-2Z"/>
  <path class="cls-1" d="M105.63,50c.5,4.29,1.12,8.57,1.46,12.87.23,2.91.25,5.87,0,8.78-.33,3.86-3.07,6.54-6.89,6.73-1.4.07-2.86-.72-4.28-1.15-.2-.06-.36-.29-.53-.45-3.55-3.28-3.37-3.28-3.4-8.34-.03-5.39-.51-10.77-.67-16.16-.38-13.36-.71-26.72-1.01-40.08-.03-1.39.1-2.84.45-4.18,1.13-4.26,6.08-6.32,9.82-4,1.56.97,2.93,2.34,4.14,3.75,3.01,3.51,4.87,7.7,6.64,11.93,2.02,4.85,4.19,9.64,7.04,14.48.42-1.38,1.06-2.73,1.23-4.13.61-5,1.02-10.02,1.58-15.03.34-3.02.52-6.11,1.31-9.02.49-1.8,1.7-3.67,3.13-4.87,2.63-2.21,5.98-.99,6.81,2.36.47,1.91.67,3.96.56,5.92-.7,11.93-1.53,23.86-2.33,35.78-.37,5.5-.75,10.99-1.19,16.48-.15,1.86-.31,3.76-.76,5.56-.98,3.94-3.93,5.43-7.84,4.04-2.61-.93-4.84-2.58-6.29-4.89-2.16-3.47-4.07-7.1-5.96-10.73-.96-1.84-1.67-3.83-2.49-5.75-.18.04-.36.07-.53.11Z"/>
  <path class="cls-1" d="M26.68,51.13c-1.59,0-2.74-.08-3.88.01-3.7.3-4.13.99-4.62,4.76-.5,3.93-1.22,7.86-2.22,11.7-.66,2.53-2.11,4.99-5.2,4.99-2.95,0-4.77-2.18-5.6-4.67-1.25-3.76-2.33-7.64-2.86-11.56C.61,44.15-.37,31.87.13,19.52c.08-2.11.29-4.21.44-6.32.02-.23,0-.48.07-.7.97-2.96,1.75-6,2.99-8.84C5.16.16,9.49-.49,12.55,2.11c1.69,1.43,2.66,3.35,2.84,5.5.29,3.61.39,7.24.49,10.87.04,1.52-.22,3.05-.2,4.57.04,5.58,2.7,7.63,8.9,6.45.11-1.69.29-3.52.35-5.35.12-3.75.05-7.51.31-11.25.24-3.64,2.18-6.4,5.3-8.25,3.56-2.1,7.43-1,9.16,2.75.82,1.78,1.34,3.77,1.64,5.72,2.18,14.17,3.26,28.44,2.94,42.77-.07,3.34-.92,6.72-1.85,9.97-.81,2.85-2.65,5.23-5.06,7.04-2.99,2.25-6.02,1.8-7.6-1.59-1.21-2.6-1.91-5.53-2.31-8.39-.52-3.7-.52-7.47-.78-11.81Z"/>
  <path class="cls-1" d="M65.44,50.35c.68-8.39,1.34-16.78,2.05-25.17.41-4.9.78-9.8,1.41-14.67.2-1.57.96-3.16,1.81-4.52,1.45-2.32,3.66-3.58,6.47-3.57,3.05,0,5.24,1.46,5.84,4.53.69,3.55,1.04,7.19,1.31,10.8.43,5.73.62,11.47.99,17.2.61,9.32-.22,18.51-2.33,27.58-.53,2.27-1.3,4.51-2.26,6.63-1.94,4.28-5.43,6.34-10.11,6.25-5-.1-9.73-1.28-14.19-3.59-3.4-1.76-5.38-4.5-5.77-8.27-.34-3.26-.58-6.54-.63-9.82-.23-15.36-.39-30.72-.55-46.07,0-.79-.02-1.84.44-2.33,2.35-2.47,4.85-4.85,8.5-5.12,2.81-.21,5.21,1.37,6.08,4.34.62,2.1.93,4.39.85,6.57-.4,10.66-.97,21.31-1.49,31.96-.12,2.43-.14,4.84.53,7.17.35.03.69.06,1.04.09Z"/>
  <path class="cls-1" d="M195.84,21.15c.55,5.75,1.07,11.3,1.63,17.13,1.65.14,3.26.26,4.87.41,4.02.36,4.78,1.1,5.16,5.19.17,1.87.28,3.75.26,5.62-.02,2.96-1.17,4.3-4.08,4.76-1.49.23-3.01.24-4.79.37-.25,1.09-.49,2.15-.83,3.65,1.89-.18,3.37-.34,4.85-.46,2.57-.22,5.14-.62,7.7-.57,3.67.06,5.62,2.09,5.7,5.73.05,2.1-.08,4.23-.35,6.31-.36,2.77-1.59,3.88-4.36,4.18-.93.1-1.87.06-2.81.03-5.73-.14-11.47-.27-17.2-.45-1.75-.05-3.55-.05-5.24-.42-5.05-1.12-7.52-4.07-7.32-9.23.21-5.5.96-10.98,1.28-16.47.71-12.17,1.54-24.34,1.85-36.52.14-5.67,1.87-9.33,9.29-7.04,4.28,1.32,8.52,1.33,12.86,1.1,4.59-.25,5.64.74,5.83,5.3.07,1.76.27,3.51.34,5.26.14,3.26-1.08,4.77-4.37,5.17-2.44.29-4.91.32-7.37.5-.91.07-1.8.27-2.89.44Z"/>
  <path class="cls-1" d="M166.3,26.11c0,5.04-.07,9.59.02,14.14.16,8.56.43,17.12.62,25.69.03,1.17,0,2.36-.23,3.5-.36,1.86-1.44,3.22-3.37,3.65-4.17.94-8.4,1.08-12.56.12-3.21-.74-4.34-2.4-3.97-6.02.55-5.48,1.4-10.93,2.07-16.4.79-6.4,1.53-12.8,2.28-19.2.05-.46.02-.94.01-1.41-.04-6.04-.31-6.34-6.2-6.84-8.19-.69-10-2.65-9.94-10.78,0-1.05.03-2.12.14-3.16.33-3.11,1.95-5.37,4.99-6.12,2.71-.67,5.53-.98,8.32-1.21.95-.08,2.31.29,2.87.97,1.47,1.78,3.32,1.57,5.16,1.45,3.4-.22,6.78-.58,10.17-.86,7.52-.61,9.54.94,10.41,8.37.34,2.9.43,5.86.29,8.78-.19,4.02-2.44,5.88-6.45,5.7-1.39-.06-2.78-.21-4.61-.35Z"/>
</svg>