<?xml version="1.0" encoding="UTF-8"?>
<svg id="Layer_1" data-name="Layer 1" xmlns="http://www.w3.org/2000/svg" viewBox="0 0 246.02 172.98">
  <defs>
    <style>
      .cls-1 {
        stroke-width: 0px;
      }
    </style>
  </defs>
  <path class="cls-1" d="M214.26,22.66c.64-2.02,1.39-4.01,1.89-6.06.55-2.28.84-4.63,1.31-6.94.31-1.53.58-3.12,1.18-4.54.52-1.22,1.27-2.52,2.28-3.33,4.78-3.86,13.06-1.12,14.57,4.81.45,1.78.61,3.69.62,5.53.08,9.32.08,18.64.09,27.95,0,1.17-.03,2.36-.2,3.52-.68,4.49-3.24,6.74-7.77,6.83-4.16.08-7.94-1.18-11.33-3.54-1.6-1.12-3.04-2.48-4.6-3.66-4.22-3.19-8.46-6.35-12.72-9.48-.51-.38-1.17-.57-2.13-1.03-.14,1.34-.33,2.38-.34,3.41-.03,3.04.05,6.08,0,9.12-.03,1.66-.09,3.35-.41,4.97-.61,3.06-2.55,5.08-5.58,5.82-3.1.77-5.6-.44-7.52-2.86-2.17-2.75-2.75-6.04-2.89-9.41-.3-7.15-.52-14.3-.74-21.46-.11-3.53-.15-7.06-.25-10.59-.08-3.1,1.25-5.45,4.15-6.44,3.13-1.08,6.37-1.95,9.63-2.49,3.27-.53,5.96,1.07,7.94,3.6,3.39,4.31,6.67,8.72,9.96,13.12.75,1.01,1.38,2.11,2.06,3.17.27,0,.54-.01.82-.02Z"/>
  <path class="cls-1" d="M224,97.43c.56.91,1.05,1.77,1.61,2.58,1.72,2.51,3.61,4.92,5.17,7.53,1.21,2.04,2.3,4.24,2.94,6.51.81,2.88-1.05,5.08-4.05,5.29-2.46.17-4.48-.93-6.32-2.4-3.44-2.73-6.02-6.21-8.47-9.81-.55-.8-1.11-1.59-1.67-2.38-.16.08-.32.16-.48.24.27,1.9.59,3.78.79,5.69.21,2.02.48,4.05.39,6.06-.18,4.13-3.63,6.59-7.52,5.2-1.85-.66-3.54-1.93-5.06-3.21-.64-.54-.87-1.79-.96-2.75-.67-7.16-1.28-14.34-1.85-21.51-.51-6.44-.97-12.88-1.39-19.33-.11-1.65-.18-3.33.01-4.97.51-4.37,3.11-6.81,7.53-6.96,2.01-.07,4.06.16,6.05.5,4.77.81,9.27,2.46,13.37,5.06,2.75,1.75,5.12,3.92,7,6.61,4.75,6.83,3.64,14.19-2.97,19.29-1.23.95-2.59,1.73-4.11,2.74ZM213.46,86.07c1.47-1.11,2.12-2.04,1.72-3.32-.34-1.1-1.2-1.7-2.74-1.69.33,1.62.63,3.07,1.02,5.01Z"/>
  <path class="cls-1" d="M146.22,7.4c8.11-.24,10.24,1.39,12.46,8.56,2.58,8.35,5.35,16.63,7.98,24.96.68,2.15,1.26,4.33,1.72,6.54.51,2.5-.57,4.42-2.67,5.75-3.16,2-6.48,2.09-9.85.58-3.06-1.37-5.36-3.62-7.09-6.44-1.02-1.67-1.97-3.4-2.85-5.15-.6-1.2-1.46-1.78-2.8-1.7-2.65.15-5.29.28-7.94.42-1.27.06-1.9.8-2.24,1.96-.65,2.26-1.36,4.51-2.05,6.76-1.56,5.06-5.34,7.31-10.28,7.97-3.51.46-6.13-1.36-6.34-4.86-.2-3.3-.22-6.74.5-9.93,1.23-5.44,2.94-10.79,4.74-16.07,1.42-4.18,3.32-8.19,4.95-12.3,1.54-3.89,4.29-5.9,8.51-6.1,4.61-.22,9.21-.65,13.25-.94Z"/>
  <path class="cls-1" d="M22.95,39.1c-.09,1.29-.18,2.36-.23,3.42-.16,3.33-.23,6.68-.48,10-.27,3.52-1.48,6.6-5.12,7.91-3.8,1.37-7.12.21-10.1-2.3-1.03-.87-2.1-1.71-3.21-2.48-1.17-.81-1.1-1.94-1.08-3.15.14-7.95.27-15.9.34-23.85.02-2.45-.2-4.91-.26-7.36-.15-5.42,1.83-8.08,7.05-9.24,2.2-.49,4.45-.91,6.69-.99,9.72-.35,19.44-.65,29.13.44,2.22.25,4.49.71,6.57,1.51,5.58,2.12,7.68,7.67,5.06,13.04-2.27,4.66-6.11,7.6-10.79,9.53-4.22,1.74-8.66,2.52-13.19,2.85-2.45.17-4.9.23-7.36.37-.95.05-1.9.19-3.03.3Z"/>
  <path class="cls-1" d="M152.71,101.43c1.83-3.27,2.71-6.45,3.07-9.76.43-4.03.6-8.09,1.07-12.12.24-2.09.65-4.22,1.41-6.17,1.65-4.27,5.92-4.9,8.97-1.46,1.72,1.94,2.47,4.36,2.83,6.81.66,4.46,1.23,8.95,1.53,13.45.45,6.64.21,13.28-1.45,19.78-.36,1.42-.81,2.84-1.37,4.2-1.9,4.66-5.48,7.14-10.43,7.38-10.15.49-14.89-3.43-18.31-10.49-3.02-6.23-4.35-12.9-5.29-19.68-.68-4.93-1.35-9.86-2.04-14.79-.4-2.86,2.5-7.79,5.2-8.76,2.18-.78,4.19-.2,5.46,1.55,1.38,1.91,2.67,4.05,3.29,6.29.95,3.44,1.3,7.05,1.91,10.59.49,2.9.88,5.83,1.51,8.7.34,1.59,1.02,3.13,2.64,4.46Z"/>
  <path class="cls-1" d="M105.44,98.01c-.04,7-1.88,13.49-5.77,19.33-3.3,4.94-7.89,7.98-13.87,8.58-7.68.78-14.04-4.41-15.37-12.38-.71-4.24-.38-8.46.26-12.67,1.26-8.29,3.72-16.16,8.32-23.26.4-.62.57-1.51.57-2.27,0-1.81.24-2.35,1.95-2.69,3.8-.74,7.53-.59,11.04,1.27,5.02,2.65,8.55,6.64,10.62,11.91,1.54,3.9,2.28,7.96,2.24,12.17ZM89.52,97.98c-.22-1.72-.32-3.38-.7-4.97-.16-.66-.91-1.63-1.43-1.65-.63-.03-1.38.71-1.93,1.26-.36.36-.52.97-.66,1.49-.85,3.18-.77,6.36.11,9.52.25.9.61,1.8,1.74,1.86,1.26.07,1.82-.8,2.02-1.85.35-1.89.58-3.8.85-5.65Z"/>
  <path class="cls-1" d="M13.51,109.06c-.2-4.24-.4-8.48-.61-12.72-.03-.55.02-1.19-.23-1.63-2.1-3.7-4.43-7.54-8.42-9.12-3.82-1.51-6.26-6.59-1.98-10.41.89-.79,1.89-1.48,2.9-2.12,1.87-1.19,3.84-1.29,5.76-.13,1.74,1.05,3.52,2.06,5.07,3.35,1.82,1.5,3.42,1.4,5.22.11,1.5-1.08,3-2.17,4.63-3.04,2.27-1.21,4.55-2.53,6.99-3.24,4.59-1.35,8.04,1.32,8.38,6.12.18,2.53-.49,4.81-2.2,6.64-2.01,2.15-4.18,4.16-6.3,6.21-.53.51-1.09,1.01-1.69,1.43-2.31,1.66-3,3.79-2.86,6.67.26,5.34.22,10.71-.06,16.05-.17,3.09-.81,6.22-1.72,9.19-.54,1.77-1.79,3.48-3.13,4.8-3.28,3.24-8.08,1.96-9.42-2.45-.47-1.56-.59-3.27-.63-4.91-.09-3.6-.03-7.2-.03-10.8.11,0,.21,0,.32,0Z"/>
  <path class="cls-1" d="M63.93,30.34c0-4.12.05-8.25-.01-12.37-.05-3.27,1.37-5.19,4.61-5.73,1.93-.32,3.9-.58,5.85-.58,4.26,0,6.63,2.01,7.16,6.24.44,3.5.52,7.05.8,10.57.19,2.45.43,4.89.7,7.33.27,2.48,1.7,3.91,4.15,4.26,2.33.33,4.67.63,7.01.87,5.14.54,7.13,2.45,7.6,7.62.16,1.74.15,3.55-.1,5.28-.34,2.31-1.59,3.57-3.92,3.71-7.64.46-15.29,1-22.94,1.02-5.41,0-8.45-2.64-9.41-7.98-.82-4.61-.95-9.35-1.28-14.05-.14-2.05-.02-4.12-.02-6.18-.07,0-.13,0-.2,0Z"/>
  <path class="cls-1" d="M32.58,150.21c0-4.34-.02-7.38,0-10.42.01-1.84-.04-3.7.17-5.52.21-1.85.97-2.4,2.81-2.25,2.99.25,5.79,1.03,8.16,3.04,5.3,4.51,8.77,10.02,9.04,17.1.14,3.48-.11,7-.56,10.46-.49,3.77-2.85,6.32-6.34,7.78-3.6,1.51-7.34,2.53-11.27,2.58-3.64.04-4.61-1.11-3.68-4.54.93-3.42,1.27-6.88,1.31-10.4.03-3.04.27-6.08.36-7.83Z"/>
  <path class="cls-1" d="M129.7,166.25c0,1.52.04,2.7,0,3.88-.07,1.68-.78,2.44-2.44,2.24-2.19-.26-4.39-.66-6.51-1.24-.56-.16-1.1-1.19-1.24-1.9-.32-1.62-.31-3.31-.57-4.95-1.06-6.74-2.16-13.48-3.25-20.22-.23-1.44-.91-3.07.79-3.98,1.63-.87,2.9.36,3.84,1.42,1.9,2.12,3.61,4.42,5.34,6.69.98,1.29,1.85,2.68,3.13,4.55.19-1.24.35-1.83.35-2.41-.03-2.95-.13-5.91-.15-8.86-.02-2.44.66-3.16,3.1-3.16,2.03,0,4.06.13,6.08.27,2.59.18,3.45.97,3.57,3.6.16,3.59.07,7.2.23,10.79.18,4.15.52,8.28.79,12.43.03.46.11.92.11,1.38,0,2.26-1.07,3.28-3.33,2.83-1.79-.35-3.52-1.06-5.26-1.66-1.45-.5-2.88-1.07-4.58-1.71Z"/>
  <path class="cls-1" d="M72.73,146.73c.53-1.15,1.05-2.3,1.59-3.45.39-.84.82-1.65,1.2-2.49,2.28-5.08,6.25-6.03,11.85-4.19,2.3.76,2.81,2.44,1.74,4.62-.24.5-.56.95-.84,1.43-4.11,6.89-8.21,13.79-12.33,20.67-.95,1.58-1.85,3.2-2.93,4.69-1.86,2.54-4.79,2.25-6.1-.63-3.55-7.81-7.06-15.64-10.49-23.5-.65-1.5-1.08-3.16-1.27-4.79-.27-2.29.71-3.41,2.96-3.86.99-.2,1.98-.46,2.98-.49,3.68-.09,6.41,1.51,7.98,4.87,1.08,2.33,2.05,4.7,3.07,7.06.2.02.4.04.61.05Z"/>
  <path class="cls-1" d="M13.36,163.81c-.18,1.45-.35,2.9-.55,4.35-.32,2.36-1.42,3.48-3.77,3.61-2.94.17-5.47-.94-7.38-3.1-.65-.73-1.01-2.03-.95-3.03.13-1.91.52-3.83,1.05-5.68,2.1-7.26,4.25-14.49,6.48-21.71.42-1.38,1.07-2.77,1.94-3.91,1.53-2,3.87-1.85,5.29.26.71,1.06,1.25,2.27,1.69,3.47,3.37,9.28,6.32,18.68,8.28,28.37.9,4.47-.99,6.21-5.47,5.15-2.08-.49-3.34-1.79-4.07-3.75-.53-1.42-1.17-2.8-1.76-4.19-.26.05-.51.11-.77.16Z"/>
  <path class="cls-1" d="M191.28,152.03c0-.96.02-1.92,0-2.88-.1-3.31-.37-6.63-.27-9.94.1-3.07,1.7-4.38,4.78-4.58,1.45-.09,2.53.39,3.2,1.69,3.59,6.92,5.13,14.2,3.51,21.94-.84,4.01-3.17,6.86-7.3,7.82-4.19.98-7.96.02-10.76-3.32-1.33-1.59-2.42-3.51-3.15-5.45-2.1-5.56-2.83-11.43-3.47-17.3-.07-.64-.04-1.29-.11-1.93-.23-2.11.15-2.59,2.25-2.75,3.09-.24,5.34.98,6.55,4.01.88,2.21,1.33,4.59,1.93,6.9.52,2.04.81,4.16,2.19,5.86.22-.02.44-.04.66-.06Z"/>
  <path class="cls-1" d="M101.08,149.09c.68.92.89,1.44,1.28,1.68.45.28,1.05.31,1.58.45,3.27.83,3.8,1.58,3.42,4.83-.4,3.45-1.33,4.21-4.83,3.93-.33,2.08-.22,2.28,1.58,2.45,1.19.11,2.4.04,3.59.17,2.08.23,2.71.89,3.02,2.93.03.18.04.37.06.55.5,5.31-1.41,7.23-6.68,6.53-4.11-.55-8.21-1.15-12.3-1.86-2.8-.49-3.56-1.66-3.13-4.48,1.23-8.2,2.47-16.4,3.72-24.6.19-1.27.5-2.33,1.63-3.32,1.42-1.24,2.72-1.55,4.48-1.16,2.43.53,4.92.75,7.35,1.27,2.94.62,3.63,1.72,3.22,4.72-.15,1.1-.3,2.2-.56,3.27-.54,2.19-1.5,2.9-3.74,2.83-.55-.02-1.1-.13-1.65-.17-.44-.03-.89,0-2.03,0Z"/>
  <path class="cls-1" d="M165.45,152.72c.53,3.84.99,7.76,1.61,11.65.85,5.27.84,5.35-4.48,6.06-1.37.18-2.75.41-4.12.44-1.63.04-2.05-.58-1.84-2.23.08-.62.19-1.28.09-1.88-.66-4.19-1.36-8.37-2.09-12.55-.39-2.25-.5-2.31-2.87-2.48q-5.05-.37-5.68-5.38c-.19-1.46-.45-2.92-.6-4.38-.22-2.17.55-3.05,2.73-3.26.37-.03.74-.04,1.11-.02,6.46.34,12.9.09,19.33-.66,2.93-.34,3.9.47,4.2,3.36.24,2.29.4,4.6.37,6.9-.03,2.23-.75,2.87-2.97,3.23-1.27.2-2.55.37-3.82.58-.16.03-.31.19-.99.63Z"/>
  <path class="cls-1" d="M217.36,148.62c.99,1.06,1.88,2.07,2.84,3.03,1.24,1.23,2.59,2.36,3.78,3.63,1.3,1.4,1.25,2.58-.27,3.75-1.95,1.51-3.93,3.16-6.69,2.08-.68,3.33-1.26,3.73-5.81,3.94-.52-1.22-1.22-2.5-1.64-3.88-1.55-5.11-3.02-10.24-4.49-15.37-.88-3.1-1.78-6.2-2.52-9.33-.66-2.76-.26-3.35,2.45-4.25,3.61-1.19,7.27-1.42,10.78.2,1.55.72,3.04,1.78,4.22,3.01,2.48,2.59,2.68,5.53.75,8.59-.97,1.54-2.16,2.93-3.4,4.59Z"/>
  <path class="cls-1" d="M236.43,149.36c.2.71.36,1.28.59,2.1,1.26-.5,2.34-.97,3.44-1.36,1.97-.69,2.99-.29,3.71,1.63.68,1.81,1.27,3.66,1.72,5.54.41,1.71-.23,2.71-1.98,2.96-4.1.58-8.22,1.09-12.34,1.46-2.01.18-2.89-.57-3.3-2.57-1.59-7.76-3.21-15.52-4.63-23.31-.83-4.56.87-6.54,5.5-6.89,1.65-.13,3.32-.16,4.96,0,.84.08,1.96.45,2.39,1.08,1.45,2.12,1.84,4.59,1.26,7.08-.14.59-1.12,1.13-1.82,1.42-.73.31-1.6.29-2.39.42-.05,2.33.05,2.43,1.9,2.18.18-.02.36-.09.54-.11,1.43-.18,3.31-.99,4.05.55.75,1.54.74,3.53.75,5.32,0,.56-.96,1.27-1.63,1.64-.77.43-1.71.57-2.72.87Z"/>
</svg>