<?xml version="1.0" encoding="UTF-8"?>
<svg id="Layer_1" data-name="Layer 1" xmlns="http://www.w3.org/2000/svg" viewBox="0 0 125.85 88.95">
  <defs>
    <style>
      .cls-1 {
        stroke-width: 0px;
      }
    </style>
  </defs>
  <path class="cls-1" d="M93.11,28.39c-4.66-5.46-25.19,2.56-32-6.3-3.26-4.07-3.79-10.82-1.63-15.13,1.38-3.03,4.49-4.74,7.97-5.21,5.22-.73,12.99-.6,19.19-1.09,18.01-.57,42.64-3.74,38.82,11.45-9.14,22.84-22.31,44.44-34.8,65.83-3.15,5.02-7.24,12.3-14.6,10.82-7.36-1.37-12.61-9.46-9.36-16.06,4.08-8.84,10.5-16.75,15.91-24.95,1.34-1.91,2.68-3.82,4.02-5.73,3.45-5.28,7.93-9.85,6.54-13.52l-.06-.1Z"/>
  <path class="cls-1" d="M17.46,64.73c5.9-5.17,3.21-16.59,3.29-23.62-.64-9.47-.71-18.25-11.34-11.26C-2.39,37.83-.36,24.67,1.19,17.76,2.92,10.15,6.17,4.88,13.85,3.05c2.8-.77,5.88-1.26,8.83-1.67,8.7-.81,19.12-3.5,22.01,4.84.92,3.16.56,6.84.22,10.16-1.42,12.61-3.31,25.24-3.32,37.88-.07,9.41,5.04,10.32,12.46,14.33,6.02,3.44,6.35,13.01.5,16.72-3.93,2.4-11.2,1.51-19.55,1.08-3.76-.22-7.62-.45-11.37-.76-6-.78-14.01-.6-18.17-4.53-2.62-2.85-1.37-7.98,2.47-10.83,2.85-2.21,6.64-3.13,9.41-5.42l.13-.11Z"/>
</svg>