<?xml version="1.0" encoding="UTF-8"?>
<svg id="Layer_1" data-name="Layer 1" xmlns="http://www.w3.org/2000/svg" viewBox="0 0 80.71 34.28">
  <defs>
    <style>
      .cls-1 {
        stroke-width: 0px;
      }
    </style>
  </defs>
  <path class="cls-1" d="M17.74,21.12c-1.34,3.94-1.66,5.92-6.85,2.97-.71,1.46-.72,2.99-.69,4.51.04,2.16-.47,3.99-2.61,5-2.26,1.07-4.4.85-6.47-.52-.92-.61-1.38-1.48-.99-2.46,1.29-3.26,1.11-6.7,1.43-10.07.42-4.35.78-8.71,1.21-13.05.09-.86.3-1.73.59-2.55,1.05-2.96,3.86-3.92,6.56-2.28,1.57.95,2.48,2.43,3.19,4.06.38.86.73,1.74,1.29,3.1.71-1.03,1.13-1.73,1.64-2.37,1.31-1.63,2.49-3.42,4.03-4.79,2.53-2.25,4.96-1.55,6.11,1.63.53,1.47.93,3.03,1.07,4.58.61,6.7,1.14,13.42,1.63,20.13.12,1.64.28,3.57-1.81,4.16-1.93.54-3.15-.9-4.06-2.27-1.2-1.82-2.11-3.82-3.14-5.74-.72-1.34-1.44-2.69-2.15-4.03Z"/>
  <path class="cls-1" d="M67.9,20.65c.27,2.11.52,3.92.72,5.73.1.87.16,1.74.14,2.61-.06,3.32-1.56,4.96-4.64,5.17-3.08.2-5.26-1.5-5.65-4.56-.89-6.93-1.7-13.87-2.57-20.81-.2-1.56-.54-3.1-.75-4.66-.3-2.23.32-3.4,2.55-3.8,2.03-.36,4.2-.48,6.22-.15,5.4.87,10.03,3.46,14.06,7.12.58.52,1.09,1.14,1.54,1.78,1.83,2.61,1.54,5.3-.79,7.54-1.96,1.89-4.42,2.76-7.01,3.33-1.18.26-2.38.44-3.82.7Z"/>
  <path class="cls-1" d="M41.28,25.48c.08,1.27.15,2.54.23,3.82.18,2.83-.45,3.72-3.2,4.03-1.64.18-3.33.18-4.97.03-1.69-.16-2.42-.94-2.28-2.61.6-7.23.41-14.56,2.49-21.6.51-1.75,1.21-3.49,2.09-5.08,1.78-3.22,4.22-3.68,7.16-1.39,2.88,2.24,5.02,5.13,6.61,8.39,2.68,5.48,3.93,11.4,5.13,17.32.46,2.24-.69,3.71-2.94,4.18-2.12.45-4.05-.04-5.53-1.63-.94-1.02-1.7-2.21-2.5-3.35-.54-.77-1.04-1.57-1.56-2.36l-.72.26Z"/>
</svg>