<?xml version="1.0" encoding="UTF-8"?>
<svg id="Layer_1" data-name="Layer 1" xmlns="http://www.w3.org/2000/svg" viewBox="0 0 212.92 110.72">
  <defs>
    <style>
      .cls-1 {
        stroke-width: 0px;
      }
    </style>
  </defs>
  <path class="cls-1" d="M126.49,80.18c.71-2.34,1.24-4.04,1.75-5.75,1.35-4.46,2.59-8.97,4.08-13.39,1.19-3.54,3.3-4.87,6.88-4.8,3.26.06,5.55,1.6,6.55,4.95.72,2.44,1.17,5.03,1.31,7.57.31,5.63-.12,11.22-1.45,16.74-1.45,6.02-2.76,12.08-4.16,18.11-.87,3.73-2.32,4.72-6.12,4.11-3.85-.62-7.2-2.42-10.37-4.6-3.82-2.63-6.84-6.04-9.59-9.72-1.65-2.21-3.31-4.43-5.09-6.54-1.08-1.29-2.38-2.38-3.9-3.87-.65,1.82-.34,3.18-.18,4.53.57,4.82,1.14,9.64,1.7,14.47.04.38.07.76.07,1.14.03,3.62-1.08,5.24-4.65,5.6-3.29.33-6.67.34-9.95-.02-3.45-.38-4.44-1.93-4.53-5.41-.16-6.28-.67-12.55-.07-18.84.69-7.2,1.11-14.43,1.73-21.64.33-3.9,3.1-6.08,6.92-5.23,1.99.45,4.06,1.31,5.68,2.53,3.49,2.63,6.76,5.56,10.01,8.49,2.97,2.68,5.73,5.58,8.69,8.27,1.24,1.13,2.75,1.96,4.7,3.31Z"/>
  <path class="cls-1" d="M202.02,94.94c.25,1.32.33,2.25.62,3.12,1.28,3.89-.58,7.97-4.52,10.04-3.11,1.63-6.46,2.17-9.94,2.22-3.23.05-6.45.26-9.68.32-2.37.05-4.78.2-7.12-.11-6.24-.83-10.46-4.3-12.42-10.33-2.02-6.21-3.34-12.48-2.14-19.08.82-4.49,1.14-9.09,2.96-13.34.78-1.83,1.68-3.63,2.65-5.37,1.54-2.75,3.8-4.66,6.78-5.83,7.26-2.87,14.66-4.77,22.56-3.74,5.6.72,9.14,3.66,10.69,9.22,1.53,5.51,1.75,11.07,1.5,16.71-.06,1.33-.58,2.36-1.72,3.1-4.04,2.64-9.39,1.05-11.15-3.41-.74-1.86-1.23-3.81-1.99-5.66-.57-1.4-1.22-2.82-2.12-4.01-1.54-2.06-3.72-2.51-6.13-1.67-3.11,1.09-5.28,3.14-7.03,5.93-3.89,6.22-3.93,13.01-3.26,19.9.32,3.35,2.14,4.77,5.55,4.95,2.95.16,5.9.32,8.84.31,2,0,3.2-1.01,3.65-2.61.42-1.51-.04-2.38-1.58-2.75-.83-.2-1.7-.2-2.54-.37-1.87-.37-2.48-1.22-2.38-3.24.09-1.95.88-2.95,2.61-3.16.65-.08,1.33,0,1.99.04,6.36.37,12.73.76,19.09,1.13.95.06,1.91.03,2.85.14,3.1.37,4.41,1.6,4.26,3.92-.17,2.64-1.57,3.82-4.66,3.82-1.14,0-2.28-.13-3.42-.17-.74-.03-1.48,0-2.81,0Z"/>
  <path class="cls-1" d="M21.1,70.16c.66-1.1,1.33-2.2,1.98-3.31,2.62-4.41,6.48-7.16,11.4-8.43,2.44-.63,4.92-.67,7.33.17,3.3,1.15,4.15,3.43,2.04,6.15-1.68,2.17-3.73,4.06-5.69,5.99-1.42,1.4-3.04,2.61-4.45,4.03-1.76,1.77-1.65,2.56.36,4.11,3.69,2.86,7.44,5.64,11.05,8.59,1.9,1.56,3.68,3.31,5.29,5.17,1.58,1.83,2.41,4.1,2.57,6.55.21,3.11-.87,5.65-3.6,7.26-2.78,1.63-5.64,1.61-8.37-.16-.95-.62-1.82-1.39-2.6-2.22-3.72-3.95-7.39-7.95-11.11-11.91-.91-.97-1.88-1.89-2.93-2.7-.97-.75-1.87-.39-2.28.7-.36.97-.55,2.02-.71,3.05-.41,2.54-.74,5.09-1.17,7.62-.19,1.12-.44,2.25-.81,3.32-1.19,3.42-3.46,5.01-6.85,4.93-3.6-.09-6.3-2.02-7.18-5.42-.45-1.73-.69-3.57-.71-5.36-.09-10.1-.14-20.19-.08-30.29.01-2.07.35-4.18.85-6.2.86-3.47,3.93-5.8,7.5-5.99,3.56-.19,6.53,2.26,7.08,6.08.27,1.87.12,3.8.2,5.7.03.8.15,1.6.23,2.39.22.06.44.11.66.17Z"/>
  <path class="cls-1" d="M163.55,23.12c-.9,2.07-.61,3.96-.26,5.79.55,2.9,1.34,5.75,1.86,8.65.47,2.61.97,5.26,1,7.9.03,3.88-1.88,5.94-5.66,6.76-.37.08-.75.12-1.13.18-5.43.82-7.76-2.96-7.24-7.36,1.18-10.04,1.73-20.11,2.14-30.19.07-1.62.15-3.24.42-4.84.5-2.98,1.78-5.51,4.98-6.32,3.34-.85,5.8.79,7.54,3.39,1.26,1.88,2.08,4.05,3.1,6.08.79,1.58,1.58,3.17,2.65,5.3,1-1.27,1.68-2,2.2-2.83,1.61-2.59,3.05-5.29,4.77-7.79,1.28-1.87,2.72-3.71,4.41-5.2,3.28-2.91,6.7-2.36,8.72,1.54,1.43,2.76,2.59,5.78,3.18,8.82,1.87,9.52,3.42,19.11,5.06,28.67.38,2.2.15,4.22-2.19,5.34-2.36,1.13-4.72,1.18-6.64-.69-1.41-1.37-2.59-3.04-3.6-4.75-1.7-2.86-3.03-5.95-4.8-8.76-1.14-1.82-2.63-3.49-4.24-4.91-1.49-1.32-2.22-1.11-3.75.18-4.24,3.56-5.22,3.4-8.48-1.19-1.01-1.42-1.63-3.28-4.02-3.77Z"/>
  <path class="cls-1" d="M118,43.09c0,.91,0,1.82,0,2.73,0,1.14.12,2.3-.03,3.42-.38,2.87-2.71,4.64-5.68,4.44-2.74-.18-4.5-1.96-4.62-4.84-.09-2.18-.13-4.39.04-6.56.43-5.7.81-11.4,1.54-17.06.63-4.9,1.71-9.75,2.62-14.61.46-2.44,1.87-4.2,4.23-4.98,5.83-1.92,11.78-2.57,17.66-.43,5.43,1.98,8.92,6.09,10.91,11.4,1.08,2.89.54,5.79-1.67,7.96-1.88,1.84-4.11,3.36-6.3,4.84-1.73,1.16-3.71,1.96-5.47,3.09-1.67,1.08-1.8,2.01-.57,3.53.95,1.18,2.13,2.18,3.14,3.32,2.08,2.35,4.27,4.62,6.13,7.14,1.84,2.48,1.07,4-2.01,4.52-2.94.49-5.73-.22-8.3-1.52-2.28-1.16-4.36-2.7-6.53-4.07-1.43-.9-2.86-1.8-4.3-2.69-.27.13-.53.26-.8.39ZM120.21,16.98c.52,3.89.77,7.24,1.62,10.49,4.76-.86,9.26-5.31,10.02-9.66.36-2.06-.27-2.94-2.44-2.66-2.97.39-5.9,1.15-9.2,1.82Z"/>
  <path class="cls-1" d="M37.89,21c-.39,2.52-.48,4.65-1.08,6.62-1,3.26-4.11,3.97-6.41,1.45-1.12-1.22-1.85-2.86-2.53-4.42-.75-1.74-1.15-3.64-1.85-5.4-1.5-3.74-4.17-6.34-8.01-7.64-2.59-.88-4-.23-4.92,2.33-1.57,4.36-1.44,8.54,2.21,11.85,2.67,2.42,5.59,4.56,8.47,6.74,1.82,1.38,3.86,2.48,5.6,3.94,3.46,2.89,4.63,6.67,3.63,11.05-.82,3.58-3.09,5.94-6.7,6.64-1.93.37-4.01.49-5.94.18-6.69-1.05-12.44-4.11-17.28-8.84-.88-.86-1.64-1.86-2.3-2.9-.75-1.16-1.14-2.48-.32-3.77.82-1.29,2.21-1.6,3.54-1.34,1.56.31,3.14.81,4.53,1.56,1.58.85,2.92,2.14,4.44,3.12,1.59,1.03,3.25,1.98,4.94,2.83.93.47,2.06.81,2.87-.24.78-.99.37-2.1-.26-2.92-.98-1.26-2.04-2.52-3.3-3.48-1.58-1.21-3.45-2.03-5.08-3.18C6.35,31.08,2.52,25.68,1.68,18.51c-.42-3.6.09-7.09,2.85-9.79,2.1-2.06,4.07-4.38,6.52-5.91,9.7-6.06,21.11-2,24.83,8.79,1.07,3.11,1.41,6.48,2.01,9.39Z"/>
  <path class="cls-1" d="M106.27,21.32c-.01,5.19-1.5,9.96-4.11,14.39-2.98,5.05-6.79,9.41-11.38,13.05-1.18.94-2.49,1.77-3.86,2.41-3.25,1.52-5.93.67-7.84-2.4-1.59-2.57-2.19-5.45-2.36-8.43-.15-2.56-.37-5.12-.36-7.68.01-2.56.03-5.16.48-7.66.69-3.83,1.62-7.64,2.73-11.37.62-2.06,1.79-3.96,2.76-5.9.98-1.96,2.74-2.85,4.81-3.13,5.37-.74,10.23.52,14.41,4,2.61,2.18,3.72,5.23,4.31,8.48.25,1.4.29,2.84.42,4.26ZM90.47,17.65c-1.51,3.07-4.65,14.7-4.74,17.73-.03.87.21,1.75.39,3.11,1.06-.75,1.79-1.05,2.22-1.59,3.68-4.63,5.64-9.91,5.68-15.83.01-2.27-.71-2.81-3.55-3.43Z"/>
  <path class="cls-1" d="M56.04,4.38c3.43,0,6.86-.06,10.29.03,1.61.04,3.25.21,4.81.58,2.52.6,4.11,2.28,4.78,4.81.78,2.96-.41,4.93-3.49,5.26-1.97.21-4,.06-5.98-.11-3.8-.34-4.24-.03-3.7,3.77,1.04,7.28,1.8,14.58.86,21.92-.32,2.53-.73,5.13-1.63,7.5-1.85,4.85-7.32,6.68-11.84,4.31-2.21-1.16-3.34-2.97-3.66-5.4-.61-4.7-.07-9.33.84-13.92.61-3.07,1.48-6.11,2.5-9.08.88-2.56.6-5.06.27-7.61-.16-1.23-.94-1.79-2.04-2.09-1.74-.48-3.48-.98-5.22-1.49-2.1-.61-3.11-2.05-3.2-4.21-.1-2.47,1.08-3.99,3.57-4.31,1.32-.17,2.66-.13,3.99-.14,2.95-.02,5.91,0,8.86,0,0,.07,0,.13,0,.2Z"/>
  <path class="cls-1" d="M60.23,91.65c.52-10.8.93-19.27,1.34-27.74,0-.19.04-.38.06-.57.59-4.76,1.42-5.49,6.14-5.41,5.79.1,8.17,1.76,9.6,7.41,2.55,10.05,3.52,20.26,2.21,30.61-.17,1.32-.43,2.64-.82,3.91-1.61,5.27-7.37,9.03-12.84,8.46-2.76-.29-4.39-1.58-4.72-4.48-.55-4.82-.79-9.67-.98-12.2Z"/>
</svg>