<?xml version="1.0" encoding="UTF-8"?>
<svg id="Layer_1" data-name="Layer 1" xmlns="http://www.w3.org/2000/svg" viewBox="0 0 350.64 88.25">
  <defs>
    <style>
      .cls-1 {
        stroke-width: 0px;
      }
    </style>
  </defs>
  <path class="cls-1" d="M205.27,39.74c-.49,1.93-.85,3.33-1.19,4.74-.35,1.45-.54,2.94-1.04,4.33-.88,2.49-3.04,3.05-4.92,1.19-1.1-1.08-1.92-2.48-2.71-3.83-.97-1.66-1.69-3.47-2.68-5.11-.71-1.19-1.58-2.33-2.58-3.28-1.21-1.15-2.25-.96-2.83.64-.62,1.7-1.18,3.56-1.15,5.33.1,5.51.5,11,.78,16.51.09,1.75.3,3.5.2,5.24-.27,4.93-3.72,8.97-8.48,10.17-1.94.49-3.63.29-4.93-1.43-3.16-4.19-5.56-8.54-5.19-14.15.65-9.78.86-19.59,1.43-29.37.29-4.89.87-9.76,1.49-14.62.5-3.9,1.95-7.44,4.84-10.26,5.32-5.2,12.33-4.83,16.88,1.04,1.43,1.85,2.44,4.03,3.65,6.05.89,1.48,1.54,3.16,3.6,4.11.71-.89,1.5-1.77,2.18-2.74,1.97-2.79,3.8-5.67,5.87-8.38,1.21-1.59,2.64-3.07,4.19-4.32,3.23-2.6,6.52-2.04,8.63,1.56,1.18,2.01,2.15,4.26,2.65,6.53.89,4.09,1.64,8.26,1.95,12.43.89,11.87,1.57,23.76,2.23,35.64.19,3.4.05,6.83-.04,10.24-.04,1.39-.22,2.81-.59,4.14-.72,2.56-2.72,3.6-5.3,2.94-2.32-.6-4.21-1.96-5.32-4-1.46-2.67-2.8-5.46-3.78-8.33-1.63-4.8-2.9-9.73-4.39-14.58-.67-2.17-1.47-4.3-2.26-6.44-.2-.53-.58-.99-1.18-2Z"/>
  <path class="cls-1" d="M54.78,35.47c-.03,4.03-.51,7.13-1.97,10-.47.92-1.04,1.84-1.74,2.6-1.6,1.71-3.42,2.07-5.46.89-1.5-.87-2.84-2.03-4.17-3.16-2.8-2.38-5.44-4.95-8.35-7.17-1.63-1.25-3.62-2.13-5.57-2.84-2.17-.79-3.43-.04-4.39,2.09-2.48,5.48-.07,11.29,5.61,13.14,2.48.81,5.1,1.23,7.65,1.84,8.22,1.96,13.43,8.22,13.9,16.63.22,3.85-.81,7.29-3.27,10.25-5.77,6.93-13.25,9.58-22.03,8.14-9.08-1.49-16.02-6.33-20.49-14.43-.87-1.58-1.49-3.38-1.83-5.16-.69-3.65,1.5-5.8,5.17-5.06,1.77.35,3.5,1.1,5.13,1.91,2.82,1.4,5.51,3.05,8.33,4.45,1.55.78,3.22,1.39,4.89,1.85,1.69.46,2.59-.35,2.23-2.09-.26-1.22-.85-2.53-1.69-3.43-.98-1.05-2.32-1.86-3.64-2.49-2.53-1.2-5.23-2.04-7.71-3.31-2.71-1.38-5.45-2.84-7.85-4.69C2.91,51.86.84,46.88.13,41.14c-.43-3.46.27-6.5,1.64-9.61,2.74-6.22,6.03-12.05,10.93-16.85,3.36-3.29,7.18-5.87,11.66-7.36,6.25-2.08,12.1-1.25,17.46,2.57,1.55,1.11,3.03,2.41,4.28,3.85,5.63,6.45,8.25,14.1,8.67,21.74Z"/>
  <path class="cls-1" d="M282.59,56.79c0,1.81-.03,3.61,0,5.42.05,2.27.38,4.55.21,6.8-.29,3.87-3.18,6.46-6.92,6.55-2.31.06-2.9-.29-3.74-2.48-1.49-3.87-2.28-7.9-2.38-12.04-.44-17.77.38-35.51.96-53.26.11-3.39,1.38-4.93,4.67-5.72,1.09-.26,2.25-.36,3.38-.36,8.93-.01,18.59,6.48,21.81,14.8,2.77,7.18,1.97,14-3.13,19.9-1.84,2.13-2.06,4.11-1.05,6.47.9,2.09,1.86,4.14,2.81,6.21,1.78,3.89,3.76,7.71,5.27,11.71.91,2.41,1.39,5.08,1.53,7.66.21,3.99-2.33,5.93-6.27,5.14-2.91-.58-5.35-2.1-7.56-4.02-3.36-2.93-5.65-6.64-7.69-10.54-.44-.83-.88-1.66-1.32-2.49-.19.08-.38.16-.58.24Z"/>
  <path class="cls-1" d="M332.98,48.1c-.87,3.33-.72,7.82.33,10.88.69-.05,1.45-.07,2.2-.18,2.34-.34,4.67-.76,7.01-1.04,1.21-.15,2.46-.21,3.66-.08,2.95.3,4.43,1.87,4.45,4.83.03,3.45-.68,6.78-2.13,9.93-1.15,2.5-3.11,4.05-5.8,4.43-5.93.83-11.89.89-17.78-.22-5.16-.98-7.53-3.5-7.96-8.69-.52-6.28-.84-12.58-.93-18.88-.14-10.07.01-20.14-.03-30.2-.02-3.5-.22-7-.4-10.49-.14-2.71.51-3.73,3.23-4.07,7.49-.93,15.01-.99,22.54-.72.35.01.69.1,1.04.15,4.92.79,6.83,3.17,6.28,8.17-.23,2.07-.68,4.15-1.35,6.12-.9,2.65-2.94,4.1-5.76,4.22-2.1.1-4.2.02-6.3.08-2.64.08-2.85.28-3.06,2.82-.13,1.57-.21,3.15-.19,4.72.05,3.14.42,3.49,3.48,3.52,1.66.02,3.33-.07,4.99-.05.87,0,1.76.05,2.61.22,1.61.32,2.77,1.27,2.89,2.97.18,2.52.42,5.08.18,7.58-.33,3.32-2.18,4.7-5.54,4.6-1.48-.04-2.96-.29-4.44-.42-1.03-.09-2.06-.13-3.23-.2Z"/>
  <path class="cls-1" d="M111.53,36.91c3.59,0,6.72.1,9.85-.02,4.64-.19,5.69.7,5.92,5.42.05.96.06,1.93,0,2.89-.21,3.07-1.4,4.23-4.45,4.31-1.31.03-2.62-.08-3.94-.06-.96.01-1.92.08-2.88.19-1.03.12-1.66.77-1.44,1.79.32,1.44.78,2.86,1.3,4.24.4,1.06,1.37.94,2.25.74,2.48-.55,4.94-1.15,7.42-1.71,1.11-.25,2.22-.51,3.35-.64,2.62-.3,4.26.8,4.75,3.38.79,4.17.64,8.37-.07,12.53-.27,1.62-1.31,2.63-2.95,2.95-.34.07-.69.14-1.03.18-8.44.86-16.88,1.71-25.32,2.55-.87.09-1.75.12-2.62.07-2.82-.18-3.91-1.27-4.02-4.11-.12-3.23-.03-6.48-.23-9.71-.65-10.66-1.55-21.3-1.06-31.99.19-4.19.63-8.37,1.07-12.54.15-1.47.6-2.91.98-4.34,1.11-4.21,3.91-6.56,8.19-6.99,4.09-.41,8.19-.66,12.3-.89,2.09-.12,4.2-.09,6.3-.01,2.06.08,2.31.47,2.3,2.53,0,.65.18,1.36.47,1.95,1.79,3.61,1.93,7.43,1.35,11.29-.51,3.38-2.16,4.63-5.59,4.56-2.71-.05-5.42-.31-8.12-.2-2.72.11-3,.45-3.31,3.05-.33,2.76-.5,5.54-.77,8.58Z"/>
  <path class="cls-1" d="M74.09,52.95c.39,2.45.69,4.51,1.05,6.54.22,1.25,1.1,1.7,2.3,1.65,2.19-.08,4.37-.19,6.56-.21,1.48-.01,2.98.02,4.45.19,1.93.22,3.19,1.36,3.71,3.23.76,2.69.71,5.37-.21,8.01-.85,2.45-2.69,3.86-5.13,4.44-1.78.42-3.61.71-5.44.86-4.18.35-8.37.62-12.57.81-1.29.06-2.62-.15-3.9-.38-2.48-.44-4.14-1.97-4.74-4.37-.55-2.19-1.03-4.47-1.09-6.72-.31-12.51-.57-25.02-.62-37.53-.01-3.38.54-6.81,1.22-10.14,1.01-5,4.09-8.39,9.2-9.25,5.25-.89,10.58-1.34,15.87-1.94,1.08-.12,1.83.38,2.12,1.51.8,3.13,1.73,6.24,2.4,9.4.34,1.6.36,3.31.26,4.96-.17,2.69-1.47,4.17-4.14,4.68-2.23.43-4.51.54-6.76.87-4.87.71-4.92.77-4.36,5.58.18,1.56.55,3.1.86,4.64.23,1.13.94,1.61,2.09,1.48,1.39-.16,2.78-.37,4.18-.44,4.36-.22,6.77,2.09,6.78,6.43,0,2.32-.9,3.64-3.2,4.14-1.96.42-3.98.53-5.98.8-1.46.2-2.91.43-4.91.74Z"/>
  <path class="cls-1" d="M263.75,37.85c-.24,6.79-.52,13.53-1.97,20.13-.74,3.39-1.81,6.76-3.2,9.94-.88,2.01-2.39,3.9-4.03,5.4-3.3,3.03-7.68,3.07-11.33.46-2.97-2.12-4.71-5.12-5.9-8.47-1.39-3.91-2.01-7.98-2.1-12.1-.28-12.73.96-25.32,4.01-37.7.62-2.53,1.38-5.05,2.25-7.51,1.69-4.74,8.86-6.82,12.82-3.57,1.7,1.4,3.28,3.28,4.15,5.28,1.45,3.34,2.68,6.87,3.28,10.45.98,5.85,1.38,11.79,2.02,17.69Z"/>
</svg>