<?xml version="1.0" encoding="UTF-8"?>
<svg id="Layer_1" data-name="Layer 1" xmlns="http://www.w3.org/2000/svg" viewBox="0 0 192.98 61.21">
  <defs>
    <style>
      .cls-1 {
        stroke-width: 0px;
      }
    </style>
  </defs>
  <path class="cls-1" d="M33.32,20.12c2.07-.39,3.27-2.27,4.21-3.55,3.33-4.89,5.92-10.66,12.42-14.17,3.48-1.83,7.49-.87,9.05,1.95,1.06,1.65,1.56,3.71,1.93,5.55,2.53,13.45,3.17,26.96,3.7,40.45.03,2.24.05,4.91-.94,6.95-2.49,4.89-7.5.7-9.08-1.96-2.52-3.82-4.32-7.91-6.15-11.92-1.26-2.86-2.63-5.99-4.35-6.89-1.22-.73-2.65-.11-3.7.52-9.61,7.05-11.58,1.02-18.22-3.51-4.93-2.37-5.72,3.8-6.21,6.91-1.02,5.88-.52,12.24-4.9,17.56-3.65,4.06-8.88,2.31-10.2-1.54-1.57-3.94-.7-8.32-.05-12.36,1.48-8.19,2.48-16.42,4.49-24.55,1.29-4.67,2.78-9.84,7.4-13.63,6.91-5.26,12.62.3,14.36,5.63,1.18,2.29,2.16,8.48,6.11,8.57h.13Z"/>
  <path class="cls-1" d="M71.38,29.85c.18-4.27.94-8.63,1.74-12.94.83-4.06,2.17-8.51,6.03-11.64,5.06-4.41,14.82-3.53,20.15.29,5.09,3.35,7.66,8.1,9.15,12.65,3.55,12.17,2.57,25.37-6.2,36.54-5.03,6.3-16.96,9.64-23.52,2.29-6.35-8.06-7.06-18.1-7.35-26.98v-.2ZM88.43,20.1c-1.92.63-2.04,2.97-2.42,4.34-.97,5.85-2.14,11.94-1.21,17.62.22,2.99,3.41,8.5,6.26,2.71,2.16-4.32,4.55-22.61-2.51-24.7h-.12Z"/>
  <path class="cls-1" d="M129,45.01c-1.17.23-1.21,4.02-1.12,6.15.04,2.5-.32,5.27-1.91,6.79-1.03,1.11-3.11,1.66-4.86.88-5.24-2.89-3.26-8.86-3.49-12.94-.08-10.59-.3-21.26-.38-31.78-.6-7.82,4.18-16.91,18.97-13.28,9.16,2.46,13.56,9.34,12.83,15.46-.4,5.07-4.64,9.98-4.7,14.96-.15,4.45,2.47,8.68,3.97,12.96,1.25,3.45,3.1,9.76-1.76,11.8-3.54,1.07-6.48-1.03-9.07-3.52-2.26-1.92-5.68-7.79-8.4-7.51l-.08.03ZM130.38,24.71c.58.45,1.45.19,2.03-.19,2.6-2.02,2.56-5.09,1.8-7.57-.3-1.3-2.57-2.64-3.9-1.09-.4.51-.51,1.08-.53,1.66.23,2.33-.58,4.9.48,7.09l.11.1Z"/>
  <path class="cls-1" d="M177.24,46.3c3.55,1.33,8.76.51,11.98,2.42,3.81,2.31,4.97,7.22,2.36,9.87-1.92,1.96-6.84,2.31-10.47,2.25-6.34-.07-13.16-.39-16.87-3.01-5-3.73-4.17-9.38-4.58-14.04-.28-11.13-.44-22.27-.61-33.38.02-1.86.01-3.79,1.47-5.36,1.53-1.68,4.9-2.3,7.85-2.58,5.12-.43,10.93-.86,14.86.79,3.43,1.34,5.27,4.24,4.25,6.73-1.38,3.4-7.68,4.28-10.87,6.78-3.24,2.55-4.6,7.17-1.38,10.08,3.72,3.1,12.35,5.88,8.7,10.8-1.56,2.71-12.16,5.55-6.85,8.58l.17.07Z"/>
</svg>