<?xml version="1.0" encoding="UTF-8"?>
<svg id="Layer_1" data-name="Layer 1" xmlns="http://www.w3.org/2000/svg" viewBox="0 0 194.1 178.42">
  <defs>
    <style>
      .cls-1 {
        stroke-width: 0px;
      }
    </style>
  </defs>
  <g>
    <path class="cls-1" d="M58.36,50.35c0,8.32.06,16.63-.03,24.95-.03,2.62-.25,5.26-.73,7.84-.98,5.19-5.51,8.64-11.25,8.83-3.99.13-7-1.51-8.18-4.98-.87-2.57-1.31-5.28-1.65-7.96-.68-5.39-1.14-10.8-1.73-16.2-.12-1.13-.38-2.25-.66-3.36-1.12-4.51-3.03-5.98-8.18-6.19-2.2-.09-4.42.07-6.62.02-2.4-.05-4.82-.03-7.18-.34-5.39-.72-7.77-2.87-8.48-7.84-.71-5.03-1.1-10.1-1.69-15.15C1.42,25.17.89,20.38.1,15.62c-.32-1.92.07-3.51,1.39-4.85,1.88-1.9,4.08-3.46,6.83-4.23,3.24-.91,6.08-.19,8.46,1.96,2.05,1.86,3.25,4.17,3.53,6.75.34,3.04.34,6.11.55,9.16.15,2.09.21,4.21.66,6.25.58,2.63,2.28,4.59,5.18,5.52,3.78,1.21,6.04.2,6.74-3.39.64-3.27.88-6.6,1.25-9.9.24-2.18.27-4.38.61-6.54,1.32-8.27,7.99-11.12,15.95-6.98,3.33,1.74,4.95,4.32,5.27,7.65.42,4.36.85,8.72,1.01,13.1.25,6.74.28,13.48.41,20.22.13,0,.27,0,.4,0Z"/>
    <path class="cls-1" d="M73.91,61.6c-.58-8.77-.79-17.46,1.08-26.06,1.36-6.29,3.07-12.53,4.84-18.74,1.05-3.69,2.98-7.08,5.62-10.09,2.41-2.75,5.28-4.91,9.04-5.95,8.04-2.23,15.75.55,19.31,7.38,1.7,3.27,2.96,6.81,3.85,10.36,2.32,9.27,4.57,18.56,6.4,27.93,1.74,8.93,1.11,17.82-3.31,26.28-3.52,6.73-8.77,12.05-15.97,15.66-3.26,1.63-6.72,2.68-10.47,2.71-4.6.03-8.36-1.57-11.37-4.65-2.77-2.83-4.52-6.2-5.81-9.79-1.77-4.91-2.62-10-3.21-15.04ZM108.53,36.02c-.24-1.33-.45-3.81-1.17-6.14-.82-2.66-1.76-5.38-3.28-7.73-2.07-3.21-5.48-3.15-7.92-.05-1.23,1.55-2.18,3.35-2.92,5.14-3.56,8.58-4.32,17.52-3.49,26.45.44,4.72,2.31,9.31,3.64,13.93.38,1.34,1.04,2.62,1.73,3.85.9,1.6,1.7,3.53,4.16,3.44,2.42-.09,3.25-2.04,4.11-3.68.83-1.58,1.52-3.25,2.04-4.94,3-9.58,3.94-19.32,3.1-30.28Z"/>
    <path class="cls-1" d="M149.93,25.26c3.64-.06,6.66-.3,9.62-1.08,1.29-.34,1.77-1.29,1.9-2.39.2-1.74.29-3.49.5-5.23.16-1.3.34-2.61.67-3.88.67-2.6,2.45-4.42,5.31-5.01,2.7-.55,5.47-.97,8.22-1.08,2.93-.12,4.4,1.09,5.12,3.69.3,1.09.44,2.24.49,3.37.7,15.04,1.22,30.09.64,45.14-.25,6.46-.49,12.95-1.27,19.37-.93,7.68-3.43,9.65-11.9,10.57-1.33.14-2.69.23-4.01.1-3.48-.33-5.4-1.99-5.94-5.12-.28-1.64-.38-3.31-.42-4.97-.11-4.72-.04-9.45-.23-14.17-.29-7.08-.65-14.16-1.18-21.22-.39-5.07-1.22-5.56-6.62-4.79-3.71.53-7.42.92-11.16.21-4.68-.89-6.17-2.26-7.02-6.49-1.14-5.62-1.74-11.26-1.13-16.97.14-1.3,0-2.62,0-3.93,0-1.81.84-3.15,2.6-4.08,3.52-1.86,7.37-1.87,11.19-1.51,2.15.2,3.22,1.83,3.5,3.7.27,1.82.35,3.66.48,5.49.22,3.3.42,6.6.65,10.29Z"/>
    <path class="cls-1" d="M47.47,140.8c.36,3.24,1.25,4.17,4.07,4.22,1.37.02,2.75-.16,4.12-.27.89-.07,1.77-.24,2.66-.29,4.18-.26,5.99,1.34,6.18,5.58.05,1.2-.07,2.44-.33,3.61-.44,1.97-1.78,3.25-3.69,3.85-.84.27-1.74.43-2.62.52-5.97.61-11.93,1.23-17.9,1.76-6.42.56-12.78-.2-19.13-1.08-.08-.01-.16-.03-.24-.04-1.88-.38-3.74-.9-4.33-3.01-.63-2.24.58-3.91,2.08-5.37,2.04-1.98,4.63-2.6,7.34-2.78,1.53-.1,3.08-.02,4.62-.1,1.03-.05,2.04-.24,3.2-.39-.03-.59,0-.99-.08-1.35-.93-3.74-1.18-3.87-5-3.35-2.16.29-4.35.6-6.52.6-2.61,0-5.1-.68-6.14-3.47-1.02-2.72-.06-5.12,1.75-7.18,1.65-1.87,3.74-3.21,6.19-3.63,7.9-1.36,15.78-3.03,23.87-2.56,2.1.12,4.18.54,6.28.69,2.63.19,4.86,3.58,5.1,5.81.31,2.91-.84,5.44-3.51,6.57-1.69.71-3.57.97-5.38,1.37-.84.18-1.71.21-2.57.3Z"/>
    <path class="cls-1" d="M71.91,143.91c-.47-5.17-1.05-11.7-1.68-18.23-.2-2.08.29-2.78,2.36-2.42,7.1,1.23,14.23,2.35,21.25,3.95,5.17,1.18,9.95,3.54,13.92,7.17,1.58,1.45,3.03,3.2,4.08,5.07,2.24,4.02,1.55,8.28-1.53,11.69-2.12,2.34-4.76,3.87-7.67,5-3.96,1.55-8.12,2.23-12.32,2.69-4.59.51-9.2.95-13.82.36-.72-.09-1.45-.18-2.15-.37-2.35-.64-3.01-1.58-2.9-4.04.14-3.16.27-6.31.46-10.87ZM82.54,146.41c3.67.12,6.89-.11,9.99-1.08,2-.62,2.66-2.39,1.7-4.26-.36-.69-.92-1.38-1.57-1.79-3.18-1.98-6.66-2.02-10.12-1.68v8.81Z"/>
    <path class="cls-1" d="M130.52,145.06c.76,1.35,1.8,1.41,2.68,1.53,3.45.48,6.9.94,10.36,1.27,4.35.42,4.92.94,5.12,5.32.2,4.5-.62,5.26-5.02,4.25-7-1.61-14.02-2.41-21.21-1.56-3.55.42-4.93-.9-5.02-4.5-.06-2.51.11-5.02.21-7.53.17-4.77.39-9.55.53-14.32.08-2.72.42-3.25,3.18-3.53,5.23-.53,10.48-.94,15.72-1.41,1.77-.16,3.54-.39,5.32-.49,2.7-.15,3.63.83,3.28,3.43-.2,1.44-.46,2.89-.86,4.28-.57,1.96-1.5,2.58-3.57,2.59-2.67.01-5.34-.04-8.01,0-.73.01-1.87-.27-1.9.93-.03,1.17,1.13.96,1.85,1.05,1.69.2,3.39.26,5.08.39,2.49.19,3.13.84,3.13,3.33,0,1.13-.05,2.28-.28,3.38-.42,2.03-1.42,2.71-3.49,2.44-1.68-.22-3.35-.58-5.03-.83-.55-.08-1.11-.01-2.06-.01Z"/>
    <path class="cls-1" d="M170.89,144.92c-1.84.42-3.41.79-4.98,1.13-1.03.22-1.51.9-1.54,1.9-.07,2.1-.17,4.2-.14,6.3.04,2.6-.47,3.23-2.99,3.27-2.27.03-4.54.06-6.8-.01-2.22-.07-3.02-1.06-2.79-3.28.05-.48.2-.95.33-1.42,1.81-6.81,3.59-13.62,5.44-20.41.49-1.79,1.11-3.55,1.81-5.27.72-1.76,2.03-2.86,3.99-3.15,3.04-.45,6.07-1.01,9.11-1.47,2.72-.41,3.85.17,4.91,2.8,1.69,4.2,3.15,8.51,4.9,12.68,1.84,4.4,3.92,8.7,5.9,13.04.2.44.48.85.64,1.31.53,1.52-.04,2.53-1.63,2.85-.71.14-1.45.17-2.17.18-1.94.05-3.89-.01-5.83.13-1.95.14-3.29-.62-4.16-2.3-.92-1.8-1.82-3.61-2.71-5.43-.42-.86-.79-1.75-1.29-2.86ZM171.95,137.96c-1.66-6.45-2.23-7.51-4.46-8.13-.82,3.27-1.91,6.46-2.82,10.21,2.72-.78,4.93-1.41,7.29-2.08Z"/>
    <path class="cls-1" d="M25.32,113.77c-.22,1.83-.24,2.98-.53,4.06-.28,1.07-.66,2.18-1.29,3.07-.93,1.3-2.39,1.56-3.93,1.28-1.48-.27-2.14-1.3-2.49-2.66-.49-1.89-.74-3.77-.5-5.76.33-2.73.38-5.49.61-8.23.13-1.52.1-3.25,1.82-3.95,1.81-.73,3.07.57,4.25,1.65,1.56,1.41,3.01,2.94,4.53,4.4.63.6,1.3,1.16,2.23,1.99.38-1.12.63-1.94.94-2.75.69-1.81,1.32-3.65,2.14-5.4.49-1.05,1.38-1.86,2.7-1.66,1.2.18,1.72,1.12,2.04,2.17.21.69.48,1.41.5,2.12.1,4.04.16,8.08.18,12.12,0,.71-.16,1.46-.4,2.14-.73,2.09-2.46,2.94-4.43,1.9-1.55-.82-2.9-2.04-4.3-3.12-1.25-.97-2.44-2.01-4.08-3.37Z"/>
    <path class="cls-1" d="M140.13,107.31c.85.76,1.63,1.44,2.38,2.14,1.36,1.27,2.77,2.49,4.05,3.84,1.17,1.23,1.1,2.11.05,3.42-.85,1.07-1.68,2.16-2.49,3.27-.96,1.31-1.78,1.41-2.96.22-.74-.74-1.38-1.59-2.09-2.36-.64-.7-1.31-1.36-1.96-2.04l-.5.18c.08.9.16,1.8.24,2.69.16,1.96-.44,2.7-2.38,2.81-.89.05-1.78.03-2.67-.06-2.18-.2-2.56-.8-2.5-2.95.1-3.71.14-7.43.04-11.14-.06-2.1-.37-4.19-.7-6.27-.21-1.34.19-2.19,1.4-2.73.52-.23,1.01-.52,1.51-.78,2.3-1.22,2.53-1.19,4.41.58.15-.04.36-.03.43-.12,1.99-2.85,2.21-2.91,5.56-1.51,3.49,1.45,3.65,1.88,1.74,5.1-1.11,1.87-2.29,3.7-3.56,5.72Z"/>
    <path class="cls-1" d="M168.05,103.48c.16-1.83.33-3.65.49-5.48.06-.64,0-1.32.18-1.92.16-.49.52-1.14.94-1.28,1.96-.66,3.59.55,5.27,1.23,1.2.49,1.52,1.62,1.41,2.84-.45,5.32-.85,10.65-1.4,15.96-.24,2.26-1.58,2.88-3.62,1.8-1.21-.64-2.29-1.51-3.42-2.29-.71-.49-1.39-1.02-2.53-1.85,0,1.33,0,2.17,0,3-.01,1.73-.28,2.08-2,2.46-.63.14-1.28.25-1.92.27-1.95.08-3.26-1.03-3.41-2.94-.37-4.84-.69-9.68-1.03-14.53-.01-.16-.02-.32-.02-.49,0-1.15-.06-2.35,1.15-2.98,1.18-.61,2.25-.06,3.14.67,1.37,1.13,2.65,2.37,3.95,3.58.75.71,1.47,1.45,2.21,2.18.2-.07.4-.15.6-.22Z"/>
    <path class="cls-1" d="M61,111.57c-.05,4.44-2.58,8.23-6.47,9.68-4.37,1.63-8.64-.31-10.24-4.67-1.74-4.71-.06-11.45,3.68-14.78,1.82-1.62,2.85-1.67,4.84-.27.32.23.7.45,1.08.49,5.41.61,7.11,5.66,7.12,9.55ZM50.48,113.17c2.06-.71,2.09-.82.91-2.69-.36,1.06-.64,1.87-.91,2.69Z"/>
    <path class="cls-1" d="M87.62,108.14c.42.15.5.2.57.2,1.16-.03,2.51-.82,3.4.41,1.01,1.4.95,3.12.55,4.67-.18.69-1.11,1.3-1.84,1.69-.76.41-1.69.5-2.83.81-.03,1.18-.06,2.36-.1,3.54-.05,1.4-.06,2.88-1.64,3.47-1.58.59-2.9-.18-3.89-1.32-.78-.89-1.57-1.95-1.88-3.06-1.12-4.05-2.09-8.14-3-12.24-.22-.99-.09-2.1.08-3.12.23-1.37,1.08-2.41,2.46-2.73,2.2-.51,4.42-1.01,6.66-1.27,1.95-.23,2.98.57,3.7,2.44.26.68.4,1.4.58,2.1.41,1.63-.07,2.86-1.63,3.61-.35.17-.65.42-1.19.78Z"/>
    <path class="cls-1" d="M119.16,113.18c1.24-.59,2.39-1.11,3.5-1.69,1.08-.57,2.13-.77,3.19.03,1.06.81,1.19,1.93.82,3.07-.5,1.54-.99,3.1-1.75,4.52-1.4,2.63-3.75,3.76-6.68,3.47-2.94-.29-4.59-2.21-5.43-4.88-.8-2.56-.55-5.15.05-7.69.57-2.44,1.18-4.9,2.1-7.22.64-1.61,1.61-3.21,2.81-4.46,1.67-1.75,3.86-1.6,5.64.03,2.21,2.03,2.58,4.59,1.98,7.36-.29,1.35-1.31,1.92-2.61,2.2-2.77.6-3.68,1.88-3.62,5.26Z"/>
    <path class="cls-1" d="M100.55,114.6c1.15-.5,1.04-1.41,1.04-2.14-.01-2.91-.14-5.83-.16-8.74,0-.96,0-1.96.27-2.86.52-1.72,2.09-2.69,3.71-2.5,1.58.19,2.66,1.26,2.85,3.14.4,3.98.13,7.94-.63,11.86-.32,1.66-.7,3.36-1.39,4.89-1.86,4.13-6.25,4.53-8.83.8-.81-1.16-1.37-2.6-1.68-3.99-1.16-5.18-1.14-10.45-1.13-15.73,0-1.28.7-1.68,1.8-1.79,2.3-.23,3.16.43,3.31,2.68.3,4.36,1.08,8.7.48,13.09-.05.39.23.82.37,1.3Z"/>
    <path class="cls-1" d="M155.01,109.12c.17,2.17.39,4.34.49,6.52.13,2.87-1.86,4.29-4.58,3.34-.98-.34-1.35-1.07-1.45-2.03-.57-5.7-1.14-11.4-1.71-17.11,0-.08,0-.16,0-.24-.07-2.82.28-3.8,1.42-3.91,1.72-.17,4.74,1.84,4.95,3.53.41,3.28.64,6.59.94,9.88-.02,0-.04,0-.06,0Z"/>
  </g>
  <path class="cls-1" d="M145.28,171.13c-.86-.34-1.53-.42-1.91-.8-.44-.42-.86-1.12-.83-1.68.02-.39.77-1.01,1.25-1.07,1.53-.17,2.99.22,4.03,1.45,1.06,1.26.75,2.64-.02,3.91-.45.74-.98,1.47-1.62,2.04-2.37,2.12-5.3,1.67-6.86-1.09-1.27-2.23-1.54-4.65-.87-7.12.58-2.13,3.44-4.44,5.68-4.48.62-.01,1.49.53,1.8,1.08.21.37-.21,1.32-.62,1.75-.45.48-1.21.66-1.82,1-2.12,1.17-2.75,4.56-1.12,6.3.27.29,1.02.45,1.34.28.55-.3.93-.9,1.59-1.58Z"/>
  <path class="cls-1" d="M132.86,169.12c.22-1.16.42-2.33.66-3.49.14-.68.18-1.46.55-1.99.34-.49,1.05-.94,1.63-.98.92-.07,1.32.71,1.42,1.56.03.26.02.53-.03.78-.5,2.66-1,5.32-1.55,7.97-.1.49-.37.99-.7,1.39-.8.97-1.92,1.04-2.99.07-.83-.75-1.47-1.7-2.31-2.69-.3.56-.47,1.17-.87,1.54s-1.09.75-1.53.64c-.44-.11-1.07-.88-1.02-1.27.29-2.06.56-4.16,1.27-6.1.56-1.55,2.32-1.54,3.34-.14.63.87,1.1,1.86,1.64,2.8.16-.03.31-.05.47-.08Z"/>
  <path class="cls-1" d="M33.39,172.08c1.02.57,1.99,1.11,2.96,1.65.9.5,1.63,1.12,1.21,2.28-.34.94-1.36,1.21-2.71.62-1.19-.53-2.32-1.21-3.47-1.82-.16.12-.36.19-.41.33-.34.9-.56,1.96-1.87,1.77-1.21-.18-1.4-1.2-1.5-2.17-.23-2.35-.48-4.7-.57-7.06-.08-2.01.53-2.48,2.5-2.27.43.05.87.08,1.3.16,2.47.44,3.39,1.74,3,4.28-.1.68-.27,1.35-.44,2.24Z"/>
  <path class="cls-1" d="M161.67,167.68c2.72,2.65,2.6,2.79-.31,4.87,1.38,0,2.38-.03,3.38,0,.94.04,1.8.39,1.87,1.45.09,1.21-.77,1.72-1.83,1.77-2,.09-4.02.16-6.02.08-1.63-.06-2.49-1.1-2.01-2.64.75-2.41,1.63-4.8,2.75-7.05.9-1.83,4.72-2.87,6.53-1.96.45.22,1.01,1.01.91,1.35-.16.54-.77,1.14-1.32,1.33-1.1.37-2.29.48-3.95.79Z"/>
  <path class="cls-1" d="M113.83,167.16c1.13.32,1.85.16,1.96-1.04.05-.52.01-1.05.07-1.57.1-.96.52-1.73,1.6-1.69.92.04,1.32.74,1.42,1.6.04.35.06.7.05,1.04-.04,2.09-.07,4.18-.13,6.27-.03,1.08-.16,2.25-1.52,2.35-1.42.11-1.62-1-1.67-2.13-.02-.42-.11-.84-.16-1.24-1.43-.42-2,.08-2.19,1.43-.3,2.09-.88,2.79-1.87,2.5-1.45-.42-1.34-1.66-1.27-2.79.14-2.17.33-4.34.52-6.51.09-1.03.46-1.98,1.69-1.89,1.06.08,1.34.95,1.37,1.91.02.59.09,1.18.14,1.76Z"/>
  <path class="cls-1" d="M189.55,168.32c1.05.27,2.76-.6,3.13,1.32.15.78-.36,1.22-2.74,2.39,1.1.15,1.79.24,2.48.34.96.14,1.7.58,1.67,1.65-.02,1.06-.81,1.62-1.74,1.6-1.65-.03-3.31-.15-4.93-.47-1.28-.26-1.75-1.36-1.69-2.62.09-1.83.18-3.66.33-5.49.23-2.81,3.1-4.64,5.69-3.54.52.22,1.13,1,1.1,1.5-.02.47-.76,1.01-1.31,1.31-.42.23-1.05.06-1.53.22-.85.28-.94.91-.48,1.79Z"/>
  <path class="cls-1" d="M88.4,169.09c-2.23.36-3.06,1.45-3.19,3.25-.06.76-.25,1.61-.68,2.22-.32.46-1.19.92-1.66.8-.46-.11-1.08-1-1.03-1.5.16-1.81.55-3.61.92-5.4.08-.39.38-.84.72-1.05,1.3-.83,2.62-1.65,4-2.34,1.21-.61,2.28-.08,2.93.96,1.76,2.85,2.17,6.04,1.92,9.3-.04.53-.97,1.38-1.51,1.39-.53.01-1.27-.74-1.59-1.33-.3-.56-.15-1.36-.24-2.05-.17-1.37-.38-2.73-.59-4.25Z"/>
  <path class="cls-1" d="M97.67,169.89c.5-.06.93-.13,1.35-.15.34-.02.87-.1,1,.07.99,1.38,1.97,2.78,2.79,4.26.12.23-.51,1.2-.95,1.35-1.64.57-3.32,1.08-5.03,1.34-1.34.2-2.38-.68-2.49-2.13-.18-2.34-.25-4.71-.08-7.05.14-1.97,3.25-3.33,4.93-2.34,1.08.64.92,1.93-.44,2.59-.81.39-1.75.51-1.08,2.04Z"/>
  <path class="cls-1" d="M66.69,173.59c-.29-.52-.31-.62-.37-.67-1.32-1.08-2.61-2.23-1.93-4.18.68-1.96,2.24-3.08,4.13-3.72.45-.15,1.19-.19,1.49.08.53.46,1.07,1.18,1.11,1.82.03.42-.74,1.13-1.28,1.29-.83.25-1.75.18-2.07,1.48.69.53,1.44,1.07,2.16,1.66.92.76,1.53,1.71,1.29,2.96-.26,1.36-1.21,2.22-2.47,2.41-1.45.22-2.95.18-4.42.07-.94-.07-1.66-.73-1.55-1.77.11-1.02.9-1.42,1.88-1.43.58,0,1.16,0,2.03,0Z"/>
  <path class="cls-1" d="M73.23,171.83c.28-.78.75-2.26,1.34-3.7.57-1.39,1.51-2.33,3.18-2.15,1.56.17,3.11,1.56,3.46,3.13.61,2.74-2.61,6.84-5.41,6.88-1.77.03-2.76-1.26-2.58-4.16ZM76.82,171.15c.18.08.35.17.53.25.15-.47.29-.95.44-1.42-.16-.05-.32-.1-.48-.16-.16.44-.33.88-.49,1.32Z"/>
  <path class="cls-1" d="M44.93,167.8c.31-1.02.54-1.83.8-2.63.27-.82.77-1.42,1.71-1.27.96.15,1.31.92,1.18,1.75-.53,3.36-1.11,6.72-1.73,10.06-.16.87-.92,1.48-1.73,1.13-.57-.24-.89-1.09-1.28-1.7-.08-.12-.04-.36.03-.51,1.11-2.65-.49-4.03-2.44-5.27-.51-.33-1.14-.65-1.41-1.14-.29-.53-.49-1.45-.22-1.83.29-.4,1.29-.65,1.79-.46,1.1.42,2.09,1.15,3.3,1.87Z"/>
  <path class="cls-1" d="M18.76,170c-1.62.15-2.64.3-3.67.34-.92.03-1.82-.2-1.95-1.3-.14-1.09.61-1.53,1.57-1.7,2.06-.38,4.1-.84,6.18-1.08.64-.07,1.53.32,1.97.81.23.26-.27,1.17-.44,1.79-.2.71-.53,1.42-.57,2.14-.07,1.21.09,2.44.06,3.66-.02.78-.12,1.57-.3,2.33-.23.92-.77,1.62-1.85,1.4-.95-.19-1.17-.95-1.13-1.8.02-.43.14-.87.14-1.3.02-1.64,0-3.27,0-5.28Z"/>
  <path class="cls-1" d="M179.82,167.72c1.2,1.37,2.2,2.34,3,3.46,1.07,1.5,1.03,2.88.1,3.81-.95.94-3.95,1.43-4.93.8-.79-.51-1-1.59-.31-2.25.48-.46,1.15-.72,1.93-1.19-.7-.71-1.37-1.35-1.99-2.03-1.22-1.34-1.43-2.71-.65-4.03.84-1.43,2.72-2.27,4.26-1.88.89.23,1.7.64,1.72,1.69.02,1.14-.79,1.42-1.77,1.43-.32,0-.64.09-1.36.2Z"/>
  <path class="cls-1" d="M106.72,166.24c.29,1.51.59,2.96.85,4.41.14.77.25,1.55.32,2.33.09,1.03-.09,2.03-1.33,2.15-1.07.1-1.48-.76-1.66-1.67-.42-2.04-.82-4.09-1.19-5.97-.33-.23-.45-.4-.6-.42-.96-.15-2.17-.25-1.97-1.53.1-.66.96-1.41,1.65-1.72,1.18-.53,2.48-.8,3.76-1.08.96-.21,2.01-.25,2.38.96.32,1.07-.45,1.56-1.28,1.97-.3.15-.57.35-.91.57Z"/>
  <path class="cls-1" d="M171.29,173.42c1,.08,1.72,0,2.33.24.5.19,1.19.74,1.19,1.14,0,.56-.47,1.54-.87,1.61-1.42.26-2.92.39-4.35.23-1.04-.11-1.57-1.16-1.52-2.18.14-2.61.38-5.22.64-7.82.09-.87.61-1.47,1.57-1.39.98.07,1.36.79,1.34,1.63-.06,2.09-.21,4.17-.34,6.54Z"/>
  <path class="cls-1" d="M121.81,168.58c0-1.13-.03-2.27,0-3.4.02-.84.3-1.62,1.25-1.74,1.09-.14,1.64.6,1.68,1.56.11,2.52.16,5.05.14,7.57,0,.93-.5,1.73-1.59,1.72-1.12-.02-1.45-.86-1.48-1.79-.05-1.31-.01-2.61-.01-3.92,0,0,0,0,0,0Z"/>
</svg>