<?xml version="1.0" encoding="UTF-8"?>
<svg id="Layer_1" data-name="Layer 1" xmlns="http://www.w3.org/2000/svg" viewBox="0 0 277.06 87.13">
  <defs>
    <style>
      .cls-1 {
        stroke-width: 0px;
      }
    </style>
  </defs>
  <path class="cls-1" d="M157.6,74.34c-1.24,2.4,1.23,6.5-.57,9.02-5.24,5.46-14.87,2.57-12.74-6.02,1.83-22.29.08-44.87,1.66-67.06,9-12.87,9.8,8.79,9.41,14.86,1.23,21.51,3.25-14.44,5.28-17.55,1.52-4.18,7.71-5.33,10.99-2.69,5.96,12.91-19.22,50.86-5.73,60.48,2.99,4.21,20.81,12.5,14.46,17.68-9.7,5.8-15.48-4.82-22.78-8.71Z"/>
  <path class="cls-1" d="M67.94,13.03c20.31-10.72,12.16,22.54,15.21,33.18,2.26,20.43,13.35-33.43,17.28-35.59,3.53-2.96,9.91-.8,8.15,4.44-5.99,14.54-12.79,28.99-17.6,44.08-1.82,8.54,9.02,12.83,13.62,18.8,3.2,3.21,2.61,6.18-1.41,6.81-12.24,1.38-18.12-19.11-20.28-1.73-10.29,9.67-9.94-10.78-10.56-16.99-.57-17.39-7.09-36.18-4.42-53.01Z"/>
  <path class="cls-1" d="M.13,40.87c1.34-9.32-1.23-21.65,5.39-29.22,8.14-4.9,20.94-4.1,27.62,3.02,13.41,18.92-16.01,18.14-16.11,30.66-.75,11.73.33,23.51-.15,35.2-.92,10.05-9.72,7.5-12.38-.22C.28,67.69-.33,54.17.13,40.87ZM15.91,19.71c-.89,2.58-2.08,12.15,3.42,8.54,6.1-2.37,1.11-9.42-3.42-8.54Z"/>
  <path class="cls-1" d="M131.93,36.36c-3.21-2.67-1.24-8.18-2.67-12.38-7.08-12.37-13.8,15.98-2.04,20.35,16.6,5.51,18.89,31.18,4.31,40.14-14.67,9.62-38-37.13-14.67-25.61,2.89,2.64,3.35,6.87,5.18,10.33,5.42,9.14,10.31-5.1,6-9.68-1.58-2.52-4.47-4.01-7.09-5.4-22.99-7.85-5.59-63.96,15.32-40.7,3.32,6.45,9.67,28.25-4.35,22.96Z"/>
  <path class="cls-1" d="M258.02,76.27c4.32,4.89,15.37-3.98,18.48,1.47,4,13.03-14.28,7.83-21.51,9.12-6.87.67-10.07-1.29-10.14-8.57.35-25.13-5.11-52.63,1.23-76.89,20.92-12.73,4.9,65.51,11.94,74.87Z"/>
  <path class="cls-1" d="M202.97,4.45c15.9-12.24,7.73,55.71,10.02,64.03-.48,12.25,13.24,5.56,20.24,7.18,2.81.62,3.96,3.75,3.06,6.25-4.96,7.36-17.23,1.88-24.9,3.53-16.13,2.09-7.75-18.96-9.78-28.46.69-17.32-2.04-35.83,1.35-52.54Z"/>
  <path class="cls-1" d="M61.17,66.76c-3.97,7.93,4.75,7.99,8.81,11.09,5.07,9.54-13.79,10.05-18.79,6.32-2.64-3.52-1.16-9.1-1.87-13.3-1.53-16.4-5.06-32.6-7.83-48.84-3.52-11.67,14.15-10.35,20.07-7.14,3.94,3.96-.73,8.44-5.33,7.23-6.11-.51-3.34,6.16-2.43,10.64,1.63,6.44,2.72,13.06,4.71,19.38,3.42,6.65,12.82,7.88,2.67,14.63Z"/>
  <path class="cls-1" d="M31.97,72.08c-1.6,1.74,1.24,3.3,2.97,3.68,3.8,1.04,10.19-.84,11.99,3.52,1.27,3.79-2,6.93-5.97,6.86-9.71-.38-23.55,3.86-21.44-10.73.3-14.83-2.82-42.05,19.2-40.36,6.85,3.92-1.76,8.83-5.29,11.77-3.59,3.4-3.13,9.71-.9,13.67,1.75,2.67,6.03,1.76,7.59,4.62,2.45,5.7-5.03,5.41-8.15,6.98Z"/>
  <path class="cls-1" d="M193.47,37.57c-.24,13.58.65,27.43,1.81,41.01-1.13,12.01-10.79,3.66-9.52-4.65-.27-19.13-8.41-54.56-1.06-70.65,16.24-3.97,6.93,25.32,8.77,34.28Z"/>
</svg>