<?xml version="1.0" encoding="UTF-8"?>
<svg id="Layer_1" data-name="Layer 1" xmlns="http://www.w3.org/2000/svg" viewBox="0 0 264 86.22">
  <defs>
    <style>
      .cls-1 {
        stroke-width: 0px;
      }
    </style>
  </defs>
  <path class="cls-1" d="M23.56,56.16c-.17,3.19-.32,5.51-.41,7.84-.13,3.4-.17,6.8-.36,10.2-.08,1.39-.31,2.81-.73,4.13-2.56,8.17-11.42,10.49-17.65,4.61-.74-.7-1.21-1.7-1.79-2.57-.44-.65-.7-1.58-1.3-1.94-1.26-.75-1.36-1.83-1.31-3.02.47-9.6.73-19.22,1.51-28.8.74-9.04,4.39-17.22,8.68-25.08,2.2-4.03,4.94-4.43,8.08-.9,5.84,6.57,11.37,13.41,17.01,20.16,1.03,1.24,1.99,2.54,3.39,4.35,1.18-1.86,2.2-3.23,2.97-4.72,2.94-5.74,5.79-11.52,8.68-17.28.32-.63.63-1.26,1.01-1.85,1.54-2.35,3.37-2.93,5.62-1.25,1.63,1.22,3.19,2.88,4.08,4.68,1.23,2.48,2.2,5.24,2.58,7.97.9,6.38,1.51,12.8,1.99,19.23.5,6.55.77,13.11,1.01,19.68.1,2.68.09,5.42-.33,8.06-.59,3.71-2.68,4.94-6.32,4.13-1.02-.22-2.07-.53-2.97-1.05-3.95-2.28-8.21-4.22-11.69-7.08-6.69-5.51-12.92-11.56-19.34-17.39-.58-.53-1.18-1.03-2.43-2.12Z"/>
  <path class="cls-1" d="M233.02,63.65c-1.23,4.41-3,8.08-6.05,11-1.73,1.65-3.62,2.95-6.2,2.84-3.78-.15-5.26-1.63-5.32-5.42-.12-7.62-.11-15.25-.45-22.87-.44-10.08-1.12-20.15-1.8-30.22-.12-1.83-.61-3.65-1.12-5.42-1.38-4.8,2.99-12.28,7.89-13.38,3.12-.7,5.98.72,7.11,4.23,1.25,3.88,2.08,7.92,2.81,11.95.68,3.78,1,7.63,1.54,11.94.96-.74,1.66-1.1,2.13-1.67,2.61-3.16,5.19-6.36,7.74-9.58,2.35-2.97,4.89-5.72,8.29-7.5,3.02-1.58,6.13-2.32,9.48-1.02,4.62,1.8,5.71,5.27,2.52,8.97-6.21,7.2-12.57,14.26-18.85,21.4-1.62,1.84-3.16,3.74-5.09,6.03,2.35.85,4.28,1.61,6.25,2.26,6.6,2.17,12.28,5.81,17.07,10.82,4.32,4.53,4,10.17-.68,14.46-1.66,1.52-3.58,1.78-5.57,1.08-2.43-.85-4.82-1.85-7.15-2.93-4.77-2.22-9.48-4.55-14.53-6.98Z"/>
  <path class="cls-1" d="M134.16,56.13c-.42,1.58-1.12,3.14-1.21,4.74-.2,3.69-.23,7.41-.09,11.11.22,5.88-1.86,8.34-7.94,8.35-4.35,0-8.72-.37-13.07-.78-3.53-.33-4.81-2.31-4.09-5.73,1.78-8.45,3.47-16.91,5.34-25.34,2.12-9.53,4.4-19.03,6.62-28.54.17-.72.43-1.42.7-2.12,1.39-3.64,3.76-5.14,7.74-4.31,2.33.48,4.67,1.44,6.73,2.62,5.34,3.04,9.26,7.51,12.33,12.62,1.93,3.22,3.73,6.54,5.18,9.97,4.34,10.21,8.51,20.49,12.67,30.78.93,2.3,1.67,4.7,2.2,7.12.58,2.63-.29,4.17-2.86,4.88-4.72,1.31-9.58,1.87-14.46.85-4.2-.88-7.24-3.41-8.67-7.27-1.85-5.01-3.32-10.15-4.95-15.23-.4-1.23-.78-2.47-1.17-3.7-.33,0-.67,0-1,0ZM131.26,41.68c1.71-.15,2.89-.26,4.47-.4-.88-2.51-1.62-4.6-2.36-6.69-.26.04-.51.07-.77.11-.4,2.09-.81,4.19-1.34,6.98Z"/>
  <path class="cls-1" d="M160.61,30.4c.47-2.6,1.06-7.01,2.12-11.31,1.15-4.65,4.08-7.46,8.97-8.82,7.11-1.99,13.66-1.4,19.97,2.29,3.03,1.77,6.07,3.54,8.98,5.51,4.08,2.75,5.64,6.73,5.16,11.57-.07.7-.27,1.39-.27,2.09.04,3.16-1.46,4.97-4.55,5.73-1.46.36-2.79,1.21-4.2,1.77-2.6,1.03-4.09.59-5.79-1.64-.28-.37-.55-.76-.76-1.18-1.49-2.94-3.97-3.84-7.05-3.35-3.03.48-5.12,2.16-6.11,5.13-2.08,6.26,1.28,17.5,6.58,21.48,1.07.8,2.49,1.37,3.81,1.54,2.38.3,3.69-.83,4.29-3.16q1.57-6.19,7.94-7.06c1.51-.2,3.04-.34,4.56-.32,2.75.03,4.19,1.1,4.54,3.86.3,2.29.35,4.7-.04,6.97-1.02,6.01-4.11,10.96-8.83,14.75-4.5,3.62-9.81,3.72-15.07,2.32-7.37-1.97-13.24-6.17-16.29-13.34-4.48-10.52-7.45-21.45-7.96-34.82Z"/>
  <path class="cls-1" d="M86.5,23.07c1.79-1.71,3.05-3.12,4.52-4.25,2.13-1.64,4.26-3.39,6.66-4.52,4.33-2.05,8.58.25,9.75,4.92.84,3.36-.13,6.52-1.15,9.65-.33,1-.78,1.98-1.35,2.86-3.64,5.52-4.3,11.56-3.26,17.91,1.24,7.57.11,14.98-1.5,22.34-1.19,5.41-4.89,8.71-9.75,10.8-4.48,1.92-8.57-.22-9.73-4.96-.28-1.12-.37-2.33-.32-3.48.15-3.52.51-7.03.6-10.54.15-5.62.22-11.25.2-16.88-.01-3.14-1.13-5.96-3.06-8.45-2.09-2.69-4.11-5.42-6.19-8.13-1.43-1.86-3-3.46-5.11-4.7-4.89-2.86-5.16-7.55-.92-11.27,3.89-3.42,8.53-3.39,12.32.22,1.61,1.53,2.95,3.35,4.49,4.96,1.11,1.16,2.36,2.19,3.82,3.53Z"/>
</svg>