<?xml version="1.0" encoding="UTF-8"?>
<svg id="Layer_1" data-name="Layer 1" xmlns="http://www.w3.org/2000/svg" viewBox="0 0 198.29 99.87">
  <defs>
    <style>
      .cls-1 {
        stroke-width: 0px;
      }
    </style>
  </defs>
  <path class="cls-1" d="M110.35,59.83c.19-1.77.58-3.54.55-5.3-.1-5.62-.44-11.23-.49-16.85-.03-2.84.26-5.69.62-8.51.16-1.27.6-2.86,2.27-2.89,1.67-.03,2.09,1.57,2.39,2.81,1.24,5.09,2.37,10.2,3.48,15.32.79,3.63,1.46,7.28,2.22,10.92.16.79.47,1.54.71,2.31l.59-.07c0-1.37.06-2.74-.01-4.1-.56-10.08-1.22-20.16-1.69-30.25-.26-5.51-.62-11.06.51-16.53.28-1.38.75-2.76,1.36-4.03.69-1.43,1.87-2.45,3.62-2.33,1.81.13,2.68,1.41,3.06,2.96.46,1.84.87,3.73.99,5.61.95,15.02,2.03,30.04,2.64,45.08.45,10.87-.25,21.72-2.49,32.42-.35,1.67-.79,3.35-1.39,4.95-.55,1.48-1.08,3.34-3.07,3.33-1.82,0-2.42-1.72-2.94-3.13-.92-2.5-1.62-5.08-2.45-7.61-.77-2.35-1.56-4.7-2.41-7.02-.21-.59-.68-1.08-1.46-2.27-.28,1.73-.43,2.79-.62,3.84-.77,4.21-1.44,8.44-2.38,12.61-.32,1.43-1.14,2.85-2.06,4.02-1.47,1.86-3.45,1.62-4.64-.45-.56-.98-.93-2.09-1.25-3.18-3.53-11.98-6.26-24.16-8.44-36.46-2.69-15.19-5.2-30.42-7.78-45.63-.44-2.57-.67-5.09.77-7.49.76-1.26,1.66-1.91,3.2-1.92,4.1-.04,6.56,1.46,7.61,5.49.87,3.3,1.38,6.72,1.76,10.12,1.05,9.28,1.84,18.58,2.95,27.86.52,4.34,1.48,8.63,2.31,12.93.23,1.18.71,2.32,1.08,3.47.28,0,.57-.02.85-.03Z"/>
  <path class="cls-1" d="M21.22,32.08c1.26-3.98,2.38-8.02,3.82-11.94,1.28-3.48,2.82-6.87,4.42-10.21.69-1.44,1.69-2.79,2.78-3.95,1.86-1.96,3.76-1.67,5.05.74.62,1.16,1.14,2.47,1.28,3.76.48,4.35,1.04,8.71,1.1,13.07.17,13.24,0,26.49.21,39.73.12,7.52.76,15.03,1.14,22.55.05,1.04.04,2.1-.09,3.14-.26,1.96-1.03,2.41-2.96,1.79-2.02-.65-3.56-1.94-4.34-3.88-.96-2.37-1.97-4.79-2.43-7.28-.83-4.49-1.28-9.05-1.86-13.58-.67-5.23-2.22-10.22-4.12-15.12-.2-.52-.55-.99-.88-1.46-.08-.12-.32-.14-.83-.33-.41,1.11-.93,2.2-1.2,3.34-.42,1.76-.64,3.56-1,5.33-.23,1.11-.43,2.47-1.79,2.65-1.54.2-2.08-1.19-2.5-2.32-.58-1.6-.94-3.29-1.39-4.94-.49-1.8-.98-3.6-1.47-5.41-.21-.01-.42-.02-.63-.03-.27.51-.75,1-.78,1.52-.13,2.75-.36,5.52-.17,8.25.5,7.22,1.27,14.42,1.76,21.64.16,2.36-.05,4.77-.38,7.12-.61,4.44-3.75,6.12-7.96,6.11-2.45,0-4.05-1.48-4.9-3.74-1.18-3.12-1.49-6.4-.67-9.57,2.07-8.02,1.97-16.25,2.58-24.4,1.06-14.09,2.67-28.07,6.43-41.73.5-1.82,1.19-3.65,2.12-5.28,1.42-2.46,3.58-2.43,4.67.18,1.06,2.52,1.79,5.23,2.23,7.93.77,4.7,1.21,9.45,1.81,14.17.09.72.26,1.43.4,2.15.17,0,.35,0,.52,0Z"/>
  <path class="cls-1" d="M172.5,86.81c-.04.83-.03,1.59-.12,2.35-.36,3.29-1.57,4.31-4.93,4-4.48-.4-7.79-2.48-9.17-6.95-.93-3-1.65-6.06-2.49-9.09-.99-3.59-4.79-5.58-8.27-4.24-.59.23-1.15.96-1.38,1.59-.36.97-.47,2.04-.6,3.07-.57,4.44-1.09,8.89-1.67,13.33-.71,5.41-3.31,6.67-8.08,4.07-1.31-.72-1.6-1.56-1.41-3.01.81-5.95,1.67-11.89,2.17-17.87.88-10.44,1.5-20.9,2.23-31.36.73-10.45,1.43-20.91,2.22-31.36.07-.98.46-2.14,1.11-2.85,2.43-2.71,5.38-4.68,9.21-4.39,2.65.2,5.28.72,7.88,1.27,2.03.42,3.4,1.85,3.91,3.8.72,2.76,1.42,5.55,1.73,8.38,1.45,13.07,2.72,26.15,4.15,39.22.96,8.81,2.09,17.6,3.13,26.4.15,1.23.26,2.46.39,3.64ZM154.58,61.3c.06-1.21.19-2.05.13-2.88-.13-1.7-.48-3.39-.53-5.09-.29-8.64-.49-17.28-.78-25.92-.06-1.89-.23-3.8-.52-5.67-.14-.94-.04-2.36-1.49-2.36-1.36,0-1.35,1.39-1.7,2.32-.16.44-.2.93-.29,1.39-.52,2.8-1.32,5.59-1.49,8.41-.57,9.48-.92,18.97-1.33,28.45-.02.45.15.9.29,1.74,2.57-.13,5.05-.26,7.7-.4Z"/>
  <path class="cls-1" d="M185.15,39.52c1.35-1.87,1.48-3.45,1.43-5.01-.14-4.57-.36-9.13-.57-13.7-.18-3.9-.39-7.8-.56-11.7-.15-3.21,1.25-4.62,4.49-4.26,5.66.63,8.16,3.32,8.25,8.08.15,7.71.15,15.43-.05,23.14-.34,13.23-.9,26.46-1.32,39.69-.09,2.85-.07,5.72.06,8.57.13,2.84-.59,5.48-1.55,8.07-1.09,2.93-3.46,3.32-5.35.79-.94-1.26-1.63-2.82-2.01-4.36-1.26-5.11-1.52-10.33-1.48-15.6.04-4.85-.15-9.7-.36-14.55-.05-1.15-.15-2.79-1.76-2.81-1.38-.02-1.65,1.44-1.82,2.55-.16,1.01-.14,2.07-.07,3.1.46,7.22,1.16,14.43,1.36,21.65.1,3.48-.61,6.99-1.18,10.46-.19,1.14-.96,2.27-1.71,3.21-1.01,1.29-1.96,1.31-3.12.19-1.56-1.51-2.45-3.39-2.62-5.56-.85-10.63-1.78-21.25-2.49-31.89-.44-6.65-.35-13.34-.86-19.98-.66-8.73-1.68-17.44-2.54-26.15-.07-.66-.18-1.32-.24-1.99-.35-4.01,1-5.84,4.93-6.68,5.1-1.09,9.74,1.98,10.36,7.12.4,3.3.46,6.65.52,9.98.08,4.95.02,9.91.04,14.86,0,.71.11,1.42.23,2.78Z"/>
  <path class="cls-1" d="M79.56,67.92c-1.11,2.19-.97,4.08-.66,5.92.7,4.13,1.61,8.23,2.25,12.37.45,2.91.66,5.86.87,8.81.06.92-.1,1.92-.4,2.8-.58,1.71-1.85,2.35-3.6,1.95-2.2-.51-3.83-1.8-4.49-3.97-.55-1.81-1-3.69-1.22-5.57-.99-8.61-1.79-17.25-2.82-25.85-2.05-17.22-4.2-34.43-6.33-51.64-.2-1.6-.68-3.18-.79-4.79-.07-.98.07-2.14.56-2.95,1.51-2.51,6.24-3.46,8.76-1.96,1.33.79,1.58,2.09,1.66,3.44.1,1.81.04,3.62.13,5.43.33,6.75.5,13.53,1.12,20.26.46,5.01,1.51,9.97,2.34,14.95.12.71.49,1.38.79,2.18,1.42-.56,1.48-1.68,1.47-2.64-.04-2.85-.05-5.72-.37-8.55-1.08-9.56-2.38-19.1-3.36-28.66-.22-2.1.28-4.36.85-6.43.63-2.26,2.3-3.08,4.42-2.14,1.4.62,2.95,1.68,3.65,2.96,1.25,2.3,2.36,4.86,2.73,7.42.97,6.69,1.6,13.43,2.21,20.16,1.51,16.61,2.94,33.22,4.37,49.83.32,3.7.51,7.41.76,11.12.03.38.02.76,0,1.14-.06,1.74-.04,3.6-2.07,4.29-2.06.71-3.86-.13-5.03-1.77-1.03-1.44-1.94-3.11-2.37-4.81-.81-3.22-1.17-6.56-1.84-9.82-.76-3.73-1.63-7.44-2.51-11.15-.16-.68-.6-1.3-1.1-2.33Z"/>
  <path class="cls-1" d="M49.85,72.63c.17,1.34.31,2.56.49,3.76.54,3.67,1.35,7.33,1.54,11.01.13,2.5-.44,5.1-1.04,7.56-.57,2.3-2.97,2.81-4.6,1.07-.76-.81-1.46-1.84-1.76-2.9-.62-2.18-1.3-4.44-1.34-6.68-.29-16.57-.46-33.14-.58-49.71-.05-6.86.05-13.72.25-20.57.07-2.36.51-4.73,1.05-7.03.29-1.25.98-2.51,1.78-3.53,2.59-3.32,8.13-4.78,10.9.94,1.27,2.62,2.17,5.52,2.68,8.39,1.44,8.15,2.67,16.35,3.85,24.55,1.91,13.29,3.79,26.58,5.53,39.9.57,4.33.7,8.72.93,13.09.06,1.11-.12,2.31-.48,3.36-.74,2.2-2.71,2.84-4.51,1.36-1.13-.94-2.18-2.21-2.76-3.55-1.23-2.88-2.18-5.88-3.13-8.87-1.04-3.26-1.79-6.62-2.94-9.84-1.14-3.2-1.99-3.46-5.84-2.3ZM48.03,36.77c.38,7.1.71,13.65,1.08,20.2.08,1.42.26,2.84.43,4.26.13,1.12.79,1.7,1.91,1.7.76,0,1.53-.01,2.28-.09,2.45-.27,2.88-.75,2.71-3.27-.55-7.97-1.09-15.93-1.74-23.89-.27-3.31-.78-6.6-1.25-9.9-.23-1.6-.53-3.19-.98-4.74-.14-.48-.88-1.07-1.36-1.09-.52-.02-1.32.46-1.53.93-.41.94-.6,2.01-.68,3.04-.34,4.45-.6,8.91-.86,12.85Z"/>
</svg>