<?xml version="1.0" encoding="UTF-8"?>
<svg id="Layer_1" data-name="Layer 1" xmlns="http://www.w3.org/2000/svg" viewBox="0 0 205.49 50.22">
  <defs>
    <style>
      .cls-1 {
        stroke-width: 0px;
      }
    </style>
  </defs>
  <path class="cls-1" d="M0,23.87c.23-5.85,1.19-11.34,3.69-16.47C7.35-.11,14.59-2.12,21.69,2.36c2.2,1.39,3.91,3.24,5.12,5.53,1.93,3.63,2.81,7.52,2.67,11.63-.01.35-.03.7-.08,1.05-.38,2.42-1.06,4.7-3.62,5.66-2.47.94-4.64.04-6.6-1.46-2.2-1.69-3.57-4.04-5.02-6.34-.58-.92-1.38-1.82-2.29-2.4-1.37-.86-2.28-.36-2.67,1.25-.14.59-.17,1.22-.14,1.82.23,4.21.86,8.35,2.18,12.37.14.41.32.81.52,1.2,1,1.94,1.67,2.31,3.77,1.86,1.54-.33,3.03-.84,4.56-1.21,1.1-.27,2.21-.56,3.34-.65,4.94-.41,7.12,3.43,6.52,7.36-.47,3.05-2.39,5.26-4.97,6.76-1.96,1.14-4.07,2.05-6.19,2.85-2.71,1.02-5.42.69-7.77-.95-1.55-1.08-3.06-2.4-4.17-3.92C2.23,38.52-.02,31.45,0,23.87Z"/>
  <path class="cls-1" d="M65.74,25.48c.33,2.4.74,4.8.96,7.21.23,2.51.45,5.05.36,7.56-.08,2.33-1.48,4.07-3.41,5.33-2.79,1.81-5.98.95-7.11-2.18-.82-2.27-1.46-4.75-1.47-7.14-.04-6.03.36-12.06.52-18.09.06-2.26-.04-4.53-.05-6.8-.01-1.57-.3-3.31,1.31-4.28,1.67-1,3.24-.12,4.68.74,3.15,1.87,5.45,4.64,7.65,7.48.57.74,1.14,1.48,2.11,2.73.21-1.46.29-2.3.46-3.13.46-2.13.86-4.29,1.51-6.37.33-1.04,1.02-2.06,1.78-2.86,1.45-1.52,3.45-1.6,4.9-.08,1,1.04,1.94,2.37,2.32,3.73.97,3.53,1.95,7.12,2.3,10.75.63,6.53.81,13.1,1.15,19.65.04.7-.03,1.4-.12,2.1-.3,2.25-1.59,3.19-3.65,2.19-1.76-.86-3.51-2.06-4.78-3.53-1.82-2.1-3.23-4.55-4.75-6.9-1.33-2.06-2.52-4.21-3.85-6.26-.54-.83-1.3-1.5-1.96-2.25-.29.13-.58.27-.87.4Z"/>
  <path class="cls-1" d="M173.36,36.54c-.3,7.5-6.53,12.03-13.72,10.08-5.3-1.43-9.28-4.4-11.97-9.12-2.57-4.5-4.78-9.15-5.77-14.29-1-5.19.45-9.52,4.41-12.99,2.82-2.46,5.97-4.28,9.75-4.79,3.66-.49,6.76.61,9.17,3.42,3.04,3.54,4.78,7.72,5.77,12.22.42,1.92-.4,2.83-2.25,2.25-1.8-.56-3.46-1.6-5.1-2.55-1.2-.7-2.21-1.76-3.43-2.4-3.29-1.73-6.27-.02-6.51,3.68-.18,2.72.58,5.22,2.22,7.39,1.6,2.11,3.4,2.47,5.77,1.26,1.32-.68,2.57-1.53,3.94-2.09,2.98-1.22,5.19-.33,6.36,2.65.66,1.68.92,3.52,1.36,5.29Z"/>
  <path class="cls-1" d="M30.75,21.01c.37-4.26.74-8.53,1.11-12.79.02-.17.04-.35.07-.52.74-4,1.36-4.47,5.33-3.74,1.46.27,2.91.63,4.31,1.1,4.41,1.47,7.55,4.35,9.18,8.72,2.77,7.46,3.32,15.16,1.86,22.96-.33,1.77-1.09,3.52-1.97,5.1-1.52,2.72-3.96,4.39-6.99,5.13-3.79.92-6.37-.54-8.18-3.9-3.74-6.92-4.86-14.32-4.72-22.06ZM40.71,20.8c-.82,5.61.77,12.9,3.4,15.05,1.19-4.53,1.36-8.84-.66-13.05-.49-1.03-1.3-1.83-2.74-2Z"/>
  <path class="cls-1" d="M141.44,42.89c.02,2.25-.87,3.16-2.88,3.07-2.01-.09-3.77-.96-5.14-2.35-1.52-1.55-2.81-3.33-4.24-4.98-1.03-1.18-2-2.46-3.21-3.42-1.25-1-2.28-.6-2.81.95-.45,1.32-.66,2.72-1,4.07-1.11,4.5-7.68,6.57-11.18,3.52-.89-.78-1.49-1.52-.81-2.92,3.27-6.73,5.17-13.92,6.73-21.2.72-3.35,1.71-6.61,3.64-9.5,2.45-3.66,5.56-3.82,8.29-.4.87,1.09,1.61,2.3,2.26,3.53,4.6,8.62,7.82,17.75,9.93,27.28.19.85.3,1.72.4,2.35ZM123.48,17.6c-1.2,3.04-.76,5.7-.71,8.46.8.05,1.39.17,1.98.12,1.62-.14,2.04-.61,1.74-2.16-.43-2.22-1.24-4.29-3.01-6.42Z"/>
  <path class="cls-1" d="M184.23,3.44c.8.15,2.16.42,3.52.66.94.16,1.88.36,2.83.4,3.53.16,6.93.99,10.21,2.22,1.27.48,2.5,1.28,3.49,2.22,1.22,1.15,1.5,2.76.93,4.37-.53,1.52-1.85,2.05-3.3,2.18-1.91.17-3.84.21-5.76.32-2.52.14-2.95.33-3.02,2.91-.12,3.92.02,7.86.22,11.77.12,2.35.6,4.68.87,7.02.11.95.15,1.92.12,2.88-.15,4.66-3.57,7.61-8.18,7.11-1.66-.18-2.29-.67-2.61-2.4-.23-1.28-.37-2.6-.32-3.9.24-5.67.52-11.35.9-17.01.16-2.43.54-4.85.9-7.27.28-1.93-.22-2.65-2.15-2.59-1.22.04-2.42.32-3.64.43-.95.09-1.93.2-2.87.07-1.67-.22-2.43-1.13-2.62-2.79-.48-4.4,2.11-7.68,6.49-8.2,1.13-.13,2.26-.23,3.99-.4Z"/>
  <path class="cls-1" d="M86.45,9.29c-.02-2.83,1.44-4.94,4.26-5.51,1.86-.38,3.83-.47,5.73-.34,4.81.35,9.54,1.21,14.02,3.09,1.28.54,2.55,1.19,3.66,2.01,2.23,1.65,2.3,3.52.06,5.1-1.47,1.04-3.17,1.87-4.88,2.43-4.58,1.5-4.84,1.86-4.29,6.75.47,4.17.96,8.34,1.17,12.52.09,1.79-.36,3.65-.84,5.4-.49,1.82-1.66,3.28-3.45,4.08-2,.89-3.48.19-3.94-1.94-.28-1.27-.37-2.6-.41-3.9-.18-6.12-.32-12.24-.48-18.36-.02-.7-.04-1.4-.14-2.09-.4-2.7-1.36-3.64-4.02-4.01-.86-.12-1.75-.17-2.59-.36-2.57-.59-3.84-2.22-3.86-4.87Z"/>
</svg>