<?xml version="1.0" encoding="UTF-8"?>
<svg id="Layer_1" data-name="Layer 1" xmlns="http://www.w3.org/2000/svg" viewBox="0 0 382.91 286.49">
  <defs>
    <style>
      .cls-1 {
        stroke-width: 0px;
      }
    </style>
  </defs>
  <path class="cls-1" d="M64.75,178.89c3.74,0,6.99.29,10.18-.05,20.17-2.1,40.44-2.11,60.67-2.7,1.89-.06,3.78,0,5.96,0,.18-1.45.43-2.53.43-3.6-.02-3.84.41-7.62,1.41-11.33.9-3.33,2.86-5.73,5.92-7.33,5.98-3.12,12.34-3.79,18.93-3.14.56.06,1.18.15,1.65.42,7.36,4.22,13.45,9.27,14.24,18.67.93,11.03,2.53,22.01,3.37,33.05.57,7.6.55,15.26.39,22.89-.1,4.82-1.68,9.36-4.37,13.47-2.3,3.52-5.42,5.38-9.64,4.89-4.03-.46-7.98-.06-11.97.47-5.29.71-7.29-.53-9.38-5.43-1.05-2.45-1.78-5.03-2.62-7.57-.66-1.98-1.26-3.98-1.95-6.16-1.34-.31-2.6-.8-3.88-.86-7.44-.33-14.85-.78-22.31.25-4.33.6-8.77.29-13.16.5-3.43.16-6.85.49-10.28.73-1.52.11-3.06.37-4.57.23-9.02-.78-17.85.93-27.13,1.66-.38,2.38-.89,4.6-1.04,6.84-.29,4.2-2.02,7.72-4.71,10.83-2.9,3.33-6.22,6.19-9.91,8.62-2.31,1.52-4.79,2.34-7.55,2.25-1.72-.05-3.44-.12-5.15-.28-7.75-.76-12.55-4.8-14.38-12.51-2.22-9.3-3.37-18.78-4.3-28.29-.91-9.31-2.06-18.6-3.08-27.9-.21-1.9-.27-3.82-.53-5.71-.52-3.77-.98-7.57-1.75-11.3-1.34-6.53,1.44-11.27,7.9-13.02.74-.2,1.48-.47,2.23-.5,6.55-.25,12.75-2.36,19.12-3.54,7.4-1.37,13.11,1.51,15.94,8.63,1.48,3.72,2.51,7.61,3.73,11.43.52,1.62.97,3.26,1.6,5.39Z"/>
  <path class="cls-1" d="M41.65,33.83c1.66-1.04,2.35-1.33,2.87-1.81,4.53-4.19,9.9-7.1,15.25-10.05.17-.09.34-.18.51-.26,11.46-5.5,19.26-2.78,26.4,9.69,2.78,4.85,2.22,9.93-.98,14.62-4.27,6.25-9.65,11.37-16.15,15.17-4.43,2.59-9.2,4.6-13.82,6.84-.68.33-1.46.45-2.13.79-1.17.59-1.27,2.69-.15,3.4.63.4,1.34.7,2.05.96,8.32,3.17,15.5,8.19,22.23,13.87,10.58,8.93,13.66,20.79,12.39,34.01-.62,6.48-4.31,9.47-10.8,9.31-7.8-.19-15.01-2.59-21.61-6.7-5.2-3.24-9.97-7.04-13.91-11.81-1.2-1.45-2.55-2.79-3.71-4.05-2.14.35-2.71,1.83-3.32,3.19-1.55,3.49-2.99,7.02-4.53,10.51-1,2.27-1.92,4.6-3.2,6.7-1.18,1.93-2.57,3.84-4.26,5.33-6.92,6.13-14.27,2.41-17.24-2.43-1.28-2.08-2.11-4.48-2.86-6.83C.06,109.87-.96,95.13.84,80.15c1.14-9.49,1.79-19.01,1.4-28.57-.31-7.71,1.12-15.2,2.49-22.69.79-4.36,2.62-8.4,5.33-11.92,5.22-6.78,12.12-9.67,20.63-8.28,6.27,1.03,10.2,5.2,10.86,11.53.22,2.08.09,4.19.1,6.29.01,2.06,0,4.12,0,7.32Z"/>
  <path class="cls-1" d="M304.05,195.8c1.41-2.42,2.71-4.52,3.89-6.68,4.93-9.05,9.82-18.11,14.73-27.17,1.73-3.19,3.42-6.4,5.23-9.53,1.62-2.8,3.6-5.4,5.04-8.29,1.3-2.61,3.41-3.22,5.96-3.71,6.44-1.24,12.91-1.17,19.4-.83,3.62.19,7.24.53,10.83,1,1.87.24,3.72.83,5.52,1.43,1.02.34,1.48,1.97.95,2.96-1.08,2.02-2.31,3.95-3.34,5.99-4.54,9.03-9.02,18.1-13.56,27.13-1.71,3.41-3.39,6.85-5.28,10.16-6.81,11.93-13.69,23.82-20.56,35.72-.57.99-1.27,1.91-1.82,2.91-3.78,6.84-10.06,9.07-17.3,8.9-5.33-.12-10.64-.92-15.96-1.42-8.93-.84-17.85-1.81-26.79-2.45-3.44-.24-6.3-1.34-8.79-3.58-1.28-1.15-2.57-2.3-3.7-3.59-7.06-8.02-14.17-16-19.98-25.03-4.96-7.7-10.13-15.27-15.07-22.98-2.67-4.17-5.09-8.52-7.59-12.8-1.64-2.81-3.28-5.59-5.75-7.8-.7-.63-1.34-1.38-1.83-2.18-2.22-3.65-1.29-6.23,2.8-7.24,2.58-.64,5.25-.96,7.91-1.16,3.42-.27,6.87-.2,10.3-.42,3.99-.26,7.99-.57,11.95-1.05,4.38-.54,8.73-.66,13.13-.09,2.79.36,4.72,1.7,5.46,4.33,2.78,9.89,8.66,18.21,13.4,27.12,2.5,4.7,4.42,9.71,6.54,14.61.6,1.39,1,2.87,1.61,4.68,3.73.19,7.48.38,11.23.56,3.62.17,7.23.31,11.42.49Z"/>
  <path class="cls-1" d="M322.39,93.09c-3.16,3.71-5.74,6.95-8.08,10.4-2.03,3-4.15,5.95-6.19,8.94-1.76,2.58-4.11,4.52-6.67,6.19-3.71,2.42-6.9,1.63-9.13-2.27-1.6-2.81-3.08-5.72-4.36-8.69-2.85-6.66-5.54-13.38-8.29-20.08-.15-.35-.36-.71-.39-1.07-.53-7.12-3.23-13.71-5.17-20.47-2.6-9.02-4.47-18.15-5.34-27.5-.48-5.16-1.73-10.14-3.35-15.06-1.81-5.52.1-10.62,5.02-13.8,5.49-3.54,12.86-2.67,17.3,2.1.78.83,1.51,1.74,2.1,2.72,5.32,8.83,10.76,17.6,13.75,27.59.76,2.54,1.81,4.99,2.91,8.01.92-1.03,1.54-1.63,2.05-2.31.91-1.22,1.67-2.56,2.63-3.75,4.96-6.14,12.46-7.09,18.78-2.35,1.37,1.03,2.55,2.3,3.81,3.46,1.54,1.41,3.04,2.88,5.27,3.04,1.88-1.01,2.47-2.92,3.4-4.55,1.61-2.82,3.17-5.66,4.67-8.54,5.88-11.3,13.88-20.99,22.79-29.98,1.47-1.49,2.99-2.99,4.68-4.19,2.36-1.68,5.06-1.11,6.23,1.57,1.04,2.4,1.73,5.07,1.96,7.68.52,5.95-.39,11.79-2.22,17.5-1.86,5.81-3.77,11.62-5.35,17.51-2.62,9.76-5.01,19.59-7.49,29.4-.09.37-.29.74-.29,1.1,0,6.87-2.9,12.97-5.12,19.25-1.14,3.24-2.13,6.53-3.22,9.79-.61,1.81-1.16,3.65-2,5.35-.84,1.69-1.82,3.39-3.06,4.8-4.57,5.21-10.78,5.71-15.46.62-5.53-6.01-11.26-12-14.63-19.67-.3-.69-.73-1.32-1.54-2.75Z"/>
  <path class="cls-1" d="M134.06,94.6c.22,1.87.51,3.74.65,5.62.26,3.61.67,7.23.58,10.84-.18,7.37-3.9,12.91-9.41,17.57-4.93,4.16-15,2.69-19.49-1.86-.63-.64-1.06-1.59-1.33-2.48-1.44-4.74-2.84-9.49-4.16-14.27-1.03-3.72-.93-7.5-.67-11.35.33-4.74.21-9.53.02-14.29-.46-11.63-1.13-23.26-1.59-34.89-.24-6.1,0-12.19.84-18.28.67-4.88,3.38-8.45,6.72-11.64,2.26-2.16,4.77-2.16,7.31-.42.62.43,1.24.92,1.72,1.5,6.76,7.99,14.36,15.24,20,24.22,4.36,6.93,9.49,13.37,14.29,20.02.06.08.32,0,.89,0,.04-.83.14-1.69.11-2.55-.26-5.72-.54-11.44-.82-17.16-.29-6.06,1.15-11.75,3.83-17.13,3.28-6.59,9.07-9.71,16.39-9.05,1.32.12,2.65.34,3.96.28,3.5-.16,5.87,1.56,7.31,4.51.99,2.04,1.83,4.23,2.28,6.44,2.16,10.57,2.79,21.2.23,31.8-2.78,11.53-4.21,23.27-5.84,34.98-.47,3.4-.89,6.82-1.6,10.17-.51,2.4-1.22,4.83-2.29,7.03-4.42,9.15-13.75,9.14-19.86,5.22-2.05-1.32-3.83-3.14-5.5-4.96-4.29-4.66-7.6-10.02-10.66-15.55-.89-1.61-1.88-3.16-2.83-4.74-.36.13-.72.27-1.08.4Z"/>
  <path class="cls-1" d="M264.88,60.87c.2,14.44-3.37,27.95-10.49,40.51-2.75,4.84-6.03,9.3-10.17,13.05-9.73,8.81-20.86,10.6-33.02,6.17-7.33-2.67-12.59-7.83-16.04-14.77-4.3-8.63-5.85-17.78-4.22-27.28,1.78-10.37,4.96-20.39,8.64-30.24.47-1.25,1.02-2.48,1.67-3.64,4.94-8.92,11.07-16.92,18.56-23.85,3.75-3.47,8.06-5.74,13.19-6.31.95-.11,1.9-.24,2.81-.5,5.75-1.61,10.52.36,14.77,4.07,3.21,2.8,5.5,6.33,7.41,10.1,4.03,7.94,6.13,16.43,6.86,25.26.2,2.46.03,4.96.03,7.44ZM225.55,74.71c4.31-1.56,5.02-4.86,5.61-8,.7-3.76.93-7.61-1.18-11.09-.24-.4-1.42-.55-1.98-.33-.63.24-1.31.93-1.53,1.58-1.96,5.69-2.22,11.47-.91,17.86Z"/>
  <path class="cls-1" d="M199.92,267.02c1.22-2.58,1.86-4.16,2.68-5.63,1.72-3.06,4.75-3.85,7.79-2.12,1.87,1.07,3.26,2.57,4.24,4.52,2.04,4.06,4.15,8.08,6.44,12.53-.5.35-1.19,1.27-1.87,1.26-4.19-.04-8.49.05-11.26-4.4-3.04,2.51-6.16,3.59-9.81,1.63-2.33,2.88-5.25,4.57-8.71,5.28-.93.19-1.89.35-2.83.34-2.3-.01-3.79-2.1-3.15-4.36.15-.54.33-1.13.69-1.54,2.68-3.12,3.98-6.9,5.3-10.69.67-1.93,1.16-4.32,3.85-4.36,2.31-.04,2.97,2.03,3.92,3.68.62,1.09,1.43,2.06,2.72,3.88Z"/>
  <path class="cls-1" d="M161.71,281.66c-3.3.24-5.65-1.32-7.02-4.45-1.91-4.37-1.72-8.56,1.47-12.24,1.35-1.56,3.02-2.89,4.7-4.09,3.74-2.66,6.38-2.6,9.76.32,1.41,1.22,2.62,2.75,3.64,4.31,1.19,1.82,1.25,3.9.71,6.04-1.21,4.74-7.28,10.43-13.26,10.12ZM165.06,272.11c.3-.42.61-.81.82-1.24.03-.06-.6-.56-.65-.53-.36.3-.67.67-.93,1.07-.03.04.41.38.76.7Z"/>
  <path class="cls-1" d="M133.8,286c-4.62.3-7.9-2.43-9.65-6.82-1.72-4.32-1.32-8.7,2.12-12.16,1.98-1.99,4.36-3.65,6.75-5.15,1.22-.76,2.85-1.08,4.32-1.17,2.89-.18,5.03,2.21,4.83,5.09-.14,2.05-1.55,3.62-3.56,3.79-1.12.1-2.3-.24-3.38-.02-2.84.57-4.03,4.06-2.24,6.26,1.08,1.33,2.56,1.61,4.01.67.47-.3.78-.85,1.24-1.16,1.63-1.09,3.41-1.06,4.72,0,1.53,1.25,2.04,3.31,1.1,5.15-2.03,3.97-5.35,5.75-10.25,5.52Z"/>
  <path class="cls-1" d="M81.87,286.49c-.81-.14-1.98-.21-3.06-.54-2.64-.82-3.88-3.06-3.36-5.81.73-3.9,3.33-6.3,7.28-6.9,2.95-.45,5.71.04,8.27,1.51,2.06,1.18,2.77,3.45,1.46,5.38-2.45,3.61-5.62,6.23-10.6,6.36Z"/>
</svg>