<?xml version="1.0" encoding="UTF-8"?>
<svg id="Layer_1" data-name="Layer 1" xmlns="http://www.w3.org/2000/svg" viewBox="0 0 264.85 59.44">
  <defs>
    <style>
      .cls-1 {
        stroke-width: 0px;
      }
    </style>
  </defs>
  <path class="cls-1" d="M30.49,14.34c1.12-1.42,2.07-2.55,2.93-3.75,1.37-1.89,2.49-4.03,4.1-5.69,1.51-1.56,3.35-3,5.33-3.85,3.5-1.51,6.32.36,6.7,4.18.17,1.73.14,3.54-.15,5.25-1.31,7.62-2.67,15.24-5.62,22.44-.97,2.38-2.08,4.73-3.41,6.92-1.81,2.98-4.02,3.33-6.71,1.05-2.05-1.73-3.85-3.76-5.7-5.72-4.52-4.78-5.91-4.8-10.47,0-1.05,1.1-2.06,2.26-3.23,3.23-3.45,2.87-6.62,2.22-8.47-1.86-2.1-4.61-3.48-9.46-4.11-14.49C1.09,17.38.6,12.72.13,8.06,0,6.67-.03,5.25.04,3.85.12,2.09.79.61,2.66.12c1.7-.44,3.06.36,3.91,1.73,1.17,1.88,2.25,3.84,3.13,5.86,1.32,3.02,2.84,5.87,5.5,8.58,1.07-1.51,2.02-2.77,2.88-4.08,2.77-4.21,5.42-4.5,9.12-.96.99.95,2.01,1.89,3.29,3.09Z"/>
  <path class="cls-1" d="M224.19,45.73c1.15-.63,1.86-1.02,2.57-1.41,2.81-1.51,5.33-1.34,6.73.45,1.59,2.02,1.26,5.83-.68,7.79-4.09,4.15-16.06,4.03-19.94-.28-.76-.84-1.46-1.95-1.64-3.04-1.19-6.83-2.06-13.68.03-20.51,2.09-6.86,6.83-10.45,14.03-10.46,1.97,0,3.97.27,5.9.69,3.85.83,6.16,3.43,6.85,7.17.66,3.58.62,7.25-.71,10.74-.45,1.18-1.13,2.34-1.97,3.28-1.31,1.48-2.84,1.52-4.33.21-.78-.68-1.39-1.57-1.99-2.43-.53-.76-.89-1.65-1.43-2.42-.98-1.39-1.79-3.55-3.87-2.9-1.93.6-1.84,2.82-1.92,4.55-.13,2.97.59,5.74,2.38,8.54Z"/>
  <path class="cls-1" d="M103.56,24.6c0-4.22.02-8.44-.01-12.66,0-1.13,0-2.16-1.07-3.15-1.23-1.14-.76-2.33.8-2.87.43-.15.92-.24,1.38-.21,2.91.15,5.9-.01,8.72.58,10.19,2.15,15.26,10.3,12.97,20.48-.99,4.42-3.1,8.31-5.76,11.95-3.52,4.81-9.98,4.65-13.76,3.7-2.2-.56-3.24-2.28-3.32-4.46-.1-2.57-.01-5.15-.01-7.73,0-1.88,0-3.75,0-5.63.02,0,.04,0,.06,0ZM113.1,18.1v7.55c1.43-2.31,1.72-4.58,0-7.55Z"/>
  <path class="cls-1" d="M254.64,41.12c1.7,1.63,3.16,3.07,4.68,4.46,1.38,1.26,3.03,2.28,4.2,3.71,2.84,3.47.92,9.15-3.46,10.13-.85.19-2.22-.57-2.93-1.31-2.17-2.26-4.13-4.73-6.52-7.52-.33,1.58-.53,2.78-.84,3.94-.88,3.26-3.52,4.75-6.76,3.84-1.62-.46-2.67-1.47-2.74-3.23-.05-1.17-.06-2.35.04-3.51.57-6.54,1.19-13.08,1.75-19.61.17-1.98.41-3.98.32-5.96-.12-2.58,1.09-4.53,2.67-6.27,1.24-1.36,2.93-2,4.8-1.3,1.68.63,2.04,2.14,2.18,3.71.15,1.71.26,3.42.39,5.21,1.96-.98,3.65-2.03,5.48-2.69,2.68-.97,4.57-.45,5.72,1.2,1.27,1.83,1.17,3.98-.57,6.12-1.62,2-3.44,3.83-5.19,5.72-.94,1.01-1.91,1.99-3.23,3.35Z"/>
  <path class="cls-1" d="M100.71,24.1c-.31,5.01-.97,9.85-3.17,14.36-1.55,3.17-3.54,5.91-7.49,6.03-4.07.13-7.3-1.67-9.43-5.07-1.03-1.65-1.82-3.57-2.23-5.48-1.72-7.97-.52-15.63,3.3-22.78,4.33-8.1,9.89-7.39,15.24-.63,3.09,3.91,3.59,8.79,3.78,13.57ZM88.42,30c1.83-3.55,1.58-7.26.59-11.01-2.33,3.49-2.43,7.15-.59,11.01Z"/>
  <path class="cls-1" d="M75.12,20.53c.16,7.27-2.49,13.55-7.05,19-4.88,5.84-12.68,4.75-16.07-2.1-2.17-4.39-2.34-9.01-1.18-13.7,2.13-8.6,7.09-14.9,15.37-18.35,2.51-1.04,3.07-.79,4.83,1.28,2.28,2.69,3.21,5.93,3.71,9.32.22,1.5.27,3.03.4,4.54ZM62.39,30.27c3.94-4.41,4.96-9.8,2.62-13.19-2.47,3.98-3.64,8.05-2.62,13.19Z"/>
  <path class="cls-1" d="M144.45,21.35c-1.03,2.38.27,3.38,1.44,4.52,1.15,1.13,2.44,2.27,3.18,3.66,2.03,3.82,1.2,8.87-1.6,11.39-3.67,3.29-9.73,3.78-13.72.91-1.89-1.36-3.61-2.99-5.3-4.61-.64-.62-1.08-1.52-1.43-2.36-.82-2-.53-3.78.71-4.85,1.51-1.3,3.02-.77,4.57,0,1.46.73,2.95,1.43,4.48,2.01.56.21,1.27.03,2.7.03-1.16-1.53-1.92-2.48-2.62-3.48-1.26-1.81-2.65-3.57-3.69-5.51-1.27-2.36-1.28-4.94-.57-7.53,1.18-4.27,3.49-6.3,7.94-6.71,5.56-.52,10.17,1.19,13.38,5.97,1.52,2.27,1.95,4.75,1.18,7.38-1.19,4.05-4.78,5.01-7.84,2.1-.98-.93-1.87-1.95-2.79-2.93Z"/>
  <path class="cls-1" d="M183.82,38.03c.23-6.25,2.01-12,4.73-17.56,2.32-4.74,5.86-5.18,10.62-3.31.53.21,1,.6,1.46.97,6.98,5.66,8.25,19.45,2.39,26.23-3.02,3.49-6.86,5.2-11.51,5-3.66-.15-5.92-1.84-6.83-5.44-.48-1.91-.58-3.92-.86-5.89ZM194.22,34.31c.31.04.61.08.92.12.24-1.27.49-2.54.73-3.81-.29-.05-.59-.11-.88-.16-.26,1.28-.51,2.56-.77,3.85Z"/>
  <path class="cls-1" d="M176.74,28.05c-.39,3.01-.73,6.15-1.24,9.25-.32,1.95-.6,4.01-1.46,5.74-.73,1.47-2.06,2.96-3.51,3.7-3.75,1.93-7.31-.56-6.88-4.75.27-2.66.98-5.29,1.55-7.92.27-1.26.74-2.47,1-3.73.83-4.09.65-4.33-3.47-5.4-4.7-1.22-5.97-4.23-3.49-8.44,1.71-2.89,4.05-4.78,7.68-4.63,1.63.07,3.28-.23,4.92-.24,1.4-.01,2.83-.04,4.19.24,6.63,1.38,8.85,5.52,6.65,12.74-.7,2.3-1.56,2.63-5.91,3.44Z"/>
</svg>