<?xml version="1.0" encoding="UTF-8"?>
<svg id="Layer_1" data-name="Layer 1" xmlns="http://www.w3.org/2000/svg" viewBox="0 0 284.01 52.92">
  <defs>
    <style>
      .cls-1 {
        stroke-width: 0px;
      }
    </style>
  </defs>
  <path class="cls-1" d="M0,22.61C-.3,12.71,11.38.3,21.9,2.85c9.01,1.71,11.65,12.72,6.31,19.13-2.26,2.59-5.38,4.46-8.42,5.99-5.47,2.16-5.82,4.36-5.53,9.73.1,4.47.58,9.38-2.34,13.06-2.23,2.95-7.45,2.97-9.13-.56-.79-1.46-1.1-3.18-1.28-4.8C1,38.91.39,30.65,0,22.81v-.2ZM15.38,21.72c2.15-.81,2.2-3.78.6-6.34-.14-.19-.28-.29-.41-.28-.13.01-.25.14-.36.35-1.02,2.49-1.12,4.21.06,6.22l.11.05Z"/>
  <path class="cls-1" d="M227.99,38.96c.96-.19,1.08-1.78.62-3.12-1.28-3.75-5.73-5.84-7.08-9.45-2.74-8.17,2.58-18.62,10.71-21.61,4.1-1.14,9.28.77,11.96,4.14,3.82,4.51,4.53,16.17-1.17,19.4-1.68.75-3.51-.23-4.46-1.67-1.61-2.36-2.48-5.37-4.79-7.34-1.77-1.72-4.76-1.34-5.4,1.23-.97,4.24,3.38,7.31,6.08,9.97,4.3,3.83,6.98,9.62,1.61,13.87-5.66,4.99-16.16,3.82-18.74-3.82-1.52-3.78-1.71-10.85,4.01-10.09,2.24.37,3.62,2.77,4.42,4.98.54,1.15.81,3.15,2.15,3.51h.09Z"/>
  <path class="cls-1" d="M50.88,22.05c.08,12.37-9.73,22.6-20.64,27.17-5.26,2.45-12.91,2.13-11.5-5.6.96-5.58,3.93-10.44,7-15.09,2.5-3.62,4.89-7.35,7.78-10.69,7.87-8.17,16.62-10.17,17.35,4.01v.19ZM29.07,41.92c2.81-.11,7.18-3.62,7.69-6.42,0-1.13-1.09-2.18-2.23-1.98-.43.07-.77.34-1.08.65-1.9,2.13-4.26,4.68-4.46,7.68l.07.07Z"/>
  <path class="cls-1" d="M111.23,23.32c1.21-.4,1.25-2.48,1.45-3.61.47-4.61.05-9.76,1.39-14.33.84-3.45,5.09-5.41,7.17-1.8,1.13,2.26.92,5.05,1.02,7.54.03,7.49-.12,15.1-1.08,22.57-.38,2.73-.88,5.54-2.23,7.95-1.11,2.16-4.34,4.55-6.55,2.73-3.24-2.54.12-11.15-2.95-12.13-2.79.69-1.53,9.7-4.19,11.97-2.45,2.1-5.2-1.97-4.92-4.48.5-6.01,1.79-11.91,2-18,.33-4.51.6-9.01.79-13.55.07-1.36.11-2.92.61-4.15.73-2.14,3.72-2.52,5.16-.94.68.73.96,1.81,1.08,2.83.67,3.34-1.24,16.08,1.19,17.38h.08Z"/>
  <path class="cls-1" d="M137.15,22.85c1.19,2.8,4.64,4.21,6.36,6.75,2.47,3.02,3.34,6.64,2.76,10.6-.27,2.48-2.02,5.54-4.84,4.58-3.81-1.67-3.45-6.8-5.19-9.98-.73-1.41-1.65-3.1-3.06-3.87-1.99-.71-1.85,2.67-2.04,4.52-.15,2.81-.43,5.81-2.22,7.99-3.47,4.12-7.14,1.66-6.11-3.38,1.37-10.8,2.75-21.66,3.99-32.55.27-3.05,1.44-7.5,5.12-7.52,1.94,0,3.34,1.98,3.29,3.9.1,2.62-1.82,5-2.49,7.57-.5,1.65-.42,3.82.18,4.02.06.03.13.04.2.02.44-.08.86-.88,1.09-1.37,1.55-3.63,2.45-7.83,5.31-10.75,3.54-3.65,7.16-1.45,7.23,3.31.53,10.61-9.67,10.21-9.61,16l.03.15Z"/>
  <path class="cls-1" d="M59.91,20.71c.02,2.75.29,5.62.51,8.4.18,1.5.29,3.29,1.33,4.44,1.76,1.58,2.97-1.37,3.09-2.83,1.12-6.49-2.83-21.2,3.05-25.26,8.65-3.68,8.65,21.78,6.85,26.48-1.41,5.85-4.68,10.34-10.7,12.01-3.19.93-7.23.87-9.34-1.93-1.55-1.89-2.1-5.05-2.31-7.71-.34-4.37-.47-8.75-.67-13.15.03-3.61-1.07-8.07.89-11.09,1.14-1.78,4.01-3.35,5.66-1.39,2.18,3.23,1.37,8.25,1.64,11.86v.18Z"/>
  <path class="cls-1" d="M271.68,25.65c1.59,1.45,5.95-.04,7.36,2.08,1.72,2.65.22,8.37-3.57,7.15-2.17-.43-5.95-3.6-7.05-.13-.43,1.68-.4,3.57-.12,5.26.48,3.54,4.33,2.76,6.89,2.43,1.92-.2,4.75-.53,5.76,1.3.82,1.57.46,4.78-1,5.98-1.14.96-2.86,1.02-4.33,1.06-3.36,0-6.54-.01-9.95-.31-2.16-.23-4.75-.75-5.81-2.84-1.21-2.51-.48-5.9-.08-8.6,1.2-6.8,2.28-13.69,3.54-20.52.92-4,1.79-10.87,7.16-10.57,3.17.28,6.2,1.43,9.21,2.31,1.37.43,2.83,1.05,3.63,2.27,1.5,2.19.38,5.97-2.01,6.84-.91.34-1.89.2-2.81-.08-2.75-1.03-6.44-2.4-7.17,1.62-.31,1.64-.61,3.73.25,4.65l.1.1Z"/>
  <path class="cls-1" d="M91.22,26.07c-1.15-.95-3.49-.15-5.04-.98-2.14-.89-1.71-3.9.16-4.87,2.15-1.19,5.2-.83,7.72-.98,2.32.05,5.93-.38,6.87,2.28.8,3.43-4.04,4.8-4.8,7.65-.96,4.82-.16,10.47-3.92,14.33-6.45,6.7-17.08-.02-16.47-8.52.06-8,.57-24.63,7.09-29.9,3.02-2.32,7.99-3.03,10.38.52,2.26,3.01,3.73,11.25-1.72,11.42-2.09-.11-4.72-2.21-6.64-1.3-2.18.99-2.9,3.81-3.01,6.04.05,4.47.78,10.16,4.25,13.28,1.8,1.23,3.57-.05,4.3-1.96.63-1.87,2.23-5.37.94-6.93l-.09-.09Z"/>
  <path class="cls-1" d="M195.95,26.62c.35-5.22.19-10.52-.08-15.75-.82-6.94,1.56-7.33,7.82-6.78,4.51.49,9.35.77,13.07,3.67,2.99,2.39,3.84,6.91,2.07,10.27-1.52,2.98-4.86,4.29-7.72,5.65-2.82,1.2-4.14,3.75-4.42,6.62-.41,3.18-.7,6.34-1.35,9.39-.46,2.06-1.25,4.16-2.9,5.56-1.65,1.5-4.57,1.91-5.96-.11-.85-1.18-.96-2.77-.99-4.21.04-4.68-.03-9.48.46-14.13l.02-.18ZM204.57,18.34c2.55.05,4.78-1.37,5.45-3.79.03-.23.07-.54-.16-.68-.62-.29-1.77-.08-2.52-.14-.93.1-2.05-.25-2.83.23-.5,1.11-.1,2.61-.22,3.77,0,.19.05.39.17.54l.11.07Z"/>
  <path class="cls-1" d="M157.48,29.65c-1.05,1.62-.4,4.56.42,6.27,1.63,2.73,6,.08,8.33,1.52.47.28.83.69,1.05,1.2.68,1.68.26,3.9-1.05,5.18-1.5,1.43-4.03,1.45-6.31,1.68-1.86.14-3.75.29-5.61.11-3.8-.19-5.13-3.08-4.93-6.67.2-8.71.55-17.34.9-26.01.1-2.35.29-4.74,1.27-6.91,1.53-4.11,5.76-4.98,9.82-4.68,2.24.13,5.25-.12,6.71,1.67,1.1,1.42,1.33,4.07.33,5.61-.86,1.26-2.6,1.51-4.08,1.7-5.66.33-6.75,2.71-6.42,8.17.04,1.04.07,2.2.55,3.12,1.3,2.49,5.11.92,6.67,3.13,1.09,1.43.05,3.67-1.71,4.08-1.8.73-4.3-.47-5.85.73l-.09.09Z"/>
  <path class="cls-1" d="M170.29,28.92c.17-5.08.61-10.23,1.19-15.28.32-2.08.81-4.2,1.83-6.06,2.71-4.72,10.12-3.88,14.68-2.81,3.35,1.04,4.16,4.19.35,5.28-6.23,1.61-10.74-.26-10.32,8.54-.02,2.31.42,5.36,3.31,5.48,2.11.26,4.96-.62,6.53,1.25.86,1.06.4,2.7-.93,3.38-1.82.97-4.05.45-6.02.53-3.93-.21-4.68,3.05-3.28,6.27,1.07,2.05,3.42,1.82,5.48,1.63,2.16-.16,5.14-.66,6.1,1.69.59,1.75-.2,3.89-1.51,5.15-2.26,2.14-6.11,1.96-9.19,2.08-2.97.06-7.12-.02-7.87-3.6-.85-4.34-.15-9.11-.37-13.37v-.18Z"/>
  <path class="cls-1" d="M259.47,16.7c-.21,4.28-.93,8.6-1.38,12.91-.39,3.15-.74,6.32-1.21,9.44-.5,2.7-1.09,5.85-3.24,7.83-1.34,1.2-3.44,1.2-4.99.31-2.48-1.4-2.2-4.85-1.79-7.31,1.67-9.77,3.38-19.57,5.09-29.32.27-1.37.77-3.05,1.92-3.82,1.36-.92,3.16-.06,4.13,1.07,2,2.4,1.32,5.83,1.47,8.7v.18Z"/>
</svg>