<?xml version="1.0" encoding="UTF-8"?>
<svg id="Layer_1" data-name="Layer 1" xmlns="http://www.w3.org/2000/svg" viewBox="0 0 291.04 69.89">
  <defs>
    <style>
      .cls-1 {
        stroke-width: 0px;
      }
    </style>
  </defs>
  <path class="cls-1" d="M276.33,44.65c.07-1.58.16-3.17.22-4.75.2-5.23.22-10.48.67-15.68.25-2.91,1.08-5.8,1.93-8.62.67-2.23,1.83-4.41,4.57-4.49,2.78-.08,4.3,1.91,5.19,4.22.71,1.85,1.3,3.83,1.43,5.79.87,12.75,1.03,25.51-.09,38.25-.21,2.34-.8,4.71-1.62,6.92-1.22,3.28-3.65,4.09-6.58,2.13-2.03-1.35-3.87-3.09-5.52-4.91-4.18-4.64-7.27-10.01-9.83-15.67-1.3-2.86-2.33-5.86-3.82-8.62-1.67-3.08-3.53-6.09-5.66-8.87-1.69-2.2-3.26-1.73-3.79,1.05-.39,2.03-.48,4.17-.37,6.25.18,3.23.63,6.44,1.01,9.66.59,5.04.65,10.07-.27,15.09-.07.37-.13.75-.2,1.13-1.33,6.97-6.02,7.32-11.16,5.31-2.53-.99-3.32-3.07-2.4-5.61,3.69-10.22,5.66-20.73,5.45-31.63-.06-3.33.12-6.67.36-9.99.37-5.1,2.62-7.16,7.64-7.29,3.37-.09,6.22.8,7.86,4.05,1.11,2.21,2.27,4.39,3.34,6.62,2.35,4.89,4.6,9.83,7.02,14.69.96,1.93,2.16,3.77,3.88,5.15l.75-.17Z"/>
  <path class="cls-1" d="M12.26,23.86c2.45-1.59,3.17-3.37,3.91-5.09,1.09-2.54,1.91-5.21,3.2-7.64,1.1-2.07,2.51-4.07,4.15-5.74,2-2.05,4.64-2.96,7.58-2.57,4.53.6,6.38,4.16,4.05,8.08-1.16,1.95-2.67,3.71-4.12,5.47-2.37,2.86-4.92,5.58-7.22,8.5-1.29,1.63-2.41,3.45-3.27,5.34-1.15,2.52-.65,4.05,1.55,5.74,1.2.93,2.59,1.62,3.79,2.55,3.3,2.57,6.75,4.99,9.75,7.88,3.68,3.53,5.27,8.09,4.9,13.24-.05.66-.12,1.33-.27,1.98-.69,3-2.4,3.85-4.99,2.28-1.53-.93-2.94-2.12-4.24-3.36-4.6-4.43-9.28-8.77-12.94-14.08-.83-1.2-1.77-2.9-3.54-2.33-1.6.51-1.86,2.35-2.09,3.82-.32,2.06-.22,4.19-.51,6.26-.36,2.53-.69,5.1-1.48,7.52-.68,2.11-2.07,4.09-4.69,3.92-2.49-.16-3.44-2.28-4.03-4.3-.66-2.27-1.22-4.64-1.34-6.99C-.32,40.24-.04,26.14.92,12.06c.21-3,1.03-6.01,1.93-8.9C3.69.46,4.91-.06,8.2,0c2.15.04,4.1,1.33,4.67,3.53.43,1.63.62,3.4.49,5.07-.25,3.32-.87,6.61-1.19,9.93-.15,1.55.04,3.14.09,5.32Z"/>
  <path class="cls-1" d="M66.47,16.21c-.42,1.54-.9,2.5-.9,3.47-.01,2.75-.04,5.53.32,8.24.7,5.38,1.96,10.71,2.41,16.1.4,4.81.18,9.7-.09,14.54-.1,1.83-.89,3.71-1.72,5.4-1.12,2.29-3.89,2.45-5.31.31-.88-1.31-1.71-2.87-1.89-4.39-.43-3.58-.87-7.25-.56-10.82.85-9.92.37-19.8-.11-29.7-.1-2.09-.08-4.19-.04-6.29.12-6.33,6.47-8.51,10.91-6.46,2.23,1.03,4.08,2.59,5.28,4.67,2,3.45,3.78,7.03,5.57,10.6,2.01,4,3.9,8.05,5.88,12.06.46.94.98,1.88,1.66,2.66.65.74,1.54,1.27,2.33,1.89.58-.8,1.27-1.54,1.69-2.42.36-.75.51-1.65.56-2.49.24-3.7.43-7.41.59-11.12.16-3.71.08-7.44.43-11.13.43-4.5,3.37-6.73,7.82-6.35,2.23.19,3.83,1.28,4.43,3.43.4,1.45.71,3.02.58,4.49-.45,4.73-.88,9.49-1.76,14.15-1.9,10.12-3.76,20.23-4.28,30.54-.16,3.25-1.58,4.18-4.72,3.2-2.84-.88-5.13-2.65-6.75-5.05-1.81-2.67-3.41-5.5-4.86-8.38-2.44-4.85-4.52-9.89-7.08-14.67-2.6-4.87-5.58-9.53-8.44-14.26-.41-.67-1.05-1.2-1.98-2.25Z"/>
  <path class="cls-1" d="M242.64,30.12c-.35,6.46-1.08,12.77-3.29,18.84-1.68,4.61-3.99,8.86-7.65,12.23-5.7,5.25-12.37,6.38-19.66,4.26-3.59-1.05-5.77-3.53-6.51-7.25-.81-4.08-.64-8.15.08-12.21,2.22-12.64,7.76-23.58,16.78-32.77,1.74-1.77,3.7-2.75,6.1-2.44,2.91.38,5.79.95,8.65,1.61,2.28.52,3.56,2.14,3.86,4.44.58,4.42,1.1,8.86,1.64,13.29ZM214.76,48.4c.09,1.36.03,2.34.24,3.25.38,1.62.33,3.74,2.43,4.13,2.18.4,2.85-1.6,3.54-3.11,3.61-7.88,7.07-15.83,8.62-24.43.36-1.97.69-3.94.86-5.93.14-1.64-.98-2.25-2.37-1.33-.78.51-1.47,1.23-2.03,1.98-4.94,6.52-8.47,13.76-10.69,21.62-.38,1.36-.45,2.81-.61,3.82Z"/>
  <path class="cls-1" d="M114.99,36.32c.27,2.83.42,5.68.88,8.48.24,1.47.9,2.91,1.57,4.26,1.26,2.55,3.13,3.25,6.2,2.51,3.04-.73,4.52-2.25,4.46-5.05-.05-2.18-.42-4.35-.68-6.52-.14-1.17-1.04-1.52-2.01-1.71-1.03-.19-2.1-.2-3.1-.46-2.1-.56-2.85-2.42-1.6-4.18.57-.8,1.54-1.38,2.44-1.83.64-.32,1.48-.38,2.23-.35,5.14.16,10.28.33,15.41.57,2.28.11,3.45,1.07,4.05,2.99.63,2.04.07,3.64-1.95,4.44-1.47.58-3.11.84-4.7,1.01-3.18.35-3.96,1.14-3.75,4.37.13,2.09.41,4.17.59,6.26.47,5.44-2.02,9.05-7.34,10.24-5.64,1.26-10.71-.12-14.62-4.38-5.33-5.8-7.59-12.6-5.92-20.55.84-4,1.21-8.09,1.97-12.1,1.41-7.43,4.26-13.93,11.33-17.87,6.08-3.38,16.4-2.28,21.43,2.53,1.6,1.53,2.6,3.26,2.26,5.57-.41,2.82-.58,5.7-1.22,8.47-.32,1.39-1.18,2.88-2.23,3.84-2.15,1.97-4.99,1.15-5.94-1.6-.49-1.42-.62-2.97-.85-4.48-.63-4.09-2.77-5.95-6.94-5.97-5.11-.02-9.18,3.16-10.51,8.41-.53,2.11-.83,4.31-1,6.49-.17,2.18-.04,4.37-.04,6.56-.14,0-.28.02-.41.03Z"/>
  <path class="cls-1" d="M162.05,46.17c-.36-4.76-2.58-8.05-7.07-9.69-2.96-1.08-5.54-2.5-6.92-5.53-.8-1.77-1.35-3.53-.85-5.51.44-1.75.79-3.53,1.12-5.31.95-4.97,3.85-8.72,7.82-11.54,1.62-1.15,3.83-1.64,5.85-2.02,4.43-.85,8.85-1.08,13.17.87,3.31,1.49,4.6,3.3,3.96,6.93-.62,3.55-1.44,7.09-2.39,10.57-.73,2.67-2.64,4.32-5.36,5.04-1.55.41-2.79.02-3.87-1.14-1-1.08-.83-2.16-.34-3.43.85-2.22,1.65-4.47,2.24-6.77.69-2.69-.4-4.21-3.17-4.59-2.48-.34-4.69.23-6.48,2.17-3.87,4.21-3.78,9.73.39,13.78,1.01.99,2.27,1.72,3.42,2.56,1.47,1.06,3.04,1.99,4.4,3.17,3.88,3.34,5.36,7.61,4.14,12.59-.63,2.57-1.57,5.09-2.66,7.51-3.86,8.59-17.49,9.57-22.95.88-2.42-3.85-3.21-8.13-2.62-12.61.17-1.28.76-2.55,1.38-3.71.84-1.56,1.99-2.83,4.05-2.57,2.05.26,4.05,1.87,4.44,3.91.23,1.18.08,2.45-.04,3.66-.16,1.51-.56,3-.68,4.51-.15,1.88.41,3.59,1.78,4.95,1.92,1.91,3.97,1.71,4.97-.78,1.01-2.53,1.53-5.26,2.26-7.9Z"/>
  <path class="cls-1" d="M192.18,9.4c5.71.96,11.45,1.83,17.14,2.92,2.51.48,3.33,1.62,2.95,4.05-.39,2.51-.96,5.06-1.93,7.39-1.27,3.04-3.83,4.63-7.17,4.85-1.14.08-2.29.14-3.41.34-3.13.55-4.58,2.21-4.91,5.39-.57,5.39-1.06,10.79-1.82,16.15-.4,2.81-1.01,5.65-2.02,8.29-1.69,4.46-6.95,6.23-11.16,4.06-1.5-.77-2.35-2.08-2.25-3.69.13-2.07.27-4.22.95-6.15,1.34-3.75,3-7.4,4.65-11.04,1.14-2.51,2.48-4.93,3.73-7.39.47-.93.94-1.87,1.36-2.83,2.1-4.76,1.47-6.03-3.5-7.13-4.44-.98-5.5-3.06-3.54-7.18.73-1.54,1.65-3,2.58-4.44,1.2-1.86,2.87-3.01,5.16-3.09,1.05-.03,2.09-.12,3.13-.18l.06-.32Z"/>
  <path class="cls-1" d="M56.35,36.68c-.42,4.87-.95,11.98-1.7,19.07-.21,1.95-.96,3.88-1.69,5.72-.71,1.79-1.7,3.53-4.06,3.41-1.9-.1-3.54-1.81-4.06-4.2-.3-1.39-.53-2.81-.64-4.23-.71-8.72-1.49-17.44-2-26.18-.28-4.84-.07-9.71-.1-14.56-.01-2.83.85-5.41,2.08-7.93.73-1.49,1.84-2.03,3.42-2.02,3.28.01,5.62,1.41,6.41,4.58.83,3.3,1.4,6.71,1.68,10.11.39,4.64.4,9.31.65,16.24Z"/>
</svg>