<?xml version="1.0" encoding="UTF-8"?>
<svg id="Layer_1" data-name="Layer 1" xmlns="http://www.w3.org/2000/svg" viewBox="0 0 242.32 51.09">
  <defs>
    <style>
      .cls-1 {
        stroke-width: 0px;
      }
    </style>
  </defs>
  <path class="cls-1" d="M102.03,19.24c0,4.3.03,8.6-.02,12.9-.02,1.32-.11,2.68-.45,3.95-.61,2.25-2.28,2.91-4.37,1.86-.78-.39-1.48-.91-2.35-1.45-1.12-9.2-1.05-18.52-.62-27.84.16-3.42,1.24-4.66,3.95-5.42,3.05-.85,4.48-.16,5.93,2.68,2.47,4.84,5.01,9.66,7.54,14.47.34.65.81,1.24,1.43,2.17,1.63-3.39,1.8-6.71,2.26-9.93.44-3.1-.21-6.33.62-9.9,2.3,1.04,4.06,1.69,5.67,2.6,1.94,1.09,2.61,3.03,2.51,5.12-.19,4.1-.4,8.21-.85,12.29-.41,3.63-.99,7.27-1.8,10.83-1.02,4.43-3.72,5.44-7.66,3.1-2.37-1.41-4.03-3.5-5.26-5.9-1.41-2.77-2.65-5.62-3.98-8.44-.51-1.08-1.05-2.16-1.58-3.23-.32.05-.65.09-.97.14Z"/>
  <path class="cls-1" d="M58.47,30.7c-.99-2.64-2.73-2.53-4.13-2.93-1.81-.52-3.69-.81-5.44-1.46-3.49-1.29-5.23-3.92-5.42-7.64-.12-2.44-.38-4.87-.58-7.3-.42-5.04,1.83-8.64,6.61-10.31,3.77-1.32,7.64-1.4,11.47-.23,6.8,2.08,10.62,9.46,8.39,16.18-.34,1.03-.88,2.06-1.56,2.91-1.78,2.2-3.62,2.35-5.7.41-1.3-1.21-2.27-2.77-3.62-3.91-1.41-1.19-3.01-2.27-4.7-3-1.63-.7-2.73.15-3.12,1.9-.79,3.55,1.16,6.68,4.72,7.57,1.83.46,3.73.72,5.47,1.41,1.4.55,2.89,1.37,3.82,2.5,2.93,3.53,3.45,9.57-3.88,10.93-3.68.68-7.33.57-10.83-.79-2.48-.96-4.45-2.58-4.72-5.5-.26-2.8,1.38-4.26,4.1-3.55,1.6.41,3.11,1.19,4.69,1.7,1.22.39,2.49.63,4.42,1.1Z"/>
  <path class="cls-1" d="M29.69,34.22c.17.53.38,1.05.49,1.59.47,2.18-.24,3.38-2.38,3.95-2.54.67-4.85-.03-6.99-1.36-1.12-.69-2.14-1.54-3.63-2.62.1,1.68.22,3.03.26,4.38.09,2.95-.74,4.27-2.78,4.54-2.24.3-4.84-1.29-5.47-3.44-.37-1.27-.48-2.63-.9-3.89C5.81,29.99,3.34,22.63.75,15.3c-1.25-3.55-1.17-4.39,2-6.31,4.51-2.75,9.31-4.23,14.63-2.73,3.91,1.11,5.91,3.73,6.08,7.76.11,2.75-.5,5.29-2,7.61-.66,1.02-1.3,2.06-2.06,3.28,1.9,3.92,5.98,5.45,8.96,8.14.44.39.88.78,1.33,1.17ZM7.86,15.08c1.22,2.35,1.59,4.88,3.51,6.66,2.15-2.46,2.74-5.39,1.51-6.94-.96-1.21-1.95-1.18-5.02.28Z"/>
  <path class="cls-1" d="M229.2,26.32c-.32,1.35-.56,2.37-.91,3.83,1.44.09,2.5.14,3.56.22,1.1.08,2.22.1,3.3.33.6.13,1.42.48,1.64.96.82,1.79,0,3.46-.75,5.08-.65,1.41-1.85,1.84-3.31,1.62-1.49-.22-2.97-.49-4.78-.8-.14,1.44-.24,2.48-.37,3.8,1.12.14,1.96.34,2.8.33,2.55-.04,5.11-.28,7.66-.2,1.14.04,2.6.32,3.32,1.06,1.71,1.77.78,3.99.25,6-.46,1.72-1.78,2.46-3.52,2.49-.33,0-.67.01-1,.01-4.33.01-8.67.08-13,0-1.53-.03-3.12-.23-4.57-.69-2.96-.94-3.94-2.81-3.53-5.89.85-6.37,1.68-12.75,2.49-19.13.22-1.75.13-3.56.54-5.25.67-2.81,1.34-2.93,4.23-2.78,3.98.2,7.98.1,11.98.03,3.7-.06,4.9,1.06,4.76,4.6-.17,4.08-1.91,5.82-5.42,5.33-1.64-.23-3.26-.58-5.34-.96Z"/>
  <path class="cls-1" d="M154.24,23.09c.02,10.81-8.23,18.1-18.97,16.71-1.98-.26-3.96-.59-5.87-1.14-2.45-.72-3.29-2.03-2.96-4.48,1.08-8.15,1.9-16.32,1.89-24.56,0-2.4.66-3.1,3.02-2.83,4.08.47,8.21.9,12.16,1.94,6.67,1.75,10.73,7.48,10.74,14.36ZM134.5,31.85c4.2-.57,7.79-1.45,10.56-4.31,3.95-4.08,2.59-9.19-2.86-10.74-1.05-.3-2.18-.45-3.27-.41-2.26.09-2.89.67-3.16,2.98-.47,3.95-.81,7.92-1.26,12.48Z"/>
  <path class="cls-1" d="M80.56,25c.16,3.1.24,3.34,2.5,3.46,1.99.11,3.99-.12,5.99-.13,3.35-.03,4.35,1.1,3.99,4.48-.05.44-.1.88-.18,1.32-.61,3.32-1.41,3.9-4.71,3.53-4.75-.52-9.5-1.01-14.24-1.53-.88-.1-1.76-.22-2.64-.38-1.46-.28-2.08-1.21-1.85-2.65.19-1.2.44-2.4.72-3.59,1.41-5.98,2.03-12.03,1.83-18.17-.03-1-.04-2,.03-3,.2-2.85,1.25-4.32,3.99-5.07,5.01-1.38,10.07-1.35,15.25-.31.41,2.83.14,5.4-.93,7.9-1.14,2.68-1.97,3.18-4.89,2.73-1.72-.26-3.43-.59-5.08-.88-1.32,3.69-.87,4.58,2.33,5.26.54.12,1.1.19,1.64.27,2.86.44,3.33.99,2.99,3.56-.38,2.8-1.53,3.76-4.19,3.49-.84-.09-1.68-.18-2.55-.28Z"/>
  <path class="cls-1" d="M163.74,37c-.58,1.33-.98,2.36-1.47,3.34-.93,1.85-1.79,2.26-3.75,1.86-.65-.13-1.28-.35-1.91-.57-2.64-.93-2.73-1.28-1.66-3.83,2.35-5.63,4.81-11.22,6.87-16.96,1.65-4.6,4.63-7.15,9.42-7.73.55-.07,1.1-.16,1.64-.27,4.44-.88,5.54-.26,6.41,4.22.71,3.7,1.06,7.47,1.66,11.19.79,4.92,1.64,9.84,2.53,14.75.73,4-.47,5.1-4.43,4.04-2.39-.64-3.92-2.01-4.29-4.49-.56-3.71-2.44-5.72-6.44-5.35-1.41.13-2.86-.11-4.56-.19ZM172.2,21.79c-3.41-.03-4.74,2.25-4.91,8.1,1.75.12,3.5.25,5.64.4-.27-3.17-.5-5.85-.73-8.5Z"/>
  <path class="cls-1" d="M192.15,16.08c.48-.26,1.15-.64,1.82-.99,2.52-1.33,4.53-.73,5.08,2.03.5,2.56.43,5.3.22,7.92-.36,4.43-1.03,8.82-1.55,13.24-.08.64-.01,1.31-.01,2.33,1.68.29,3.29.6,4.9.83,2.31.33,4.64.54,6.93.93,1.7.29,2.77,1.31,2.94,3.13.16,1.75-.48,3.21-2.06,3.82-1.51.59-3.24,1.11-4.8.94-4.52-.51-9.02-1.3-13.5-2.14-2.89-.54-3.44-1.35-3.14-4.45.3-3.09.89-6.16,1.24-9.25.67-5.95,1.26-11.92,1.92-18.34Z"/>
  <path class="cls-1" d="M29.69,34.22c-.44-.39-.88-.78-1.33-1.17-.27-.72-.44-1.49-.82-2.14-3.33-5.78-3.03-11.72-.61-17.63,2.01-4.91,7.03-5.85,10.89-2.12,1.08,1.05,2,2.43,2.56,3.83,2.32,5.74,2.44,11.67,1.02,17.65-.2.85-.55,1.7-.98,2.46-1.38,2.44-3.34,3.14-5.89,1.94-1.69-.79-3.23-1.88-4.84-2.83ZM33.09,26.81c1.45-2.7,1.34-3.72-.6-5.76-.54,2.05-.58,3.89.6,5.76Z"/>
</svg>