<?xml version="1.0" encoding="UTF-8"?>
<svg id="Layer_1" data-name="Layer 1" xmlns="http://www.w3.org/2000/svg" viewBox="0 0 259.5 137.68">
  <defs>
    <style>
      .cls-1 {
        stroke-width: 0px;
      }
    </style>
  </defs>
  <path class="cls-1" d="M96.08,38.65c-.06,3.03-.24,6.4-.47,10.17-.35,4.44-.54,9.67-3.28,13.1-3.57,4.2-9.92,2.77-14.23.3-12.14-6.58-31.17-27.8-38.2-29.08-6.36-1.16-1.62,20.86-11.68,25.19-4.94,2.48-12.57,1.1-15.96-3-3.97-5.19.7-11.52,1.64-17.08,2.74-10.78,4.44-22.48,10.89-31.8,6.08-8.15,16.73-9.11,22.29.26,6.02,10.81,7.89,20.45,21.85,10.76,2.79-1.86,5.84-3.89,8.74-5.67,11.18-6.86,14.87-6.25,16.87,6.65.93,6.52,1.66,13.62,1.57,20.03v.18Z"/>
  <path class="cls-1" d="M130.25,47.68c-.1,2.85,7.88,2.46,9.99,2.3,5.35-.39,10.84-1.29,15.52-.22,6.86,1.23,10.58,7.93,6.48,14.04-2.27,3.58-6.33,5.77-10.34,6.97-13.17,3.83-28.59,1.59-42.13-1.24-3.38-.84-6.46-2.34-8.09-5.48-4.72-9.63-.66-28.2.64-40.29,2.02-15.8,17.27-15.46,31.01-16.55,5.91-.54,12.7-1.64,18.3.56,5.3,2.18,6.56,7.02,4.25,11.31-4.92,8.75-16.36,7.84-25.27,8.8-7.49,1.38-5.94,4.89.11,4.84,4.87.24,10.55-1.34,15.2.67,4.77,2.26,2.19,8.94-2.06,10.89-3.15,1.73-7.18,1.57-10.59,2.08-1.6.25-2.7.69-2.99,1.26l-.03.06Z"/>
  <path class="cls-1" d="M258.23,20.56c-.43,3.51-2.36,6.6-4.34,9.73-2.27,3.58-4.68,7.31-7.02,10.87-5.66,8.47-11.1,16.88-18.07,24.18-13.4,13.72-9.65-8.6-28.59-.88-7.62,3.19-13.72,5.65-18.11-3.45-2.38-4.67-3.73-10.09-5.16-15.15-1.49-5.5-3.05-9.75-4.64-14.48-1.94-6.21-4.07-12.64-7.3-18.36-2.26-4.13-.91-8.63,4.01-9.31,11.85-1.13,16.31,20.35,19.99,29.29.92,2.35,1.89,5.17,3.83,6.67,3.45,2.2,6.74-2.4,11.55-3.15,2.22-.5,4.57-.5,6.8,0,6.25,1.6,10.59,5.6,15.81-.22,6.16-6.39,10.25-16.43,17.14-20.85,5.44-4.13,14.78-3.87,14.1,4.93l-.02.19Z"/>
  <path class="cls-1" d="M24.79,109.61c-1.55,2.86.22,6.22.12,10.21.52,12.16-7.51,21.82-18.62,12.94-6.54-6.37-4.45-16.51-4.75-24.77-.03-5.94-.22-10.93-.81-17.24-.25-5.31-2.17-12.81,1.51-17.03,3.2-2.86,8.28-1.81,12.29-1.66,13.37.84,28.58,1.5,36.93,13.22,6.42,8.34,2.43,16.08-7.78,19.78-3.29,1.26-7.04,2.11-10.79,2.52-3.45.48-6.16,0-8.03,1.94l-.07.1ZM22.83,92.79c.34.41.85.65,1.5.76,1.8.21,4.12.09,6.02-.2,5.48-.87,5.09-3.84-.65-5.14-1.67-.35-3.69-.74-5.33-.59-2.23.21-2.51,3.52-1.61,5.07l.08.11Z"/>
  <path class="cls-1" d="M100.74,133.97c-10.63-.22-9.8-13.76-19.49-15.01-9.73-1.14-6.8,11.81-13.54,15.12-5.07,2.55-12.87-.86-11.35-7.09,5.27-16.13,1.22-48.71,18.4-51.75,15.64-1.23,25.21,14.33,29.71,27.45,1.87,5.22,3.37,10.59,4.89,15.76,2.85,8.54,3.25,15.75-8.41,15.53h-.2ZM81.32,94.68c-.53.01-1.06.7-1.5,1.7-.72,1.63-1.17,3.32-1.47,5.06-.98,4.2,1.34,4.99,5.03,4.41,2.74-.61,1.2-3.95.78-5.8-.54-1.48-1.26-4.96-2.73-5.36h-.11Z"/>
  <path class="cls-1" d="M230.45,113.54c.85,1.47,3.34,1.49,4.99,1.59,6.41.18,13.28-.27,19.14,2.77,9.5,5.28,4.01,15.37-5.88,12.93-9.73-2.32-20.12-1.27-30.03-.4-12.73,2.17-15.3-3.44-9.84-14.36,3.9-7.38,9.91-11.65,15.43-17.31.96-1.12,4.7-4.45,2.13-5.2-4-.59-13.43,4.08-17.32,0-3.35-3.63-2.68-11.81,1.87-14.64,2.56-1.63,5.87-1.96,8.91-2.28,16.49-2.07,37.91-.03,26.48,18.13-2.57,4.74-17.27,14.58-15.9,18.68l.04.09Z"/>
  <path class="cls-1" d="M119.89,102.66c.31-3.92.35-8.77.33-13.26-.28-6.1-.81-14.48,7.39-13.93,9.28,1.61,7.7,23.48,9.24,30.47,2.02,16.25,14.22,8.53,24.51,12.12,6.49,2.28,6.91,11.11,1.12,14.57-3.7,2.28-9.09,2.44-13.52,2.68-19.91.91-28.99,1.15-29.77-16.59-.28-5.18.26-10.96.68-15.87v-.18Z"/>
  <path class="cls-1" d="M170.27,79.67c8.39.8,20.93-3.87,26.98,1.27,4.04,3.46,3.36,10.43-1.87,12.42-3.36,1.66-7.87,1.64-10.64,4.37-7.8,9.09,16.31,35.51-5.56,39.88-5.51.72-7.4-4.39-8.08-9.07-1.71-9.34-1.08-23.33-5.41-29.47-3.5-5.11-11.68-2.29-15.41-7-2.26-2.93-1.81-7.62.81-10.21,4.3-4.16,12.98-2.35,18.98-2.2h.19Z"/>
</svg>