<?xml version="1.0" encoding="UTF-8"?>
<svg id="Layer_1" data-name="Layer 1" xmlns="http://www.w3.org/2000/svg" viewBox="0 0 198.69 65.61">
  <defs>
    <style>
      .cls-1 {
        stroke-width: 0px;
      }
    </style>
  </defs>
  <path class="cls-1" d="M45.57,27.99c-.69,1.43-1.17,2.31-1.55,3.24-.83,2.02-1.48,4.13-2.45,6.08-.89,1.78-1.91,3.57-3.21,5.07-2.73,3.13-6.62,3.62-10.23,1.54-2.43-1.41-4.17-3.48-5.31-6-.93-2.07-1.61-4.25-2.46-6.36-.41-1.02-.94-1.99-1.43-3.02-1.56.48-1.97,1.63-2.21,2.67-.54,2.29-1.13,4.62-1.22,6.94-.13,3.84.19,7.69.2,11.54,0,2.62-.02,5.26-.35,7.85-.42,3.29-1.97,5.97-5.21,7.35-4.33,1.83-8.21.05-9.44-4.46-.84-3.07-.92-6.2-.25-9.34.22-1.02.28-2.08.33-3.12.27-5.88,1.11-11.67,2.71-17.34,1.29-4.54,2.57-9.09,3.98-13.6.6-1.91,1.47-3.74,2.33-5.56.48-1.02,1.12-1.99,1.82-2.88,4.29-5.49,10.44-4.9,13.24,1.48,1.28,2.92,1.83,6.18,2.62,9.31.43,1.69.63,3.44,1.06,5.14.29,1.16.56,2.41,2.13,3.23.69-1.06,1.51-2.06,2.04-3.2,1.34-2.85,2.44-5.82,3.86-8.62,1.3-2.56,2.74-5.09,4.42-7.41,1.79-2.47,4.35-4.05,7.38-4.68,5.32-1.11,10.26,1.1,12.69,6.12,1.28,2.63,2.22,5.57,2.62,8.46.79,5.8,1.17,11.66,1.56,17.51.3,4.45.41,8.92.49,13.38.03,2-.14,4.02-.36,6.02-.12,1.12-.41,2.25-.84,3.29-1.51,3.66-5.13,4.25-7.67,1.18-.93-1.12-1.67-2.48-2.18-3.85-.98-2.62-1.74-5.32-2.57-7.99-1.71-5.51-3.39-11.04-5.11-16.55-.31-.98-.79-1.91-1.44-3.43Z"/>
  <path class="cls-1" d="M132.21,36.23c.14,4.11.36,8.22.4,12.33.04,3.9-1.29,5.4-5.24,6.3-4.05.92-6.7,0-8.13-3.35-1.12-2.64-1.75-5.48-2.52-8.26-.82-2.95-1.42-5.96-2.36-8.87-1.22-3.73-2.48-4.61-6.4-4.39-2.6.14-5.2.62-7.77,1.09-2.26.42-3.45,1.96-3.7,4.2-.14,1.22-.26,2.44-.23,3.66.1,4.2.21,8.4.43,12.59.33,6.28-3.11,9.52-9.33,8.72-2.14-.27-4.04-1.09-5.79-2.32-.43-.3-.79-.82-1.25-.94-1.92-.47-2.33-1.94-2.85-3.57-.43-1.34-.86-2.36.25-3.59.43-.48.35-1.5.35-2.27-.01-7.87-.05-15.75-.09-23.62-.01-2.54-.11-5.08-.04-7.61.17-6.03,3.11-10.25,8.59-12.7,4.95-2.21,10.26-2.92,15.58-3.34,3.91-.31,7.87-.16,11.8-.18.78,0,1.57.09,2.35.21,7.97,1.15,12.24,4.78,13.63,12.69,1.1,6.27,1.39,12.68,2,19.03.14,1.39.14,2.8.2,4.2.04,0,.07,0,.11,0ZM96.43,20.5c3.74-.15,7.38-.25,11.01-.45,3.05-.16,4.04-1.24,3.98-4.29-.01-.86-.19-1.74-.45-2.56-.55-1.75-1.4-2.42-3.29-2.4-4.5.04-8.08,1.93-10.6,5.68-.79,1.18-1.12,2.5-.66,4.02Z"/>
  <path class="cls-1" d="M163.5,29.16c.11,1.92.18,3.48.3,5.03.31,3.96.1,7.88-.96,11.71-.84,3.03-2.23,5.7-5.31,7.1-4.05,1.84-7.4.83-9.61-3.03-2.64-4.6-4.35-9.49-4.96-14.81-1.14-9.88-1.06-19.71.53-29.54.39-2.41,1.67-3.83,3.83-4.46,1.66-.49,3.41-.82,5.14-.93,10.46-.67,20.82.08,30.98,2.67,2.94.75,5.83,1.9,8.53,3.28,3.4,1.74,5.71,4.58,6.48,8.45.78,3.9-.37,7.16-3.65,9.41-1.56,1.07-3.37,1.86-5.18,2.44-4.78,1.52-9.75,2.03-14.75,2.18-2.71.08-5.42.12-8.13.22-.94.03-1.88.16-3.24.28ZM159.88,18.01c4.07.65,15.46-1.29,17.38-2.99-5.89-2.43-11.8-1.37-17.97-1.03.24,1.6.42,2.85.6,4.03Z"/>
</svg>