<?xml version="1.0" encoding="UTF-8"?>
<svg id="Layer_1" data-name="Layer 1" xmlns="http://www.w3.org/2000/svg" viewBox="0 0 127.96 61.96">
  <defs>
    <style>
      .cls-1 {
        stroke-width: 0px;
      }
    </style>
  </defs>
  <path class="cls-1" d="M91.62,20.58c-.24,2.5-.4,5.56-.89,8.58-.33,2.05-.95,4.1-1.74,6.02-.86,2.11-2.33,3.71-4.94,3.62-2.72-.1-5.22-1.77-6.07-4.25-.54-1.57-.78-3.24-1.37-4.79-.46-1.2-1.08-2.42-1.93-3.36-1.2-1.34-2.74-1.22-3.8.25-.75,1.04-1.34,2.27-1.71,3.51-.91,3.06-1.03,6.21-.63,9.36.25,1.94.79,2.42,2.71,2.47,1.04.03,2.09-.16,3.14-.19,2.18-.05,4.37-.2,6.54-.05,6.08.42,9.22,4.84,7.65,10.77-1.19,4.46-4.79,9.69-11.97,9.43-2.62-.1-5.25-.11-7.87-.22-3.71-.17-6.68-1.88-9.13-4.59-.41-.45-.75-.98-1.01-1.52-.75-1.55-.45-3.01.83-4.31,1.16-1.19,1.92-1.31,3.78-.51,1.85.79,3.62,1.86,5.54,2.35,2.17.56,4.46.66,6.7.84.78.06,1.76-.25,1.65-1.24-.05-.5-.81-1.2-1.36-1.33-2.55-.6-5.14-1.04-7.71-1.54-.95-.18-1.88-.44-2.84-.52-2.44-.22-3.84-1.64-4.34-3.9-.5-2.3-1.15-4.64-1.13-6.96.08-7.52.23-15.07,2.72-22.3.82-2.39,1.69-4.8,2.89-7.02,3.01-5.6,8.02-8.07,14.19-8.43,2.5-.15,4.61.89,6.47,2.46,3.17,2.68,4.83,6.18,5.23,10.26.22,2.17.23,4.36.37,7.12Z"/>
  <path class="cls-1" d="M20.6,18.88c-.43,3.8-.9,7.96-1.38,12.12-.07.61-.21,1.21-.28,1.81-.36,3.08.15,3.65,3.33,3.84,1.74.1,3.51.1,5.2.46,3.34.71,5.56,2.81,6.64,6.06.91,2.72,1.05,5.48.32,8.27-.92,3.52-2.91,5.26-6.57,5.18-3.93-.09-7.85-.45-11.76-.82-2.78-.27-5.58-.57-8.29-1.18C2.53,53.44.21,50.65.02,45.24c-.11-3.05.23-6.11.33-9.16.25-7.42.45-14.85.73-22.28.06-1.56.22-3.15.59-4.66C2.84,4.36,7.08.69,11.96.06c2.74-.35,5.3.93,6.5,3.42.48,1.01.84,2.13.97,3.24.44,3.9.76,7.82,1.16,12.15Z"/>
  <path class="cls-1" d="M97.23,61.2c-.59-.17-1.83-.34-2.89-.89-1.7-.87-2.13-2.53-1.77-4.28.42-2.05.93-4.1,1.63-6.07,1.16-3.3,2.45-6.55,3.77-9.78,1.55-3.81,3.18-7.58,3.54-11.75.28-3.26-.18-3.94-3.11-5.19-1.27-.54-2.56-1.17-3.63-2.03-1.87-1.5-2.19-3.13-1.4-5.38.87-2.47,1.72-4.95,2.61-7.41,1.29-3.58,5.75-5.95,9.3-4.62,5.63,2.12,11.2,4.43,16.71,6.85,1.47.64,2.77,1.83,3.92,3,3.55,3.64,2.79,12.16-4.48,13.54-.86.16-1.72.34-2.59.38-2.49.11-3.8,1.57-4.41,3.79-.58,2.11-1.04,4.25-1.61,6.35-1.05,3.88-1.91,7.83-3.28,11.59-1,2.76-2.47,5.4-4.11,7.85-1.72,2.58-4.33,4.02-8.19,4.05Z"/>
  <path class="cls-1" d="M38.39,30.01c.31-6.19.48-12.4,1.01-18.59.21-2.47,1.15-4.9,1.93-7.29.44-1.35,1.59-1.9,3.08-2.02,5.39-.41,8.34,1.52,9.49,6.86.78,3.58,1.25,7.25,1.48,10.91.51,8.04.91,16.1-.3,24.11-.36,2.41-.91,4.83-1.73,7.12-1.34,3.73-4.4,5.66-8.31,5.64-3.22-.01-5.37-1.56-6.08-4.7-.4-1.78-.52-3.64-.54-5.47-.07-5.51-.02-11.03-.02-16.57Z"/>
</svg>