<?xml version="1.0" encoding="UTF-8"?>
<svg id="Layer_1" data-name="Layer 1" xmlns="http://www.w3.org/2000/svg" viewBox="0 0 202.89 132.42">
  <defs>
    <style>
      .cls-1 {
        stroke-width: 0px;
      }
    </style>
  </defs>
  <path class="cls-1" d="M29.06,107.23c1.19,1.12,1.92,1.82,2.67,2.52,2.78,2.6,5.66,5.11,8.31,7.84,1.37,1.41,2.59,3.1,3.42,4.87,1.37,2.93.22,4.91-2.93,5.73-4.63,1.2-9.07.5-13.34-1.46-4.16-1.91-7.55-4.8-10.18-8.54-1.37-1.94-2.56-4.01-3.85-6.02-.55-.85-1.13-1.68-1.9-2.81-.98,1.82-.7,3.33-.43,4.77.44,2.34,1.08,4.64,1.54,6.97.26,1.3.46,2.64.43,3.96-.08,3.34-2.24,5.56-5.49,5.83-3.43.28-6.75-2.03-7.11-5.23-.26-2.26-.21-4.56-.09-6.84.45-8.27,1.04-16.54,1.48-24.82.21-3.99.14-8,.27-12,.17-5.36,2.88-9.14,7.52-11.64,4.29-2.31,8.95-3.21,13.76-3.32,6.3-.15,12.35.96,17.92,4,5.71,3.12,9.71,7.63,10.87,14.24,1.27,7.23-1.96,14.04-8.34,17.66-3.28,1.86-6.87,2.77-10.54,3.46-1.12.21-2.23.45-3.98.81ZM17.57,84.12c-.1,3.66-.18,6.97-.28,10.28-.04,1.51.78,2.23,2.18,2.49,3.43.63,6.81.55,10.1-.7,2.11-.8,3.79-2.16,4.81-4.22,1.8-3.64.45-6.75-3.49-7.62-4.3-.95-8.65-.75-13.32-.22Z"/>
  <path class="cls-1" d="M177.26,112.62c0,1.47-.13,2.95.03,4.4.3,2.84.81,5.65,1.11,8.49.13,1.21.1,2.49-.15,3.68-.5,2.36-2.28,3.61-4.63,3.14-1.26-.25-2.59-.79-3.6-1.57-2.96-2.27-5.1-5.18-5.49-9-.73-7.29-1.5-14.58-1.95-21.89-.47-7.6-.49-15.22-.92-22.82-.22-3.84,1.28-6.4,4.62-8.06,6.5-3.22,13.32-4.59,20.5-3.18,8.19,1.61,12.38,7.93,11.07,16.19-.71,4.52-2.81,8.24-5.97,11.44-1.54,1.56-3.13,3.07-4.55,4.73-1.6,1.87-1.46,2.31.28,4.04,3.25,3.2,6.58,6.34,9.62,9.72,1.63,1.82,2.83,4.05,4.05,6.19,1.14,2.01,1.69,4.23,1.61,6.58-.13,3.73-2.3,5.74-6.06,5.61-2.49-.09-4.67-1.08-6.49-2.66-1.78-1.55-3.45-3.28-4.92-5.14-1.95-2.46-3.62-5.13-5.46-7.68-.63-.88-1.4-1.66-2.11-2.48-.2.09-.4.18-.59.26ZM172.58,87.79c-.14.02-.27.03-.41.05.1,1.52.15,3.04.33,4.55.16,1.3,1.04,1.84,2.26,1.44,4.48-1.46,8.36-3.79,10.5-8.2,3.02-6.23-1.43-12.86-8.31-12.46-1.52.09-3.02.38-4.53.55-1.17.14-1.66.84-1.62,1.94.03.66.17,1.32.27,1.97.5,3.38,1.01,6.76,1.51,10.14Z"/>
  <path class="cls-1" d="M105.33,128.76c-3.64.09-6.24-1.63-7.61-5.14-.48-1.24-.88-2.52-1.24-3.8-3.62-13.02-7.23-26.04-10.83-39.07-.18-.64-.32-1.3-.35-1.96-.12-2.61,0-2.86,2.47-3.78,1.6-.6,3.24-1.17,4.91-1.49,3.87-.76,6.58.96,7.39,4.83.43,2.03.42,4.15.58,6.24.23,3.13.38,6.26.67,9.39.1,1.02.38,2.09.84,3.01.39.79,1.09,1.86,1.76,1.94.6.07,1.54-.91,1.99-1.63.64-1.04,1.05-2.24,1.42-3.41.78-2.45,1.37-4.96,2.23-7.38,1.07-3.04,2.13-6.12,3.57-9,1.73-3.47,4.67-5.71,8.45-6.76,3.98-1.1,6.09.45,6.09,4.61,0,1.51-.21,3.04-.46,4.54-1.93,11.56-4.22,23.05-8.05,34.14-1.23,3.56-3.04,6.97-4.99,10.21-1.89,3.13-4.97,4.62-8.84,4.52Z"/>
  <path class="cls-1" d="M151.74,72.03c1.34,2.82,2.6,5.57,2.48,8.73-.19,4.88-3.39,7.71-8.26,7.3-1.52-.13-3.03-.37-4.54-.5-1.48-.13-2.38.57-2.57,2.05-.22,1.68-.57,3.38.42,5.31.97-.16,1.96-.36,2.96-.49,1.32-.18,2.64-.47,3.95-.42,2.22.09,3.77,1.33,4.42,3.46.83,2.73.62,5.47-.42,8.12-.66,1.69-1.93,2.57-3.77,2.46-2.27-.14-4.53-.34-6.85-.52-.82,2.07-.51,4.05.01,5.96.55,2,2.14,2.93,4.47,2.6,1.69-.24,3.33-.77,4.99-1.21.92-.24,1.81-.61,2.74-.8,2.27-.47,3.54.15,4.17,2.34.95,3.32,1.38,6.72.6,10.16-.55,2.42-1.67,3.36-4.21,3.44-6.85.21-13.7.37-20.55.48-1.32.02-2.67-.16-3.97-.42-3.39-.69-4.79-2.75-4.27-6.22.2-1.31.48-2.63.87-3.9,3.17-10.19,4.18-20.68,4.62-31.28.13-3.03.5-6.09,1.16-9.05,1.15-5.14,3.93-7.44,9.2-7.77,2.65-.17,5.32.11,7.98.16,1.32.03,2.64,0,4.36,0Z"/>
  <path class="cls-1" d="M160.77,29.5c-.87,2.26-.92,4.04-.69,5.81.55,4.25,1.21,8.49,1.75,12.74.24,1.88.52,3.81.38,5.68-.29,3.94-4.69,6.33-8.29,4.7-1.25-.56-1.83-1.6-2.16-2.85-.87-3.25-1.11-6.54-.84-9.91.77-9.68,1.42-19.37,2.13-29.06.15-2.09.33-4.18.57-6.26.11-.94.31-1.9.67-2.76.8-1.9,2.27-2.41,3.87-1.14,1.32,1.04,2.62,2.31,3.45,3.75,2.22,3.87,4.21,7.89,6.24,11.86.82,1.61,1.5,3.29,2.33,4.9.29.56.82,1,1.28,1.54,1.56-.67,1.78-2.09,2.07-3.3.85-3.61,1.53-7.27,2.32-10.9.67-3.07,1.34-6.14,2.17-9.17.34-1.26.93-2.52,1.68-3.6,1.34-1.94,3.27-2.07,4.77-.24,1,1.22,1.74,2.73,2.31,4.21,1.21,3.16,1.55,6.55,1.21,9.86-.71,7.01-1.64,13.99-2.63,20.96-.56,3.96-1.34,7.89-2.17,11.8-1.24,5.79-3.89,6.65-8.52,2.84-2.84-2.34-4.98-5.26-6.73-8.45-1.78-3.26-3.4-6.61-5.14-9.89-.51-.96-1.19-1.83-2.04-3.13Z"/>
  <path class="cls-1" d="M44.25,33.73c.42-1.22.92-2.42,1.23-3.67,1.19-4.81,2.23-9.65,3.52-14.43.74-2.75,1.7-5.46,2.82-8.08.66-1.54,1.66-3.03,2.81-4.26,2.07-2.23,4.65-2.07,6.22.51,1.11,1.83,1.88,3.97,2.32,6.07,1.14,5.37.84,10.81,0,16.2-1.21,7.72-3.69,15-8.14,21.46-1.55,2.26-3.43,4.34-5.42,6.22-1.28,1.21-2.94,2.14-4.59,2.8-2.79,1.12-5.39.31-6.95-2.28-1.06-1.76-1.83-3.77-2.35-5.77-1.49-5.78-1.48-11.71-1.26-17.62.3-7.9.84-15.79,1.3-23.68.04-.76.26-1.5.32-2.26.12-1.43.97-2.12,2.25-2.6,4.61-1.73,7.51-.11,7.5,4.83-.01,4.45-.78,8.9-1.24,13.35-.36,3.5-.75,7.01-1.09,10.51-.08.83-.01,1.68-.01,2.52l.76.17Z"/>
  <path class="cls-1" d="M18.74,33.89c-1.59,2.17-1.51,4.51-1.73,6.73-.22,2.18,0,4.41-.36,6.55-.37,2.22-.87,4.53-1.88,6.51-1.56,3.06-4.1,3.01-5.87.07-2.8-4.65-4.2-9.76-4.69-15.14-.43-4.77-.23-9.51.6-14.22.99-5.62,1.57-11.35,3.98-16.61.83-1.8,1.77-3.62,3-5.15,2.02-2.52,4.37-2.02,5.16,1.11.51,2,.59,4.14.65,6.22.07,2.57-.13,5.14-.1,7.71.01,1.08.32,2.16.53,3.47,1.74-.83,1.95-2.22,2.28-3.44.82-3.03,1.44-6.12,2.33-9.13.59-1.99,1.32-4,2.36-5.79,1.46-2.52,3.73-2.51,5.01.1,1.07,2.19,1.8,4.63,2.2,7.03,1.27,7.45,1.43,14.98.97,22.5-.26,4.27-.79,8.53-1.49,12.75-.38,2.32-1.25,4.58-2.1,6.79-.39,1.03-1.14,2-1.95,2.77-1.46,1.38-3.38,1.27-4.42-.44-.86-1.42-1.47-3.11-1.71-4.76-.34-2.34-.23-4.74-.34-7.12-.08-1.8-.14-3.62-.35-5.41-.15-1.22-.53-2.42-2.08-3.11Z"/>
  <path class="cls-1" d="M102.25,45.78c-.22-2.3-1.25-3.85-2.46-5.32-.42-.51-.89-1.01-1.42-1.4-3.71-2.75-4.46-6.48-4.15-10.88.54-7.44,3.84-13.86,6.81-20.44,1.39-3.06,3.89-4.53,7.1-5.06,4.54-.75,8.53.51,11.85,3.55,1.05.96,1.87,2.47,2.2,3.87,1.41,6.05,1.28,12.12-.74,18.02-.63,1.83-1.74,3.62-3.02,5.08-1.51,1.72-3.31,1.38-4.38-.67-.74-1.42-1.13-3.02-1.72-4.52-.76-1.94-1.37-3.99-2.41-5.77-1.33-2.28-3.05-2.13-4.21.28-1.49,3.1-1.75,6.41-1.07,9.76.37,1.81,1.54,3.03,3.2,3.77,1.22.54,2.47,1,3.67,1.58,4.31,2.06,5.94,5.77,5.95,10.25,0,4.35-2.3,7.39-6.2,9.13-5.14,2.3-10.09,1.66-14.59-1.6-4.4-3.2-6.5-7.61-6.05-13.1.06-.74.26-1.51.58-2.19.87-1.81,2.32-2.27,3.96-1.1,1.15.81,2.11,1.9,3.09,2.93,1.05,1.1,2.01,2.29,3.03,3.42.11.12.33.15.94.41Z"/>
  <path class="cls-1" d="M77.58,104.82c0,4.86.06,9.72-.03,14.58-.04,2.28-.23,4.57-.58,6.83-.37,2.39-1.24,3.23-3.53,3.4-2.85.21-5.72.35-8.56.23-3.46-.14-6.04-1.98-7.18-5.22-.74-2.11-1.21-4.46-1.15-6.69.15-6.38.61-12.75.98-19.12.38-6.48.34-12.95-.5-19.4-.23-1.79-.26-3.62-.2-5.42.07-1.88.4-2.2,2.18-2.3,3.45-.19,6.88.1,10.16,1.22,4.23,1.44,6.99,4.45,7.68,8.82.67,4.22.85,8.52,1.06,12.79.16,3.42.03,6.86.03,10.29-.12,0-.24,0-.36,0Z"/>
  <path class="cls-1" d="M122.84,40.83c.43-9.92,2.42-19.47,7.29-28.24,1.19-2.15,2.66-4.19,4.26-6.06,2.22-2.59,5.42-2.78,8.18-.73,3.13,2.32,4.86,5.57,5.92,9.21,1.7,5.84,1.39,11.7-.02,17.52-1.59,6.56-4.19,12.68-8.45,17.97-1.35,1.68-2.97,3.27-4.75,4.48-3.8,2.59-7.56,1.64-10.01-2.27-1.67-2.67-2.16-5.67-2.4-8.73-.08-1.04-.01-2.1-.01-3.14ZM135.05,26.16c-2.16,4.25-3.43,8.32-2.71,12.8.1.63.66,1.4,1.22,1.66.36.17,1.22-.36,1.65-.78,3.09-3.13,3.17-9.89-.15-13.68Z"/>
  <path class="cls-1" d="M68.18,4.39c.64-.23,1.16-.6,1.67-.58,3.7.12,7.46-.06,11.08.55,8.07,1.36,12.22,6.68,11.81,14.9-.14,2.82-.68,5.68-1.42,8.41-1.75,6.5-4.7,12.47-8.95,17.71-1.66,2.05-3.7,3.81-5.7,5.55-.91.79-2.08,1.36-3.21,1.81-4.76,1.91-9.23,1.06-8.72-5.98.35-4.83,1.07-9.64,1.47-14.47.59-7.11,1.05-14.22,1.55-21.34.15-2.16.26-4.33.4-6.56ZM73.47,37.29c.42-.16.72-.2.9-.36,4.4-4.16,7.51-9.11,8.72-15.08.29-1.45.17-3.04-.02-4.53-.15-1.2-.97-2.08-2.28-2.22-2.14-.23-4.94,2.21-5.22,4.39-.59,4.62-1.27,9.23-1.88,13.85-.17,1.26-.67,2.53-.22,3.96Z"/>
</svg>