<?xml version="1.0" encoding="UTF-8"?>
<svg id="Layer_1" data-name="Layer 1" xmlns="http://www.w3.org/2000/svg" viewBox="0 0 281.8 166.19">
  <defs>
    <style>
      .cls-1 {
        stroke-width: 0px;
      }
    </style>
  </defs>
  <path class="cls-1" d="M144.13,53.22c-1.9,1.33-2.43,3.07-2.71,4.79-.57,3.61-.9,7.27-1.37,10.9-.4,3.08-.72,6.18-1.3,9.23-.98,5.14-4.25,8.16-9.28,9.32-5.14,1.18-9.31.03-13.34-3.81-2.91-2.77-2.97-5.45-2.77-8.82.94-15.76,1.98-31.51,4.71-47.09.36-2.08.79-4.16,1.38-6.18,2-6.75,6-8.6,12.47-5.61,2.6,1.21,5.11,2.72,7.44,4.4,8.27,5.95,15.53,12.95,21.57,21.18.76,1.04,1.64,1.99,2.87,3.46,1.16-2.11,2.18-3.67,2.9-5.35,1.66-3.88,3.06-7.88,4.8-11.72,1.27-2.82,2.66-5.66,4.44-8.18,3.74-5.27,8.85-5.41,13.11-.51,3.8,4.38,5.05,9.8,5.81,15.37,1.21,8.88.67,17.77-.29,26.62-.59,5.41-1.51,10.78-2.4,16.15-.27,1.63-.78,3.26-1.43,4.77-1.61,3.74-4.62,5.16-8.43,3.73-2.26-.85-4.54-2-6.37-3.54-5.35-4.51-10.55-9.2-15.67-13.98-4.39-4.1-8.56-8.43-12.87-12.6-1-.97-2.21-1.71-3.29-2.54Z"/>
  <path class="cls-1" d="M.56,21.06c0-4-.09-8.01.02-12.01.13-4.35,1.05-5.21,5.12-6.67C11.81.2,18.08-.14,24.45.04c10.64.3,21.05,1.95,30.88,6.17,3.33,1.43,6.59,3.34,9.36,5.64,5.62,4.66,5.56,10.66-.03,15.33-2.36,1.97-5.1,3.6-7.9,4.89-4.53,2.1-9.2,3.92-13.9,5.61-2.14.77-2.86,1.9-2.89,4.13-.09,7.22-.24,14.45-.7,21.66-.2,3.06-1.01,6.14-1.93,9.09-1.54,4.99-5.61,7.94-10.73,7.85-10.5-.17-19.29-5.6-21.57-16.7-1.63-7.93-2.78-15.98-3.76-24.02-.75-6.17-.88-12.41-1.29-18.61.19,0,.37-.01.56-.02Z"/>
  <path class="cls-1" d="M239.27,60.92c.55,3.06.93,5.55,1.46,8,.38,1.77,1.69,2.57,3.44,2.55,3-.03,6.01-.04,9-.22,3.44-.21,6.87-.63,10.3-.91,1.33-.11,2.68-.2,4-.08,2.76.27,4.31,1.97,4.02,4.71-.42,4-1.35,7.89-3.38,11.43-2.09,3.65-5.35,5.17-9.45,5.17-9.12,0-18.25.05-27.37-.03-2.43-.02-4.91-.27-7.28-.77-2.26-.48-4.5-1.25-6.59-2.25-2.65-1.26-4.29-3.52-4.7-6.48-.23-1.64-.38-3.32-.35-4.97.14-7.56.18-15.13.62-22.67.34-5.87,1.11-11.71,1.91-17.54.28-2.06,1.09-4.08,1.84-6.04,3.01-7.9,8.93-11.95,17.21-12.68,7.7-.68,15.34-.07,22.9,1.43,2.38.47,4.71,1.28,7,2.08,1.96.68,3.15,2.14,3.12,4.28-.05,4.29-1.12,8.37-3.13,12.15-1.09,2.06-2.97,2.99-5.29,2.75-1.76-.19-3.51-.57-5.26-.86-1.31-.22-2.62-.5-3.94-.67-3.86-.48-5.79,2.08-4.09,5.62.4.84,1.58,1.64,2.52,1.82,1.84.35,3.76.34,5.64.33,2.33-.01,4.67-.27,7-.24,3.09.03,4.86,1.55,5.07,4.59.15,2.19.06,4.47-.36,6.62-.64,3.28-2.47,4.88-5.84,4.82-4.54-.09-9.08-.58-13.62-.98-1.87-.17-3.73-.55-6.41-.95Z"/>
  <path class="cls-1" d="M281.8,122.73c-.06,3.99-1.32,7.66-3.24,11.08-6.21,11.07-14.65,20.06-25.5,26.7-4.99,3.06-10.46,4.85-16.28,5.54-1.21.14-2.45.2-3.66.09-3.1-.28-3.88-1.31-3.42-4.36.5-3.29,1.14-6.57,1.52-9.88.68-5.85,1.26-11.71,1.79-17.57.96-10.72-.18-21.28-2.73-31.71-.38-1.55.21-2.38,1.55-2.78,1.38-.41,2.8-.89,4.21-.92,10.28-.23,20.44.66,30.19,4.19,4.02,1.45,7.57,3.74,10.45,6.95,3.23,3.6,5.2,7.72,5.11,12.67ZM244.63,141.16c5.86-2.75,10.88-5.84,14.46-10.86.76-1.07,1.41-2.28,1.85-3.52.99-2.79.26-4.57-2.45-5.61-4.08-1.57-8.34-1.95-12.7-1.55,0,3.63.14,7.06-.04,10.47-.19,3.52-.7,7.03-1.12,11.07Z"/>
  <path class="cls-1" d="M84.5,116.89c-.27,1.86-.43,4.78-1.15,7.55-1.12,4.26-4.76,5.53-8.2,2.82-1.69-1.33-3.04-3.23-4.17-5.1-1.26-2.08-1.97-4.48-3.15-6.61-1.01-1.83-2.14-3.68-3.59-5.15-1.96-1.99-5.26-2.19-7.42-.87-2.08,1.27-3.77,4.57-3.04,6.91.42,1.36,1.47,2.82,2.65,3.59,2.21,1.44,4.71,2.47,7.13,3.58,2.72,1.26,5.56,2.28,8.22,3.65,7.39,3.81,9.6,12.19,5.02,19.22-3.83,5.88-9.56,8.86-16.36,9.77-4.46.6-8.89.34-13.05-1.68-4.1-1.99-7-5.08-8.45-9.41-1.31-3.92-.09-7.88,3.01-10.15,2.72-1.99,5.68-1.94,8.25.27.92.79,1.65,1.79,2.46,2.71.52.58.97,1.23,1.53,1.76,2.91,2.75,5.15,2.09,6.23-1.79.62-2.22.2-3.1-2.08-3.63-2.38-.56-4.82-.83-7.21-1.34-6.3-1.34-10.39-5.02-10.97-11.37-.92-10.05,1.25-19.32,9.7-25.97,5.73-4.51,12.3-6.19,19.46-4.42,6.13,1.51,10.33,5.42,12.73,11.26,1.77,4.29,2.18,8.81,2.45,14.41Z"/>
  <path class="cls-1" d="M202.18,128.6c1.48-5.42,2.73-10.12,4.05-14.81,1.02-3.63,2.12-7.25,3.22-10.86.29-.95.61-1.93,1.12-2.77,1.13-1.87,3.07-1.93,4.27-.09.66,1,1.07,2.19,1.47,3.34,2.19,6.35,2.94,12.99,3.84,19.59,1.48,10.9,2.94,21.8,4.38,32.71.25,1.87.48,3.76.48,5.64,0,2.23-1.29,3.4-3.46,2.88-2.13-.51-4.37-1.22-6.12-2.47-2.96-2.11-5.9-4.43-8.27-7.17-6.03-6.97-11.75-14.22-17.59-21.36-.32-.39-.67-.76-1.55-1.74.15,1.86.19,2.93.33,3.98.53,4.08,1.09,8.15,1.62,12.23.4,3.03-1.05,4.27-3.92,3.02-2.12-.92-4.11-2.22-5.97-3.59-6.58-4.88-6.58-4.92-7.17-13.07-.15-2.1-.29-4.23-.15-6.33.47-7.21,1.06-14.41,1.62-21.61.07-.88.22-1.77.42-2.63.68-3.01,2.71-3.88,5.09-1.89,2.03,1.69,3.8,3.73,5.47,5.8,4.12,5.1,8.11,10.31,12.17,15.47,1.37,1.74,2.77,3.45,4.63,5.76Z"/>
  <path class="cls-1" d="M152.59,138.45c-.84,6.01-1.68,12.02-2.51,18.03-.15,1.1-.25,2.21-.43,3.3-.43,2.65-1.24,3.33-3.76,2.86-2.62-.49-5.23-1.06-7.8-1.73-2.32-.6-2.7-1.44-2.51-3.91.87-11.18,1.68-22.37,2.54-33.55.44-5.76.9-11.52,1.4-17.27.1-1.1.35-2.2.66-3.26,1.06-3.6,3.52-4.45,6.58-2.19,1.24.91,2.43,1.99,3.36,3.21,2.48,3.27,5.16,6.47,7.13,10.04,6.21,11.28,12.17,22.71,18.16,34.11,2.06,3.93,3.95,7.96,5.85,11.98,1.35,2.85.59,4.17-2.6,4.37-2.88.18-5.78.13-8.66.22-2.82.09-4.58-1.16-5.42-3.9-2.17-7.06-5.71-13.48-9.42-19.82-.58-.99-1.27-1.93-1.91-2.89-.21.13-.43.27-.64.4Z"/>
  <path class="cls-1" d="M102.71,31.61c-.74,11.58-2.16,22.91-6.66,33.6-1.62,3.85-3.75,7.56-6.15,10.99-1.4,2-3.58,3.71-5.77,4.86-5.08,2.65-9.85-.05-10.22-5.78-.24-3.74-.05-7.57.44-11.29,1.03-7.81,2.48-15.56,3.58-23.37,1.17-8.35,2.13-16.73,3.18-25.1.45-3.6.44-3.61,4.06-4.11,2.07-.28,4.16-.81,6.23-.74,4.73.16,8.18,2.6,9.28,7.19,1.07,4.49,1.4,9.16,2.05,13.75Z"/>
  <path class="cls-1" d="M1.6,129.9c1.21-10.13,2.35-20.27,3.64-30.4.57-4.46,1.95-8.65,5.23-11.99,1.86-1.9,3.92-2.63,6.61-2.05,5.54,1.18,9.78,5.63,10.06,11.73.22,4.85-.04,9.77-.55,14.6-.9,8.38-2.01,16.75-3.36,25.08-.47,2.89-1.57,5.82-3,8.38-2.03,3.63-5.39,5.56-9.72,5.12-1.17-.12-2.55-.43-3.38-1.17-2.79-2.44-5.15-5.24-5.19-9.25-.04-3.33,0-6.66,0-9.99-.11-.02-.22-.04-.32-.06Z"/>
  <path class="cls-1" d="M103.86,146.24c2.18.1,4.03.27,5.89.25,3.89-.04,7.79-.26,11.68-.26,3.68,0,4.62,1.09,4.06,4.67-.35,2.19-.87,4.36-1.52,6.48-.75,2.44-1.67,2.97-4.18,2.9-6.33-.17-12.66-.31-18.98-.54-1.65-.06-3.34-.24-4.93-.66-4-1.07-5.52-3.32-4.92-7.4.53-3.63,1.4-7.2,1.98-10.82,1.51-9.55,2.96-19.1,4.39-28.66.35-2.31.61-4.63.75-6.96.09-1.49.76-2.35,2.18-2.43,2.21-.12,4.45-.29,6.63-.03,2.48.29,3.23,1.49,2.89,3.93-.25,1.76-.76,3.48-1.02,5.24-1.13,7.81-2.19,15.63-3.31,23.44-.3,2.09-.78,4.15-1.1,6.24-.21,1.39-.29,2.81-.47,4.63Z"/>
</svg>