<?xml version="1.0" encoding="UTF-8"?>
<svg id="Layer_1" data-name="Layer 1" xmlns="http://www.w3.org/2000/svg" viewBox="0 0 280.99 48.61">
  <defs>
    <style>
      .cls-1 {
        stroke-width: 0px;
      }
    </style>
  </defs>
  <path class="cls-1" d="M78.33,16.72c1.59-2.29,3.01-4.34,4.42-6.38,1.17-1.69,2.06-3.95,4.65-3.46,2.32.43,2.69,2.63,3.23,4.53,1.59,5.62,1.28,11.29.27,16.93-.61,3.39-3.07,4.75-6.4,3.44-3.34-1.32-6.48-3.13-9.7-4.75-.64-.33-1.22-.79-2.32-1.52.4,1.71.73,2.86.94,4.02.42,2.42-.34,4.02-2.73,4.42-2.2.37-4.54.13-6.79-.13-.61-.07-1.28-1.1-1.59-1.82-.33-.77-.3-1.71-.38-2.58-.45-4.9-.9-9.81-1.32-14.72-.45-5.32,2.96-7.87,7.88-5.61,2.33,1.08,4.32,2.92,6.4,4.51,1.11.85,2.08,1.87,3.46,3.14Z"/>
  <path class="cls-1" d="M8.6,7.55c5.91-.35,11.25.21,16.53,1.28,2.87.58,5.42,1.82,7.01,4.45,1.69,2.79,1.17,5.13-1.78,6.55-2.05.99-4.31,1.56-6.52,2.17-3.33.91-3.94,1.64-3.7,5.08.16,2.19.48,4.36.56,6.55.11,2.93-1.29,5.03-3.98,6.22-2.65,1.17-5,.93-7.28-1.1-1.08-.96-1.25-1.87-1.23-3.13.04-3.5-.03-7.01-.06-10.51-.02-2.46-.98-4.03-3.56-4.79C.85,19.22.02,17.86,0,14.15c-.02-3.17,1.44-5.18,4.55-5.98,1.48-.38,3.03-.47,4.04-.62Z"/>
  <path class="cls-1" d="M113.77,14.48c1.06-2.97,1.86-5.22,2.67-7.48.26-.72.4-1.54.84-2.13.54-.73,1.25-1.63,2.03-1.8,1.25-.26,1.94.85,2.25,1.95.68,2.42,1.53,4.83,1.85,7.31.4,3.14.58,6.34.44,9.5-.22,4.83-4.78,7.49-9.22,5.43-1.87-.87-3.53-2.19-5.27-3.32-.98-.63-1.95-1.29-2.98-1.96-.22.52-.37.72-.38.92-.27,4.53-3.09,6.95-7.7,6.67-1.39-.09-1.92-.87-2.08-2.07-.29-2.17-.69-4.34-.79-6.52-.16-3.61-.08-7.22-.15-10.83-.09-4.5,4.29-5.97,7.1-4.61,2.22,1.07,4.15,2.77,6.12,4.32,1.7,1.34,3.27,2.85,5.29,4.63Z"/>
  <path class="cls-1" d="M168.9,15.42c2.31,1.21,4.16,2.15,5.97,3.15,1.06.59,2.36,1.33,1.87,2.71-.3.85-1.42,1.46-2.25,2.07-.42.31-1.03.36-1.53.58-4.15,1.75-8.1,2.27-11.29-2.28-.71.78-1.2,1.3-1.67,1.84-1.91,2.18-3.46,2.58-6.08,1.64-1.14-.41-1.42-1.3-1.44-2.33-.03-2.19,0-4.38.01-6.57.03-4.06.04-8.11.13-12.17.05-2.42.63-3.19,2.97-3.58,5.51-.93,10.96-.57,16.15,1.57,5.3,2.19,5.86,6.88,1.36,10.46-1.19.95-2.5,1.74-4.2,2.9Z"/>
  <path class="cls-1" d="M137.37,11.09c1.27,0,2.53-.03,3.8.01,2.56.09,3.16.58,3.3,3.03.08,1.27-.19,2.55-.31,3.99.33.01.95.05,1.57.05,2.83-.01,3.56.45,3.84,2.46.42,3-.54,4.6-3.25,5.1-1.83.33-3.7.48-5.55.61-3.06.22-6.12.38-9.19.51-2.97.12-4.2-.72-4.5-3.52-.6-5.55-1.14-11.11-1.43-16.68-.21-4.09,1.09-5.54,5.08-5.54,4.37,0,8.74.41,13.1.75,1.34.11,2.04,1.05,2.19,2.46.38,3.72-.76,5.16-4.61,5.64-1.36.17-2.73.28-4.1.42.02.23.04.47.05.7Z"/>
  <path class="cls-1" d="M45.9,34.06c.09,1.41-.48,2.85-2.36,3.42-2.22.67-4.49,1.34-6.61-.21-1.07-.78-1.81-1.79-1.62-3.34.59-4.88,1.02-9.79,1.6-14.67.21-1.73.54-3.47,1.03-5.14.67-2.27,2-3.19,4.38-3.2,2.76-.01,5.19.86,7.01,3.01,4.29,5.07,7.52,10.75,9.45,17.12.74,2.45.27,3.51-2.16,4.27-1.96.61-4.09,1.14-6.09.97-1.54-.13-2.99-1.39-4.64-2.23Z"/>
  <path class="cls-1" d="M271.11,31.48c1.71,2.02,5,1.94,4.48,4.91-.4,2.26-1.67,4.06-4.43,4.06.17.27.2.39.28.45,2.73,2,2.93,2.51,1.85,4.67-1.41,2.84-3.02,3.64-5.81,2.64-2.99-1.07-5.95-2.23-8.86-3.49-3.32-1.44-3.98-3-2.38-6.22,2.09-4.21,4.48-8.28,6.62-12.47.72-1.41,1.19-2.98,1.59-4.52.56-2.16,1.59-2.85,3.84-2.23,4.19,1.15,7.84,3.35,11.24,5.98,1.75,1.36,1.79,1.98.79,3.93-.05.1-.11.19-.16.28-2.46,4.5-2.96,4.65-7.57,2.28-.26-.13-.59-.11-1.48-.25Z"/>
  <path class="cls-1" d="M196.71,15.8c.38.52.8,1.01,1.12,1.56,1.8,3.08,1.02,6.27-2.18,7.74-4.32,1.99-8.72,1.84-12.94-.43-.84-.45-1.59-1.18-2.23-1.91-2.03-2.32-1.83-3.5.76-5.19.45-.3.91-.59,1.52-.99-.78-.74-1.51-1.36-2.17-2.07-2.93-3.16-2.22-7.15,1.48-9.32,3.09-1.82,6.34-2.94,9.94-2.94,3.67,0,6.24,1.73,7.78,5.02.59,1.26.65,2.48-.19,3.73-1.02,1.53-1.91,3.15-2.9,4.8ZM193.25,14.16q-1.32-1.87-3.14-1.19c1.27.48,2.2.84,3.14,1.19Z"/>
  <path class="cls-1" d="M211.37,9.68c1.34-.81,2.3-1.59,3.4-2.01,1.08-.42,2.33-.78,3.46-.66,2.96.32,4.11,3.14,2.35,5.57-.64.88-1.48,1.61-2.21,2.42-2.7,3.01-5.39,6.02-8.08,9.04-.65.73-1.23,1.55-1.95,2.21-1.79,1.6-3.31,1.19-3.75-1.17-1.01-5.37-1.92-10.76-2.7-16.16-.43-2.94.53-4.11,3.23-4.69,2.96-.63,4.82.32,5.68,2.95.23.71.35,1.46.59,2.51Z"/>
  <path class="cls-1" d="M251.08,39.65c-2.43-.44-5.15-1.05-7.17-3.01-.71-.69-.92-2.14-.94-3.25-.02-.92.53-1.87.92-2.77,1.99-4.61,3.99-9.21,6.01-13.81,1.08-2.46,1.33-2.57,3.98-2.02,3.99.83,5.04,2.84,3.42,6.66-.77,1.81-1.64,3.57-2.52,5.33-1.02,2.03-1.64,3.78.19,5.96,1.84,2.19-.71,6.72-3.9,6.91Z"/>
  <path class="cls-1" d="M239.03,25.8c3.54,2.38,3.83,3.01,2.84,5.53-1.21,3.06-2.4,3.57-5.58,2.41-1.54-.56-3.1-1.06-4.61-1.69-2.24-.93-2.96-2.15-2.15-4.38,1.82-5.03,3.81-10,5.82-14.96.59-1.45,2.15-1.91,3.89-1.41,2.27.64,3.44,2.01,3.13,3.93-.19,1.17-.68,2.29-1.05,3.44-.76,2.37-1.52,4.74-2.29,7.14Z"/>
  <path class="cls-1" d="M227.29,8.84c3.78-.24,5.14,1.19,4.19,4.87-.98,3.79-2.2,7.53-3.47,11.24-.45,1.31-1.22,2.58-2.1,3.67-1.35,1.68-3.52,1.98-5.31.97-1.76-.99-2.23-2.44-1.43-4.77,1.59-4.64,3.29-9.24,4.82-13.9.57-1.73,1.82-1.98,3.29-2.07Z"/>
</svg>