<?xml version="1.0" encoding="UTF-8"?>
<svg id="Layer_1" data-name="Layer 1" xmlns="http://www.w3.org/2000/svg" viewBox="0 0 333.64 218.15">
  <defs>
    <style>
      .cls-1 {
        stroke-width: 0px;
      }
    </style>
  </defs>
  <path class="cls-1" d="M42.56,182.02c.15,2.19.21,3.66.35,5.12.63,6.72.45,13.37-1.98,19.77-.61,1.6-1.37,3.15-2.15,4.67-3.44,6.66-15.44,9.48-21.78,2.59-3.38-3.67-5.53-7.71-5.65-12.76-.28-11.46-.55-22.92-.9-34.37-.31-10.12-.72-20.23-1.09-30.35-.03-.95-.11-1.91-.12-2.86-.04-3.39-.88-6.94,1.95-9.76,3.54-3.52,7.02-7.1,12.41-7.63,1.7-.17,3.4-.48,5.08-.79,4.13-.76,7.51.57,10.31,3.6,3.19,3.46,5.3,7.49,6.02,12.14.56,3.58,1.07,7.19,1.27,10.8.16,3.02,1.74,4.55,4.4,5.19,1.85.45,3.75.76,5.65.86,3.17.17,4.07-.76,4.2-3.92.13-3.24.09-6.5.4-9.73.22-2.26.79-4.51,1.46-6.69,1.14-3.7,3.84-5.75,7.65-5.82,4-.07,8.02.18,12.01.52,2.82.24,4.35,2.29,5.17,4.76,1.5,4.53,3.16,9.04,4.19,13.68,2.74,12.34,4.03,24.86,4.02,37.52,0,8.02.29,16.04.31,24.06,0,2.65-.15,5.37-.75,7.94-1.01,4.28-3.46,6.19-7.72,6.33-5.85.2-11.33-1.59-16.63-3.78-2.72-1.12-3.77-3.74-4.1-6.49-.4-3.41-.51-6.85-.86-10.27-.27-2.65-.6-5.3-1.14-7.91-.33-1.6-1.51-2.8-3.25-2.71-5.31.29-10.15-1.51-15.05-3.09-.89-.29-1.85-.33-3.66-.64Z"/>
  <path class="cls-1" d="M34.8,27.2c2.4-1.93,3.38-4.03,4.56-5.95,2.19-3.58,4.14-7.32,6.51-10.78,1.6-2.33,3.49-4.62,5.71-6.32,6.03-4.64,12.31-3.01,15.54,3.81,2.12,4.47,2.58,9.13,1.28,13.95-1.47,5.42-4.01,10.29-7.48,14.69-1.78,2.25-3.62,4.43-5.37,6.7-1.27,1.65-2.43,3.37-3.58,4.97.42.59.57,1.04.86,1.17,5.11,2.24,8.68,6.17,11.64,10.7,4.64,7.09,7.98,14.75,9.44,23.15.59,3.38,1.18,6.76,1.74,10.15.15.94.31,1.9.26,2.84-.16,3.3-2.3,5.06-5.75,4.81-2.92-.21-5.59-1.23-8.02-2.8-1.27-.82-2.48-1.79-3.61-2.8-6.42-5.71-12.8-11.45-19.2-17.17-2.69-2.41-5.49-4.67-8.88-6.48-1.57,1.59-1.81,3.46-2.15,5.28-.69,3.75-1.3,7.52-2.12,11.25-.49,2.22-1.1,4.48-2.05,6.53-2.18,4.72-6.02,7.31-11.22,7.65-3.33.22-6.13-1-7.47-4.18-1.26-2.96-2.38-6.04-3.07-9.18C-.14,77.73-.4,66.12.41,54.45c.5-7.23,1.01-14.47,1.24-21.72.15-4.75.31-9.6-.41-14.27C-.09,9.93,9.01.57,16.43.05c6.31-.45,10.84,2.24,12.57,8.32.57,2.01.98,4.1,1.18,6.17.44,4.48,2.2,8.41,4.62,12.65Z"/>
  <path class="cls-1" d="M148.84,158.09c1.76-2.68,1.99-4.98,2.61-7.12.79-2.75,1.42-5.55,1.97-8.36,1.34-6.76,4.67-12.45,9.14-17.57,2.07-2.37,4.58-4.01,7.58-4.92,7.45-2.26,15.02-2.52,22.67-1.37,1.12.17,2.25.49,3.27.97,4.52,2.13,5.92,5.76,4.02,10.41-.5,1.22-1.24,2.36-1.95,3.49-4.79,7.61-9.06,15.49-12.69,23.71-5.26,11.92-12.28,22.85-19.06,33.91-3.5,5.71-6.9,11.44-9.63,17.55-.39.87-.79,1.74-1.27,2.56-.98,1.64-1.95,2.04-3.81,1.51-1.84-.52-3.66-1.08-5.47-1.68-3.74-1.23-6.99-3.28-8.93-6.76-5.48-9.82-12.22-18.94-16.48-29.45-1-2.47-2.35-4.8-3.46-7.22-3.03-6.59-6.18-13.12-8.96-19.81-1.9-4.58-3.31-9.32-2.4-14.49.32-1.82-.19-3.79-.39-5.68-.53-5.09,1.36-9.07,5.82-11.5,2.82-1.53,5.85-2.9,8.96-3.64,7.28-1.74,13.92,1.49,17.09,8.21,3.1,6.56,5.89,13.26,7,20.53.46,3.02,1.04,6.02,1.7,9,.53,2.39.93,4.86,2.67,7.73Z"/>
  <path class="cls-1" d="M234.81,52.16c-1.66,13.82-7.72,25.38-18.19,34.55-4.4,3.85-9.78,5.88-15.46,7.05-6.37,1.31-12.82,2.07-19.31,2.03-2.83-.02-5.71-.52-8.46-1.22-5.62-1.44-9.25-5.16-10.89-10.7-1.48-5.02-1.79-10.2-.82-15.3,1.07-5.67,1.24-11.35,1.33-17.08.12-7.87,1.01-15.63,4.21-22.92,1.3-2.96,2.72-5.9,4.43-8.63,8.87-14.19,28.84-19.36,43.97-11.23,6.71,3.61,11.39,8.81,13.52,16.22.63,2.19,1.48,4.32,2.26,6.47,2.43,6.7,3.94,13.54,3.42,20.78ZM198.51,51.29c-1.03.4-1.79.56-2.38.96-3.17,2.13-6.05,9.33-5.25,13.06.23,1.06,1.05,1.53,2.07,1.57,2.16.08,4.08-.68,5.83-1.86,2.72-1.84,3.47-3.68,2.49-6.78-.73-2.31-1.78-4.51-2.76-6.93Z"/>
  <path class="cls-1" d="M127.99,44.43c.59-1.31,1.29-2.4,1.59-3.59,1.15-4.63,2.24-9.28,3.22-13.95,1.45-6.92,4.85-12.8,9.35-18.12.49-.58.99-1.17,1.57-1.66,1.98-1.64,4.26-1.66,6.27-.04,2.32,1.88,3.52,4.47,4.43,7.22,1.52,4.57,2.24,9.32,2.28,14.08.05,7.05.04,14.14-.61,21.16-1.03,11.02-2.49,22.01-5.19,32.77-.51,2.02-1.24,4.02-2.15,5.89-.81,1.67-2.39,2.35-4.3,2.25-2.39-.13-4.41-1.15-6.32-2.46-3.2-2.18-5.56-5.19-8.08-8.06-4.53-5.17-9.13-10.26-13.8-15.31-2.05-2.22-4.38-4.17-6.95-5.51-1.58.6-1.06,1.65-.98,2.5.38,3.99.94,7.97,1.17,11.96.19,3.23.28,6.51-.08,9.71-.86,7.75-5.78,12.68-12.26,16.18-3.15,1.7-6.72.77-9.42-1.98-2.81-2.87-4.4-6.42-3.96-10.38,1.23-11.26.39-22.5.12-33.75-.19-8.01-.9-16.01-1.23-24.02-.26-6.31-.18-12.62,1.95-18.69.63-1.79,1.28-3.62,2.24-5.24,1.92-3.26,4.89-4.24,8.33-2.59,1.84.88,3.63,2.18,4.99,3.7,1.9,2.11,3.54,4.51,5.01,6.95,3.55,5.9,7.34,11.61,11.57,17.05,2.1,2.7,3.83,5.7,5.77,8.53,1.38,2.02,2.72,4.12,5.48,5.39Z"/>
  <path class="cls-1" d="M265.42,46.05c9.18-1.17,17.14,1.44,23.48,9.1.87-1.77,1.54-3.09,2.16-4.43,2.26-4.84,4.34-9.77,6.8-14.52,1.48-2.86,3.36-5.55,5.34-8.09,1.91-2.44,4.52-4.11,7.55-4.95,5.42-1.5,10.05,1.51,10.79,7.09.22,1.68.2,3.44,0,5.13-.85,7.02-1.99,13.98-4.18,20.74-2.18,6.72-4.2,13.49-6.47,20.17-1.16,3.42-2.63,6.76-4.14,10.05-.79,1.72-1.82,3.37-2.99,4.86-3.9,4.99-9.04,5.75-14.01,1.92-2.25-1.73-4.22-3.86-6.17-5.95-2.08-2.23-3.94-4.68-5.99-6.93-1.53-1.68-3.21-3.21-4.58-4.56-2.32-.16-3.12,1.27-4.04,2.44-1.64,2.11-3.18,4.29-4.8,6.42-.58.76-1.23,1.46-1.9,2.14-4.19,4.25-7.81,4.02-11.34-.96-3.12-4.4-5.14-9.35-6.4-14.6-1.71-7.09-2.46-14.3-2.7-21.56-.22-6.68-.22-13.37-.04-20.05.07-2.63.48-5.37,1.39-7.82,2.28-6.13,8.96-7.12,13.2-2.09,2.27,2.7,3.21,6,4.04,9.37,1.31,5.37,2.78,10.7,4.22,16.04.09.33.44.6.79,1.04Z"/>
  <path class="cls-1" d="M309.87,181.9c1.48-1.5,2.69-2.99,4.16-4.15,7.04-5.57,11.19-3.88,13.39,3.36,2.37,7.84,4.07,15.88,6.04,23.84.14.55.18,1.13.18,1.7-.02,2.73-2.3,4.29-4.66,3.02-1.66-.89-3.29-2-4.63-3.32-2.7-2.66-5.19-5.53-7.93-8.48-.81,1.1-1.63,2.36-2.59,3.49-1.7,1.99-3.18,2.08-5.43.47-.74-.53-1.44-1.11-2.51-1.93-1.84,3.59-3.53,6.9-5.21,10.17-1.83.29-3.32.71-4.82.73-3.85.03-6.49-2.38-6.79-6.28-.13-1.68-.12-3.56.51-5.06,2.38-5.68,3.14-11.76,4.75-17.62.4-1.47.82-2.96,1.48-4.32,1.24-2.55,3.64-3.5,6.23-2.32,1.53.7,2.92,1.78,4.21,2.89,1.28,1.1,2.34,2.45,3.62,3.82Z"/>
  <path class="cls-1" d="M236.57,194.28c.6.08.82.19.97.13,6.01-2.6,10.2.34,13.92,4.59,1,1.14,1.9,2.4,2.63,3.72,1.55,2.8,1.06,5.65-1.29,7.75-.84.75-1.8,1.49-2.83,1.88-6,2.29-12.13,3.21-18.42,1.28-4.48-1.37-7.54-4.24-9.18-8.67-1.54-4.17-2.13-8.5-2.13-12.89,0-3.23.37-6.46.6-9.68.17-2.43,1.38-4.23,3.29-5.75,5.84-4.66,12.35-5.53,19.39-3.65,2.92.78,4.3,2.99,5,5.69.49,1.9-.45,3.87-2.28,4.79-1.17.59-2.49.89-3.76,1.29-5.13,1.61-6.13,3.17-5.91,9.53Z"/>
  <path class="cls-1" d="M259.59,189.8c.91-3.51,1.75-7.23,2.87-10.86.5-1.6,1.41-3.15,2.41-4.52,2.23-3.05,4.33-3.6,7.99-2.54,1.63.47,3.29.87,4.96,1.12,4.17.6,6.96,2.93,8.64,6.67,1.62,3.6,1.97,7.37,1.01,11.2-1.68,6.67-5.3,12.24-10.18,16.96-3.46,3.34-6.93,3.43-10.87.66-3.62-2.55-5.77-6.11-6.39-10.45-.38-2.63-.3-5.31-.44-8.24ZM277.02,190.02c-.61-.63-.92-.96-1.23-1.29-.43.54-.9,1.05-1.24,1.64-.07.11.49.78.56.75.58-.26,1.11-.62,1.91-1.1Z"/>
  <path class="cls-1" d="M210.41,201.14c-.22.47-.58,2.05-1.52,3.13-2.73,3.14-6.32,4.88-10.47,5.16-3.11.21-5.56-2.1-5.45-5.3.18-5.25,2.74-9.39,6.87-12.55.53-.41,1.58-.68,2.14-.43,2.25.97,4.54,1.96,6.55,3.32,1.87,1.27,2.23,3.44,1.88,6.67Z"/>
</svg>