<?xml version="1.0" encoding="UTF-8"?>
<svg id="Layer_1" data-name="Layer 1" xmlns="http://www.w3.org/2000/svg" viewBox="0 0 181.12 134.95">
  <defs>
    <style>
      .cls-1 {
        stroke-width: 0px;
      }
    </style>
  </defs>
  <path class="cls-1" d="M66.68,81.91c-.65-3.48-1.4-6.63-1.79-9.83-.39-3.2-.62-6.44-.57-9.66.04-2.71,1.42-4.14,4.04-4.83,3.35-.88,6.5-.28,9.1,2.01,1.7,1.5,3.33,3.19,4.59,5.06,5.11,7.59,10.07,15.27,15.06,22.94.52.79.94,1.66,1.33,2.53,2.67,5.97.46,12.95-5.14,16.41-1.59.98-3.2,1.21-4.85.24-2.14-1.24-4.23-2.56-6.38-3.79-1.81-1.04-3.63-2.09-5.54-2.92-.8-.35-1.86-.21-2.78-.13-.94.08-1.65,1.26-1.34,2.13.32.89.74,1.75,1.12,2.62.68,1.57,1.5,3.1,2.02,4.73,1.92,5.96-.05,7.59-5.69,8.26-2.58.31-4.96-.38-6.82-2.26-1.88-1.89-3.8-3.78-5.42-5.88-5-6.49-9.92-13.04-14.75-19.66-1.45-1.99-2.69-4.18-3.73-6.41-1.93-4.19-1.31-6.64,2.14-9.6.72-.62,1.48-1.21,2.28-1.72,2.98-1.87,5.05-1.75,7.71.72,2.65,2.46,5.15,5.08,7.66,7.68,2.06,2.13,4.34,2.93,7.74,1.37Z"/>
  <path class="cls-1" d="M119.8,84.39c.98-1.15,1.79-1.91,2.36-2.82,1.22-1.93,2.28-3.97,3.49-5.92,2.35-3.78,5.85-6.14,10.14-6.86,6.02-1,12.11-1.56,18.17-2.26.74-.09,1.53.03,2.26.21,1.22.3,1.96,1.13,2.11,2.4.29,2.44-.47,4.58-2.2,6.26-1.64,1.59-3.37,3.12-5.25,4.42-5.37,3.7-10.26,7.94-15.07,12.31-3.95,3.59-8.19,6.87-12.32,10.27-.73.6-1.53,1.15-2.35,1.63-3.93,2.33-5.69,2.07-8.01-1.74-2.98-4.88-5.96-9.8-8.45-14.94-3.74-7.73-7.05-15.66-10.54-23.52-.46-1.05-.9-2.11-1.3-3.18-1.68-4.51-.93-6.12,3.65-7.75,1.08-.38,2.2-.64,3.33-.86,3.91-.77,6.16.1,8.27,3.46,2.66,4.21,4.7,8.74,6.2,13.49,1.26,4,2.49,8.02,3.81,12.01.34,1.04.97,1.98,1.68,3.38Z"/>
  <path class="cls-1" d="M19.48,42.81c.57-2.11,1-3.16,1.11-4.24.17-1.7-.01-3.44.2-5.14.21-1.68.5-3.42,1.14-4.97,1-2.43,2.82-4.12,5.64-4.12,2.53,0,4.83,1.99,5.56,4.96.41,1.64.45,3.39.5,5.09.05,1.52-.21,3.05-.15,4.57.12,3.17,1.6,5.27,4.7,6.42,4.09,1.53,8.13,3.25,12.07,5.13,4.5,2.14,6.36,7.61,4.37,12.11-.76,1.71-2.6,2.71-4.77,2.22-4.07-.93-8.27-1.52-11.86-3.93-.63-.42-1.32-.95-2.03-1.01-.85-.08-2.01,0-2.55.51-.55.52-.72,1.68-.67,2.53.05.92.54,1.81.85,2.71.44,1.26.95,2.49,1.34,3.77,1.6,5.2-.34,7.27-5.72,5.87-3.74-.98-7.1-2.89-9.66-5.84-4.99-5.76-9.95-11.55-14.7-17.51-1.63-2.04-2.68-4.56-3.91-6.92-1.54-2.95-1.05-5.93.18-8.84,1.25-2.95,3.53-4.1,6.47-2.74,2.38,1.1,4.51,2.79,6.61,4.41,1.62,1.25,3.01,2.8,5.25,4.94Z"/>
  <path class="cls-1" d="M144.35,42.25c-2.95,1.57-5.07,3.57-6.25,6.5-.57,1.41-1.04,2.87-1.67,4.26-.78,1.71-2.23,2.78-4.07,2.63-2.13-.17-4.15-.95-4.94-3.27-.69-2-1.17-4.03-.39-6.14,1.12-3.04,2.27-6.06,3.29-9.13,1.02-3.06,2-6.14,2.83-9.26.88-3.31,1.36-6.75,2.4-10,.98-3.06,2.3-6.04,3.79-8.9,1.6-3.07,4.7-4.45,7.77-5.45,3.94-1.28,6.95,1.42,6.22,5.52-.85,4.77-3.08,9.03-5.94,12.88-2.21,2.96-3.6,6.27-4.82,9.68-.18.5-.12,1.09-.16,1.61,1.2,1.13,2.17.06,3.13-.24,1.08-.34,2.08-.95,3.09-1.48,2.21-1.17,4.45-2.13,7.06-1.93,2.46.19,3.52,1.33,2.9,3.74-.52,2.01-1.4,3.92-2.16,5.87-.53,1.36-1.12,2.7-1.61,3.86.94,1.21,1.75.73,2.24.3,2-1.75,3.94-3.59,5.84-5.44,2.05-1.99,3.95-4.14,6.07-6.05,2.34-2.1,5.16-3.21,8.34-3.26,2.19-.03,3.77,1.2,3.8,3.37.02,1.65-.12,3.57-.95,4.91-1.27,2.06-2.86,4.26-4.87,5.44-5.22,3.05-9.37,7.19-13.33,11.58-3.92,4.35-8.89,6.46-14.5,7.23-5.99.83-7.88-1.24-6.5-7.07.48-2,1.51-3.88,2.31-5.8.58-1.4,1.27-2.77,1.75-4.2.12-.36-.35-.93-.68-1.73Z"/>
  <path class="cls-1" d="M92.36,20.51c.43-6.01,1.37-11.99,5.6-16.93,1.43-1.67,3.04-2.71,5.29-3.01,4.38-.59,8.7-1.04,13.05.31,5.28,1.64,9.02,4.84,10.84,10.13,2.15,6.25,3.12,12.59,1.35,19.13-1.61,5.96-4.94,10.68-9.95,14.25-1.93,1.37-4.07,2.28-6.4,2.15-3.03-.17-6.13-.38-9.04-1.18-3.44-.94-5.87-3.24-7.22-6.78-2.21-5.79-3.08-11.79-3.5-18.07ZM115.9,23.2c-.41-1.77-.64-3.48-1.2-5.06-.79-2.24-2.79-3.03-5.1-2.19-2.67.97-4.2,3.11-5.58,5.45-2.33,3.95-1.55,7.71.74,11.27,1.78,2.77,5.07,2.93,7.28.5.75-.83,1.44-1.83,1.8-2.87.81-2.32,1.39-4.71,2.07-7.09Z"/>
  <path class="cls-1" d="M65.56,37.14c1.43,3.12,2.91,5.8,3.91,8.65,1.52,4.33-1.36,8.07-5.91,8.1-1.88.01-3.41-.77-4.46-2.18-1.13-1.51-2.15-3.17-2.88-4.91-3.46-8.3-7.43-16.32-12.58-23.71-.42-.61-.6-1.38-.94-2.17.4-.66.77-1.32,1.17-1.95,2.81-4.38,4.88-5.17,9.42-2.61,3.97,2.23,7.6,5.07,11.35,7.68,1.38.96,2.67,2.05,3.9,3,1.66-.69,1.59-1.95,1.3-2.96-.47-1.63-1.17-3.23-1.95-4.74-1.55-3-1.81-6.21-1.65-9.47.13-2.57,1.03-4.83,3.6-6.32,3.97.54,7.04,2.79,9.08,6.12,2.68,4.38,5.03,8.96,7.3,13.57,1.6,3.24,2.85,6.65,4.19,10.02.77,1.92,1.79,3.83,1.08,6.01-4.27,2.28-9.77,2.67-14.3.94-1.78-.68-3.45-1.64-5.23-2.31-1.93-.72-3.85-1.8-6.42-.75Z"/>
  <path class="cls-1" d="M118.23,112.74c3.14-.43,4.5,1.58,6.61,2.4.7-.94,1.31-1.87,2.03-2.71,1.51-1.77,3.29-1.79,4.85-.11,1.24,1.34,5.53,9.48,5.66,11.09.05.67-.24,1.77-.69,1.99-.74.35-2.06.51-2.59.08-1.74-1.42-3.24-3.15-5.03-4.96-.63,1.06-1.25,2.07-1.97,3.29-1.15-.56-2.12-1.03-3.07-1.49-.22.25-.59.48-.64.76-.22,1.3-.09,2.74-.59,3.91-.49,1.14-1.44,2.24-2.46,2.96-1.58,1.12-3.6-.12-3.55-2.05.1-3.81.18-7.61.43-11.41.08-1.26.66-2.49,1.02-3.73Z"/>
  <path class="cls-1" d="M96.43,122.48c-1.95.5-3.23.71-4.42,1.16-.99.38-1.43,1.37-1.01,2.33.25.56,1,.95,1.61,1.26.22.11.68-.22,1.03-.36,3.13-1.3,4.02-1.25,4.85.25,1.51,2.73.87,5.5-1.62,6.89-2.13,1.19-4.3,1.29-6.53.17-1.79-.9-3.08-2.29-3.8-4.07-1.42-3.51-1.49-7.03.58-10.37,2-3.23,5.24-3.43,8-.42.58.63.72,1.68,1.31,3.17Z"/>
  <path class="cls-1" d="M113.47,124.57c.01-.12,0,.46-.12,1.01-.59,2.97-2.64,5.4-5.01,5.64-2.81.29-4.66-1.33-6.09-3.51-2.14-3.26-2.47-6.75-1.12-10.39.51-1.36,1.56-2.3,3-2.31,5.52-.03,9.68,4.8,9.34,9.55ZM107.89,123.14c-.45-.42-.81-.75-1.17-1.08-.25.43-.73.89-.68,1.28.05.42.6.78.93,1.16.27-.41.55-.81.92-1.36Z"/>
  <path class="cls-1" d="M80.31,127.06c-.06,2.67-1.8,4.63-4.04,4.54-1.7-.07-3.12-1.64-3.09-3.43.04-2.62,1.79-4.51,4.12-4.46,1.93.05,3.06,1.3,3.02,3.34Z"/>
</svg>