<?xml version="1.0" encoding="UTF-8"?>
<svg id="Layer_1" data-name="Layer 1" xmlns="http://www.w3.org/2000/svg" viewBox="0 0 201.67 79.42">
  <defs>
    <style>
      .cls-1 {
        stroke-width: 0px;
      }
    </style>
  </defs>
  <path class="cls-1" d="M118.64,36.23c-.41-.1-.82.22-1.2.87-5.41,11.17,3.01,29.29-5.55,39.11-2,2.39-4.64,2.88-5.8-.5-6.55-16.57,6.05-48.2,9.99-68.16.43-2.33,2.11-5.26,4.52-5.22,5.18-.08,5.31,12.83,4.71,20.27-.24,3.19-.29,5.41,1.32,3.48,3.76-4.35,9.89-29.06,15.5-22.77,6.09,9.12-7.52,55.31-10.28,67.98-.64,2.77-2.75,5.98-5.65,5.7-7.31-.39-2.13-20.77.4-31.46.46-2.75,2.98-9.92.37-10.82-1.38.2-2.24,3.06-3.44,4.57-2.2,2.85-3.23-2.31-4.8-3.03l-.08-.02Z"/>
  <path class="cls-1" d="M177.92,34.13c-.72.12-.79,1.82-.94,2.66-1.28,11.17,2.28,22.37,1.38,33.53-.02,4.26-3.66,8.86-7.86,9.1-9.78-.37-.5-32.28.88-44.24,1.57-9.56,2.77-18.35,5.5-27,3.61-10.7,5.89.77,9.81,11.36.92,2.09,3.45,10.4,4.81,5.73,2.07-7.33,2.25-23.45,8.15-22.64,1.86.97,1.95,3.08,2.02,5.52-2.71,37.34,3.26,97.1-11.99,58.51-3.96-10.02-6.29-17.27-9.94-28.68-.38-1.32-1.3-3.87-1.77-3.86h-.05Z"/>
  <path class="cls-1" d="M13.44,54.9c-.79.87-1.07,3.76-1.52,5.14-.58,2.44-1.31,5.14-2.13,7.69C-2.86,105.07-2.83,5.53,7.44,2.56c5.66-2.1,5.75,11.24,5.53,15.83-.13,4.33-.53,8.86-.77,12.7-.32,5.01-.38,8.83.71,9.49,2.67.53,2.02-5.23,2.42-8.55.68-7.11,2.3-28.57,7.91-29.9,2.25-.15,4.23,4.28,4.23,6.85,1.45,21.22-4.82,86.32-11.23,60.07-.94-3.84-1.65-8.4-2.15-12.08-.18-1.23-.38-2.08-.62-2.06h-.03Z"/>
  <path class="cls-1" d="M152.07,65.15c-2.21-1.56-5.83,0-6.92,2.44-1.5,2.75-1.88,7.37-4.87,9.04-15.01,6.81,10.99-63.22,20.43-73.94,5.62-3.81,8.4,1.29,9.16,10.41,1.16,18-3,47.2-9.83,62.35-2.23,4.19-4.33,4.07-5.67-3.13-.55-2.25-.33-5.53-2.18-7.08l-.12-.09ZM163.29,12.54c-6.81,11.58-10.22,28.67-13.2,42.1-.14.83-.48,2.3.11,2.7.57.25,1.63-.74,2.15-1.28,8.83-9.36,9.15-29.83,10.96-43.51h-.03Z"/>
  <path class="cls-1" d="M40.85,38.49c-4.18,6.63-1.49,18.47-1.54,26.19.08,2.77-.14,15.02-4.43,10.93-9.67-9.96-5.4-55.39,1.61-70.44,1.86-4.28,7.74-3.76,9.96.01,6.91,11.49,3.15,39.63,3.18,53.6-.06,2.53-.09,4.97,0,7.46.14,3.03.79,5.8-2.13,6.9-8.71,2.04-4.87-22.1-5.86-32.42-.08-.69-.14-2.29-.75-2.25l-.05.02ZM41.88,10.8c-.39.05-.74.64-.97,1.04-2.32,4.29-4.16,11.49-2.23,15.68.26.56.71,1.2,1.31,1.23,4.24-1.43,4.27-12.95,2.76-16.87-.15-.42-.4-1.02-.78-1.08h-.08Z"/>
  <path class="cls-1" d="M79.11,61.27c-.12,1.07.24,3.2.31,4.52.65,8.15-2.45,14.47-4.7,11.05-1.89-3.4-2.47-9.22-1.73-13.11.92-4.28,1.18-8.54.93-14.29C74.24,36.59,65.93-.33,83.17,0c3.38.12,6.6,2.37,8.74,5.01,8.3,10.18.94,20.43-4.84,30.3-1.73,2.96-3.38,5.79-3.41,9.06-.29,9.8,10.02,22.6,6.72,29.94-2.65,2.61-6.14-1.89-7.31-4.34-1.11-2.19-1.82-4.56-2.73-6.76-.61-1.49-1.1-2.42-1.22-2v.05ZM81.03,30c.58.22,1.57-.33,2.57-1.14,5.18-4.19,6.51-12.61,1.43-17.04-1.38-1.19-3.73-1.88-5.22-.71-3.14,3.14-.61,9.88-.13,13.94.4,1.71.41,4.61,1.26,4.91l.1.04Z"/>
  <path class="cls-1" d="M57.65,55.05c-.6-.02-.43,1.47-.44,2.11.32,6.19,4.13,16.42.98,18.83-3.42,1.78-5.19-3.4-5.67-6.21-.6-3.09-.12-6.15.09-9.24,1.29-19.74-3.71-44.74,2.29-58.74.79-1.84,6.45-1.62,8.7-1.07,12.25,2.85,8.11,21.16.77,30.28-2.16,2.34.49,16.83,1.53,19.8,6.23,22.72,6,37-6.39,7.73-.4-.95-1.17-3.06-1.82-3.46l-.05-.02ZM59.11,24.37c.34.3,1.35-.94,2.12-2.19,1.62-2.96,4.36-8.83,1.31-11.6-1.04-.75-3.01-.61-3.77.42-1.22,1.82-.78,4.15-.59,6.26.16,1.24.36,2.51.5,3.72.21,1.39.1,2.98.38,3.34l.05.05Z"/>
  <path class="cls-1" d="M109.38,15.36c-.26,5.36-1.07,10.06-1.93,18.26-.76,6.41-1.7,13.59-2.85,20.12-1.35,6.95-2.34,13.19-5.26,18.51-1.18,2.25-3.85,3.28-5.07.3-1.42-19.82,9.96-105.74,15.1-57.34v.14Z"/>
</svg>