<?xml version="1.0" encoding="UTF-8"?>
<svg id="Layer_1" data-name="Layer 1" xmlns="http://www.w3.org/2000/svg" viewBox="0 0 21.95 92.57">
  <defs>
    <style>
      .cls-1 {
        stroke-width: 0px;
      }
    </style>
  </defs>
  <path class="cls-1" d="M19.58,76.98q-.09,2.85-2.83,3.41c1.55,1.84.76,3.61-.15,5.42.84.12,1.67.23,2.64.37.1.75.22,1.42.26,2.1.15,3.1,0,3.21-3,3.46-2.35.19-4.68.54-7.02.76-.86.08-1.75.1-2.6-.03-1.59-.24-2.09-.78-2.18-2.43-.21-3.48-.34-6.97-.51-10.45-.05-1.14.09-2.16,1.52-2.26,4.09-.27,8.18-.53,12.27-.75.49-.03.99.24,1.6.4Z"/>
  <path class="cls-1" d="M15.75,23.03c.02,5.43-3.51,9.79-8.19,10.71-4.83.94-8.1-2.09-7.48-6.95.42-3.31,1.82-5.99,5.08-7.34,1.45-.6,2.89-1.25,4.39-1.67,2.78-.79,4.76.28,5.71,3,.31.89.41,1.86.49,2.26Z"/>
  <path class="cls-1" d="M15.27,7.15c.02,4.53-2.68,8.08-7.08,9.19-1.6.4-3.24.69-4.88.92-1.03.14-1.81-.36-1.57-1.5.83-4.02-.1-8.01-.19-12.01C1.46-.21,1.58-.41,5.41.36c2.13.43,4.28.92,6.33,1.64,2.73.96,3.52,2.28,3.53,5.15Z"/>
  <path class="cls-1" d="M9.52,39.85c.81-2.11,1.37-3.85,2.15-5.48.29-.6,1.05-1.23,1.68-1.33.41-.07,1.2.69,1.43,1.25,1.38,3.27,2.15,6.66,1.45,10.22-.61,3.09-2.18,3.93-5.11,2.77-.88-.35-1.71-.79-2.65-1.24-.16.32-.31.52-.36.74-.44,2.19-.86,2.62-2.54,2.58-2.2-.06-2.91-.58-3.25-2.55-.53-3.04-.57-6.09.16-9.11.51-2.1,1.38-2.37,3.1-1.01,1.23.97,2.43,1.95,3.93,3.15Z"/>
  <path class="cls-1" d="M14.67,69.83c0,1.49-.02,2.7,0,3.9.03,1.14-.62,1.56-1.63,1.6-.34.01-.69-.1-1.04-.14q-3.62-.45-3.61-4.12c0-.51-.04-1.02-.07-1.65-1.26-.29-2.44-.55-3.62-.84-.99-.24-1.48-.87-1.38-1.91.06-.61.12-1.22.2-1.83.3-2.03.76-2.42,2.78-2,4.43.94,8.85.98,13.3.16,2.12-.39,2.54.08,2.24,2.16-.12.86-.23,1.73-.29,2.6-.14,2.14-.31,2.24-2.57,2.09-1.29-.09-2.59-.02-4.33-.02Z"/>
  <path class="cls-1" d="M2.44,60.62c.75-1.46,1.27-2.55,1.87-3.6,1.08-1.9,2.24-3.76,3.3-5.66,1.11-1.98,1.81-2.23,3.72-.94,1.37.93,2.64,2.02,3.94,3.06,1.7,1.37,3.38,2.77,5.09,4.14,1.33,1.07,1.31,2.11-.09,3.14-2.33,1.72-4.9,1.46-7.01-.69-1.53-1.57-2.55-1.45-3.43.64-.53,1.25-1.25,1.55-2.44,1.24-1.51-.4-3.02-.8-4.95-1.31Z"/>
</svg>