<?xml version="1.0" encoding="UTF-8"?>
<svg id="Layer_1" data-name="Layer 1" xmlns="http://www.w3.org/2000/svg" viewBox="0 0 267.15 75.73">
  <defs>
    <style>
      .cls-1 {
        stroke-width: 0px;
      }
    </style>
  </defs>
  <path class="cls-1" d="M239.93,44.02c.74-1.27,1.7-2.47,2.19-3.84,1.73-4.84,3.3-9.73,4.92-14.61.75-2.26,1.34-4.58,2.19-6.79,1.24-3.21,3.43-5.7,6.38-7.48,4.6-2.78,8.41-1.51,10.11,3.61.77,2.32,1.15,4.83,1.31,7.27.47,7.37-.5,14.65-1.76,21.89-1.22,7.04-2.63,14.04-3.98,21.06-.16.84-.42,1.66-.71,2.47-1.98,5.59-7.77,7.96-12.94,5.04-2.02-1.14-3.97-2.78-5.32-4.65-2.83-3.93-5.27-8.14-7.8-12.28-1.14-1.87-2.03-3.89-3.16-5.76-.83-1.37-1.79-2.71-3.57-3.08-1.34,1.06-1.27,2.58-1.32,3.95-.1,2.85.02,5.72,0,8.57-.02,3.05.06,6.11-.17,9.14-.29,3.84-1.74,5.42-5.48,6.32-3.96.95-7.95.86-11.89-.13-2.23-.56-2.71-1.02-2.66-3.38.08-4.28.08-8.6.66-12.83,1.34-9.72,2.91-19.41,4.59-29.08.6-3.45,1.62-6.86,2.78-10.17,1.14-3.29,3.2-6.06,6.04-8.16,4.17-3.09,7.99-2.6,10.71,1.77,1.59,2.55,2.93,5.42,3.65,8.32,1.31,5.26,2.07,10.65,3.05,15.98.41,2.21.78,4.44,1.16,6.65.34.07.68.13,1.01.2Z"/>
  <path class="cls-1" d="M28.48,38.44c.54.23.87.43,1.23.51,8.64,1.9,12.31,11.16,12.3,17.61,0,7.83-4.83,14.47-12.55,16.98-8.65,2.81-17.39,2.98-26.13.15-1.23-.4-1.85-1.22-2.27-2.35-1.25-3.4-1.18-6.94-.89-10.45.73-8.82,1.56-17.64,2.4-26.46.56-5.87,1-11.77,1.87-17.6.57-3.84,1.83-7.58,2.74-11.38.29-1.23.93-1.89,2.18-2.32C15.65,1,22.12-.07,28.73,0c2.44.03,4.97.39,7.31,1.09,6.75,2.02,11.31,9.42,9.64,15.77-.56,2.13-1.72,4.3-3.17,5.96-2.5,2.85-5.43,5.32-8.21,7.92-1.18,1.11-2.47,2.09-3.63,3.22-1.18,1.14-2,2.52-2.18,4.48ZM10.77,58.1s-.09,0-.13,0c0,1.04-.04,2.09.01,3.13.07,1.33.78,2.04,2.13,2.21,5.36.7,10.59.3,15.67-1.7,1.95-.76,3.21-2.06,3.46-4.14.51-4.21-.14-7.99-4.23-10.35-.99-.57-1.89-1.35-2.94-1.74-3.59-1.33-7.23-2.34-11.04-.64-1.37.61-2.07,1.45-2.16,2.98-.19,3.41-.51,6.82-.78,10.23ZM14.17,12.63c-.23,3.26-.54,6.38-.64,9.5-.11,3.48,1.43,4.94,4.87,4.6,5.26-.51,9.92-2.49,13.82-6.12,2.56-2.38,2.33-6.21-.71-7.98-1.68-.97-3.65-1.68-5.57-1.95-3.93-.54-7.73.34-11.76,1.94Z"/>
  <path class="cls-1" d="M166.95,47.47c.27-6.47.63-12.94,2.21-19.25,1.71-6.8,4.88-12.79,10.19-17.5,2.12-1.88,4.37-3.4,7.43-2.2.33.13.76.04,1.14.06,7.8.47,12.89,4.63,15.71,11.73,1.94,4.87,2.32,10,2.07,15.17-.35,7.27-1.55,14.38-4.47,21.12-2.7,6.22-7.03,10.81-13.47,13.23-1.15.43-2.35.78-3.56,1.01-6.99,1.33-12.39-1.61-15.12-8.19-1.6-3.85-1.88-7.94-2.12-12.03-.06-1.04,0-2.09,0-3.14ZM190.44,31.57c-.05-2.68-.64-4.96-1.85-6.8-.89-1.36-1.91-1.61-3.01-.46-.83.87-1.56,1.96-1.97,3.08-2.19,5.89-3.94,11.94-4.25,18.24-.13,2.58.47,5.29,1.22,7.8.76,2.56,3.24,2.78,4.69.5.8-1.25,1.34-2.74,1.68-4.2,1.01-4.35,1.89-8.72,2.76-13.1.33-1.67.5-3.38.74-5.07Z"/>
  <path class="cls-1" d="M50.55,28.22c0-5.89-.4-10.03.09-14.06.89-7.38,6.01-11.83,13.48-11.64,3.94.1,7.93.98,11.77,1.97,3.22.83,5.58,3,5.96,6.57.42,3.93-.67,7.38-3.84,9.94-1.5,1.21-3.35,1.24-5.18,1.2-1.71-.03-3.43-.11-5.13-.01-2.08.12-3.57,1.25-4.42,3.15-1.22,2.74-1.88,5.6-1.68,8.61.15,2.29,1.11,3.22,3.42,3.4.75.06,1.53.01,2.28-.08,1.42-.17,2.83-.41,4.24-.61,2.29-.32,4.48-.12,5.83,2.04,1.34,2.14,1.08,4.4-.15,6.52-1.31,2.26-3.38,2.95-5.87,2.55-1.32-.21-2.62-.56-3.94-.69-2.7-.25-4.31.89-4.61,3.13-.36,2.71,1.01,5.02,3.53,5.31,1.75.2,3.6-.06,5.36-.39,2.33-.44,4.6-1.24,6.93-1.73,4.76-1,8.02,2.48,6.84,7.24-.53,2.13-1.76,3.85-3.61,4.97-1.61.98-3.33,1.9-5.12,2.48-6.65,2.17-13.51,3.34-20.51,3.36-7.49.02-10.82-3.2-10.48-10.65.19-4.14,1.03-8.31,2.02-12.35,2.34-9.49,3.09-14.56,2.81-20.22Z"/>
  <path class="cls-1" d="M124.67,50.84c0,3.24.04,6.48-.02,9.71-.03,1.68-.69,3.16-1.93,4.33-1.68,1.59-3.42,1.69-5.03.02-1.04-1.08-1.88-2.4-2.61-3.72-1.06-1.92-1.96-3.92-2.87-5.91-1.09-2.38-2.82-3.52-5.49-2.99-.37.07-.76.1-1.14.14-3.61.33-4.1.79-4.49,4.5-.25,2.37-.37,4.75-.64,7.11-.31,2.72-1.37,4.95-4.22,5.89-3.09,1.01-5.6-.18-6.25-3.35-.54-2.59-1.03-5.3-.83-7.9.98-13.01,2.14-26.01,3.38-39,.29-3.01.99-6.03,1.85-8.94,1.5-5.09,4.26-7.17,9.6-7.37,2.36-.09,4.75.12,7.11.38,3.45.37,5.86,2.36,7.05,5.52,1.17,3.11,2.21,6.31,2.9,9.55,2.23,10.55,3.89,21.18,3.63,32.01ZM104.19,41.96c3.73.26,5.02-.48,5.47-3.46,1.11-7.38.7-14.76-.32-22.12-.11-.76-.58-1.47-.99-2.46-1.81,1.35-2.21,3.04-2.58,4.65-1.78,7.65-1.16,15.45-1.58,23.39Z"/>
  <path class="cls-1" d="M134.96,24.79c.98,7.78,1.81,15.63,3.03,23.43.39,2.47,1.71,4.82,2.74,7.16.33.74,1,1.41,1.67,1.91,1.37,1.02,2.7.69,3.57-.8.34-.57.59-1.2.84-1.81.33-.79.61-1.6.95-2.39,2.26-5.22,7.76-6.89,12.51-3.77,2.63,1.73,3.37,4.43,2.95,7.26-.34,2.31-1.02,4.72-2.19,6.71-3.38,5.79-8.75,8.89-15.28,9.92-4.18.65-7.79-.77-10.36-4.14-1.54-2.02-2.96-4.25-3.9-6.6-1.31-3.25-2.43-6.64-3.07-10.08-1.55-8.42-2.87-16.88-4.07-25.36-.34-2.41-.13-4.96.21-7.39.26-1.84.89-3.74,1.81-5.36,3.39-6.01,13.77-9.79,20.34-7.6,2.66.88,4.71,2.55,6.09,4.93,3.62,6.24,4.75,12.98,3.63,20.09-.07.47-.24.92-.41,1.37-1.37,3.65-4.45,4.63-7.42,2.06-1.52-1.32-2.74-3.15-3.66-4.98-1.19-2.37-1.91-4.97-2.89-7.45-.38-.97-.79-1.97-1.41-2.79-1.51-2-3.78-1.78-4.66.55-.59,1.57-.69,3.32-1.03,5.11Z"/>
</svg>