<?xml version="1.0" encoding="UTF-8"?>
<svg id="Layer_1" data-name="Layer 1" xmlns="http://www.w3.org/2000/svg" viewBox="0 0 152.36 97.8">
  <defs>
    <style>
      .cls-1 {
        stroke-width: 0px;
      }
    </style>
  </defs>
  <path class="cls-1" d="M32.66,48.32c-.94-.4-2.56.24-3.74.65-3.67,1.4-7.66,3.45-11.72,4.14C-4.01,56.19-2.66,26.91,5.58,14.71,11.35,4.49,23.87-1.17,36.83.2c23.46,1.66,30.16,23.41,29.3,43.67-.72,12.3-2.86,24.97-11.33,35.42-8.05,9.63-21.98,17.94-35.8,18.5-15.95.34-12.96-15.79-6.92-24.43,4.26-7.4,20.2-17.61,20.94-24.59-.05-.18-.15-.31-.3-.41l-.06-.03ZM30.61,23.97c-.26-11.84-10.91-14.18-14.08-1.77-1.86,5.55-.2,19.89,9.1,13.67,3.49-2.79,5.06-7.5,4.98-11.64v-.27Z"/>
  <path class="cls-1" d="M93.72,35.8c2.61.07,5.37-1.71,7.95-2.41,5.11-2.15,10.42,1.84,14.39,3.43,3.87,1.52,6.49-1.32,8.4-4.11,5.43-8.35,12.67-21.5,19.56-24.16,8.53-2.94,9.26,5.78,7.67,12.6-7.34,29.99-19.83,96.58-44.76,58-3.78-5.02-6.72-4-10.23.11-2.86,2.93-5.11,7.26-9.44,8.71-7.21,1.17-10.82-14.16-12.31-19.98-3.18-16.56-10.18-34.48-7.21-50.8.79-5.6,6.88-14.95,14.2-9.99,3.59,2.58,5.35,8.57,6.46,14.73,1.2,4.58.86,12.96,5.22,13.84h.12Z"/>
</svg>