<?xml version="1.0" encoding="UTF-8"?>
<svg id="Layer_1" data-name="Layer 1" xmlns="http://www.w3.org/2000/svg" viewBox="0 0 199.91 221.94">
  <defs>
    <style>
      .cls-1 {
        stroke-width: 0px;
      }
    </style>
  </defs>
  <path class="cls-1" d="M174.11,70.46c-.33-3.87-.7-7.73-.97-11.6-1.2-17.4-2.35-34.8-3.54-52.2-.09-1.36-.34-2.71-.44-4.07-.16-2.12.41-2.86,2.42-2.52,2.87.48,5.71,1.2,8.53,1.96,1.44.39,2.24,1.54,2.32,3.05.07,1.26.15,2.55,0,3.79-1.53,12.38-.69,24.74.87,37.02,1.45,11.43,2.05,22.89,2.33,34.38.2,8.28.36,16.55.57,24.83.03,1.26.29,2.51.35,3.78.08,1.7-.64,2.53-2.24,2.15-2.34-.55-4.41.06-6.57.74-1.87.59-2.6.29-3.11-1.53-3.14-11.21-9.13-21.31-12.67-32.36-.62-1.93-1.43-3.79-2.67-5.6.19,1.73.34,3.46.58,5.18,1.48,10.71,2.98,21.42,4.48,32.12.39,2.81.13,3.15-2.66,3.63-1.82.31-3.62.76-5.44,1.11-.85.16-1.72.23-2.58.33-1.46.17-2.15-.52-2.28-1.96-.33-3.79-.77-7.56-1.04-11.35-.57-7.97-1-15.95-1.61-23.91-.84-10.78-1.84-21.55-2.68-32.33-.56-7.19-.88-14.39-1.44-21.58-.42-5.34-1.06-10.66-1.61-15.99-.06-.58-.17-1.16-.2-1.74-.15-2.76.52-3.46,3.34-3.46.58,0,1.19.12,1.75.02,3.17-.56,5,1,6.08,3.76.6,1.54,1.28,3.08,1.61,4.68,3.4,16.45,8.34,32.44,13.87,48.27,1.34,3.84,2.67,7.68,4,11.52.21-.05.43-.09.64-.14ZM183.58,107.69c0-2.57.07-5.18-.01-7.78-.28-9.06-.68-18.11-.91-27.17-.24-9.17-1.14-18.27-2.22-27.37-1.43-12.01-2.12-24.07-.87-36.17.11-1.06.23-2.16.1-3.2-.07-.56-.58-1.36-1.06-1.51-2.01-.62-4.09-1.04-6.5-1.62.2,3.18.37,5.97.56,8.76.89,13.32,1.7,26.64,2.69,39.96.7,9.33,1.67,18.63,2.45,27.95.12,1.45.96,3.61-.95,4.1-2.3.59-2.29-1.97-2.8-3.34-2.69-7.31-5.25-14.68-7.81-22.04-5.3-15.19-9.96-30.57-13.23-46.34-.33-1.61-1-3.15-1.56-4.7-.56-1.55-1.62-2.38-3.35-2.17-.75.09-1.5.11-2.18.16,2.67,35.66,5.32,71.17,7.99,106.86,2.7-.64,5.11-1.21,7.68-1.81-.44-2.71-.9-5.19-1.24-7.69-1.38-10.33-2.7-20.68-4.1-31.01-.63-4.63-1.43-9.24-2.07-13.87-.24-1.73-.34-3.49-.29-5.23.01-.47.73-1.12,1.25-1.29.33-.11,1.09.41,1.32.83.42.75.64,1.62.87,2.47,3.93,14.52,9.11,28.58,15.28,42.29,1.48,3.28,2.57,6.73,3.85,10.1.26.69.58,1.36.85,1.98,2.14-.38,4.04-.72,6.26-1.12Z"/>
  <path class="cls-1" d="M15.29,64.08c0-1.54,0-3.08,0-4.62,0-11.68-.02-23.37.06-35.05.02-3.6.32-7.2.54-10.8.07-1.16.29-2.32.53-3.46.37-1.74,1.55-2.78,3.27-2.84,2.33-.07,4.67.06,6.99.23,1.56.11,2.11,1.26,2.12,2.67.02,2.24.07,4.48-.03,6.72-.77,18.61.05,37.19.76,55.78.52,13.81.29,27.65.37,41.48.01,2.24-.02,4.48-.14,6.72-.11,2.17-.36,2.31-2.6,2.63-1.44.2-2.86.6-4.3.82-2.35.36-3.36-.18-3.64-2.59-.68-5.8-1.21-11.62-1.6-17.44-.55-8.26-.92-16.53-1.37-24.8-.07-1.27.08-2.71-2.36-2.14.16,4.42.18,8.88.49,13.33.75,10.59,1.64,21.17,2.45,31.76.2,2.66-.45,3.03-2.97,2.66-2.07-.3-4.23-.17-6.33,0-3.92.32-4.7-.29-4.84-4.17-.62-17.03-1.4-34.06-1.81-51.1C.42,50.49.28,31.11,0,11.72c0-.68.03-1.37.14-2.04.32-1.83.67-2.06,2.52-2.05,2.33,0,4.67-.01,7-.07,2.23-.05,3,.51,3.14,2.83.14,2.43.12,4.87.07,7.3-.22,13.45.25,26.88,1.09,40.3.1,1.55.07,3.12.17,4.67.03.5.27.99.41,1.49.25-.03.5-.05.75-.08ZM2.55,10.52c.11,37.48,1.43,74.6,3.11,111.93,2.85-.23,5.52-.45,8.26-.67,0-.57.02-.95,0-1.33-.83-11.47-1.71-22.93-2.48-34.4-.21-3.11-.14-6.23-.18-9.35-.02-1.26.24-2.45,1.8-2.48,1.35-.02,2.77.02,4.05.38.66.19,1.25,1.08,1.59,1.79.28.57.14,1.34.18,2.02.61,11.28,1.18,22.57,1.86,33.85.18,3.08.68,6.14,1.07,9.58,1.97-.44,3.54-.8,5.14-1.16.08-.78.18-1.35.18-1.92.11-9.74.43-19.48.24-29.22-.24-12.37-1.1-24.72-1.3-37.09-.2-12.17.07-24.35.13-36.52,0-1.91,0-3.81,0-5.83h-6.97c-.17.99-.41,1.83-.45,2.67-.35,6.71-.87,13.42-.93,20.13-.09,10.03.16,20.06.25,30.09,0,1.07,0,2.16-.21,3.2-.26,1.36-1.04,1.81-2.31,1.54-3.3-.72-3.99-1.48-4.15-4.89-.77-16.25-1.64-32.5-1.25-48.78.03-1.22-.11-2.44-.16-3.55H2.55Z"/>
  <path class="cls-1" d="M47.12,109.73c3.35-.85,4.25-1.71,4.41-4.71.22-4.18.48-8.39.16-12.55-.65-8.35-1.7-16.66-2.54-25-.95-9.4-1.93-18.8-2.76-28.21-.81-9.12-1.45-18.26-2.14-27.39-.1-1.35-.2-2.74-.04-4.08.23-1.86,1.3-2.85,3.12-2.85,1.34,0,2.79.13,4,.65.85.36,1.61,1.37,2,2.27.41.94.39,2.09.45,3.16,1.04,17.8,1.97,35.6,3.13,53.39.85,13.03,2.08,26.03,2.97,39.05.23,3.38.02,6.82-.3,10.2-.42,4.4-2.87,7.48-7.16,8.65-2.6.71-5.34,1.02-8.03,1.2-3.23.22-5.47-1.49-6.35-4.54-.91-3.16-1.8-6.4-2.11-9.66-1.56-16.39-2.86-32.81-2.76-49.3.06-9.16.35-18.31.45-27.46.08-7.79.06-15.58.04-23.37,0-2.98.27-3.32,3.32-3.34.78,0,1.56.02,2.33.11,1.3.16,2.12.92,2.42,2.2.11.47.19.96.22,1.44.5,7.58,1.19,15.15,1.43,22.74.4,12.56.49,25.13.73,37.69.23,11.79.62,23.57,2.09,35.29.18,1.42.59,2.8.93,4.41ZM47.03,7.89c0,1.79-.11,3.61.02,5.42.46,6.31,1.07,12.62,1.5,18.93.9,13.31,2.01,26.6,3.86,39.83,1.43,10.22,2.63,20.49,1.95,30.86-.1,1.45-.24,2.91-.51,4.34-.46,2.42-2.07,3.92-4.27,4.81-2.43.98-4.25.24-5.13-2.22-.52-1.45-.88-3.01-1.01-4.54-.63-7.76-1.44-15.53-1.68-23.31-.46-14.5-.43-29.02-.87-43.52-.29-9.43-1.04-18.85-1.62-28.28-.11-1.77-.33-1.84-2.99-1.33,0,3.06.03,6.16,0,9.25-.15,13.14-.36,26.29-.47,39.43-.15,17.85,1.31,35.61,2.97,53.36.23,2.48,1.13,4.92,1.85,7.33.37,1.25,1.19,2.27,2.63,2.46,4,.54,7.83-.04,11.11-2.45,1.07-.79,1.87-2.29,2.24-3.62.52-1.85.81-3.85.71-5.76-.38-7.97-.86-15.94-1.46-23.9-1.04-13.99-2.31-27.96-3.25-41.95-.72-10.69-1.06-21.4-1.6-32.1-.16-3.16-.4-3.33-3.98-3.03Z"/>
  <path class="cls-1" d="M102.4,98.43c.3-.88.69-1.75.9-2.66,2.28-10.19,1.66-20.32-.63-30.42-.55-2.42-1.8-4.27-4.1-5.35-3.09-1.46-4.99-3.99-6.12-7.13-.63-1.74-1.04-3.55-1.67-5.29-.69-1.9-1.53-3.73-2.26-5.61-.28-.72-.48-1.49-.59-2.25-.82-6.18-1.68-12.36-2.36-18.55-.26-2.41-.28-4.88-.06-7.29.63-6.76,7.39-12.97,14.22-13.31,2.81-.14,5.23.7,7.03,2.87,1.11,1.34,2.16,2.78,2.96,4.32,3.17,6.04,5.04,12.43,4.98,19.32-.03,3.9.05,7.79-.04,11.69-.07,2.86-.5,3.1-3.4,2.72-1.25-.16-2.52-.22-3.78-.23-2.53-.02-2.97-.31-2.85-2.84.31-6.23-1.09-12.19-2.58-18.15-.37-1.49-.73-3.04-2.26-3.8-1.6.38-1.74,1.69-1.9,2.77-.98,6.53-.94,13.04,1.21,19.35,1.42,4.16,3.95,7.65,7.67,10.05,3.18,2.05,4.79,4.95,5.64,8.51,1.28,5.38,1.25,10.84,1.05,16.28-.34,9.54-.86,19.06-1.36,28.59-.24,4.61-1.2,9.06-3.11,13.3-1.27,2.83-2.89,5.12-6.36,5.17-3.65.05-7.38-2.2-8.6-5.47-.63-1.71-1.04-3.58-1.11-5.4-.25-5.84-.24-11.68-.43-17.52-.27-8.27-.63-16.54-.96-24.81-.02-.49-.11-.97-.11-1.46-.01-2.14.76-2.78,2.87-2.47,1.05.15,2.12.35,3.17.31,1.67-.05,2.64.74,2.85,2.3.27,2.02.47,4.06.51,6.1.14,7.4.17,14.79.31,22.19.03,1.37.36,2.74.56,4.11.24,0,.47.02.71.02ZM94.33,66.32c0,1-.02,1.58,0,2.15.31,7.3.71,14.59.93,21.9.17,5.84.05,11.69.23,17.53.06,2.02.39,4.1,1.03,6.01.87,2.59,3.13,3.65,5.71,3.87,2.56.23,3.47-1.69,4.34-3.62,1.58-3.5,2.62-7.16,2.8-10.98.55-11.77,1.1-23.54,1.41-35.32.09-3.37-.52-6.78-1.04-10.14-.45-2.9-1.98-5.12-4.51-6.85-4.95-3.37-8.06-8.13-9.44-13.96-1.41-5.96-1.42-11.98-.51-18,.16-1.04.5-2.1,1-3.03,1.42-2.67,4.26-3.05,6.24-.75.92,1.07,1.65,2.47,1.99,3.83,1.48,5.85,3.09,11.69,2.75,17.84-.03.54.2,1.1.31,1.67h4.43c0-4.26.03-8.34,0-12.42-.06-6.29-2.02-12.07-4.91-17.56-.58-1.11-1.36-2.15-2.18-3.09-1.68-1.92-3.79-2.67-6.31-1.89-7.53,2.32-10.8,6.83-10.63,13.48.02.97.06,1.95.16,2.91.74,6.84,1.13,13.72,3.35,20.32,1.24,3.69,2.18,7.48,3.35,11.19.81,2.58,2.19,4.86,4.75,6.03,3.78,1.73,5.33,4.89,6.11,8.7,1.93,9.45,2.35,18.93.61,28.45-.28,1.53-.68,3.05-1.2,4.51-.51,1.42-1.37,2.64-3.1,2.7-1.34.04-2.53-1.11-2.97-3.15-.38-1.8-.61-3.66-.64-5.5-.12-7.11-.1-14.22-.2-21.34-.02-1.72-.3-3.44-.47-5.28-1.21-.08-2.14-.13-3.38-.21Z"/>
  <path class="cls-1" d="M2.57,139.07c.53-.19,1.15-.63,1.72-.58,3.78.34,7.55.75,11.31,1.22,2.93.37,4.32,2.14,4.74,5.05.94,6.55,2.04,13.08,3.1,19.61.1.62.37,1.21,1.01,1.8.42-2.15.97-4.29,1.25-6.46.67-5.11,1.3-10.23,1.79-15.36.47-4.87,1.07-5.54,5.85-5.49,1.36.01,2.73.03,4.08.2,1.89.24,2.42.83,2.28,2.68-.73,9.9-1.02,19.81-2.48,29.67-2.09,14.15-4.34,28.3-4.84,42.63-.07,1.94-.05,3.89-.06,5.84,0,.9,0,1.89-1.14,2.05-1.32.18-1.52-.89-1.79-1.85-3.27-11.62-6.44-23.26-9.86-34.84-4.57-15.51-9.77-30.8-16.96-45.34-.08-.15,0-.38,0-.82ZM36.74,141.7c-1.29-.1-2.16-.19-3.03-.23-3.09-.15-3.2-.03-3.52,3.15-.39,3.87-.73,7.75-1.2,11.61-.88,7.32-3.15,14.48-2.42,21.99.05.51-.61,1.55-.88,1.53-.64-.05-1.33-.49-1.84-.96-.3-.28-.33-.89-.42-1.37-1.4-6.86-2.85-13.72-4.14-20.6-.73-3.92-1.2-7.89-1.77-11.84-.18-1.23-.54-2.27-1.9-2.64-3-.82-6.07-.89-9.57-1.32.59,1.38.98,2.25,1.34,3.12,2.23,5.29,4.6,10.53,6.66,15.88,5.78,15,9.99,30.52,14.57,45.9.22.75.53,1.48.8,2.22.5-.89.57-1.66.66-2.43.98-8.21,1.77-16.45,2.98-24.63,1.8-12.14,3.28-24.3,3.67-36.58.03-.85,0-1.71,0-2.81Z"/>
  <path class="cls-1" d="M119.03,56.13c-.43-12.45-.95-24.9-1.23-37.36-.08-3.67.46-7.37.8-11.04.18-1.93,1.08-3.23,3.27-3.44,1.03-.1,1.98-.78,3.01-1.08,6.25-1.87,10.4-.01,12.4,6.16,1.28,3.95,2.1,8.12,2.52,12.25.94,9.2,1.36,18.45,2.24,27.65,1.2,12.5,2.64,24.97,3.97,37.46.68,6.4,1.36,12.81.26,19.21-.39,2.27-.97,4.61-1.99,6.66-2.35,4.74-6.36,6.97-11.67,6.63-7.69-.49-10.29-2.75-11.87-10.33-1.47-7.1-1.44-14.32-1.47-21.53-.04-10.42,0-20.83,0-31.25-.07,0-.15,0-.22,0ZM144.2,98.7c-.24-3.31-.35-5.84-.63-8.35-1.02-9.2-2.28-18.37-3.12-27.58-1.14-12.51-1.94-25.06-2.98-37.58-.44-5.24-.93-10.51-2.95-15.44-1.65-4.03-3.91-5.12-8.11-4.1-4.68,1.14-5.88,2.39-5.85,7.18.06,8.66.36,17.33.56,25.99.28,12.65.57,25.31.82,37.96.15,7.59.06,15.2.45,22.78.2,3.95,1.07,7.9,1.91,11.79.58,2.7,2.44,4.39,5.31,4.71,1.45.16,2.9.45,4.34.42,3.4-.05,6-1.67,7.6-4.63.82-1.52,1.47-3.22,1.76-4.91.5-2.96.67-5.99.89-8.23Z"/>
  <path class="cls-1" d="M66.72,104.16c-.63-9.64-1.03-20.26-2.07-30.83-2-20.17-4.38-40.3-6.54-60.45-.24-2.21-.31-4.47-.09-6.67.19-1.83.81-2.1,2.63-1.82,3,.46,5.94.98,8.82-.69.5-.29,1.73.15,2.29.63.7.6,1.11,1.58,1.57,2.43,4.5,8.4,7.46,17.39,9.63,26.59,2.94,12.44,5.31,25.04,4.99,37.87-.25,10.11-1.11,20.23-2.26,30.28-.5,4.38-2.34,8.62-3.69,12.89-.83,2.63-2.69,4.17-5.48,4.66-2.68.47-5.32,1.24-8.01,1.64-2.11.31-2.59-.31-2.48-2.44.22-4.38.42-8.75.68-14.11ZM60.18,7.19c.1,1.7.09,3.14.28,4.55,2.87,21.33,5.58,42.69,7.12,64.16.79,10.97,1.08,21.97,1.54,32.97.12,2.9.02,5.8.02,9.07,2.53-.56,4.78-1.08,7.04-1.55,1.69-.35,2.82-1.32,3.32-2.94,1.23-3.99,2.79-7.94,3.52-12.02.9-5.06,1.17-10.24,1.59-15.38.7-8.45,1.31-16.91.23-25.37-.69-5.41-1.42-10.81-2.33-16.19-2.09-12.35-5.51-24.3-11.11-35.56-.38-.76-.86-1.47-1.02-1.74h-10.19Z"/>
  <path class="cls-1" d="M145.98,144.22c2.23-2.09,4.2-4.1,6.36-5.91,2.16-1.81,4.49-3.42,6.75-5.11,1.43-1.07,2.93-1.36,4.65-.61,1.51.66,3.16,1.01,4.67,1.68,1.9.86,2,1.83.47,3.28-3.24,3.09-6.56,6.11-9.74,9.26-2,1.99-3.8,4.17-5.7,6.26-.96,1.06-1.38,2.24-1.26,3.72.35,4.17.48,8.36.87,12.53,1.28,13.49,1.64,27.01,1.31,40.56-.02.68-.01,1.37-.14,2.04-.18.96-.79,1.72-1.8,1.51-2.71-.57-5.19.51-7.76.93-3.2.52-3.85.07-3.92-3.18-.28-14.8-.5-29.6-.82-44.39-.08-3.7-.44-7.38-.63-11.08-.07-1.43-.61-2.58-1.57-3.66-4.21-4.73-8.35-9.52-12.54-14.26-1.8-2.04-1.77-2.57.5-4.03,1.23-.79,2.51-1.5,3.79-2.2,1.48-.81,2.85-.56,3.97.66,1.11,1.22,2.17,2.5,3.19,3.8,2.55,3.25,5.57,5.96,9.34,8.2ZM151.41,210.41c.09-1.04.22-1.9.22-2.76-.02-6.23.14-12.47-.16-18.69-.52-10.5-1.26-20.99-2.08-31.47-.2-2.56.43-4.57,2.16-6.34,4.14-4.25,8.28-8.5,12.42-12.76.63-.65,1.25-1.32,1.9-2.01-2.87-1.89-5.16-1.65-7.41.44-3.21,2.98-6.61,5.74-9.77,8.77-2.2,2.11-2.27,2.26-4.86.54-3.77-2.49-7.1-5.45-9.84-9.06-.87-1.14-1.86-2.18-2.91-3.4-1.42.84-2.62,1.56-3.97,2.37.68.82,1.16,1.42,1.67,2,3.62,4.08,7.18,8.22,10.89,12.21,1.49,1.6,2.29,3.33,2.41,5.45.22,3.89.58,7.77.66,11.66.29,13.92.49,27.84.73,41.76.01.83.14,1.66.23,2.7,2.66-.49,5.03-.92,7.71-1.41Z"/>
  <path class="cls-1" d="M53.93,193.2c-1.14.4-2.02.71-3.11,1.09-.28,7.77-.57,15.43-.8,23.09-.03.96-.07,1.93-1.07,2.13-3.68.72-7.34,1.71-11.4,1.33-.07-.92-.24-1.67-.15-2.39.42-3.58.84-7.15,1.38-10.71,2.14-13.95,4.22-27.92,5.21-42,.48-6.79.37-13.61.68-20.41.07-1.53-1.27-4.03,1.3-4.41,2.19-.32,2.11,2.2,2.57,3.64,3.14,9.72,6.14,19.5,9.28,29.22,4.56,14.09,10.06,27.82,15.99,41.39,1.07,2.45.55,3.12-2.18,2.92-1.16-.09-2.33-.12-3.48-.05-1.53.09-2.67-.46-3.37-1.81-.72-1.38-1.39-2.79-2.04-4.2-2.4-5.22-4.78-10.44-7.19-15.66-.48-1.03-1.05-2.03-1.64-3.16ZM70.64,215.19c-.41-1.09-.73-1.98-1.09-2.86-2.1-5.14-4.25-10.25-6.31-15.41-5.46-13.67-9.93-27.67-14.22-41.74-.28-.93-.26-2.11-1.6-2.91-.31,22.34-4.34,43.97-7.56,66.17,2.62-.42,4.77-.76,7.2-1.15,0-1.75-.07-3.3.01-4.83.29-5.25.75-10.49.92-15.74.15-4.38.01-4.39,4.09-5.73.37-.12.74-.24,1.12-.34,1.41-.4,2.5,0,3.2,1.31.59,1.12,1.19,2.23,1.72,3.38,2.61,5.66,5.19,11.33,7.81,16.99.48,1.04,1.05,2.03,1.58,3.05,1.09-.07,1.94-.12,3.12-.2Z"/>
  <path class="cls-1" d="M112.73,145.47c2.8,14.29,4.4,28.32,8.8,42.07,1.92-.09,3.84-.14,5.75-.28,1.51-.11,2.43.43,2.67,1.99.16,1.06.44,2.1.59,3.16.32,2.29-.03,2.77-2.26,3.14-1.43.24-2.87.42-4.7.69.6,3.03,1.18,5.92,1.77,8.87,2.16.59,4.16.1,6.15-.14,2.8-.33,3.15-.12,3.81,2.66.4,1.7.81,3.42,1.04,5.15.22,1.65-.2,2.13-1.87,2.22-2.43.13-4.87.05-7.29.21-3.2.21-6.39.59-9.59.87-1.71.15-2-.2-2.2-1.83-.86-6.95-1.45-13.96-2.75-20.82-2.87-15.11-6.14-30.14-9.2-45.21-.74-3.62-1.36-7.27-1.93-10.93-.39-2.54.17-3.15,2.76-3.18,5.06-.05,10.12-.03,15.18-.05,1.21,0,2.12.38,2.27,1.73.21,1.84.41,3.68.59,5.52.15,1.52-.54,2.33-2.08,2.61-2.38.42-4.73.97-7.49,1.55ZM127.18,190.23c-2.16,0-4.1-.02-6.03,0-1.35.02-2.15-.46-2.49-1.88-1.14-4.83-2.55-9.61-3.52-14.47-1.8-8.97-3.39-17.99-5.03-26.99-.45-2.46.11-3.33,2.62-4.03,2.14-.6,4.32-1.05,6.74-1.62-.2-1.54-.39-2.91-.59-4.44-5.07.33-9.87-.17-15.06.11,5.17,25.59,11.84,50.44,14.47,76.18,5.2-.27,10.07-.53,15.16-.8-.38-1.77-.67-3.16-1-4.71-2.14.17-3.97.3-5.8.47-2.79.26-3.48-.18-4.12-2.87-.67-2.84-1.26-5.7-1.87-8.56-.43-2.02-.06-2.58,2.06-2.94,1.6-.27,3.22-.47,5.05-.73-.24-1.16-.41-1.97-.57-2.73Z"/>
  <path class="cls-1" d="M101.86,212.65c0,.1.02.19.03.29.36,4.88.37,4.76-4.28,4.08-2.49-.36-5.05-.27-7.58-.26-3.41,0-6.82.17-10.22.19-3,.02-3.29-.37-3.61-3.25-.2-1.83-.51-3.67-1.01-5.44-6.16-22.15-13.13-44.03-22.27-65.17-.19-.45-.43-.88-.57-1.34-.52-1.77.4-3.25,2.24-3.18,3.3.13,6.61.42,9.9.82,1.85.23,2.27,1.91,2.76,3.41,1.6,4.9,3.06,9.86,4.84,14.69,3.14,8.52,5.17,17.34,7.62,26.05,1.97,7.02,4.42,13.9,6.63,20.85.57,1.81,1.54,2.68,3.61,2.47,2.8-.29,5.64-.26,8.46-.35,2.62-.08,3,.27,3.25,2.93.1,1.07.14,2.14.21,3.21ZM54.89,141.17c10.51,23.88,18.29,48.12,24.65,73.08h19.54c-.1-1.61-.19-3.2-.3-5-.89,0-1.54,0-2.2,0-2.63.05-5.27-.02-7.89.19-2.35.19-3.65-.81-4.42-2.91-.67-1.83-1.59-3.57-2.18-5.42-1.69-5.29-3.6-10.53-4.82-15.93-3.2-14.2-8.47-27.75-12.7-41.63-.4-1.31-1.06-1.95-2.45-1.99-2.23-.06-4.45-.24-7.23-.4Z"/>
  <path class="cls-1" d="M99.64,192.51c2.53,0,4.96-.08,7.38.02,2.47.1,2.63.4,2.6,2.75-.03,1.94.06,3.89.12,5.83.09,2.67-.42,3.02-2.99,2.65-2.01-.29-4.06-.32-6.1-.36-2.04-.03-4.09.13-6.13.11-3.19-.02-3.98-.53-4.77-3.58-1.32-5.08-2.51-10.2-3.7-15.32-2.98-12.79-5.73-25.65-9.9-38.13-.86-2.58-1.93-5.1-2.82-7.67-.81-2.35-.29-3.08,2.14-3.05,2.33.04,4.67.21,7,.27,1.62.05,2.45.83,2.77,2.42,3.35,17.02,8.64,33.53,13.1,50.26.32,1.21.81,2.37,1.3,3.77ZM76,138.42c.37,1.06.6,1.69.8,2.31,1.9,5.82,4.09,11.57,5.63,17.49,2.92,11.2,5.46,22.5,8.17,33.76.59,2.46,1.25,4.9,1.86,7.36.23.93.66,1.64,1.74,1.64,4.16,0,8.31,0,12.43,0v-6.03c-2.37,0-4.5-.08-6.62.02-1.73.08-2.78-.64-3.31-2.23-.22-.65-.48-1.28-.65-1.94-4.44-16.74-8.88-33.48-13.32-50.22-.17-.63-.39-1.24-.59-1.88-1.98-.1-3.81-.19-6.14-.3Z"/>
  <path class="cls-1" d="M195.37,194.71c.64.79,2.61.76,1.89,2.38-.62,1.4-2.06.75-3.13.56-1.61-.28-3.18-.77-4.75-1.16-.41.91-.77,1.74-1.22,2.75-.7-.41-1.24-.62-1.64-.98-.26-.23-.4-.66-.49-1.03-1.67-6.66-2.45-6,4.61-6.67.86-.08,1.75.01,2.61.1,3.21.34,3.68,1.23,2.12,4.04Z"/>
  <path class="cls-1" d="M190.4,202.89c2.01-.99,3.92-1.94,5.84-2.86.61-.29,1.25-.68,1.88-.7.45-.02,1.07.42,1.33.83.16.25-.08,1.01-.37,1.25-.9.73-1.91,1.31-3.26,2.2,1.22.47,2.21.72,3.04,1.23.48.29.71,1.01,1.05,1.53-.56.3-1.14.89-1.66.84-1.34-.13-2.67-.52-3.98-.87-1.02-.27-2.02-.65-3.18-1.03-.14.57-.13,1.1-.38,1.44-.31.41-.85.92-1.27.91-.45-.02-1.17-.51-1.28-.93-.53-1.96-.94-3.97-1.25-5.98-.06-.39.51-1.15.91-1.25.41-.11,1.19.25,1.43.64.5.8.75,1.76,1.14,2.75Z"/>
  <path class="cls-1" d="M181.57,145.2c.76-.04,1.34.2,1.84.57.32.24-3.26,4.33-.26,2.33.26-.17,1.58-.05,1.79.17.64.67,1.35.25,2.41.3.27.01.79.79.71,1.08-.13.47-.66,1.16-1.03,1.17-2.02.03-4.04-.11-6.06-.22-.18,0-.36-.13-.53-.23-1.36-.82-2.52-6.51-1.58-7.81.16-.23.38-.5.63-.58,2.46-.8,4.94-.76,7.39,0,.3.09.62.83.55,1.19-.07.35-.6.77-.99.85-.65.14-1.35.01-2.02.05-.9.04-1.8.13-2.7.2-.05.31-.1.62-.14.93Z"/>
  <path class="cls-1" d="M183.85,135.7c.11-1.6.15-2.55.24-3.5.08-.94.38-1.91,1.51-1.67.58.12,1.41.94,1.44,1.47.1,2.22.09,4.48-.19,6.69-.2,1.61-1.37,1.93-2.82,1.01-.41-.26-.74-.63-1.11-.94-.37-.31-.76-.6-1.2-.95-.25.15-.49.27-.69.43-.54.46-1.06.94-1.58,1.41-.47-.66-1.17-1.25-1.35-1.98-.31-1.21-.37-2.51-.37-3.76,0-1.37,1.01-1.93,2.18-1.2,1.21.76,2.3,1.73,3.95,3Z"/>
  <path class="cls-1" d="M189.65,181.71c1.91-.19,3.47.56,4.82,1.76,1.98,1.78,1.67,4.08-.77,5.12-2.69,1.14-5.35.85-7.76-.84-1.09-.76-1.97-1.92-1.43-3.22.4-.96,1.38-1.83,2.31-2.36.78-.44,1.87-.33,2.83-.47ZM187.29,185.05c2.55,1.84,3.02,1.87,4.99.49-1.43-1.5-2.98-1.44-4.99-.49Z"/>
  <path class="cls-1" d="M187.98,171.59c.76-1.06,1.21-1.97,1.91-2.59.4-.35,1.35-.51,1.78-.27.36.2.46,1.11.44,1.69-.02.44-.36.9-.64,1.28-1.35,1.82-1.86,3.8-1.3,6.02.07.28.08.58.08.87.01.85-.24,1.73-1.2,1.6-.59-.08-1.22-.75-1.6-1.32-.29-.44-.28-1.12-.3-1.7-.09-2.11-1.12-3.61-2.78-4.85-.9-.67-2.74-1.33-1.54-2.8,1.07-1.31,2.23.16,3.25.77.57.34,1.1.74,1.89,1.28Z"/>
  <path class="cls-1" d="M186.09,158.44c-2.37,1.72-2.73,1.7-4.54-.38-.69-.8-1.4-1.63-1.89-2.56-.25-.48-.04-1.21-.04-1.83.69.08,1.47-.02,2.05.27.56.28.92.96,1.21,1.28,1.7-.08,3.22-.16,5.23-.26.09-.13.43-.86,1-1.32.36-.29,1.16-.38,1.55-.17.39.21.82,1.01.7,1.38-.43,1.36-.98,2.72-1.71,3.94-.23.39-1.2.53-1.8.45-.63-.08-1.21-.54-1.78-.82Z"/>
  <path class="cls-1" d="M124.58,52.78c0-9.73,0-19.46,0-29.19,0-1.07,0-2.15.14-3.2.32-2.35,1.23-2.77,3.41-1.69,1.91.96,3.33,2.44,4.01,4.44.6,1.74,1.13,3.55,1.32,5.36,1.68,15.78,2.91,31.59,2.94,47.47.01,7.3.1,14.59.05,21.89-.02,2.03-.4,4.06-.68,6.08-.09.66-.33,1.32-.59,1.95-.5,1.22-1.21,2.31-2.67,2.38-1.49.08-2.34-.97-2.79-2.19-.63-1.73-1.19-3.51-1.54-5.31-1.88-9.68-2.68-19.47-2.92-29.31-.15-6.22-.03-12.45-.03-18.67-.22,0-.44,0-.65,0ZM127.17,21.57c-.06,1.19-.12,1.85-.11,2.52.11,6.23.18,12.47.37,18.7.42,14.12.73,28.24,1.44,42.35.28,5.52,1.44,11,2.31,16.48.16,1,.11,2.31,1.82,3.08.3-2.67.79-5.07.81-7.46.15-20.76-.34-41.5-2.36-62.18-.3-3.1-.75-6.19-1.31-9.25-.29-1.58-.91-3.14-2.97-4.24Z"/>
  <path class="cls-1" d="M71.05,87.89c-1.17-15.05-2.18-29.72-3.51-44.37-.81-9.01-2.1-17.99-3.18-26.98-.03-.29-.07-.58-.13-.87-.29-1.33.22-2.28,1.41-2.88,1.22-.62,2.17.09,2.8.92,1.11,1.46,2.31,2.97,2.91,4.66,1.74,4.85,3.48,9.73,4.72,14.73,3.6,14.55,4.48,29.4,4.91,44.33.29,10.12-1.55,19.75-4.78,29.22-.38,1.1-.81,2.2-1.32,3.24-.54,1.11-1.05,2.57-2.66,2.17-1.42-.36-1.34-1.76-1.32-2.93.02-1.85.14-3.7.15-5.55.02-5.36,0-10.71,0-15.7ZM74.18,103.42c2.49-6.82,4.25-13.82,4.12-21.05-.23-12.83-.38-25.68-2.76-38.38-1.53-8.15-3.25-16.21-6.37-23.92-.44-1.08-1.04-2.1-1.56-3.15,3.47,28.85,5.62,57.61,6.58,86.5Z"/>
  <path class="cls-1" d="M50.61,187.42c-2.24,0-2.87-.57-2.62-2.76.26-2.3.66-4.6,1.15-6.87.11-.51.81-1.24,1.25-1.25.49-.01,1.25.59,1.45,1.09.76,1.98,1.51,4,1.96,6.06.61,2.78-.3,3.72-3.19,3.72Z"/>
</svg>