<?xml version="1.0" encoding="UTF-8"?>
<svg id="Layer_1" data-name="Layer 1" xmlns="http://www.w3.org/2000/svg" viewBox="0 0 220.08 249.11">
  <defs>
    <style>
      .cls-1 {
        stroke-width: 0px;
      }
    </style>
  </defs>
  <path class="cls-1" d="M155.03,20.74c-.28-1.62-.81-3.25-.78-4.86.07-3.47,1.58-6.58,3.21-9.55.92-1.69,2.75-2.48,4.66-2.71,7.93-.95,15.12.58,21.05,6.35,1.38,1.35,2.2,2.86,2.54,4.78.94,5.32,1.01,10.65.6,16.02-.1,1.29-.59,2.7.57,3.88,1.51-.24,1.49-1.41,1.58-2.44.5-5.45.78-10.91-.34-16.3-.49-2.35.18-3.8,2.02-5.21,7.03-5.4,15.52-5.29,22.25.52,6.13,5.3,10.18,14.33,5.97,24.07-1.5,3.46-3.61,6.67-5.63,9.87-1.82,2.88-3.86,5.63-5.88,8.37-3.34,4.53-4.86,9.64-5.42,15.2-.55,5.42-1.32,10.83-2.43,16.16-1.22,5.88-3.65,11.3-7.68,15.88-2.36,2.69-5.16,4.75-8.63,5.79-5.96,1.78-12.15-.43-15.96-5.73-2.39-3.33-3.6-7.1-3.97-11.16-.61-6.67.49-13.21,1.48-19.77.78-5.1,1.52-10.21,2.15-15.33.47-3.86-.31-7.54-1.94-11.09-2.43-5.28-4.76-10.61-7.1-15.82.27,3.32.72,6.69.76,10.07.02,2.01-.39,4.08-.95,6.03-1.4,4.94-4.64,8.25-9.53,9.88-1.57.52-3.18.91-5.19,1.48-.2,1.63-.51,3.43-.62,5.24-.44,7-.74,14.01-1.23,21.01-.38,5.45-1.18,10.85-3.03,16.04-1.16,3.24-2.75,6.24-5.12,8.77-7.88,8.42-20.63,5.79-24.5-5.09-1.54-4.33-1.7-8.81-.98-13.28,1.02-6.24,2.3-12.44,3.42-18.67,1.04-5.85,2.12-11.69,2.96-17.57.38-2.68.28-5.44.32-8.16.04-2.11-.74-3.79-2.8-4.71-.62-.28-1.16-.72-1.76-1.04-4.8-2.53-7.67-6.54-8.77-11.78-.59-2.85-.91-5.76-1.3-8.65-.31-2.34.43-4.4,1.81-6.29,3.45-4.73,7.88-8.05,13.55-9.64,2.93-.82,5.72-.96,8.27,1.25.6.52,1.79.45,2.71.5,3.2.18,6.45,0,9.6.5,7.4,1.2,12.72,5.59,16.62,11.81,1.13,1.8,2.11,3.7,3.17,5.55.08-.06.17-.13.25-.19Z"/>
  <path class="cls-1" d="M34.19,47.97c-5.3,4.93-7.75,10.95-7.09,18.08.35,3.8,3.81,6.22,7.57,5.49,2.09-.4,4.09-1.24,6.15-1.85,2.61-.77,5.2-1.69,7.86-2.23,7.15-1.43,13.2,1.6,16.53,8.07,5.92,11.51,1.68,26.31-9.54,32.96-10.26,6.08-26.24,7.25-37.72-4.41-7.36-7.47-12.15-16.47-14.95-26.45C-2.66,57.48-.4,38.24,10.54,20.25c3.9-6.41,8.97-11.79,15.44-15.71C31.63,1.11,37.65-.79,44.37.31c4.55.75,8.52,2.71,12,5.68,6.87,5.87,10.58,13.55,12.82,22.14,1.77,6.78.97,13.56.36,20.34-.17,1.88-1.01,3.77-1.88,5.49-3.34,6.68-9.38,9.34-16.59,7.39-6.23-1.68-10.78-5.67-14.54-10.72-.58-.78-1.14-1.57-1.72-2.35-.05-.07-.17-.09-.64-.33Z"/>
  <path class="cls-1" d="M70.21,71.18c.41-5.19,1.08-12.27,1.48-19.35.44-7.87,1.25-15.73.51-23.64-.35-3.67-.42-7.37-.7-11.04-.06-.85-.44-1.68-.69-2.51-.92-3.05-.11-5.9,2.45-7.82,2.77-2.08,5.86-3.51,9.35-3.84,3.36-.32,6.45.62,8.92,2.89,3.15,2.89,5.35,6.18,5.27,10.88-.1,5.9,1.29,11.59,4.22,16.82.42.75.79,1.6.9,2.44,1.84,13.91,3.49,27.85,2.93,41.93-.23,5.77-1.14,11.43-3.46,16.79-1.34,3.07-3.13,5.84-5.67,8.07-7.19,6.31-16.63,4.7-21.27-3.65-2.28-4.09-3.04-8.62-3.42-13.2-.35-4.27-.48-8.56-.81-14.76Z"/>
  <path class="cls-1" d="M48.75,148.35c-2.6,0-4.84.15-7.05-.04-3.1-.26-6.25-.45-9.24-1.24-9.29-2.44-12.97-10.92-8.52-19.44,3.66-7.01,9.8-10.59,17.37-12.04,6.35-1.22,12.65-.42,18.89.74,7.98,1.48,16.02,2.19,24.09,2.77,3.33.24,6.58.86,9.58,2.4,4.92,2.53,7.55,6.64,7.98,12.1.48,6-2.89,10.9-8.74,12.57-2.52.72-5.15,1.04-7.73,1.54-1.42.28-2.85.54-4.42.84-.05.88-.15,1.63-.12,2.38.38,8.97-6.18,12.68-12.27,13.17-3.16.25-6.23-.21-9.18-1.37-2.26-.89-4.51-1.84-6.7-2.89-2.2-1.06-3.31-2.94-3.5-5.36-.16-2.03-.3-4.06-.45-6.13Z"/>
  <path class="cls-1" d="M135.17,158.1c-5.96-.31-11.69-.59-17.41-.94-1.05-.07-2.1-.41-3.12-.74-7.75-2.53-11.47-9.3-9.5-17.24.95-3.85,2.83-7.26,5.25-10.34,5.01-6.36,11.11-11.44,18.49-14.87,1.3-.6,2.76-1.12,4.17-1.19,6.22-.3,12.45-.58,18.68-.55,4.98.03,9.89.87,14.54,2.78,9.23,3.8,14.38,12.52,13,22.14-.74,5.15-3.27,9.31-7.29,12.57-4.37,3.54-9.49,5.44-14.94,6.17-7.32.98-14.7,1.5-21.88,2.2ZM145.18,130.6c-.32-1.11-.49-1.97-.81-2.76-1.04-2.54-3.14-2.91-4.99-.84-.7.79-1.17,1.78-1.69,2.71-.37.66-.65,1.37-.96,2.03-3.13.46-6.11.9-9.08,1.35-.58.09-1.16.16-1.72.33-1.11.34-1.92.99-1.83,2.29.08,1.15,1.02,1.88,2.55,1.86,1.26-.02,2.52-.22,3.78-.35,1.99-.21,3.98-.42,5.96-.63.22.8.37,1.26.47,1.73.3,1.5.81,2.84,2.55,3.18,1.49.29,2.89-.54,3.91-2.45.59-1.1,1-2.29,1.56-3.6,3.07-.38,6.16-.71,9.22-1.17,1.12-.17,2.33-.46,3.27-1.06,1.71-1.09,1.49-2.82-.4-3.48-.88-.31-1.92-.33-2.86-.24-2.9.29-5.78.71-8.93,1.11Z"/>
  <path class="cls-1" d="M86.73,195.77c-.78-6.06-1.46-12.62-4.35-19.13-.68.84-1.23,1.36-1.58,1.99-4.02,7.26-4.95,14.74-1.18,22.37,1.64,3.31,3.61,6.46,5.54,9.62,2.94,4.83,6.01,9.62,7.59,15.1.78,2.68,1.46,5.55,1.34,8.3-.43,9.78-9.61,15.81-19.22,12.88-3.65-1.11-6.76-3.18-9.04-6.18-2.11-2.77-4.17-5.71-5.55-8.88-1.97-4.53-3.5-9.29-4.87-14.05-1.17-4.07-.4-7.94,2.6-11.15,2.89-3.1,6.33-3.09,9.07.08,1.89,2.18,3.14,4.7,3.42,7.61.35,3.68-.74,5.39-4.34,6.73,1.65,5.1,3.51,10.07,7.29,14.08,1.58,1.67,3.44,2.88,5.84,3,3.32.16,5.59-1.81,5.29-5.08-.22-2.38-.79-4.85-1.79-7-1.71-3.7-3.87-7.2-5.87-10.76-2.05-3.65-4.31-7.2-6.13-10.96-1.17-2.43-1.85-5.12-2.5-7.76-.56-2.27-.5-4.58.12-6.93.67-2.53,1.05-5.15,1.36-7.76.63-5.3,3.21-9.57,6.97-13.14,3.64-3.46,8.98-3.12,12.23,1.13,2.96,3.88,4.34,8.2,5.28,12.81,1.83,8.95,2.11,17.98,1.58,27.06-.03.58-.09,1.17-.22,1.74-.74,3.15-3.91,4.4-6.6,2.62-3.74-2.49-6.53-10.61-4.9-14.75.47-1.18,1.55-2.13,2.64-3.57Z"/>
  <path class="cls-1" d="M24.22,239.37c1.45-.95,1.93-2.33,2.44-3.67,1.7-4.41,2.37-9.05,2.71-13.71.38-5.15.66-10.31.71-15.47.09-10.33-.02-20.65-.04-30.98,0-.87-.05-1.77.1-2.62.42-2.26,2.32-3.87,4.47-3.92,2.15-.04,4.12,1.51,4.61,3.75.19.85.21,1.74.21,2.61-.03,13.64.07,27.28-.17,40.91-.12,6.71-.82,13.44-2.86,19.89-.87,2.75-2,5.55-3.62,7.91-4.86,7.09-13.3,6.59-17.57-.89-2.33-4.08-2.98-8.62-3.36-13.2-.61-7.41.06-14.79.69-22.17.82-9.7,1.48-19.42,2.2-29.13.23-3.11.39-6.22.66-9.33.07-.85.31-1.75.72-2.49.82-1.49,2.2-2.21,3.91-2.02,1.69.19,2.9,1.16,3.43,2.78.24.72.3,1.54.28,2.3-.24,9.83-.35,19.67-.83,29.5-.32,6.71-1.4,13.38-1.68,20.08-.19,4.74.27,9.52.69,14.27.17,1.95.62,4.02,2.3,5.58Z"/>
  <path class="cls-1" d="M139.56,219.82c-2.5.3-4.7.56-7.2.86-.36,3.15-.71,6.22-1.07,9.29-.23,1.93-.45,3.87-.71,5.8-.08.57-.21,1.15-.4,1.7-.74,2.11-2.46,3.26-4.44,3-2.1-.27-3.61-1.95-3.64-4.27-.02-1.36.23-2.71.31-4.07.8-14.09,1.55-28.19,2.4-42.28.43-7.19.99-14.37,1.6-21.54.23-2.73,1.94-4.54,4.2-4.9,2.35-.37,4.63.73,5.71,3.11,1.04,2.29,1.95,4.67,2.64,7.09,4.09,14.24,6.74,28.8,9.8,43.27.85,3.99,1.93,7.94,2.9,11.91.18.76.44,1.51.5,2.28.17,2.07-1,3.91-2.85,4.65-1.77.7-3.77.33-4.99-1.32-.9-1.22-1.59-2.68-2.03-4.14-1-3.34-1.78-6.74-2.73-10.43ZM134.64,195.31c-.22.01-.43.03-.65.04-.32,5.43-.64,10.86-.97,16.56,1.83-.28,3.21-.5,4.91-.76-1.15-5.53-2.22-10.68-3.29-15.84Z"/>
  <path class="cls-1" d="M185.14,225.42c4.59,0,8.85,0,13.11,0,1.07,0,2.15-.11,3.21.03,2.35.3,3.94,2.01,4.13,4.23.19,2.27-1.08,4.17-3.33,4.9-.64.21-1.33.32-2.01.32-6.43.06-12.86.12-19.29.08-1.23,0-2.56-.26-3.67-.77-2.39-1.11-3.28-3.88-2.69-6.77.52-2.56,1.05-5.16,1.09-7.75.24-15.59.34-31.17.49-46.76.02-2.12,0-4.23,0-6.66,3.1,0,5.83-.18,8.51.04,3.78.32,7.54.94,11.3,1.45.96.13,1.95.25,2.87.54,2.25.71,3.49,2.68,3.23,4.94-.26,2.22-1.97,3.9-4.35,3.95-1.54.03-3.09-.29-4.63-.52-2.31-.34-4.62-.75-6.92-1.11-.17-.03-.37.08-.67.16v26.47c1.48.04,2.7.06,3.92.1,1.75.05,3.53-.08,5.24.21,2.23.38,3.65,2.28,3.6,4.34-.05,2.21-1.66,3.99-4.06,4.22-1.54.15-3.11.02-4.67.02-1.16,0-2.32,0-3.85,0-.18,4.68-.36,9.3-.56,14.34Z"/>
  <path class="cls-1" d="M51.72,197.62c.18,7.08.32,13.98.55,20.89.16,4.77.56,9.53.62,14.3.04,2.9-.3,5.82-.61,8.71-.11,1.04-.52,2.08-.98,3.04-1.02,2.14-3.05,3.07-5.02,2.45-2.03-.64-3.11-2.49-2.83-4.84.24-2.02.7-4.04.68-6.06-.03-3.01-.31-6.03-.63-9.03-1.33-12.62-1.21-25.27-.88-37.94.15-5.74.25-11.49.33-17.23.05-4.01,1.86-6.29,5.8-6.69,7.33-.76,13.07,1.97,17.27,8.09,3.57,5.2,2.4,15.46-3.33,19.25-2.25,1.49-4.75,2.61-7.18,3.8-1.03.5-2.19.75-3.78,1.27ZM52.86,174.98c-.66,2.51-.82,9.87-.25,12.14,4.09-.97,6.27-3.14,6.16-6.11-.12-3.02-2.38-5.33-5.9-6.02Z"/>
  <path class="cls-1" d="M162.04,174.77c.33,5.5.58,10.65.98,15.79.86,10.98,1.78,21.95,2.72,32.91.22,2.52.64,5.02.98,7.53.05.39.14.77.18,1.15.32,2.94-.89,4.88-3.3,5.32-2.27.41-4.19-.86-4.87-3.56-.69-2.73-1.2-5.52-1.64-8.31-1.97-12.23-2.86-24.57-3.64-36.92-.23-3.69-.45-7.39-.7-11.08-.06-.85-.25-1.7-.42-2.75h-9.31c-.74-2.56-1.44-4.97-2.24-7.74.96-.24,1.75-.55,2.55-.61,8.07-.54,16.14-1.06,24.22-1.54,1.06-.06,2.16.02,3.18.25,2.21.51,3.64,2.3,3.67,4.35.02,2.03-1.37,3.95-3.57,4.43-1.79.39-3.67.41-5.51.57-.95.08-1.91.12-3.27.2Z"/>
  <path class="cls-1" d="M123.69,166.94c-.2,3.28-.37,6.24-.57,9.45-3.64.5-7.08.98-10.71,1.48-.04.66-.13,1.3-.1,1.94.68,15.75,1.37,31.5,2.06,47.26.16,3.7.32,7.39.44,11.09.03.87.04,1.77-.16,2.61-.44,1.85-1.96,3.02-3.78,3.09-1.83.07-3.48-.95-4.03-2.75-.37-1.2-.54-2.48-.63-3.73-.62-8.64-1.26-17.28-1.76-25.93-.54-9.43-.92-18.86-1.39-28.29-.07-1.35-.26-2.7-.42-4.3h-5.22c-1.2-2.78-2.31-5.35-3.47-8.03,9.87-1.29,19.62-2.56,29.74-3.88Z"/>
</svg>