<?xml version="1.0" encoding="UTF-8"?>
<svg id="Layer_1" data-name="Layer 1" xmlns="http://www.w3.org/2000/svg" viewBox="0 0 198.83 68.58">
  <defs>
    <style>
      .cls-1 {
        stroke-width: 0px;
      }
    </style>
  </defs>
  <path class="cls-1" d="M9.99,45.45c-2.2-.17-4.04-.2-5.85-.46-3.13-.45-3.82-1.37-3.85-4.49C.26,38.4,0,36.3,0,34.2c-.01-4.18,1.35-5.66,5.49-6.16.35-.04.7-.06,1.05-.11,4.27-.53,4.87-1.14,5.04-5.36.07-1.75,0-3.5.1-5.25.14-2.4,1.25-2.97,3.46-2.19,1.8.63,3.7,1,5.57,1.36,3.28.64,3.97,1.31,4.18,4.65.1,1.66,0,3.33.06,4.99.04,1.29.18,2.57.3,4.09,1.72-.11,3.18-.21,4.63-.29.96-.05,1.93-.16,2.88-.09,1.95.14,2.98.91,3.26,2.81.44,3.03.82,6.08.93,9.13.1,2.94-1.36,4.3-4.31,4.5-1.63.11-3.26.17-5.1.26.06,1.28.13,2.23.15,3.17.04,1.66.16,3.33.04,4.99-.15,2.06-1.06,3.14-3.03,3.37-3.3.37-6.63.62-9.95.72-2.2.06-3.37-1.08-3.68-3.31-.3-2.17-.39-4.36-.61-6.54-.11-1.12-.31-2.23-.49-3.48Z"/>
  <path class="cls-1" d="M60.92,24.44c-.52,1.42-.96,2.35-1.19,3.33-1.16,4.84-8.72,6.93-13.16,2.36-.73-.75-.89-1.61-.49-2.65,1.65-4.23,3.27-8.47,4.84-12.72,1.76-4.77,4.91-8.21,9.61-10.17,1.12-.47,2.32-.79,3.51-1.02,3.16-.61,5.74.48,7.49,3.13,1.05,1.59,2.02,3.34,2.51,5.15,1.31,4.89,2.49,9.82,3.42,14.8.7,3.79-1.4,5.88-5.25,5.47-1.89-.2-3.77-.74-5.6-1.29-1.84-.55-3.09-1.91-4.04-3.55-.46-.8-.91-1.6-1.63-2.85Z"/>
  <path class="cls-1" d="M163.03,19.02c-.2,2-.39,3.81-.56,5.61-.1,1.04-.11,2.1-.3,3.13-.62,3.32-2.49,5.6-5.89,6.24-1.96.37-3.99.59-5.97.48-2.5-.13-2.92-1.18-2.48-3.68.78-4.47,1.35-8.97,1.99-13.47.06-.41-.06-.85-.12-1.54-.98-.06-1.91-.11-2.83-.16-4.2-.22-6.05-2.07-6.2-6.2-.22-5.8,1.01-7.03,6.9-7.18,6.7-.16,13.23.99,19.74,2.33,3.29.68,4.61,2.43,4.44,5.77-.09,1.82-.37,3.66-.76,5.44-.51,2.33-1.68,3.16-4.11,3.2-1.13.02-2.26,0-3.84,0Z"/>
  <path class="cls-1" d="M109.46,13.41c-.17-2.14-.38-4.31-.49-6.5-.04-.76.14-1.53.23-2.29.08-.64.25-1.29.23-1.93-.04-1.62.59-2.59,2.18-2.66,4.16-.19,8.27.22,11.91,2.44,3.89,2.37,5.25,6.14,4.49,10.42-1.85,10.5-8.19,15.83-16.52,18.54-2.45.8-3.95-.53-3.68-3.11.29-2.7.74-5.38,1.05-8.07.25-2.26.39-4.53.59-6.85Z"/>
  <path class="cls-1" d="M84.36,21.29c-.45-4.61-.91-9.21-1.36-13.82-.09-.96-.27-1.91-.29-2.87-.04-1.51.57-2.45,2.05-2.53,5.26-.29,10.32.46,14.6,3.86,1.85,1.47,2.81,3.53,3.12,5.88,1.16,8.83-4.79,17.78-13.36,20.07-.42.11-.85.21-1.28.27-2.76.35-3.89-.7-3.86-3.49.02-2.45,0-4.9,0-7.34.13,0,.26-.02.38-.03Z"/>
  <path class="cls-1" d="M176.64,21.58c.16-3.78,1.49-7.45,3.3-10.98.4-.78.87-1.52,1.35-2.25,2.3-3.46,3.3-3.83,7.38-2.74,6.18,1.64,9.9,6.89,9.63,13.6-.13,3.22-1.03,6.2-3.05,8.77-3.84,4.89-11.74,5.27-16.06.8-1.88-1.94-2.52-4.34-2.55-7.2Z"/>
  <path class="cls-1" d="M105.35,61.28c-1.06,2.72-3.5,3.93-6.42,3.09-.51-.15-1.09-.63-1.29-1.11-.32-.78-.44-1.68-.5-2.54-.32-4.44-.58-8.88-.91-13.32-.19-2.57.31-3.56,2.21-4.08,2.65-.72,4.06-.16,5.21,2.07.59,1.15,1.16,2.31,1.86,3.73.85-1.11.55-2.17.64-3.11.26-2.72.94-3.31,3.68-3.06.35.03.69.08,1.04.12,3.71.38,4.1.75,3.75,4.34-.44,4.52-.98,9.02-1.59,13.52-.38,2.77-1.32,3.25-3.93,2.17-1.28-.53-2.51-1.21-3.76-1.82Z"/>
  <path class="cls-1" d="M156.38,62.05c0,.91.03,1.82,0,2.73-.11,2.64-1.63,4.01-4.25,3.77-.86-.08-1.74-.27-2.54-.58-1.67-.65-2.25-1.73-1.93-3.52.9-4.98,1.8-9.96,2.77-14.93.64-3.29,2.86-5.21,6.22-5.25,1.55-.02,3.12.32,4.64.66,1.6.36,2.14,1.66,2.29,3.15.43,4.17.86,8.34,1.26,12.51.11,1.13.14,2.27.18,3.4.05,1.35.03,2.73-1.55,3.24-1.5.48-3,.33-4.13-.86-.64-.68-1.04-1.59-1.5-2.42-.36-.65-.64-1.33-.96-2-.17.03-.33.07-.5.1Z"/>
  <path class="cls-1" d="M45.88,53.04c.1-1.16.19-2.1.26-2.95-.32-.18-.46-.31-.62-.35-3.14-.69-3.11-.68-3.05-3.95.02-.86-.16-1.72-.29-2.57-.22-1.43.07-2.05,1.49-2.14,4.27-.28,8.55-.61,12.77.41,2.38.57,2.84,1.14,3.05,3.54q.43,4.8-4.41,5.4c-.16.02-.31.15-.68.34-.06.8-.12,1.73-.18,2.53.29.25.4.41.55.46,1.17.44,2.99.09,3.22,1.72.25,1.77.04,3.63-.25,5.41-.07.44-1.22.99-1.89,1.01-3.75.13-7.5.15-11.25.13-1.59,0-2.2-.59-2.46-2.16-.17-1.03-.21-2.09-.27-3.13-.16-2.53.21-2.99,2.75-3.49.33-.07.67-.12,1.24-.23Z"/>
  <path class="cls-1" d="M178.1,57.24c.95,1.31,1.8,2.42,2.57,3.57,1.31,1.96,1.39,3.37.36,4.57-1.01,1.18-2.62,1.38-4.59.53-.47-.2-.92-.46-1.58-.79-.64,1.26-1.11,2.66-2.76,2.81-1.68.16-3.05-.5-4.4-1.39-.82-.54-1.19-1.2-1.22-2.16-.13-5.42-.32-10.84-.4-16.26-.03-1.86.7-2.72,2.53-3.17,3.58-.88,6.98-.34,10.01,1.79,3.44,2.43,3.74,5.81.89,8.94-.41.45-.82.89-1.42,1.54Z"/>
  <path class="cls-1" d="M139.58,64.74c-1.08.83-1.65,1.37-2.31,1.76-1.76,1.05-3.25.64-4.05-1.24-.4-.93-.62-2.01-.62-3.03-.02-3.4.12-6.81.15-10.21.02-2.26,0-4.53-.1-6.8-.11-2.25.73-3.35,2.97-3.3,7.78.2,11.72,7.97,8.52,13.13-.84,1.36-.76,2.63-.1,3.96.82,1.64,1.67,3.26,2.46,4.92,1,2.07.12,3.61-2.16,3.8-1.69.14-3.07-.54-4.16-1.8-.28-.32-.4-.79-.6-1.2Z"/>
  <path class="cls-1" d="M126.07,49.74c3.74.73,4.19.96,4.14,2.8-.03,1.17-.18,2.64-.89,3.4-.66.71-2.13.67-3.3.98.5,1.23,1.39.63,2.07.67,2.19.11,2.91.8,2.58,2.94-.65,4.33.02,5.68-5.76,4.55-1.96-.38-4-.34-6-.44-2.39-.12-2.81-.81-2.46-3.11.43-2.75.64-5.54.78-8.32.12-2.44-.04-4.9-.02-7.35.03-2.52.72-3.23,3.24-3.39,2.18-.14,4.37-.33,6.55-.3,3.17.05,3.89,1.02,3.3,4.08-.53,2.78-.86,3.08-4.24,3.49Z"/>
  <path class="cls-1" d="M75.87,51.65c-.07,2.31-.14,4.39-.19,6.47-.03,1.5.09,3.11-1.52,3.91-1.84.91-3.87,1.32-5.84.6-1.35-.5-1.34-1.96-1.29-3.16.07-1.66.38-3.3.49-4.96.09-1.38.02-2.76.02-4.26-.74-.14-1.31-.26-1.89-.36-.43-.08-.88-.08-1.29-.2-1.81-.54-2.43-2.6-1.79-5.91.34-1.76,1.21-2.21,3.27-2.06,4.09.32,8.19.5,12.28.77,2.68.18,3.05.56,3.29,3.33.09,1.04.2,2.1.17,3.14-.06,1.66-.55,2.17-2.17,2.4-.52.08-1.05.04-1.57.08-.51.04-1.02.11-1.96.22Z"/>
  <path class="cls-1" d="M190.43,45.22c.65-.53,1.19-1.18,1.88-1.47,1.17-.49,2.44-1.06,3.67-1.05,2.16.01,3.31,1.72,2.7,3.79-.42,1.41-1.09,2.76-1.72,4.1-.73,1.55-.96,3.1-.7,4.83.26,1.71.28,3.49.16,5.22-.15,2.16-1.01,4.09-2.83,5.4-2.47,1.77-5,.71-5.31-2.29-.24-2.34-.27-4.71-.25-7.07.02-2.05-.58-3.73-2.02-5.2-.97-.99-1.85-2.1-2.64-3.25-.99-1.45-.95-2.44-.09-3.61.94-1.28,2.39-1.74,3.96-1.2.57.2,1.1.52,1.63.83.52.3,1.02.64,1.56.99Z"/>
  <path class="cls-1" d="M93.43,53.15c0,2.36.05,4.71-.02,7.07-.07,2.21-.52,2.7-2.71,3.12-1.28.25-2.58.48-3.88.54-1.59.07-2.21-.72-2.11-2.26.33-5.21.7-10.42.91-15.64.13-3.19.87-3.91,3.97-3.3,3.34.65,3.88,1.32,3.86,4.71-.01,1.92,0,3.84,0,5.76h-.02Z"/>
</svg>