<?xml version="1.0" encoding="UTF-8"?>
<svg id="Layer_1" data-name="Layer 1" xmlns="http://www.w3.org/2000/svg" viewBox="0 0 210.37 190.91">
  <defs>
    <style>
      .cls-1 {
        stroke-width: 0px;
      }
    </style>
  </defs>
  <path class="cls-1" d="M24.89,28.71c20.91-73.27,26.79,20.12,15.66,41.33-3.05,5.69-11.48,8.75-13.92,1.02-2.23-5.66.71-13.78-2.24-18.88-8.5-2.55-.87,30.6-18.55,17.52C-.39,59.25-1.46,17.44,1.79,5.43,5.45.39,14.35-2.76,18.29,3.4c5.94,7.01,1.27,18.96,6.6,25.31Z"/>
  <path class="cls-1" d="M60.78,115.09c-7.62-2.55-7.05,13.29-10.77,17.66-6.59,12.59-14.26-4.14-10.25-11.74,4.14-15.4,10.39-30.25,14.75-45.63,6.13-32.06,26.8-31.88,23.22,2.47-1.83,8.33.95,64.53-11.64,57.74-6.31-5.14-2.08-14.36-5.32-20.5ZM66,80.66c-3.01,3.46-8.59,16.12-7.04,20.18,7.86,4.72,8.32-15.89,7.04-20.18Z"/>
  <path class="cls-1" d="M180.96,69.87c-3.82,3.79-2.17,11.45-6.47,15.35-3.51,4.44-11.37,3.11-10.37-3.41,7.52-13.97,10.91-29.26,13.43-44.82,13.54-21.01,10.1,22.9,15,25.55,2.18-4.58,1.99-13.46,3.84-18.77,1.9-7.49,9-12.67,13.13-3.61,2.72,10.91-1.72,22.34-3.82,33.04-7.06,27.36-14.52,3.46-24.73-3.32Z"/>
  <path class="cls-1" d="M173.33,33.6c-2.61,19.28-9.17,40.87-24.04,54.19-38.77,18.63,16.61-97.11,24.04-54.19ZM157.21,49c-2.89,1.65-11.85,18.74-10.13,19.77,4.65-2.49,11.78-14.72,10.13-19.77Z"/>
  <path class="cls-1" d="M1.17,89.19c1.15-7.66,14.35-9.75,16.02-1.12,1.91,4.53-.12,29.08,6.5,13.49,2.21-7.09,9.36-24.68,18.39-15.75,4.77,11.58-9.72,33.52-17.58,41.83C6.97,148.78,4.67,99.35,1.17,89.19Z"/>
  <path class="cls-1" d="M103.96,68.64c-1.03,13.13-5.09,25.9-6.5,38.97-5.72,21.91,22.16,10.23,10.5,28.94-3.05,4.28-8.7,2.73-13.06,1.78-9.76-.74-16.57-6.77-12.64-16.68,6.87-19.43,5.06-41.37,11.09-60.4,4.89-4.1,10.96,2.03,10.61,7.4Z"/>
  <path class="cls-1" d="M115.65,64.37c16.05,5.04,4.13,31.57,5.16,43.79.63,6.43,8.81,7.61,10.96,13.24,3.91,7.94-9.81,25.72-14.26,11.45-5.31-13.8-14.56-10.93-15.74-18.02,1.92-12.73,8.92-24.71,10.4-37.71,1.24-3.89.17-10.13,3.48-12.75Z"/>
  <path class="cls-1" d="M145.07,107.79c-2.8,7.56,4.83,8.75,10.62,7.29,8.31,2.17,1.19,10.35-4.27,10.73-3.75,1.81-1,4.1,1.73,3.81,7.01-2.74,18.84-1.54,11.78,8.32-18.76,9.75-28.69,5.46-30.33-16-2.32-8.34-10.13-16.09-.56-23.14,5.76-3.06,20.62-8.99,23.56-.34,1.45,7.95-9,6.42-12.52,9.33Z"/>
  <path class="cls-1" d="M64.25,25.01c5.89-.84,10.72-29.64,19.43-9.97,3.45,37.8-42.03,47.57-32.62.37-.93-6.41,5.35-14.38,10.4-7.55,3.42,5.1.11,12.32,2.79,17.15Z"/>
  <path class="cls-1" d="M15.8,169.08c-1.13,5.4,1.96,11.52.46,17.06-1.77,6.72-8.01,6.22-8.85-.82-.75-11.92-1.24-24.13.26-36.01,8.72-22.9,14.93,27.63,19.41,12.54,1.39-5.67.56-12.93,4.47-17.65,10.91-3.55,3.58,25.39,5.27,31.96-.49,26.55-14.55.18-21.02-7.08Z"/>
  <path class="cls-1" d="M131.36,33.31c-5.33,2.98,1.48,8.49,4.06,11.52,9.81,12.48-10.4,19.8-18.49,10.36-2.58-2.47-6.31-9.25-1.38-10.97,17.85,3.13-9.02-7.3,8.7-23.81,26.67-20.18,28.44,35.34,7.11,12.9Z"/>
  <path class="cls-1" d="M187.7,102.51c3.78-1.96,5.34-9.88,10.13-11.84,5.66-3.07,10.22.8,8.51,6.83-2.04,9.04-11.55,14.94-13.75,23.71-1.37,5.05,2.28,16.66-4.82,17.83-7.61-.53-4.95-17.16-7.73-22.71-3-7.57-11.07-12.55-15.46-19.26-2.9-5.46,3.89-6.73,7.75-4.96,6.25,1.48,9.68,8.77,15.38,10.4Z"/>
  <path class="cls-1" d="M94.3,53.35c-8.45-.05-12.49-3.31-9.87-11.88,3.38-10.02,4.52-21.91,10.97-30.35,21.35-3,20.54,44.35-1.11,42.24ZM98.27,29.84c-.94,1.33-.78,4.13-1.18,5.86-1.97,10.62,9.79-9.72,1.18-5.86Z"/>
  <path class="cls-1" d="M50.8,174.22c-1.59,1.95-.1,4.86,2.12,5.57,3.72,1.58,10.32-1.65,12.12,3.12,1.63,7.71-9.09,6.6-14,6.78-6.79.11-13.27.02-12.54-8.31,3.01-15.86-5.45-42.52,20.16-36.29,5.99,5.02-2.65,8.4-6.93,9.66-5.82,6.16.42,10.22,6.53,11.15,6.86,6.91-4.13,5.91-7.46,8.33Z"/>
  <path class="cls-1" d="M81.13,181.77c-2.35.34-3.11,4.14-4.89,5.2-7.39.2-6.77-22-9.94-28.16-7.08-15.04,1.54-23.48,5.19-7.26,1.77,3.29,2.41,16.75,7.29,12.34,10.11.93,6.18-19.79,15.72-18.44,4.44,10.02-3.86,23.92-3.17,35.23-1.97,13.45-4.21,5.46-10.21,1.09Z"/>
  <path class="cls-1" d="M158.15,177.14c-1.29,3.12.64,9.22-1.96,11.33-3.03,2.24-6.81-.81-6.7-4.37-.13-9.14.16-18.23.26-27.36-2.61-16.62,27.26-8.56,22.56,4.33-12.09,13.44-4.01,11.98-3.17,26.38-7.14,6.56-8.29-7.63-10.98-10.31ZM158.25,156.38c-.48,1.43-1.26,6.22.78,6.75,1.8-.2,5.87-.68,5.7-2.97-.4-2.25-4.49-4.76-6.48-3.78Z"/>
  <path class="cls-1" d="M187.47,172.83c1.41,5.13,21.8,12.12,9.83,17.55-5.65,1.39-16.35-15.69-17.96-3.83-2.76,6.76-9.17,2.07-7.27-3.76,2.25-5.84-1.57-36.69,8.89-29.82,2.71,11.99,4.08,4.58,9.6-.35,19.53-5.31-3.69,14.46-3.09,20.21Z"/>
  <path class="cls-1" d="M146.88,164.1c.88,9.45-8.21,34.7-19.17,20.61-5.25-15.13,14.86-58.63,19.17-20.61ZM135.01,177.84c2.47-4.23,4.42-11.4,3.91-15.58-1.63,3.36-3.63,10.95-3.91,15.58Z"/>
  <path class="cls-1" d="M101.56,147.11c3.55-4.69,9.85-.16,13.42,2.6,3.88,3.11,7.29-1.5,11.2-1.75,7.21-.13,6.62,5.77,1.52,8.38-12.56,6.54-1.05,25.68-11.14,32.37-15.16,1.83,2.43-28.77-13.62-37.66-.88-1.09-1.91-2.56-1.38-3.94Z"/>
</svg>