<?xml version="1.0" encoding="UTF-8"?>
<svg id="Layer_1" data-name="Layer 1" xmlns="http://www.w3.org/2000/svg" viewBox="0 0 182 56.28">
  <defs>
    <style>
      .cls-1 {
        stroke-width: 0px;
      }
    </style>
  </defs>
  <path class="cls-1" d="M142.44,27.68c1.08-.78,1.75-1.29,2.45-1.76,2.88-1.93,5.58-1.87,8.16.45,1.55,1.39,2.85,3.05,4.41,4.75.95-1.14,1.09-2.54,1.45-3.81,1.58-5.55,4.05-10.62,7.81-15.02,1.77-2.08,3.75-3.92,6.26-5.1,1.71-.8,3.49-1.18,5.36-.85,2.42.43,3.67,1.91,3.66,4.36,0,.87-.08,1.76-.28,2.6-2.46,10.76-5.19,21.44-9.52,31.62-.85,2.01-1.84,3.98-3.01,5.82-2.14,3.34-4.8,4.01-8.35,2.25-3.34-1.66-5.97-4.25-8.52-6.91-1.32-1.38-2.6-2.8-4.11-4.42-.61.77-1.12,1.32-1.54,1.94-1.08,1.59-2.09,3.23-3.2,4.8-.6.85-1.28,1.67-2.04,2.39-2.97,2.82-6.24,2.35-8.21-1.27-.87-1.6-1.57-3.35-1.98-5.12-1.02-4.34-2.1-8.7-2.65-13.11-.76-6.16-1.05-12.37-1.53-18.56-.04-.52.12-1.12-.08-1.56-.72-1.54-.72-2.89.32-4.36,1.24-1.74,2.45-3.42,4.63-4.05,3.77-1.1,7.66.8,9.15,4.62.56,1.45,1.05,3.02,1.12,4.56.2,4.19.17,8.39.22,12.58.01.86,0,1.73,0,3.17Z"/>
  <path class="cls-1" d="M22.17,44.26c.64-2.6-.57-3.91-2.09-4.85-1.47-.91-3.1-1.61-4.74-2.2-3.39-1.23-6.64-2.71-9.56-4.85-3.83-2.81-5.44-5.29-3.9-11.43.38-1.52.86-3.02,1.28-4.54,1.55-5.61,4.93-9.78,9.99-12.59C19.19.45,25.59-.78,32.41.49c5.95,1.11,10.15,4.44,12.54,10.04,1.4,3.28,2.01,6.69,1.77,10.24-.16,2.23-.8,4.3-2.14,6.11-1.49,2.03-3.24,2.6-5.5,1.45-1.53-.78-2.93-1.89-4.25-3.02-1.72-1.48-3.25-3.19-4.97-4.67-1.19-1.01-2.49-1.96-3.89-2.64-2.51-1.22-4.6-.37-5.86,2.15-1.58,3.18-.69,6.93,2.42,9.03,1.49,1.01,3.29,1.57,4.97,2.3,2.39,1.05,4.98,1.78,7.17,3.15,4.27,2.66,5.68,7.49,3.8,11.91-1.19,2.81-3.25,4.88-6.15,5.72-8.61,2.49-16.95,2.38-24.51-3.24-1.68-1.25-3.25-2.65-4.82-4.04-.65-.57-1.21-1.27-1.72-1.97-1.39-1.92-1.67-3.64-.7-4.82,1.31-1.59,3.12-1.61,4.81-1,1.79.65,3.44,1.68,5.16,2.52,2.74,1.34,5.46,2.74,8.25,3.95.97.42,2.14.38,3.37.58Z"/>
  <path class="cls-1" d="M87.76,34.41c.47-6.52,1.04-12.98,2.51-19.3.63-2.71,1.72-5.32,2.54-7.99.32-1.04.98-1.68,1.95-1.93,5.48-1.42,10.98-2.21,16.57-.54,5.14,1.53,8.89,4.63,10.41,9.83,2.73,9.37,3.36,18.82-.49,28.04-2.76,6.62-7.65,10.99-14.95,12.24-2.73.47-5.4.15-8.03-.69-5-1.6-8.28-4.91-9.34-10.05-.65-3.15-.8-6.4-1.18-9.61ZM103.68,37.75c1.81-.43,2.33-1.6,2.72-2.73,1.61-4.6,2.12-9.33,1.3-14.16-.18-1.04-.66-2.02-1.16-3.52-1.01,1.82-1.84,2.99-1.42,4.61.11.43-.09.98-.24,1.44-.4,1.22-.88,2.41-1.29,3.63-.38,1.14-.77,2.29-1.05,3.45-.63,2.54-.3,4.94,1.14,7.27Z"/>
  <path class="cls-1" d="M66.25,26.67c.29-.85.77-1.68.83-2.54.16-2.62.15-5.24.23-7.86.05-1.66-.05-3.35.22-4.97.71-4.29,4.28-7.27,8.41-7.22,3.06.04,5.02,1.45,5.66,4.44.49,2.3.81,4.67.91,7.02.36,7.78.81,15.56.78,23.35-.01,3.71-.93,7.45-1.65,11.13-.26,1.33-.96,2.65-1.75,3.77-2.28,3.22-6.48,3.36-8.98.31-.81-.99-1.4-2.22-1.87-3.43-.64-1.62-1.05-3.34-1.62-4.99-.43-1.24-.84-2.51-1.47-3.64-.39-.69-1.16-1.57-1.81-1.61-1.2-.08-1.33,1.18-1.47,2.12-.33,2.16-.48,4.36-.93,6.49-.36,1.69-.83,3.44-1.67,4.93-1.5,2.68-4.61,2.94-6.54.55-.96-1.18-1.72-2.71-2.02-4.19-.52-2.56-.83-5.2-.85-7.81-.06-8.93.07-17.86.05-26.79,0-2.62-.24-5.24-.43-7.86-.24-3.28,1.48-5.64,4.66-6.28,3.27-.66,5.8.74,6.56,4.06.76,3.31,1.13,6.72,1.65,10.09.4,2.59.7,5.2,1.16,7.79.19,1.07.7,2.08,1.07,3.12.29.01.58.02.88.03Z"/>
</svg>