<?xml version="1.0" encoding="UTF-8"?>
<svg id="Layer_1" data-name="Layer 1" xmlns="http://www.w3.org/2000/svg" viewBox="0 0 203.44 247.39">
  <defs>
    <style>
      .cls-1 {
        stroke-width: 0px;
      }
    </style>
  </defs>
  <path class="cls-1" d="M51.55,152.95c1.2-.69,1.03-3.03,1.23-4.35.6-7.59,1.29-15.2,1.76-22.79.4-4.38-1.28-10.73,5.6-7.77,3.27,1.21,7,.62,10.29,1.72,2.29.94,1.88,3.74,1.54,5.85-2.94,18.21-4.12,36.48-4.58,54.88-.14,2.16.25,4.52.34,6.57,0,.85-.14,1.55-.5,1.98-1.88,1.58-4.93-.55-7.13-.63-2.5-.42-5.26.05-6.97-1.34-2.33-2.16-3.18-5.65-5.23-8.14-5.56-7.75-11.09-15.57-16.54-23.37-2.39-3.01-1.63,2.26-1.58,3.63.83,8.55.76,17.32,2.72,25.71.98,4.72-1.56,4.07-4.76,2.36-4.64-1.91-10.44-1.89-15.37-.92-3.1.86-3.23-2.3-3.28-4.65-.38-18.1-.35-36.29-1-54.39-.13-2.88,1.64-4.65,4.72-4.84,2.99-.37,5.84.11,8.16,2.04,8.98,7.91,17.49,16.36,25.89,24.91,1.33,1.1,2.85,3.56,4.6,3.58l.09-.03Z"/>
  <path class="cls-1" d="M80.96,126.25c-1.64-3.57.06-4.42,3.26-4.65,7.64-.31,15.38-.42,22.99-.78,2.15-.01,4.66-.84,6.66.08,1.18.61,1.62,2.01,1.83,3.27.43,2.91.76,5.78,1.13,8.72.44,2.83-.1,5.45-3.73,5.2-2.75-.11-5.48-.48-8.22-.69-7.46-1.25-6.11,2.79-5.93,8.16.63,5.14-.64,10.04,6,9.53,10.42.16,12.53-1.82,12.48,10.37-.37,6.35-11.07,3.2-15.31,4.33-2.17.45-2.19,3.09-.61,4.3,1.36,1.08,3.36.83,5.03.79,5.18-.28,10.46-.77,15.7-1.16,6.42-.79,7.27,1.08,7.64,7.43.03,2.24,1.16,6.25-1.89,6.8-10.65-.41-21.55-1.51-32.21-.57-4.1.29-8.18,1.46-12.24,1.8-3.11.23-3.79-2.72-3.6-5.27.53-17.87,1.08-35.71,1.6-53.44.07-1.37-.07-2.84-.54-4.05l-.06-.17Z"/>
  <path class="cls-1" d="M152.21,148.01c1.41-.39,2.02-2.68,3.01-4.57.65-1.39,1.31-2.78,1.95-4.17,3.91-8.4,6.53.93,8.79,4.39,2.1,2.79,3.28-1.68,4.01-3.23,2.88-7.24,5.91-14.58,8.53-21.76,1.37-4.14,4.28-3.28,8.21-2.55,3.49.36,6.92,1.24,5.68,5.57-6.16,19.86-12.11,39.38-17.6,59.33-.51,1.38-1.27,3.05-2.73,2.28-2.76-1.7-7.47-20.27-11.58-17.21-2.47,2.58-3.23,26.73-8.87,15.34-8.66-19.16-16.54-38.73-26.55-57.25-1.02-2.21-4.41-6.38-1.17-7.91,1.72-.56,4.44,0,6.47-.16,3.38-.18,6.84-.21,8.17,3.17,2.74,8.57,5.96,17,10.39,24.83.83,1.27,1.57,3.69,3.17,3.93h.1Z"/>
  <path class="cls-1" d="M111.28,220.96c.16,13.78-7.66,21.75-20.57,23.93-9.89,1.83-23.04-1.97-25.77-12.8-1.83-7.2-.37-15.45,4.31-21.27,4.35-5.21,10.95-8.75,17.26-11,1.88-.36,3.79.42,5.82.45,1.42.02,2.91-.18,4.36-.14,10.5-.28,14.4,11.89,14.59,20.63v.2ZM82.73,222.46c.65,7.48,6.38,4.41,8.07-.5.52-1.55.54-3.45-.66-4.27-1.76-1.15-4.74-1.13-6.17.45-.91,1-1.25,2.79-1.24,4.13v.19Z"/>
  <path class="cls-1" d="M144.99,222.26c-.14,1.31,1.72,2.86,3.09,4.38,1.38,1.46,2.77,2.9,4.15,4.36.83.93,1.84,2.05,1.58,3.32-.38,1.76-3.99,1.55-5.83,1.49-2.07-.1-4.17.31-6.21.36-4.08.14-6.08-4.4-9.21-6.3-3.87-2.19-3.25,1.94-2.25,4.34,1.06,2.86,1.09,5.4-2.37,6.16-1.17.33-2.42.54-3.62.78-3.24.68-6.89,1.76-7.55-2.03-1.3-8.97-2.59-17.97-4.29-26.91-.53-3.45-1.51-6.76-2.58-10.07-.29-1.08-.32-2.32.25-3.24.51-.87,1.45-1.53,2.36-2.04,4.95-2.66,10.12-4.78,15.73-5.48,7.74-1.27,15.56,2.02,19.59,8.74,2.57,4.35,5.34,10.23,3.43,15.17-.81,1.76-2.3,3.08-3.84,4.22-.95.73-2.24,1.48-2.43,2.63v.13ZM127.35,212.48c.61.37,1.68.13,2.55.1.92-.09,1.97-.26,2.79-.69,2.4-1.15,1.48-4.73-.21-6.24-1.53-1.37-4.72-1.04-6.19.18-.77,1.13-.12,2.74.06,3.97.24.79.27,2.02.88,2.6l.12.09Z"/>
  <path class="cls-1" d="M22.42,35.54c-.91-.95-3.04-.95-4.01-.06-1.07,1.03-.95,2.44-.93,4.08.03,1.94.24,3.93.13,5.87-.12,3.6-3.89,3.25-7.04,3.44-2.45.08-4.9.44-7.35.43-.74-.03-1.63-.25-2.01-.8-1.03-1.78-.19-4.05-.37-6.03C.61,32.36.26,22.13,0,12.06c-.02-1.07.09-2.41.75-3.15.8-.94,2.22-1.09,3.46-1.21,1.91-.15,3.8-.58,5.63-1.16,2.21-.56,4.63-2.67,6.16-1.32,2.34,2.23,1,10.84,3.86,11.87.42,0,.79-.52.99-1.32.58-2.18-.55-5.46,1.62-6.99,1.53-1,4.32-.19,6.4-.59,1.7-.18,3.87-1.85,5.24-.21.95,1.37.97,3.44,1.14,5.1.55,7.1,1.11,14.24,1.49,21.37.11,2.18.45,4.34.72,6.51.15,1.24.09,2.81-.99,3.46-1.74.95-4.01.61-5.92,1.09-5.39,1.22-7.45.88-7.25-4.78-.07-1.62.28-3.85-.8-5.07l-.1-.1Z"/>
  <path class="cls-1" d="M171.72,227.48c-.4.61-.19,1.64-.06,2.38.46,2.25,1.12,4.58,1.53,6.85.15,1.05.22,2.29-.58,3.06-1.45,1.27-5.18.85-7.46,1.57-5.35,1.35-5.26-1.94-5.47-6.23-.77-14.06-.68-28.26-2.89-42.1-.24-1.73.36-2.97,2.03-3.68,8.83-3.95,7.12,5.14,9.09,10.61.77,1.99,1.62.87,1.69-1.3.05-1.39,0-2.91.08-4.32.15-2.36.41-4.35,2.22-4.95,1.38-.41,2.67-.32,4.2-.19,2.28.24,5.79.43,5.71,3.31-.84,5.72-3.08,11.19-4.38,16.78-.38,1.52-.64,3.27.26,4.63,2.07,2.64,5.75,3.61,8.6,5.24,5.88,2.88,11.74,6.1,16.22,10.87,2.15,2.53.03,5.04-1.24,7.73-.67,1.48-1.28,3.4-2.43,4.14-1.74,1.16-3.91-.2-5.49-1.16-6.1-3.99-12.23-8.24-18.33-12.31-.9-.49-2.35-1.7-3.24-1.01l-.06.07Z"/>
  <path class="cls-1" d="M8.69,198.85c.56-1.92,3.93-3.35,5.65-4.73,2.67-1.83,5.66-4.06,8.04-1.43,3.91,5.26,8.44,10.02,13.09,14.61,1.64,1.43,2.85,3.92,4.96,4.57,1.2.17,2.1-1.02,2.78-1.92,3.39-4.63,6.71-9.44,10.29-13.97.68-.81,1.49-1.57,2.45-1.97,3.05-1.12,7.21.97,10.47,1.59,2.56.66,5.36,1.84,3.55,4.28-.55.72-1.4,1.38-2.15,1.97-7.35,5.68-13.06,13.07-18.99,20.16-2.18,2.85-1.61,6.4-1.46,9.9.14,2.85.29,5.65.45,8.51.47,4.75-1.14,5.99-5.75,6.35-3.4.26-8.79,2.33-9.05-3.03-.4-4.77-.53-9.43-.79-14.18-.06-4.07-.22-8.23-3.59-10.89-5.66-5.24-11.42-10.44-17.18-15.49-1.15-1.13-3.03-2.48-2.82-4.21l.03-.13Z"/>
  <path class="cls-1" d="M187.71,20c.99-1.89.31-4.76.5-6.97-.01-1.82.16-3.6,1.33-4.31,1.76-.99,3.96-.3,5.87-.16,3.7.35,6.75.91,5.99,5.4-.93,7.77-2.01,15.65-2.86,23.31-.12,2.47-1.39,4.92-4.11,4.99-5.18.65-7.54.31-9.89-4.43-.9-1.46-2.77-5.54-3.78-5.73-.8.32-.18,2.47-.12,3.43.17,1.64.72,3.51-.17,5.01-.88,1.41-3.41,1.61-5.54,1.93-1.42.15-2.96.45-4.36.17-2.58-.5-2.32-3.57-2.37-5.63-.05-6.06.03-12.22-.17-18.28-.04-2.83-.66-5.63-.84-8.46-.11-2.49,1.69-3.27,4.13-3.31,2.47.03,5.05-.39,7.42.41,1.85.67,2.82,2.7,3.81,4.65,1.14,2.16,2.25,4.43,3.43,6.49.37.52.99,1.76,1.67,1.51l.06-.04Z"/>
  <path class="cls-1" d="M57.94,31c1.13-1.03.58-3.27.61-4.7-.32-4.78-.8-9.61-1.16-14.4-.07-1.39-.18-3.02.49-4.25.91-1.79,3.81-1.83,5.98-2.06,3.78-.57,5.26,3.51,6.05,6.53,3.53,14.76,5.51,35.41-15.31,35.3-6.13.03-9.18-3.97-10.18-9.73-1.67-8.48-1.55-17.25-1.64-25.87,0-3.72,3.07-4.1,6.1-4.33,3.75-.5,5.41,1.12,5.62,4.77.42,4.18.66,8.36.81,12.53.11,1.78.24,6.19,2.53,6.24l.08-.04Z"/>
  <path class="cls-1" d="M20.29,75.98c.63-.32.85-1.4,1.11-2.1,1.21-3.24,1.39-6.9,3.52-9.64,2.2-2.24,6.63-1.49,9.7-1.25,3.71.29,5.39,1.89,3.79,5.64-3.88,9.97-8.12,19.68-11.57,29.78-1.53,5.4-4.64,3.4-9.21,3.64-2.1.12-4.8.51-5.99-1.65-1.39-3.04-1.53-6.57-2.54-9.74-1.82-6.95-4.19-13.83-6.7-20.55-.53-1.5-1.54-2.95-1.57-4.56.19-2.88,5.23-3.47,7.75-4.58,4.2-1.39,6.42-2.03,7.48,3.09,1.18,3.93,2.02,7.74,3.52,11.38.21.31.27.52.64.55h.06Z"/>
  <path class="cls-1" d="M164.02,26.51c-.3,7.17-2.71,15.83-10.3,18.48-11.04,4.48-18.24-4.17-16.44-14.96.6-8.39,2.01-17.14,7.53-23.82,3.21-4.55,10.49-3.59,13.73.4,4.24,5.53,5.26,12.92,5.49,19.71v.19ZM148.54,32.35c1.99-3.75,2.26-8.53,1.7-12.77-.04-.23-.15-.83-.34-.84-.1-.02-.22.12-.35.38-.43.94-.8,2.16-1.08,3.2-.72,3.11-1.17,6.98,0,10.02h.06Z"/>
  <path class="cls-1" d="M152.77,70.71c-.1.26.98.59,1.38.71.47.15,1.43.4,1.96.66,1.42.52,1.95,2.37,2.06,3.87.39,2.52.29,5.85-3.05,5.93-.91.09-2.04-.04-2.89.12-2,.27-1.99,2.43-.42,3.24,2.37,1.54,7.48-.82,8.7,1.88.81,2.79-.17,5.94-.32,8.77-.25,3.12-2.4,4.08-5.3,3.6-4.28-.51-8.6-.97-12.82-1.57-2.43-.27-4.95-1.52-5.04-4.26-.04-9.68.07-19.4.04-29.11-.11-3.91.16-7.25,4.99-7.15,4.94.36,17.67-1.84,19.99,3.07.9,2.32-.53,7.69-2.41,8.94-1.85,1.45-4.98.36-6.85,1.27l-.02.04Z"/>
  <path class="cls-1" d="M119.33,13.29c-1.33.89-1,3.26-.32,5.11.91,2.45,3.01,4.06,5.26,5.27,4.58,2.11,8.97,6.86,7.3,12.23-2.9,9.01-15.97,10.68-22.73,5.07-4.6-3.62-8.3-10.39.61-10.68,3.17-.22,3.31,3.06,5.31,4.73.84.67,2.39.86,2.8-.35.42-1.13-.45-3-1.58-4.27-3.32-3.36-7.14-3.74-7.62-9.28-1.2-7.61-.96-18.99,8.36-20.91,7.41-1.17,14.83,3.03,17.08,10.38,1,2.86,3.28,7.68-.93,8.28-2.57.24-6.34.88-8.29-.54-1.85-1.3-2.33-5.67-5.16-5.07l-.1.05Z"/>
  <path class="cls-1" d="M57.21,90.82c-1.22-.67-2.86-.1-3.6,1.05-1.57,2.09.39,6.29-1.16,8.72-.87,1.02-2.55.79-3.81.72-2.84-.28-5.63.07-8.4.39-1.72.29-5.38.08-3.99-2.51.89-1.45,2.33-3.04,2.88-4.84,2.8-7.46,4.81-15.24,6.13-23.11.61-5.15,1.54-6.43,6.86-6.84,3.92-.65,6.83-1.02,8.38,2.94,4.34,8.75,8.02,17.96,13.06,26.34,3.06,3.98,2.41,5.98-2.45,6.22-2.87-.01-6.83,1.04-9.17-.4-2.76-1.98-2.03-6.6-4.61-8.61l-.13-.07ZM54.86,81.57c-.27-.65-.51-1.62-.83-2.22-.7,1.22-.88,1.75.81,2.27l.02-.05Z"/>
  <path class="cls-1" d="M77.47,23.51c-.2-4.45-.56-9.64-.75-13.5-.41-6.06,1.28-8.2,7.75-6.86,16.47,1.65,23.73,15.84,13.96,29.62-2.76,3.91-6.68,6.8-11.16,8.49-2.49.75-7.37,2.88-9.51.8-.79-1.08-.47-2.73-.32-4.03.73-5.46.12-9.69.03-14.33v-.2ZM86.04,16.53c-.47,2.45.15,5.19.5,7.69.06.2.12.6.35.62,1.34-.66,2.15-2.89,1.99-4.33-.21-1.54-1.31-3.24-2.74-4.01l-.09.02Z"/>
  <path class="cls-1" d="M183.59,64.64c1.13-.13,1.83-1.81,2.51-2.78,1.01-1.72,2.49-3.42,4.58-3.04,1.63.23,2.97.75,4.51,1.16,5.61,1.43,7.92,2.53,2.94,7.69-3.1,3.96-7.64,7.33-9.57,12-1.32,5.83-.47,12.11-1.17,18.06-.27,2.32-2.03,2.52-4.01,2.32-2.96-.73-9.74,2.51-10.22-1.68-.11-6.87,2.07-13.68,1.5-20.51-1.22-4.52-4.94-8.2-7.27-12.25-.84-1.32-1.51-2.56-1.16-3.91.38-1.55,2.28-2.7,3.86-3.8,1.36-.88,2.72-1.99,4.3-2.39,3.9-.71,5.65,5.27,7.48,7.68.39.59.9,1.39,1.61,1.45h.1Z"/>
  <path class="cls-1" d="M124.39,85.97c.8.71,2.26.59,3.8.5,5.29-.57,4.86,3.1,4.86,7.01.21,4.93.17,7.14-5.04,6.2-3.98-.54-7.83-.36-11.72.66-2.2.66-4.46.56-4.78-2.21-1.14-12.82-3.34-25.61-2.91-38.53.09-2.98,1.19-3.92,4.2-3.26,6.69,1.55,9.65.33,9.59,8.75.32,5.95.64,11.75.98,17.75.07,1.04.16,2.3.92,3.03l.1.09Z"/>
  <path class="cls-1" d="M75.17,62.5c.74-.98,2.61-1.12,4.05-1.24,2.86-.26,6.1-.78,7.21,2.12,2.04,6.64,3.22,13.99,4.86,20.56.21.81.54,1.67,1.15,2.18.85.76,2.28.66,3.81.31,4.5-1.08,6.59-1.58,8.39,3.3.77,1.7,1.92,3.57,1.3,4.76-.7,1.32-2.71,1.4-4.1,1.6-5.87.67-11.57,2.25-17.22,3.83-1.25.3-3.08.96-4.1.04-.55-.38-.85-1.83-.94-2.47-.73-5.44-1.76-10.77-2.63-16.21-.75-4.65-1.6-9.39-2.24-13.96-.16-1.5-.57-3.45.36-4.7l.09-.11Z"/>
</svg>