<?xml version="1.0" encoding="UTF-8"?>
<svg id="Layer_1" data-name="Layer 1" xmlns="http://www.w3.org/2000/svg" viewBox="0 0 147.35 95.36">
  <defs>
    <style>
      .cls-1 {
        stroke-width: 0px;
      }
    </style>
  </defs>
  <path class="cls-1" d="M55.43,57.71c.52-9.94,1.43-19.86,2.74-29.81,1.6-11.1,6.21-23.06,17.32-27.06,29.46-8.17,28.19,45.63,21.1,62.7-10.6,29.84-42.51,29.75-41.16-5.58v-.25ZM73.83,61.52c1.52.08,2.7-2.07,3.46-3.35,2.43-4.48,3.52-10.23,3.26-15.4-.25-2.12-.54-6.02-3.15-6.11-4.52.52-7.13,23.32-3.66,24.83l.09.02Z"/>
  <path class="cls-1" d="M52.48,56.71c-.21,12.35-4.26,25.59-14.38,33.56-13.58,10.85-33.26,2.36-30.36-6.83,1.13-2.33,3.38-3.22,6.07-4.13,3.93-1.25,9.04-2.08,12.28-4.77,3.05-2.5,4.6-6.67,3.4-10.38-2.73-7.71-13.64-2.74-18.77-7.33-4.49-5.72,8.94-14.23,11.64-18.98,2.22-2.75,4.78-8.59-.71-8.74-5.69.12-13.25,4.82-18.62.81C-2.85,24.54.43,10.99,7.74,6.83c5.02-2.86,11.23-1.36,16.23.98,17.66,8.34,28.79,29.13,28.51,48.66v.24Z"/>
  <path class="cls-1" d="M119.87,23.38c-4.85-2.42-12.29.77-16.14-3.65-2.91-4.74,2.42-10.37,6.87-13.84,5.58-4.16,12.39-5.57,18.81-3.21,13.71,5.51,14.31,16,11.2,30.3-1.75,9.81-4.24,22.19-2.91,28.93.57,3.29,2.99,5.49,5.47,7.49,10.89,8.56-2.11,12.97-10.36,13.17-10,.29-21.17,1.79-30.22-3.22-4.25-2.51-4.92-7.19.27-9.13,5.24-2.01,13-1.23,14.65-7.99,2.28-6.87,3.4-19.9,4.35-29.15.19-3.26.87-7.62-1.9-9.62l-.12-.07Z"/>
</svg>