<?xml version="1.0" encoding="UTF-8"?>
<svg id="Layer_1" data-name="Layer 1" xmlns="http://www.w3.org/2000/svg" viewBox="0 0 122.04 100.23">
  <defs>
    <style>
      .cls-1 {
        stroke-width: 0px;
      }
    </style>
  </defs>
  <path class="cls-1" d="M32.57,50.8c-1.57-.63-3.78.41-5.62,1.06-2.32.9-4.83,1.99-7.31,2.44C-.86,57.35-3.87,24.57,3.99,11.17,8.37,2.57,17.43-.19,26.69,1.26c23.06,2.18,36.44,22.86,37.32,45.81,1.99,24.05-13.31,54.99-40.83,53.07-10.81-1.25-11.2-11.98-6.23-20,4.52-8.26,16.34-19.24,16.41-28.23-.09-.47-.3-.85-.7-1.08l-.08-.04ZM13.07,25.97c-.31,7.11,4.93,17.21,10.99,6.49,2.44-4.8,2.23-12.2-1.87-16.28-5.7-4.8-9.35,4.69-9.13,9.54v.26Z"/>
  <path class="cls-1" d="M69.01,46.65c0-4.23-.12-8.52-.15-12.82-.01-8.31-.3-19.2,1.15-25.61.35-1.52.9-3.03,1.73-4.25,3.02-4.24,8.49-4.27,15.11-3.71,10.82.99,20.68,6.17,27.05,14.85,10.33,13.82,9.98,34.04,3.65,49.36-4.46,10.42-13.17,18.38-23.23,23.39-6.55,2.92-19.98,9.44-24.76,2.37-4.78-8.55.05-31.63-.55-43.35v-.22ZM86.43,61.33c3.73.61,7.31-12.99,7.84-17.04.92-6.53.98-13.83-3.03-19.05-.91-1.07-2.14-2.02-3.49-1.44-2.88,1.47-2.83,8.26-2.85,13.04,0,5.76-.08,11.56-.01,17.28.13,2.17.02,5.8,1.46,7.15l.08.05Z"/>
</svg>