<?xml version="1.0" encoding="UTF-8"?>
<svg id="Layer_1" data-name="Layer 1" xmlns="http://www.w3.org/2000/svg" viewBox="0 0 71.74 118.2">
  <defs>
    <style>
      .cls-1 {
        stroke-width: 0px;
      }
    </style>
  </defs>
  <path class="cls-1" d="M50.07,117.21h-6.39c-3.33-8.06-10.23-39.55-10.96-50.16,2.66-1.46,5.64-1.78,8.56-2.02,1.72,1.24,1.71,3.06,1.87,4.71.48,5.31.78,10.63,1.28,15.94.28,2.99.84,5.96,1.87,8.91.48-5.12.89-10.24,1.45-15.35.55-5.09,1.25-10.16,1.84-14.91,2.05-1.44,3.78-2.03,5.77-1.46,1.55,10.02-1.58,42.97-5.28,54.33Z"/>
  <path class="cls-1" d="M40.16,32.41h4.32c1.17-9.22-.24-18.32.24-27.39,1.89-1.03,3.44-.95,4.9.22.2.39.51.72.51,1.05-.18,13.79,1.66,27.44,2.97,41.12.32,3.37.86,6.79-.12,10.16h-6.49c-1.64-4.61-.48-9.34-1.82-14.06-1.01-.16-2.07-.32-3.04-.47-.34.48-.73.78-.73,1.08,0,3.25.09,6.49.1,9.74,0,1.31-.11,2.62-.16,3.96-2.3.98-4.25.16-5.99-.01-.32-9.47-.29-18.62-1.03-27.71-.6-7.25-.81-14.49-.82-21.74,0-1.13.12-2.26.18-3.37,1.65-1.34,3.29-.88,5.31-.42.12,1.39.3,2.86.36,4.33.25,6.68.44,13.36.71,20.04.04,1.11.38,2.21.6,3.48Z"/>
  <path class="cls-1" d="M12.49,23.53c-.49,1.32-.9,2.31-1.23,3.33-.57,1.81-.97,3.68-1.66,5.43-.53,1.34-1.71,1.98-3.22,1.86-1.75-.15-3.03-1.03-3.45-2.52-.2-.72-.33-1.5-.31-2.25.2-6.86.38-13.71.71-20.56.07-1.47.46-3.01,1.06-4.35C5.89,1.04,8.99.13,12.37,0c1.87-.07,3.4,1.9,3.15,3.98-.2,1.64-.6,3.26-1.11,5.9,2.61-2.56,4.43-4.43,6.36-6.2,1.61-1.48,3.47-2.27,5.76-1.82,1.81.36,2.88,1.64,2.11,3.21-.9,1.85-2.12,3.57-3.36,5.22-1.25,1.67-2.83,3.1-4.02,4.81-1.93,2.75-1.8,3.53.39,5.98,1.01,1.14,2.16,2.18,3.03,3.41.87,1.23,1.63,2.59,2.16,3.99.72,1.92-.05,4.33-1.38,5.16-1.68,1.03-4.32.73-5.75-.87-1.01-1.12-1.76-2.47-2.62-3.72-.87-1.25-1.68-2.54-2.61-3.74-.44-.58-1.09-1-1.98-1.78Z"/>
  <path class="cls-1" d="M25.98,79.37c-.05,8.21-7.74,13.69-15.07,11.14-1.78-.62-3.55-1.41-5.14-2.41-3.62-2.29-4.73-6-3.04-9.9,2.23-5.15,5.99-8.2,11.82-8.3,4.19-.07,9.77,3.74,11.08,7.69.23.71.29,1.48.35,1.79ZM13.79,78.75c-.93.78-1.84,1.36-2.49,2.15-.42.51.45,1.54,1.18,1.52,1.21-.03,2.35-.9,2.35-2.01,0-.44-.53-.89-1.05-1.66Z"/>
  <path class="cls-1" d="M5.55,39.18c5.8,1.19,5.37,6.62,7.44,9.97,1.4.52,1.93-.4,2.54-1.06,2.02-2.23,3.68-4.8,6.06-6.57,2.37.61,3.59,1.85,3.31,4.11-.74,5.98-1.68,11.92-2.94,18.37-1.22-.64-2.12-.89-2.73-1.46-2.63-2.47-5.15-5.05-7.75-7.56-.91-.88-1.92-1.65-3.33-2.85-.57,4.14,1.68,7.74-.36,11.19-1.57,1.02-2.84-.28-4.19-.74-1.61-.55-2.45-1.79-2.32-3.51.31-4.36.47-8.75,1.09-13.07.34-2.35.8-4.91,3.16-6.82Z"/>
  <path class="cls-1" d="M17.66,118.2c-1.94-1.91-3.5-3.44-5.31-5.22-1.46,1.65-2.67,3.01-4.14,4.66-.68-.79-1.44-1.36-1.77-2.11-2.16-4.84-4.23-9.72-6.44-14.84,2.82-.81,5.51-1.59,8.21-2.36,1.7-.38,1.27,3.25,3.49,1.83,1.53-.98,2.05,1.55,3.7,1.05.6-1.14,1.28-2.42,2.03-3.83,2.59.28,5.05.21,7.22,1.98.6,2.37-.86,4.34-1.46,6.46-.57,2-1.41,3.92-2.2,5.86-.83,2.06-1.22,4.36-3.33,6.53Z"/>
  <path class="cls-1" d="M60.66,112.25c-2.28-6.76-2.02-16.29.3-22.65,2.56-1.49,3.17,1.05,4.49,2.21,1.55-1.19,1.38-4.55,4.92-3.62.76,5.36,1.76,10.76,1.24,16.28-.19,2.03-.46,4.19-2.68,5.43-2.81-2.06-.76-5.11-1.73-7.53-.95-.81-1.06.57-1.64.7-.72.15-1.45.23-2.24.34-.88,2.7.38,6.09-2.66,8.83Z"/>
  <path class="cls-1" d="M63.82,59.4c3.52,2.21,3.58,5.5,4.33,8.36,1.04,3.95.82,7.95-.84,11.74-.52,1.18-1.31,2.34-2.26,3.21-1.5,1.38-3.83.85-4.87-.94-2.41-4.12-3.68-14.15.92-20.11.66-.85,1.69-1.42,2.72-2.26ZM63.08,68.85c-.07.67-.15,1.15-.16,1.63,0,.14.2.28.31.42.18-.42.43-.83.51-1.27.03-.16-.32-.4-.66-.77Z"/>
  <path class="cls-1" d="M61.72,41.91c3.91,1.47,6.65,3.78,5.29,8.53-1.42,1.34-3.19,1.3-4.74.56-1.11-.53-2.19-1.61-2.74-2.72-2.35-4.68-2.29-9.54-.28-14.3.46-1.09,1.69-2.01,2.79-2.63,1.55-.88,3.55-.08,4.37,1.44.9,1.67.58,3.46-1.07,4.45-1.61.96-3.61,1.45-3.62,4.66Z"/>
  <path class="cls-1" d="M62.86,9.22c2.43.7,3.35,2.15,3.41,4.25.06,2.18-.45,4.14-2.34,5.46-.98.68-2.17,1.06-3.11.17-.61-.57-1.2-1.64-1.1-2.39.34-2.6.94-5.18,3.14-7.48Z"/>
</svg>