<?xml version="1.0" encoding="UTF-8"?>
<svg id="Layer_1" data-name="Layer 1" xmlns="http://www.w3.org/2000/svg" viewBox="0 0 339.03 97.04">
  <defs>
    <style>
      .cls-1 {
        stroke-width: 0px;
      }
    </style>
  </defs>
  <path class="cls-1" d="M286.93,65.22c3.38-2.58,8.9-.99,11.16,2.44,2.11,3.09,2.16,8.29,4.47,11.89,1.7,3.13,6.51,5.73,9.25,2.48,2.62-3.59.17-9.78-3.36-14.39-3.82-5.08-9.95-6.52-15-9.78-10.98-7.22-7.55-21.91-3.48-32.42,3.09-8.07,7.1-16.17,14.04-21.46,5.87-4.47,14.7-5.56,20.91-1.21,6.19,4.35,7.54,12.61,8.24,19.71.51,5.59.63,11.31,1.02,16.9.3,4.4-.59,8.04-4.52,9.55-2.39.92-5.53.83-7.34-1.14-2.95-3.28-1.81-12.33-4.08-17.48-3.35-8.71-12.51-2.7-14.17,3.91-2.06,6.62-.23,14.78,5.14,19.31,7.84,6.39,18.52,1.88,25.02,11.74,7.6,10.73,6.98,27.53-7.9,30.89-17.32,4.06-38.91-6.32-41.26-23.76-.37-2.46-.15-5.58,1.73-7.09l.11-.09Z"/>
  <path class="cls-1" d="M156.81,72.37c-1.59.66-1.64,3.12-1.93,4.94-.25,2.25-.4,4.6-.89,6.76-.73,3.22-2.01,4.09-5.48,4.35-2.82.17-5.88.26-8.72.14-2.02-.19-3.51-.36-4.63-1.65-1.24-1.71-.38-4.54.2-6.71,7.06-22.26,9.89-45.46,10.03-68.67.44-7.29,11.28-7.22,13.98-1.74,1.82,4.13.03,10.89.41,15.88.08,2.44.5,3.86,1.22,3.58.82-.33,1.56-2.08,2.05-3.12,2.9-6,5.86-18.72,12.53-20.23,3.47-.71,7.23.64,10.41,2.01,3.88,1.68,5.77,4.79,3.9,8.78-4.63,9.21-10.43,17.61-15.82,26.43-10.38,16.6-7.5,13.63,5.04,29.85,1.92,2.98,10.03,11.72,8.22,14.64-1.81,2.29-5.43,1.75-8.04,1.15-6.03-1.53-10.35-6.64-14.86-10.84-2.19-1.84-4.59-5.5-7.53-5.56l-.08.02Z"/>
  <path class="cls-1" d="M108.02,74.81c1.82-.96,1.52-5.14,1.14-8.31-.74-5.51-3.86-10.35-5.83-15.49-3.88-9.92-.68-24.84,3.79-34.62,4.14-8.75,15.35-14.69,23.78-8.33,6.05,4.36,7.32,12.82,6.49,20.23-1.16,7.87-1.62,17.21-7.04,23.06-2.84,2.98-7.59,2.93-8.59-1.61-.89-3.33.43-8.13.05-11.63-.35-4.24-3.12-4.61-5.27-1.04-2.3,3.82-2.8,9.36-1.63,13.13,1.02,3.49,3.21,6.35,5.52,9.14,5.36,5.94,9.91,12.56,6.95,20.88-4.23,14.99-31.58,13.27-33.71-1.55-.81-5.7-.25-14.11,4.23-17.96,2.3-1.9,5.79-1.21,7.07,1.47,1.59,2.81.86,7.5,1.83,10.91.22.74.51,1.62,1.18,1.72h.05Z"/>
  <path class="cls-1" d="M15.13,75.28c1.57-2.27.74-5.78,1.18-9.17.28-3.89,1.48-7.52,3.39-8.75,4.95-2.58,9.39,4.67,10.11,10.59.65,4.55-.72,10.31-3.62,14.41-3.4,5.27-10.08,8.03-15.07,6.27-7.56-2.45-8.12-12.12-9.04-18.89C.12,53.35-4.33,18.28,11.75,8.43c4.19-2.4,9.49-.79,12.23,3.01,4.67,6.39,6.9,20.72,4.05,28.64-2.31,6.18-9.33,5.47-11.79-.22-1.3-2.27-2.08-7-3.53-5.02-3.09,5.58-4.39,39.49,2.36,40.48l.05-.04Z"/>
  <path class="cls-1" d="M57.32,43.82c-.43,9.72-.66,19.62-1.38,29.36-.2,2.33-.53,4.74-1.16,6.96-2.82,9.33-6.52,6.9-7.79-3.17-.63-3.36-.56-10.05-2.54-12.05-1.41-1.36-2.56,2.96-2.53,5.39-.13,4.41.15,9.12-1.22,13.15-.75,2.39-3.14,5.92-5.92,4.25-2.97-2.36-1.91-8.26-1.54-11.87,3.07-21.33-.4-43.18,2.59-64.5.68-2.58,1.81-4.8,3.74-6.42,4.61-3.85,13.98-3.43,16.78,2.35,2.16,4.24,2.11,11.41,1.78,18.41-.33,5.81-.69,12.76-.82,17.95v.18ZM43.13,51.65c.84,1.29,2.41,1.29,3.52.38,3.3-2.4,3.08-10.97,3.18-17.42.01-1.71.1-3.6-.21-5.2-.35-2.41-2.08-2.93-3.66-1.16-3.87,4.61-3.19,11.3-3.78,17.41-.09,1.92-.11,4.3.87,5.88l.08.12Z"/>
  <path class="cls-1" d="M252.76,91.79c-1.46-1.58-1.32-4.7-1.05-7.02,2.92-24.73,5.29-49.18,5.2-74.09-.08-3.35.44-7.49,4.2-8.12,6.35-.88,13.18,1.88,12.71,9.44-1.28,19.02-4.95,37.97-5.47,57-.14,8.56,3.29,6.14,8.51,9.28,2.48,2.44,2.18,7.3,1.14,10.32-1.31,3.42-5.33,3.88-8.6,4.02-1.71.09-3.44.2-5.15.36-4.35.21-8.61,1.48-11.4-1.1l-.09-.1Z"/>
  <path class="cls-1" d="M239.13,77.74c1.61,1.45,4.11,1.84,5.68,3.27,2.49,2.33,1.8,7.04.49,9.78-1.19,2.87-5.29,2.72-9.12,2.5-3.42-.22-7.23-.21-10.5-1.19-4.84-1.31-4.7-6.49-4.09-10.66,3.27-22.95.12-46.06.11-69.1-.04-3.49.36-7.58,4.33-8.44,3.45-.71,7.97.04,10.61,2.57,2.89,2.92,2.11,8.31,1.93,13.21-.16,3.29-.32,6.58-.47,9.86-.64,13.93-1.21,27.94-1.05,41.87.08,2.2.33,4.73,1.98,6.23l.1.09Z"/>
  <path class="cls-1" d="M82.65,48.05c-1.14,11,1.12,28.24-5.93,36.77-3.27,3.34-7.57,1.69-8.42-2.91-1.14-14.7.58-29.59,1.7-44.27,1.18-9.3-2.21-9.43-6.83-15.86-1.96-3.6-2.05-8.77.55-12.04,3.49-4.1,13.91-2.93,20.59-2.89,10.51-.03,13.1,4.4,11.19,14.66-.77,4.78-3.66,6.39-8.09,7.04-1.43.33-2.84.92-3.59,2.28-2.07,4.58-.73,12.34-1.16,17.03v.18Z"/>
  <path class="cls-1" d="M210.36,87.94c-2.76,2.22-7.43,1.82-10.86,1.17-4.29-.76-4.29-5.11-3.77-8.75.5-4.51,1.01-9.11,1.48-13.64,1.94-17.56,2.54-35.22,2.12-52.88-.07-3.23,1.04-6.83,4.48-7.46,2.08-.43,4.33.59,5.37,2.36.84,1.42,1.02,3,1.03,4.87-.08,3.63-.45,7.34-.61,10.99-1.15,18.84.9,37.71,2.2,56.5.14,2.31.32,5.2-1.34,6.75l-.11.1Z"/>
</svg>