<?xml version="1.0" encoding="UTF-8"?>
<svg id="Layer_1" data-name="Layer 1" xmlns="http://www.w3.org/2000/svg" viewBox="0 0 133.2 94.06">
  <defs>
    <style>
      .cls-1 {
        stroke-width: 0px;
      }
    </style>
  </defs>
  <path class="cls-1" d="M18.11,60.36c-7.12-.56-14.14-5.08-6.1-10.96,4.94-3.58,12.66-5.03,16.93-9.97,5.38-7.71-8.89-8.26-15.05-10-3.14-.76-6.37-1.79-9.12-3.39-7.19-3.79-5.79-10.8,1.08-15.93,5.91-4.46,13.88-5.98,21.25-5.81,42.1,1.03,54.5,46.17,26.06,74.91-5.82,6.32-13.93,11.85-22.1,13.79-9.74,2.43-18.84.47-22.09-3.68-6.33-9.18,13.9-14.92,18.18-20.07,6.72-6.69-3.59-8.3-8.82-8.86l-.22-.03Z"/>
  <path class="cls-1" d="M97.47,60.7c2.19,1.87,6.79,1.29,9.85,1.45,12.07-.14,25.1,2.11,25.85,7.8.62,5.33-8.08,11.47-13.73,12.94-5.56,1.75-11.77,1.86-18.03,2-10.19-.1-27.91,1.51-33.2-9.28-5.65-14.38,28.18-36.98,26.96-49.97-1.76-6-13.65-.36-18.13-4.46-5.75-4.66.1-13.51,5.58-16.31,25.85-14.12,55.86,4.44,37.29,30.73-2.34,3.33-5.17,6.19-8.17,8.92-2.94,3.2-16.54,12.55-14.32,16.12l.06.07Z"/>
</svg>