<?xml version="1.0" encoding="UTF-8"?>
<svg id="Layer_1" data-name="Layer 1" xmlns="http://www.w3.org/2000/svg" viewBox="0 0 446.52 309.58">
  <defs>
    <style>
      .cls-1 {
        stroke-width: 0px;
      }
    </style>
  </defs>
  <path class="cls-1" d="M346.69,84.36c2.49-1.02,3.42-2.99,4.45-4.78,1.62-2.81,3.04-5.73,4.59-8.59,1.54-2.85,3.02-5.75,4.73-8.51,1.1-1.77,2.41-3.47,3.91-4.9,3.38-3.21,6.89-3.21,10.05.15,1.8,1.92,3.26,4.23,4.6,6.52,2.01,3.47,3.67,7.14,5.67,10.6,1.23,2.13,2.67,4.2,4.33,6.02,1.93,2.12,4.16,2.03,5.87-.17,1.27-1.64,2.41-3.47,3.18-5.39,1.41-3.54,2.62-7.17,3.71-10.82,2.35-7.86,4.47-15.8,6.86-23.64,1.96-6.4,4.53-12.57,7.98-18.34,2.27-3.79,4.87-7.32,8.36-10.1,7.52-6,14.5-4.24,18.27,4.66,2.27,5.36,2.87,11.06,3.14,16.8.42,9-.19,17.96-1.31,26.87-2.44,19.36-6.4,38.4-12.35,57.01-2.5,7.83-5.27,15.57-9.14,22.83-1.97,3.69-4.17,7.31-6.64,10.68-1.67,2.28-3.79,4.33-6.06,6.03-5.19,3.89-10.66,4.08-15.96.37-2.77-1.94-5.31-4.41-7.44-7.05-2.87-3.55-5.26-7.5-7.83-11.29-2.04-3-3.93-6.11-6.11-9-1.24-1.65-2.82-3.11-4.45-4.4-2.01-1.59-4.31-1.58-6.39-.11-1.54,1.09-3.05,2.33-4.27,3.76-2.1,2.47-3.97,5.13-5.93,7.72-2.19,2.89-4.23,5.91-6.58,8.66-1.59,1.87-3.44,3.62-5.45,5.02-4.43,3.06-8.57,2.83-12.56-.73-1.83-1.63-3.51-3.57-4.77-5.66-1.96-3.26-3.66-6.7-5.2-10.18-4.09-9.25-7.99-18.59-12.04-27.85-7.98-18.24-14.52-36.95-18.17-56.58-1.01-5.44-1.9-10.91-1.77-16.49.07-2.92.62-5.66,2.02-8.25,2.08-3.86,3.93-7.86,6.15-11.63,2.24-3.81,5.21-7.07,8.82-9.68,8.31-6.01,17.22-5.09,24.09,2.5,3.25,3.59,5.43,7.82,7.15,12.31,3.03,7.9,4.62,16.14,5.62,24.5,1.25,10.43,2.26,20.88,3.47,31.31.6,5.16,1.06,6.17,3.41,9.81Z"/>
  <path class="cls-1" d="M14.65,220.7c-.11-3.08-.24-7.28-.42-11.47-.07-1.76.19-3.37,1.09-4.94,3.83-6.72,8.51-12.73,14.95-17.11,2.65-1.8,5.62-3.29,8.65-4.31,6.48-2.19,11.71-.21,15.15,5.7,1.61,2.77,2.82,5.86,3.74,8.94,1.36,4.57,2.27,9.26,3.43,13.89.78,3.15,1.56,6.3,2.5,9.4,1.4,4.62,4.66,6.8,9.45,6.74,1.91-.02,3.83-.01,5.72-.19,7.29-.66,14.49,0,21.66,1.3,2.25.41,4.51.81,6.79,1.05,2.03.21,3.41-.73,3.73-2.71.36-2.25.5-4.55.52-6.83.04-5.54.18-11.07,1.2-16.55.85-4.54,2.14-8.91,4.58-12.87,7.58-12.26,21.96-10.25,27.59.9,1.53,3.03,2.71,6.35,3.41,9.67,1.69,8.03,3.12,16.11,4.43,24.21,1.86,11.5,3.57,23.02,5.22,34.54.68,4.72,1.09,9.48,1.5,14.24.38,4.4.06,8.77-.76,13.12-1.28,6.76-4.74,12.05-10.64,15.59-6.85,4.11-14.31,6.28-22.32,6.27-7.29,0-10.86-2.92-12.44-10.08-.57-2.6-.76-5.29-1.13-7.93-.18-1.32-.34-2.65-.54-3.97-1.28-8.55-4.08-11.48-12.46-13.45-7.42-1.75-14.8-3.69-22.21-5.48-2.41-.58-4.84-1.12-7.29-1.44-3.37-.43-6.04.92-7.62,3.94-1.24,2.36-2.27,4.83-3.23,7.31-1.59,4.09-2.98,8.26-4.6,12.34-1.7,4.27-3.84,8.32-6.73,11.94-1.81,2.26-3.88,4.23-6.52,5.48-4.06,1.91-7.82,1.26-11.03-1.89-2.09-2.05-3.6-4.52-4.4-7.29-1.49-5.12-3.05-10.26-4.04-15.49-2.42-12.76-4.02-25.65-5.09-38.6-.63-7.61-1.17-15.23-1.83-23.97Z"/>
  <path class="cls-1" d="M64.29,93.05c1.13,1,2.19,2.04,3.35,2.95,16.43,12.85,26.68,29.66,31.83,49.71,1.34,5.22,1.79,10.57.81,15.91-.41,2.21-1.14,4.47-2.23,6.43-2.71,4.83-7.67,6.38-12.82,4.27-2.89-1.18-5.34-3.06-7.26-5.47-2.61-3.28-5.24-6.6-7.37-10.2-3.69-6.24-6.99-12.71-10.46-19.08-2.56-4.69-5.08-9.41-7.73-14.05-1.12-1.95-2.26-3.96-4.06-5.2-1.77.33-1.82,1.57-1.92,2.65-.45,4.95-.86,9.9-1.22,14.85-.49,6.88-1.5,13.67-3.5,20.28-1.61,5.34-3.93,10.35-7.41,14.76-2.39,3.04-5.15,5.71-8.66,7.36-1.86.87-3.95,1.41-6,1.67-3.85.49-6.65-1.35-8.43-4.68-1.74-3.25-2.55-6.8-2.79-10.45-.76-11.43-1.53-22.87-2.09-34.31-1.06-21.57-2.78-43.07-5.58-64.49-1.17-8.98-1.11-17.91,1.11-26.75.88-3.52,1.8-7.03,2.7-10.54,1.46-5.71,4.63-10.45,8.65-14.63,1.43-1.48,3.21-2.75,5.04-3.71,4-2.11,7.77-1.35,11.15,1.53,2.53,2.16,4.17,4.95,5.48,7.95,2.54,5.83,3.93,11.98,4.55,18.27.66,6.64,1.04,13.31,1.56,20.06,1.12.51,1.47-.53,1.9-1.31,3.74-6.73,8.29-12.83,13.92-18.1,5.07-4.75,10.73-8.63,17.26-11.05,5.24-1.94,10.61-3.11,16.27-1.82,7.87,1.8,11.9,7.84,10.44,15.71-.81,4.38-2.53,8.39-4.71,12.24-3.21,5.68-7.02,10.95-11.32,15.82-5.31,6.02-10.85,11.82-16.27,17.74-1.52,1.66-3.42,3.06-4.2,5.66Z"/>
  <path class="cls-1" d="M192.19,88.77c.46-21.04,2.54-38.83,6.07-56.46.49-2.43.98-4.86,1.55-7.27.86-3.6,2.81-6.54,5.23-9.36,4.79-5.6,11.05-7.96,18.02-8.97,13.4-1.95,25.34,1.4,35.78,10.05,6.25,5.18,11.24,11.41,15.37,18.35,7,11.79,11.32,24.58,13.6,38.05,2.38,14.06,2.43,28.11-.67,42.1-2.34,10.56-6.38,20.38-12.85,29.1-5.19,7.01-11.53,12.73-19.4,16.58-8.71,4.26-17.8,5.51-27.25,2.86-7.02-1.97-12.69-6.04-17.45-11.46-4.46-5.07-7.68-10.9-10.18-17.14-3.72-9.28-5.73-18.99-6.71-28.9-.67-6.83-.87-13.71-1.1-17.53ZM252,90.34c-.06-11.5-1.33-22.14-3.99-30.87-1.16-3.81-2.75-7.52-4.44-11.13-.78-1.68-2.11-3.18-3.46-4.49-1.74-1.69-4.06-1.46-5.41.59-1.14,1.72-2.07,3.67-2.65,5.65-1.72,5.91-2.39,12.01-1.96,18.13.56,7.99,1.28,15.98,2.25,23.93.76,6.25,2.04,12.45,4.45,18.31,1,2.44,2.3,4.84,3.86,6.96,1.83,2.5,4.38,2.31,6.14-.18,1.91-2.7,2.8-5.84,3.53-9.01,1.43-6.18,1.67-12.47,1.69-17.9Z"/>
  <path class="cls-1" d="M185.66,170.28c3.78-.06,7.09,1.24,10.13,3.4,3.66,2.59,6.38,6.01,8.66,9.8,3.07,5.11,5.22,10.62,6.98,16.28,1.98,6.38,3.72,12.84,5.78,19.19,1.29,3.98,2.86,7.9,4.56,11.72.76,1.7,2.02,3.24,3.31,4.61,1.48,1.56,3.57,1.55,5.1-.03,1.31-1.35,2.54-2.89,3.39-4.56,1.56-3.05,2.92-6.22,4.19-9.41,2.05-5.14,3.87-10.38,5.93-15.51,2.28-5.68,5.05-11.12,8.66-16.11,7.2-9.94,16.73-16,29.04-17.45,6.2-.73,12.2.14,18,2.33,1.76.66,3.46,1.64,5,2.74,3.81,2.71,5.3,6.51,4.15,11.04-.65,2.57-1.63,5.11-2.85,7.46-2.37,4.57-4.9,9.07-7.56,13.49-18.66,30.97-39.69,60.29-62.38,88.41-2.16,2.67-4.45,5.25-6.8,7.75-1.16,1.24-2.51,2.38-3.95,3.28-2.33,1.45-4.85,1.05-6.74-.97-.91-.96-1.68-2.08-2.37-3.21-.99-1.63-1.9-3.31-2.75-5.02-16.05-32.32-32.34-64.52-47.1-97.47-.23-.52-.46-1.05-.7-1.57-3.09-6.88-3.1-6.98.13-13.97,2.02-4.37,4.52-8.42,8.19-11.62,3.43-2.99,7.32-4.83,11.98-4.61Z"/>
  <path class="cls-1" d="M134.69,100.46c-.48,4.43-.24,8,.36,11.54,1.54,9.03,3.24,18.03,4.75,27.06.94,5.64,1.62,11.33,2.47,16.99.5,3.32-.51,6.08-3.1,8.14-1.78,1.41-3.69,2.73-5.7,3.78-3.83,1.99-7.67,1.74-11.51-.27-7.31-3.83-11.69-9.66-12.54-17.94-.41-3.99-.75-7.99-.99-11.99-1.32-21.34-2.61-42.68-3.9-64.02-.68-11.24-1.45-22.48-2.01-33.73-.25-5.14-.2-10.31-.04-15.46.07-2.05.58-4.17,1.32-6.09.89-2.32,3.12-3,5.16-1.62,1.71,1.16,3.41,2.54,4.61,4.19,2.69,3.7,5.24,7.52,7.53,11.47,5.66,9.75,10.31,20.01,14.74,30.37,3.45,8.07,6.78,16.19,10.21,24.27.88,2.08,1.93,4.08,3.24,6.84.71-1.23,1.24-1.75,1.3-2.32.84-7.97,1.63-15.95,2.4-23.92,1.27-13.11,2.65-26.22,5.71-39.06,1.14-4.81,2.74-9.52,4.4-14.18.69-1.93,1.9-3.77,3.23-5.34,2.18-2.57,5.37-2.52,7.29.26,1.49,2.16,2.62,4.66,3.47,7.15,2.4,7.08,3.5,14.46,4.48,21.84,2.47,18.75,4.05,37.58,4.79,56.47.47,12.01.84,24.04.96,36.06.04,4.74-.49,9.54-1.23,14.23-.43,2.77-1.43,5.58-2.79,8.03-1.92,3.49-5.28,4.47-8.83,2.68-2.34-1.18-4.66-2.74-6.42-4.65-3.1-3.35-6.08-6.9-8.54-10.73-4.32-6.74-8.26-13.73-12.28-20.66-2.68-4.62-5.18-9.35-7.85-13.97-1.02-1.78-1.94-3.7-4.68-5.41Z"/>
  <path class="cls-1" d="M371.65,190.26c-.6,2.1.42,3.28.87,4.6.51,1.5,1.25,2.95,1.55,4.48.65,3.29-.82,5.26-4.15,5.55-1.72.15-3.48-.05-5.22-.18-1.41-.1-2.8-.34-4.72-.59.52,1.01.72,1.77,1.19,2.25,2.44,2.5,4.97,4.92,7.44,7.39,1.81,1.81,3.44,3.77,4.21,6.27.89,2.9-.01,5.33-2.18,7.31-2.05,1.88-5.18,2.35-7.54,1.02-1.07-.61-2.18-1.46-2.81-2.49-2.67-4.38-6.41-7.87-9.6-11.82-2.59-3.21-5.25-6.38-7.7-9.7-1.21-1.64-2.27-3.49-2.95-5.41-1.46-4.1.21-7.02,4.5-7.64,2.64-.38,5.37-.13,8.06-.14,2.02-.01,4.09.73,5.99-.35.6-1.54.13-2.91-.21-4.29-.42-1.7-.93-3.38-1.18-5.1-.27-1.88-.48-3.8-.38-5.69.26-4.9,3.39-7.54,8.26-6.91,2.18.28,4.39.85,6.43,1.68,8.15,3.35,15.5,8.02,22.09,13.86,1.29,1.14,2.46,2.51,3.36,3.97,1.31,2.11.3,4.2-2.2,4.58-1.54.23-3.18.15-4.72-.1-3.6-.58-7.17-1.39-10.76-2.03-2.46-.44-4.94-1.06-7.62-.55Z"/>
  <path class="cls-1" d="M316.29,222.01c6.19-5.82,14.02-6.58,21-1.97,5.83,3.86,9.34,9.41,11.17,16.08,1.2,4.39,1.38,8.8-.08,13.15-.5,1.49-1.17,2.97-2.03,4.28-3.47,5.29-9.49,7.18-15.48,5-3.71-1.35-6.67-3.73-8.97-6.85-5.54-7.49-7.99-15.8-6.21-25.13.27-1.39.38-2.82.61-4.56ZM327.07,235.8c.79,1.59,1.45,3.2,2.36,4.67.56.91,1.42,1.69,2.27,2.35.89.69,2.37.39,3-.44,1.66-2.18,1.38-5.8-.6-7.88-1.46-1.53-3.24-1.5-6.02.13-.26.15-.41.47-1.01,1.16Z"/>
  <path class="cls-1" d="M288.25,261.17c.06-4.08.79-7.63,2.8-10.81,2.48-3.92,5.95-6.07,10.75-5.68,2.67.22,4.88,1.35,6.66,3.3,3.13,3.44,2.65,8.02-1.11,10.76-.76.56-1.67.91-2.47,1.42-2.08,1.34-3.51,3.22-4.13,5.61-.59,2.26.96,4.13,3.3,4.17,1.49.02,2.84-.42,3.94-1.41.94-.84,1.8-1.79,2.68-2.7.89-.91,1.7-1.9,2.67-2.71,2.36-1.99,5.02-2.66,7.97-1.39,3.06,1.31,4.66,3.74,5.02,6.98.31,2.82-.68,5.33-2.14,7.66-4.18,6.67-15,12.41-25.46,5.34-1.81-1.22-3.44-2.85-4.82-4.55-3.84-4.73-5.47-10.31-5.66-15.99Z"/>
  <path class="cls-1" d="M290.81,293.45c-.18.79-.35,2.4-.91,3.85-2.03,5.29-7.6,7.28-12.42,4.32-1.7-1.04-3.24-2.56-4.46-4.16-2.83-3.73-4.14-8.13-4.91-12.71-.26-1.51.07-2.86.96-4.02.44-.58,1.15-1.21,1.82-1.33,4.11-.73,8.2-.77,12.07,1.13,4.72,2.31,7.78,7.08,7.85,12.91Z"/>
</svg>