<?xml version="1.0" encoding="UTF-8"?>
<svg id="Layer_1" data-name="Layer 1" xmlns="http://www.w3.org/2000/svg" viewBox="0 0 154.52 98.79">
  <defs>
    <style>
      .cls-1 {
        stroke-width: 0px;
      }
    </style>
  </defs>
  <path class="cls-1" d="M9.63,52.69c.21-3.86-2.44-7.26-4.32-10.56C-1.48,30.9,4.31,16.59,14.26,8.72c14.27-11.62,38.14-12.07,51.03,1.38,7.75,7.41,12.2,19.14,5.86,28.56-2.31,3.74-5.85,7.03-9.45,9.9-3.41,2.87-5.8,4.94-5.15,8.48,1.23,4.57,5.68,7.86,8.06,11.92,13.3,22.94-29.68,35.71-49.31,27.15-11.3-4.1-18.05-15.52-14.2-26.39,1.75-6.15,7.89-10.62,8.53-16.87v-.18ZM32.86,81.82c2.63.03,5.3-.42,7.71-1.36,11.03-4.32,5.64-12.23-3.95-12.74-14.24-1.17-21.16,12.75-4.03,14.1h.27ZM38.05,34.89c4.22.07,9.14-1.27,11.44-4.74,2.41-4.08-4.14-9.01-11.94-8.41-2.38.18-4.77.85-6.77,2.07-7.97,5.02.29,11.03,7,11.07h.27Z"/>
  <path class="cls-1" d="M110.56,36.74c-2.35-3.28-7.72-2.85-13.32-3.75-4.41-.61-8.36-.99-11.98-3.09-5.83-3.43-6.05-12.45-.74-16.41,2.85-2.2,7.55-2.6,12.57-2.59,8.02.02,16.07.13,24.11.15,6.88.05,14.02-.12,20.85-.16,4.39.26,10.05-.42,12.28,3.57,2.59,9.34-23.17,33.8-32.45,46.06-2.81,3.38-5.55,6.8-8.35,10.26-7.42,8.74-14.04,19-25.43,17.96-4.71-.35-10.64-3.11-10.52-8.08-.07-3.94,4.69-9.12,8.3-13.17,5.26-5.9,10.7-11.69,16.07-17.52,4.2-4.96,9.66-9.23,8.66-13.13l-.05-.11Z"/>
</svg>