<?xml version="1.0" encoding="UTF-8"?>
<svg id="Layer_1" data-name="Layer 1" xmlns="http://www.w3.org/2000/svg" viewBox="0 0 1019.41 185.7">
  <defs>
    <style>
      .cls-1 {
        stroke-width: 0px;
      }
    </style>
  </defs>
  <path class="cls-1" d="M80.06,38.7c12.6,7.36,27.01-12.16,37.71-17.68,9.2-5.8,21.07-6.37,30.49-.63,29.21,18.2-10.87,45.18-10.07,61.33,1.37,4.7,7.27,8.21,10.58,12.15,30.25,34.66,26.12,100.59-27.56,79.86-4.54-1.87-8.33-4.44-11.9-7.97-5.4-5.32-11.32-12.88-19.21-12.55-16.24,1.05-17.17,22.58-39.77,30-14.31,5.24-29.54,2.5-38.5-10.37-19.98-28.21-9.95-69.5-3.49-101.96,2.24-11.58,3.97-23.34,7.48-34.61,4.04-12.92,10.57-26.29,22.97-32.94,6.4-3.53,14.52-4.79,21.06-1.02,7.22,3.91,11.54,12.56,13.61,20.52,1.6,5.31,1.96,12.25,6.5,15.79l.12.09Z"/>
  <path class="cls-1" d="M712.29,53.59c3.58,3.18,8.8,2.59,13.29,2.53,8.73-.23,18.9,2.72,19.26-7.84.21-6-.92-13.7,5.16-17.25,4.76-3.1,13.36-3.97,20.69-4.4,3.14-.15,6.51-.2,9.47.57,5.13,1.22,7.61,5.47,9.01,10.27,1.46,5.17,2.63,10.79,4.17,16.03,5.13,16,5.1,33,8.95,49.33,1.64,7.34,3.63,14.6,5.57,21.87,1.87,7.39,4.32,14.95,4.8,22.52,1,14.91-14.33,12.32-24.46,13.05-6.08.3-12.18.4-18.27.75-6.88.38-14.23,1.04-18.95-2.29-6.25-4.16-5.91-14.16-13.02-17.36-3.58-1.75-8.73-1.77-13.71-1.98-4.15-.19-9.46.12-12.1,3.01-3.21,3.24-3.97,8.62-6.74,12.28-4.28,5.7-11.77,5.92-19.24,5.86-9.69-.19-19.38-1.46-29.06-1.05-16.07.74-32.24,3.13-28.85-19.11,1.53-10.28,3.57-21.46,3.8-32.06.93-21.21,3.08-42.49,1.56-63.68-.25-4.47-.97-10.55,1.75-14.04,3.45-4.09,10.73-2.04,15.57-1.31,14.03,2.68,28.37,1.31,42.29-.77,3.38-.29,6.82-.59,9.92.74,6.86,2.94,2.14,18.54,9.03,24.21l.12.11Z"/>
  <path class="cls-1" d="M212.49,146c-.67,11.34-3.69,26.34-14.43,30.81-5.32,2.29-12.04,1.45-16.29-2.58-4.01-3.65-5.21-9.68-5.61-15.09-.52-7.58-.53-15.1-1.12-22.61-1.9-30.82-2.81-61.76-2.54-92.66.63-9.55,4.29-20.13,12.24-25.55,9.18-6.04,22.72-7.21,32.3-2.17,9.6,5.16,14.36,17.37,18.06,26.18,5.91,15.26,10.77,12.74,19.37,1.75,8.31-10.56,19.01-38.29,36.46-26.28,8.34,6.6,10.29,19.44,11.71,29.62,1.84,13.53,4.48,26.86,6.3,40.34,1.4,11.21,2.19,23.51,3.36,35.87.65,13.31,3.23,34.38-11.5,40.44-25.13,9.55-48.42-6.34-66.56-23.93-3.28-3.01-7.03-6.75-10.99-8.49-8.82-3.73-10.25,7.01-10.73,14.15l-.02.2Z"/>
  <path class="cls-1" d="M430.44,18.73c3.72-4.96,10.77-3.3,17.22-3.1,3.91.31,7.85.54,11.75.88,11.45.62,17.66,5.98,22.66,16.26,5.31,9.67,9,20.44,15.55,29.28,5.58,6.62,10.57-1.01,16.61-1.11,3.09.06,6.77,3.21,10.54,3.76,7.21,1.26,10.36-6.8,12.74-12.21,4.96-10.38,13.49-26.42,24.28-30.47,4.17-1.53,8.6-1.66,13.04-1.36,10.56.83,22.57,4.29,32.72,5.83,4.81.87,7.99,1.66,9.17,3.91,3.69,16.51-21.59,61.96-30.5,84.95-2.91,6.86-4.68,11.89-8.05,19.12-14.2,29.18-19.41,35.33-45.64,8.05-3.89-3.72-8-8.25-12.95-9.58-9.17-1.96-15.54,9.62-21.78,15.11-5.46,5.32-14.06,11.48-20.88,10.97-20.99.56-39.65-108.06-46.5-128.67-.97-3.64-1.89-8.57-.05-11.5l.07-.11Z"/>
  <path class="cls-1" d="M373.95,164.04c-8.78-.33-17.68-.08-26.38-1.23-13.81-1.7-18.38-8.13-20.67-20.19-2.31-12.65-3.88-30.04-5.12-43.46-1.85-23.8-3.16-48.31,3.21-71.52,2.56-8.91,9.28-14.06,18.31-15.49,13.23-2.65,26.53-1.05,39.72,1.49,11.75,1.95,24.34,5.15,32.48,14.44,7.47,8.09,8.52,19.66,9.45,30.18,1.29,14.84,3.19,29.67,4.52,44.51,5.15,50.15-.6,64.98-55.3,61.28h-.21ZM371.06,108.38c1.15.67,2.23.47,3.04-.56,2.61-3.92,1.44-9.89,1.02-14.45-.54-4.81-.72-9.96-1.31-15.49-.49-4.13-1.06-8.75-2.78-12.47-3.47-6.87-7.92-1.87-8.63,3.5-.52,2.87-.42,6-.09,8.94.84,7.1,2.23,14.3,3.82,21.26.77,3.21,2.18,7.5,4.82,9.2l.1.06Z"/>
  <path class="cls-1" d="M810.17,34.76c3.22-4.56,15.78-3.14,21.32-4.14,7.66-.41,16-3.41,22.95-1.15,10.12,3.77,10.76,16.75,14.75,25.39,2.7,6.85,6.76,13.13,10.62,19.52,2.91,4.47,6.63,10.54,12.48,10.62,7.68-1.11,9.86-10.24,13.95-16.55.94-1.62,1.92-3.21,2.93-4.79,3.81-5.95,8.03-11.6,12.36-17.19,3.18-4.05,6.32-8.26,10.19-11.66,7.27-6.65,17.17-7.02,27.1-7.49,7.85-.06,26.5-2.45,29.9,6.13,1.5,5.88-2.56,11.72-4.98,17.43-2.52,5.23-4.77,10.51-7.42,15.66-7,13.34-15.97,25.73-21.94,39.59-5.78,13.12-11.23,28.34-16.82,41.39-7.78,17.8-11.21,16.12-34.02,14.45-2.81-.21-5.65-.39-8.51-.56-9-.58-18.1-.59-26.91-.59-4.97-.12-10.32-.69-14.43-3.65-6.36-4.54-7.97-13.59-10.2-21.34-4.4-16.29-9.5-32.39-15.21-48.31-5.35-15.14-11.53-29.95-17.72-44.61-.99-2.62-1.84-5.81-.46-8.06l.06-.1Z"/>
  <path class="cls-1" d="M996.04,55.04c1.97,2.21,2.98,3.15,3.76,4.26,1.82,2.57,1.31,5-1.37,6.57-1.13.66-2.4,1.09-3.77,1.69,1.08,2.14,3.15,2.64,4.77,3.7,1.67,1.1,3.47,2,5.04,3.21.9.7,1.71,1.76,2.07,2.82.27.79-.02,1.97-.45,2.76-.6,1.11-1.83,1.7-3.07,1.33-1.11-.33-2.22-.93-3.11-1.68-3.22-2.69-6.36-5.47-9.5-8.25-.74-.66-1.44-1.4-2.02-2.2-2.09-2.88-1.18-5.44,2.24-6.33,1.71-.44,3.45-.76,5.16-1.14-.15-2.31-1.87-3.23-3.05-4.52-.81-.88-1.78-1.62-2.54-2.53-1.26-1.52-1.04-3.56.61-4.73,1.12-.8,2.39-1.52,3.7-1.89,7.09-2.01,14.25-1.46,21.37-.22,1.54.27,3.13.92,3.51,2.81.27,1.36-1.26,3.11-3.54,3.43-4.15.57-8.33.88-12.51,1.15-1.95.12-3.92-.11-7.29-.24Z"/>
  <path class="cls-1" d="M966.79,118.22c1.9,3.65,4.59,5.69,7.53,7.46,2.08,1.25,2.93,1.42,6.49,1.65.17-1.75.33-3.51.5-5.27.2-2.15,1.06-3.93,3.25-4.58,1.64-.49,3.69,1.58,4.31,4.2.62,2.6.5,5.17-.41,7.69-1.3,3.62-4.25,5.79-7.9,4.92-8.31-1.99-14.93-6.81-19.61-13.88-3.24-4.89,1.42-9.16,5.53-9.24,2.35-.04,3.78,2.02,2.65,4.03-.58,1.02-1.44,1.89-2.33,3.03Z"/>
  <path class="cls-1" d="M983.96,83.97c2.58.24,5.12.77,7.21,2.49,4.79,3.92,7.22,8.99,6.91,15.19-.24,4.81-2.79,7.03-7.46,6.25-7.1-1.19-12.64-4.73-15.68-11.54-.57-1.27-1-2.6-1.62-3.85-1.08-2.16-.32-3.86,1.23-5.37,2.61-2.56,5.88-3.19,9.41-3.17ZM992.46,104.45c1.44-3.73.79-6.61-.36-9.41-2.06-5.01-5.46-6.51-10.61-4.81-2.62.86-3.58,2.72-2.23,5.07,2.83,4.92,7.12,7.87,13.2,9.16Z"/>
  <path class="cls-1" d="M961.79,155.96c-3.84-.06-6.94-3.2-6.78-6.89.13-3.02,2.45-5.33,5.37-5.33,3.33,0,7.21,3.58,7.3,6.75.08,3.02-2.62,5.52-5.89,5.47Z"/>
</svg>