<?xml version="1.0" encoding="UTF-8"?>
<svg id="Layer_1" data-name="Layer 1" xmlns="http://www.w3.org/2000/svg" viewBox="0 0 324.73 77.44">
  <defs>
    <style>
      .cls-1 {
        stroke-width: 0px;
      }
    </style>
  </defs>
  <path class="cls-1" d="M68.19,53.48c-1.92,2.13-1.69,4.1-2.04,5.87-.55,2.83-.75,5.77-1.65,8.48-.68,2.02-1.91,4.11-3.48,5.52-4.45,3.99-10.24,2.01-11.31-3.86-.65-3.59-.87-7.29-.88-10.94-.03-14.12.09-28.25.2-42.37.02-3,.23-6,.36-9,.06-1.4.38-2.56,1.91-3.19.76-.31,1.29-1.17,1.92-1.79,3.89-3.83,9.78-2.52,10.97,2.79.79,3.51.5,7.27.57,10.92.05,2.66-.22,5.34-.12,7.99.06,1.63.55,3.24.88,5.06,1.65-.76,1.47-2.15,1.75-3.2,1.38-5.15,2.61-10.34,4.01-15.49.46-1.7,1.18-3.36,1.96-4.95.53-1.08,1.24-2.14,2.08-2.99,2.87-2.89,6.72-2.33,8.53,1.3.74,1.47,1.3,3.11,1.55,4.73,1.57,10.55,3.25,21.1,4.43,31.7.78,6.98.49,14.06-1.76,20.8-1.07,3.22-2.89,6.21-4.54,9.2-.57,1.02-1.59,1.87-2.57,2.57-3.06,2.21-6.41,1.72-8.28-1.55-1.18-2.07-1.79-4.52-2.38-6.86-.52-2.04-.6-4.18-.97-6.26-.23-1.29-.64-2.54-1.15-4.5Z"/>
  <path class="cls-1" d="M188.31,31.23c.35-4.85.67-9.7,1.05-14.54.14-1.77.25-3.57.68-5.28.87-3.43,3.09-5.1,6.6-4.78,2.3.21,4.59.83,6.79,1.55,2.35.76,3.07,2.88,3.07,5.07,0,3.33-.09,6.68-.48,9.98-1.48,12.47-3.1,24.92-4.65,37.38-.25,1.98-.3,4-.7,5.95-.74,3.59-2.5,4.84-6.13,4.68-.44-.02-.89-.09-1.33-.09-4.52.06-7.1-2.24-8.59-6.44-1.85-5.23-3.92-10.4-6.2-15.46-1.59-3.53-3.67-6.84-5.61-10.2-.53-.91-1.37-1.63-2.53-2.97-.08,1.53-.16,2.36-.15,3.19.08,7.45.29,14.9.22,22.34-.03,2.86-.57,5.74-1.11,8.57-.43,2.27-1.8,3.74-4.32,3.89-2.89.18-5.66-.02-7.43-2.67-.48-.72-.39-1.91-.36-2.88.11-4.1.55-8.21.42-12.3-.43-14.13.08-28.23,1.09-42.32.19-2.6.48-5.35,3.42-6.3,3.65-1.18,7.48-1.92,10.74.98,1.56,1.39,3,3.02,4.11,4.79,3.24,5.17,6.3,10.46,9.41,15.71.44.75.81,1.54,1.21,2.31.26-.06.52-.12.77-.18Z"/>
  <path class="cls-1" d="M.46,29.21c-.12-3.22-.13-6.44-.41-9.65-.34-3.87,1.03-6.71,4.44-8.56,5.51-2.98,11.29-5.13,17.58-5.84,12.25-1.4,20.35,8.35,21.64,16.9.5,3.29-.27,6.42-1.68,9.37-2.38,5-6,9.04-10.12,12.67-.75.66-1.49,1.34-2.31,1.91-2.04,1.44-2.72,3.28-2.29,5.77.36,2.07.4,4.2.42,6.31.05,6.89-2.75,12.51-7.96,16.89-4.87,4.09-9.68,2.99-12.55-2.62-1.52-2.98-2.48-6.01-2.68-9.44-.25-4.31-1.16-8.57-1.7-12.87-.88-6.93-1.7-13.87-2.55-20.8.06-.01.11-.03.16-.04ZM18.46,34.28c2.85-1.99,4.22-4.58,5.01-7.51.53-1.97-.09-3.03-2.17-3.24-2.03-.2-4.11.1-6.59.19,1.32,3.69,2.49,7,3.76,10.55Z"/>
  <path class="cls-1" d="M92.74,49.78c-.11-12.78,1.4-24.39,6.17-35.41,1.01-2.34,2.25-4.59,3.45-6.84.97-1.82,2.48-2.52,4.63-2.61,5.2-.22,8.96,2.12,11.91,6.1,2.76,3.72,4.32,8,5.43,12.44,2.85,11.4,2.69,22.69-1.71,33.71-1.93,4.83-4.92,8.96-9.23,11.99-7.32,5.14-14.66,3.02-18.16-5.24-2.04-4.81-2.25-9.93-2.49-14.15ZM105.8,43.37c.91-2.97,1.66-5.97.88-9.16-.93,2.97-1.47,5.99-.88,9.16Z"/>
  <path class="cls-1" d="M227.81,54.23c.44-4.87.38-9.84,1.43-14.58,1.61-7.23,3.92-14.31,6.08-21.41.47-1.56,1.41-3.04,2.4-4.36,6.46-8.55,19.62-6.87,23.64,3.09.94,2.33,1.38,4.92,1.71,7.44.74,5.66.23,11.32-.5,16.96-.32,2.49-1.14,3.23-3.63,3.56-1.32.18-2.66.3-3.99.34-2.65.09-3.56-.72-3.92-3.42-.25-1.87-.26-3.8-.75-5.61-.51-1.9-1.27-3.79-2.27-5.49-.91-1.55-2.12-1.64-3.25-.27-1.11,1.35-2.08,2.91-2.71,4.53-2.85,7.39-1.6,14.66,1.13,21.77.33.85,1.54,1.89,2.33,1.88.84-.01,1.85-1.03,2.47-1.85.65-.86.95-2,1.38-3.02,1.18-2.83,3.47-4.13,6.36-3.89,2.05.18,4.09.92,6.04,1.66,1.54.58,2.13,2.07,1.72,3.59-1.25,4.71-2.42,9.46-4.05,14.05-1.41,3.99-4.64,6.19-8.85,6.64-3.09.33-6.21.5-9.32.61-3.11.11-5.55-1.34-7.57-3.6-4.06-4.55-5.59-10.01-5.73-15.96-.02-.89.05-1.78.07-2.67-.08,0-.16-.01-.24-.02Z"/>
  <path class="cls-1" d="M307.38,61.58c-3.12.53-5.83.99-8.73,1.48-.25,2.83-.47,5.47-.73,8.11-.37,3.74-1.4,4.88-5.11,5.34-1.98.24-4,.37-5.99.28-2.85-.13-3.33-1.29-2.34-3.87.82-2.14,1.19-4.47,1.69-6.73,3.6-16.27,7.17-32.54,10.77-48.81.19-.86.44-1.73.8-2.54,1.18-2.68,3.15-3.01,5.16-.81.82.89,1.48,1.94,2.13,2.98,5.97,9.61,10.06,20.02,13.18,30.86,1.87,6.51,3.95,12.97,5.93,19.45.16.53.33,1.06.44,1.61.48,2.32-.25,3.88-2.5,4.24-2.51.39-5.09.44-7.63.34-1.89-.07-2.77-1.65-3.44-3.25-1.16-2.76-2.31-5.51-3.63-8.67ZM303.18,50.03c-.19-1.28-.35-2.37-.51-3.46-.2-.03-.4-.06-.6-.09-.31,1.03-.63,2.06-1.01,3.34.82.08,1.32.13,2.13.21Z"/>
  <path class="cls-1" d="M142.32,22.31c-.22.42-.38.6-.42.81-1.33,6.58-1.3,6.43,4.21,8.23,3.05,1,3.88,2.2,3.88,5.4,0,1.66-.17,3.33-.33,4.98-.34,3.44-1.12,4.18-4.55,4.39-.55.03-1.1.04-1.73.07-.86,2.62-.25,5.14.07,7.62.08.61,1.06,1.39,1.75,1.57,1.38.36,2.86.36,4.3.48,3.01.26,4.1,1.15,4.2,4.04.1,2.88.07,5.79-.26,8.64-.3,2.54-1.55,3.65-3.98,3.66-4.22.01-8.46.02-12.64-.45-5.47-.62-7.54-3.05-7.77-8.59-.56-13.55-1.14-27.1-1.51-40.65-.11-3.98.2-8.01.75-11.95.68-4.91,2.78-6.52,7.7-6.26,3.1.16,6.26.35,9.25,1.1,5.2,1.31,7,3.79,6.27,8.48-.02.11-.04.22-.06.33-.86,6.53-1.4,7.05-8.05,7.81-.32.04-.64.17-1.07.29Z"/>
  <path class="cls-1" d="M226,36.5c-.25,8.56-.46,17.12-.78,25.68-.07,1.88-.3,3.79-.79,5.6-.92,3.4-3.31,4.87-6.8,4.37-1.09-.16-2.19-.42-3.24-.77-3.17-1.06-4.37-2.52-4.41-5.87-.04-3.78.13-7.56.31-11.34.57-12.44,1.2-24.88,1.79-37.32q.31-6.54,6.77-7.05c4.51-.36,6.28.85,6.6,5.38.5,7.09.61,14.2.89,21.3-.12,0-.24.01-.35.02Z"/>
  <path class="cls-1" d="M268.09,36.33c-.26-6.65-.53-13.31-.77-19.96-.12-3.26.11-3.57,3.45-3.9,1.75-.17,3.57-.25,5.3,0,3.6.52,5.21,2.36,5.53,5.99.12,1.32.15,2.66.11,3.99-.44,15.2-.91,30.39-1.38,45.59-.03,1.1-.16,2.21-.38,3.3-.34,1.72-1.5,2.77-3.2,2.93-1.87.18-3.79.31-5.64.09-3.2-.37-4.65-2.22-4.6-5.44.01-.77.11-1.55.21-2.32,1.33-10.05,1.32-20.15,1.37-30.26Z"/>
</svg>