<?xml version="1.0" encoding="UTF-8"?>
<svg id="Layer_1" data-name="Layer 1" xmlns="http://www.w3.org/2000/svg" viewBox="0 0 325.98 78.41">
  <defs>
    <style>
      .cls-1 {
        stroke-width: 0px;
      }
    </style>
  </defs>
  <path class="cls-1" d="M108.07,35.45c-.27,8.31-.47,16.62-.86,24.92-.15,3.33-.82,6.62-2.6,9.54-2.58,4.24-7.74,5.31-11.57,2.43-1.7-1.27-2.64-3.06-3.11-5.04-.49-2.04-.7-4.14-1.09-6.2-.36-1.89-.61-3.82-1.22-5.63-.92-2.71-3.26-3.6-5.92-2.56-1.03.4-1.1,1.25-1.25,2.11-.55,3.01-.97,6.06-1.7,9.03-.56,2.28-1.36,4.52-2.35,6.65-.56,1.22-1.55,2.36-2.61,3.22-3.36,2.7-7.79,1.3-8.98-2.83-.43-1.49-.56-3.1-.61-4.67-.58-18.46-1.13-36.92-1.68-55.38-.01-.44.1-.91-.04-1.31-.95-2.7.56-4.33,2.52-5.67,1.79-1.23,3.57-2.58,5.56-3.4,3.88-1.61,7.1-.2,8.88,3.61,1.51,3.23,1.83,6.74,2.06,10.24.27,4.19.36,8.4.59,12.59.07,1.3.31,2.6.53,3.89.18,1.01.86,1.41,1.87,1.46,2.71.13,4.53-1.17,4.94-3.96.47-3.2.65-6.44,1.02-9.66.32-2.78.6-5.57,1.12-8.32.31-1.61.89-3.22,1.65-4.67,1.6-3.06,4.58-4.4,7.93-3.81,3.01.52,5.07,2.44,5.49,5.88.55,4.6.81,9.24.97,13.87.16,4.55.03,9.1.03,13.65.15,0,.3,0,.44,0Z"/>
  <path class="cls-1" d="M17.5,78.41c-8.31,0-10.63-3.3-10.7-11.15,0-.35-.06-.8.13-1.02,1.36-1.66.71-3.49.5-5.28-1.63-14.09-3.53-28.13-7.01-41.91-1-3.96-.28-5.76,3.26-7.92,6.37-3.88,13.38-6.01,20.71-7.14,5.68-.88,11.34-.85,16.93.61,3.42.9,6.65,2.26,9.42,4.48,1.42,1.14,2.8,2.42,3.88,3.87,3.18,4.29,3.61,8.95.67,13.47-1.6,2.46-3.65,4.71-5.85,6.67-4.99,4.45-10.66,7.94-16.64,10.91-2.48,1.23-2.51,1.23-2.22,3.98.41,3.92.94,7.82,1.27,11.75.23,2.79.36,5.6.27,8.39-.14,4.05-2.2,6.91-5.93,8.54-2.77,1.22-5.69,1.67-8.69,1.76ZM34.95,20.85c-3.09-2.63-8.25-2.64-12.41-.03.79,2.02,1.59,4.08,2.38,6.12,4.46-1.45,8.35-3.82,10.03-6.09Z"/>
  <path class="cls-1" d="M308.22,49.11c2.61.19,5.24.27,7.83.62,2.74.37,5.21,1.49,7.22,3.47,3.34,3.29,3.5,7.79.43,11.31-.52.59-1.08,1.16-1.71,1.63-12.73,9.66-26.3,10.45-39.38,2.43-2.18-1.34-4.08-3.02-4.9-5.62-.18-.56-.65-1.03-1-1.53-1.95-2.79-3.01-5.91-3.48-9.25-.08-.6-.1-1.23-.02-1.83.25-1.75,1.38-2.5,2.98-1.8,1.1.48,2.2,1.16,3.05,1.99,2.5,2.45,4.95,4.95,7.28,7.56,1.85,2.06,3.94,3.78,6.46,4.82,1.3.54,2.9.72,4.3.56,1.89-.22,2.66-1.6,2.18-3.47-.73-2.8-2.37-4.99-5.28-5.66-3.8-.89-6.85-3-9.85-5.31-1.91-1.46-3.47-3.2-4.63-5.3-.81-1.45-1.54-2.96-2.46-4.34-1.6-2.41-1.88-5.02-1.56-7.8,1.34-11.88,10.41-22.2,22.43-25.32,2.44-.63,4.99-1.05,7.5-1.14,5.58-.2,9.99,2.21,13.22,6.74,3.47,4.88,5.3,10.45,6.44,16.24.54,2.72.87,5.57.66,8.32-.39,5.06-3.83,7-8.52,4.99-1.91-.82-3.68-2.01-5.43-3.15-1.98-1.29-3.81-2.82-5.83-4.03-1.48-.88-3.12-1.63-4.78-2.05-2.54-.65-4.55.42-5.53,2.82-1.59,3.9-1.3,7.71,1.04,11.28,1.13,1.71,2.78,2.73,4.79,2.86,2.17.14,4.37.03,6.55.03,0-.03.01-.06.02-.09Z"/>
  <path class="cls-1" d="M130.06,7.16c-.93-2.46-.51-3.23,2.21-3.68,5.65-.95,11.17-.71,16.41,1.87,4.5,2.21,7.99,5.58,9.79,10.2,5.84,15.04,6.06,30.04-1.19,44.76-1.89,3.83-4.7,6.97-8.44,9.15-9.47,5.51-22,.98-25.78-9.42-.98-2.69-1.65-5.57-1.91-8.41-1.09-12.09.01-23.96,4.53-35.34,1.19-2.99,2.78-5.83,4.36-9.12ZM140.07,28.57c-2.41,3.41-3.06,7.04-2.99,10.87.05,2.48.52,4.88,1.83,7.03,1.07,1.74,2.02,1.72,3.09.02.14-.22.27-.45.37-.69,1.69-4.14,2.3-8.43,1.58-12.85-.34-2.09-1.44-3.71-3.89-4.37Z"/>
  <path class="cls-1" d="M267.58,40.48c.01,6.37-.76,11.88-3.26,17.03-3.97,8.17-14.18,13.21-23.06,11.42-7.89-1.59-13.4-7.58-14.11-15.83-.28-3.28-.13-6.66.35-9.92,1.21-8.36,3.8-16.34,7.55-23.91,1.84-3.7,3.97-7.22,7.9-9.18.38-.19.72-.76.8-1.2.27-1.44,1.2-1.85,2.48-1.74,2,.17,4.02.3,5.99.63,2.05.35,3.8,1.41,4.96,3.16,6.09,9.18,10.67,18.88,10.39,29.54ZM245.08,33.65c-.97,4-1.48,7.7-1.18,11.47.11,1.34.25,2.79,2.08,3.57,2.26-2.99,2.24-6.37,1.93-9.74-.18-1.92-.36-4.02-2.83-5.29Z"/>
  <path class="cls-1" d="M201.22,32.87c.12,1.68.16,2.97.3,4.24.84,7.76,1.49,15.52.26,23.29-.34,2.13-.94,4.31-1.89,6.23-2.12,4.26-7.62,5.66-11.74,3.23-1.43-.84-2.43-2.05-2.71-3.68-.24-1.37-.43-2.78-.37-4.16.36-9.18.75-18.36,1.2-27.53.26-5.33.16-5.48-5.2-5.32-1.92.06-3.86.15-5.77,0-4.7-.36-7.12-3.05-7.02-7.76.08-3.65,1.19-7.06,2.87-10.27,1.51-2.87,3.86-4.78,7-5.5,2.89-.66,5.83-1.13,8.77-1.58,3.19-.48,6.37-.58,9.63-.09,3.36.5,6.81.35,10.21.62,1.82.15,3.66.43,5.4.94,2.81.81,4.64,2.77,5.38,5.6,1.28,4.92,1.36,9.88-.02,14.79-1.25,4.44-4.64,6.96-9.3,7.08-1.31.04-2.62-.09-3.93-.12-.93-.02-1.86,0-3.06,0Z"/>
</svg>