<?xml version="1.0" encoding="UTF-8"?>
<svg id="Layer_1" data-name="Layer 1" xmlns="http://www.w3.org/2000/svg" viewBox="0 0 310.35 248.22">
  <defs>
    <style>
      .cls-1 {
        stroke-width: 0px;
      }
    </style>
  </defs>
  <path class="cls-1" d="M35.34,66.28c-1.58-1.46-3.46-.93-4.51,1.28-1.5,3.32-.8,7.06-.65,10.68.43,6.28.9,13.74-5.53,16.76-4.08,1.91-9.61,1.93-13.46-.42-5.37-3.33-6.54-10.49-7.22-16.38-1.24-13.81-1.87-27.74-2.96-41.53-.36-7.8-3.66-18.28,4.05-23.51,7.09-4.66,17.06-2.13,19.47,6.47,2.65,6.34,1.39,23.94,6.75,27.36,3.48-.86-.53-17.75-.52-21.62-.54-4.68-.02-10.34,4.22-13.05,4.18-2.78,10.82-3.66,14.98-1.01,3.7,2.36,4.74,7.44,5.35,11.63,2.53,19.32,4.75,38.82,8.76,57.91,1.4,8.78-3.41,13.75-12.15,14.27-3.62.27-7.51-.44-9.8-3.4-2.89-3.6-3.16-9.98-3.64-15.14-.38-4.16-.59-7.7-3.03-10.21l-.09-.08Z"/>
  <path class="cls-1" d="M182.49,29.52c-1.78-.12-2.17,4.02-1.11,6.54,1.85,4.35,6.82,6.55,10.27,9.59,6.76,5.61,6.58,15.05,4.8,23.21-3.5,17.48-11.96,25.22-29.3,17.4-24.16-9.98-10.3-37.51,2.99-27.16,2.35,1.92,3.32,5.03,3.89,7.9.36,1.12.69,4.94,1.91,4.45,1.97-1.77,1.14-9.02-.93-11.68-4.07-7.51-16.21-5.89-18.53-14.75-.78-2.84-.6-6.02-.21-8.96,1.55-10.97,5.78-21.7,14.63-28.75,7.22-5.72,18.29-10.47,26.7-4.62,6.33,4.46,7.26,12.83,6.32,20.39-.6,4.41-1.6,9.04-4.04,12.81-2.74,4.39-8.2,6.18-12.01,2.74-2.2-1.87-2.97-5.1-4.13-7.56-.4-.82-.8-1.37-1.19-1.53l-.05-.02Z"/>
  <path class="cls-1" d="M301.36,46.04c-.07,7.92.39,16.25-.73,24.18-1.01,7.88-6.3,12.75-13.65,7.98-8.09-5.57-13.88-14.01-17.22-23.26-3.9-12.39-5.74-9.85-3.27,1.95,1.12,7.08,4.71,15.54,2.21,22.32-3.46,8.16-13.54,7.15-16.3-1.17-1.03-2.6-1.55-5.55-1.89-8.38-1.3-11.86-1.28-23.79-1.21-35.72.06-4.42.17-8.91,1.08-13.24,1.25-7.55,7.57-15.72,14.6-8.2,1.9,2,3.41,4.51,4.8,6.92,4.23,7.47,8.36,15.02,11.69,22.98,1.49,3.39,2.83,7.45,4.8,10.47.63.94,1.13,1.37,1.42,1.21.28-.14.37-.83.25-1.95-.4-3.46-1.81-7.21-2.75-10.63-2.26-7.83-3.5-16.02-2.72-24.14.49-4.55,1.99-10.18,6.4-12.24,4.17-1.84,7.95,1.83,9.48,5.57,4.3,11.09,2.58,23.51,3.01,35.14v.2Z"/>
  <path class="cls-1" d="M152.48,48.03c-.13,11.28-2.76,24.13-11.88,31.71-6.45,5.21-16.66,7.44-24.54,3.9-5.22-2.42-6.44-8.43-6.71-13.7-.98-17.84-2.49-35.92-2.15-53.84,1.23-14.42,21.67-9.63,29.89-4.42,11.66,7.63,15.3,23.02,15.39,36.15v.2ZM127.67,36.79c-8.14-12.7-3.31,7.42-3.24,11.92.27,2.6.98,8.23,2.87,7.29,1.29-1.62,1.53-4.08,2-6.24.91-4.49.9-8.7-1.52-12.76l-.11-.2Z"/>
  <path class="cls-1" d="M225.94,122.32c-1.41,1.75-1.39,3.8.07,5.27,2.31,2.44,7.19,2.53,10.01,4.49,3.89,2.42,4.93,8.4,1.86,11.86-2.36,2.7-6.83,2.75-9.51,4.68-1.57.97-1.65,2.85.12,3.7,2.02,1.04,4.35.8,6.85.59,9.77-1.49,14.86,2.66,11.15,12.76-4.42,10.41-19.22,10.68-28.93,9.84-6.56-.56-12.45-4.03-13.65-10.95-1.74-11.33-2.2-22.92-3.28-34.39-.31-10.34-2.16-25.99,9.64-30.57,2.45-.97,5.17-1.49,7.79-1.94,7.23-.83,19.41-4.54,23.75,3.29,2.32,4.82-.91,12.09-5.61,15.17-3.14,2.31-7.63,3.1-10.16,6.1l-.09.11Z"/>
  <path class="cls-1" d="M105.28,68.27c-.06,5.15-.94,10.42-3.67,14.8-5.3,9.08-19.14,13.15-26.4,4.22-4.73-5.65-6.29-13.34-7.68-20.43-2.43-13.56-4.45-27.23-6.95-40.77-.78-4.48-1.1-9.94,1.9-13.45,2.93-3.77,8.87-3.88,11.92-.15,3.76,4.48,3.89,10.61,4.65,16.38,1.14,10.18,2.98,20.25,5.41,30.2,1.15,5.66,4.98,13.16,3.47,3.33-2.64-10.93-4.55-22.03-5.8-33.22-.49-4.4-1.09-9.41,1.15-13.38,3.55-6.35,12.69-4.86,15.82,1.2,1.92,3.22,2.69,7.12,3.29,10.82,1.98,13.41,2.68,26.81,2.89,40.25v.2Z"/>
  <path class="cls-1" d="M242.28,39.3c-.66,13.38-.32,27.65-7.02,39.63-6.01,10.84-21.17,12.45-26.39.15-2.47-5.79-3.12-12.22-3.69-18.45-1.38-16.15,1.29-33.08,10.05-46.88,3.76-6.29,12.36-10.79,19-6.31,8.96,6.39,7.71,21.83,8.05,31.66v.2ZM224.74,35.37c-2.77,1.06-3.12,9.75-3.77,12.85-.37,3.1-1.68,10.31.43,11.62,2.74-.61,3.44-14.78,4.18-17.92.2-1.69.35-3.8-.03-5.35-.17-.69-.43-1.11-.74-1.19h-.06Z"/>
  <path class="cls-1" d="M37.95,148.24c.26-.08.33-.43.39-.73.35-1.33-.2-5.83-.67-8.76-.79-5.43-1.03-11,.05-16.4,1.14-6.18,4.88-12.63,11.57-13.06,5.31-.43,9.92,3.41,10.71,8.63,1.14,12.31-3.24,24.53-5.92,36.41-2.6,7.91-3.95,20.82-14.45,21.27-9.02.18-13.74-6.95-16.49-14.61-5.22-12.49-10.16-25.25-17.32-36.7-7.54-11.98,7.17-19.65,16.29-11.66,7.8,6.96,10.82,17.68,12.96,27.59.44,2.08.98,4.55,1.74,6.42.42,1.05.82,1.62,1.11,1.61h.03Z"/>
  <path class="cls-1" d="M280.81,116.12c.35,0,.58-.3.82-.6,1.03-1.31,2.46-5.96,4.02-8.85,11.32-21.23,35.06-6,19.64,12.88-4.93,6.02-12.32,10.27-13.88,18.14-1.48,7.67-.48,15.62-.69,23.38-.08,6.01.68,16.21-6.99,17.2-3.54.17-6.64-2.32-8.75-5.6-6.06-10.03-3.8-22.42-6.16-33.42-1.42-7.35-5.04-13.95-8.3-20.62-2.23-4.68-4.64-9.97-4.3-15.14.67-8.84,9.78-8.17,15.2-3.07,2.75,2.37,4.78,5.5,6.09,8.89,1.07,2.73,1.95,5.36,2.65,6.32.17.23.36.45.62.48h.05Z"/>
  <path class="cls-1" d="M102.75,207.63c2.68-.65,4.66-4.24,7.62-4.7,3.52-.8,6,2.78,8.91,2.64,3.46-1.2,5.08-5.96,9.01-6.82,5.56-1.54,11.19,3.12,13.16,8.18,3.97,11-1.38,25.14-8.64,33.65-2.93,3.21-7.17,6.15-11.67,4.98-3.16-.73-5.91-3.94-8.42-4.92-1.47-.62-2.89-.47-4.43.32-2.31,1.18-4.93,3.46-7.36,3.24-5.27-.69-6.82-7.27-8.28-11.62-2.72-9.91-5.13-20.11-5.75-30.4-.49-7.48,5.33-11.25,10.09-4.53,1.84,2.62,2.9,7.15,4.15,8.93.37.55.86,1.06,1.54,1.04h.08Z"/>
  <path class="cls-1" d="M157.03,162c-.11,6.21-5.35,10.54-10.97,12.55-5.45,2.15-11.24,3.95-17.05,3.82-10.61-.02-13.29-8.87-15.7-17.48-4.88-16.01-10.11-32.18-12.6-48.78-.74-7.73,9.24-9.2,14.48-5.29,6.28,5.03,7.28,15.94,9.31,23.4,1.59,5.83,2.34,14.97,6.88,18.6,4.87,3.27,10.55-1.68,15.9-1.72,7.63-.5,10.17,8.52,9.76,14.69v.19Z"/>
  <path class="cls-1" d="M86.78,160.94c-2.27-1.56-4.86.55-5.81,3.22-1.51,4.26-2.27,9.75-6.64,12.26-3.73,2.3-9.09,3.19-11.73-.16-2.7-4.66.72-10.93,1.43-15.91,2.22-11.76,4.23-23.63,5.89-35.44.55-3.67,1.22-7.5,3.11-10.71,2.67-4.95,9.21-7.83,14.09-4.37,6.6,5.01,8.61,14.9,11.5,22.47,2.86,8.71,5.52,17.55,8.81,26.13,1.53,4.34,3.85,9.25,2.07,12.97-2.74,4.85-10.39,4.54-14.37,1.38-4.02-2.93-4.37-9.09-8.24-11.76l-.11-.07ZM84.23,147.59c9.73.3,4.61-9.19,3.09-14.6-.68-2.08-2.77-5.78-4.8-2.83-1.17,1.67-1.69,3.99-2.23,5.99-1.5,5.22-3.27,11.19,3.73,11.43h.21Z"/>
  <path class="cls-1" d="M198.82,158.66c.22,8.29-5.93,10.67-12.95,11.27-5.44.53-12.67,1.99-16.8-.78-3.46-2.24-4.47-6.75-5.33-10.62-3.05-14.19-5.87-28.41-9.12-42.45-.89-4.28-3.16-9.13-1.73-13.41,2.16-5.57,10.86-6.65,15.07-2.76,3.67,3.25,4.71,9.45,5.91,14.52,1.46,6.18,2.61,12.52,4.4,18.57,4.86,16.33,20.49,1.24,20.55,25.46v.19Z"/>
  <path class="cls-1" d="M291.37,198.01c1.3.2,3.5-2.05,5.16-2.61,3.99-2.21,9.36.07,10.32,4.58.91,3.56-.72,7.85-2.97,11.37-1.39,2.27-3.35,4.94-3.22,7.55.28,4.22,4.95,7.45,6.46,11.44,3.53,6.79-.04,17.69-8.61,17.08-7.37-1.27-8.17-10.47-9.37-16.48-.63-3.03-1.48-5.04-2.04-4.85-.67-.21-.79,4.14-.58,6.32.22,3.46.32,6.9-1,9.97-4.07,8.35-12.2,5.45-13.04-3.16-1.16-10.04-.87-20.17-.68-30.38.22-5.46.65-11.31,3.46-16.11,2.34-4.48,8.24-6.93,12.17-3.17,2.76,2.51,2.39,6.65,3.91,8.42l.05.02Z"/>
  <path class="cls-1" d="M22.47,237.58c-1.65,1.12-2.98,5.88-5.23,7.17-2.04,1.59-4.96,1.53-6.81-.34-4.45-5.07-2.99-13.9-3.45-20.29.05-7.99-.4-21.43,9.55-22.93,7.93.41,9.38,12.25,12.22,18.13,2.34,5.89,5.74,8.58,3.3.69-2.04-6.13-6.41-13.47-3.64-19.84,2.16-4.95,8.91-5,12.21-1.13,1.7,1.79,2.75,4.22,3.4,6.64,1.94,8.54,2.92,17.35,4.31,25.97.71,5.05,1.21,11.86-3.96,14.46-4.77,2.4-11.78.06-15.73-3.69-1.52-1.33-3.02-3.14-4.5-4.33-.65-.5-1.16-.69-1.61-.54l-.06.02Z"/>
  <path class="cls-1" d="M258.8,227.88c-.06,3.86,3.64,6.8,4.61,10.77,1.31,3.96-1.66,7.96-5.66,8.51-2.71.53-5.64-.37-7.86-.6-4.05-.79-7.81,2.05-11.86,1.24-8.31-2.67-4.71-13.39-5.08-20.38-.02-5.4-.58-10.78-1.05-16.15-.55-5.74-1.01-12.82,4.36-16.34,10.93-6.49,32.05-1.71,32.56,13,.08,3.54-1.28,7-3.3,9.88-2.49,3.8-6.25,5.96-6.7,9.93v.14ZM251.7,207.67c-.43-1.51-1.84-3.26-3.14-4.29-.7-.51-1.29-1.15-2.1-.97-1.75.68-1.17,6.26-.82,8.46.35,2.21.95,9.6,3.5,9.24,1.01-.98.95-2.81,1.29-4.31.24-2.48,1.9-5.83,1.31-7.99l-.04-.15Z"/>
  <path class="cls-1" d="M73.47,229.26c-.8.88,2.92,1.44,3.98,1.8,2.32.57,4.87,1.31,6.33,2.99,1.68,1.78,2.18,4.49,1.29,6.77-3.05,7.77-17.43,8.65-24.34,6.19-7.75-2.91-8.49-12.44-10.27-19.75-1.45-7.53-4.44-15.49-2.47-23.14,1.59-6.01,7.77-8.85,13.55-9.22,6.35-.4,14.44-.23,17.77,5.56,1.76,3.46-.17,7.36-3.32,9.33-1.92,1.41-5.86,2.69-7.17,3.99-.26.38.22.59,1.32.69,2.62.25,6.12-.02,8.63,1.26,3.07,1.41,4.27,5.55,2.42,8.37-1.52,2.62-5.48,3.64-7.68,5.12l-.04.04Z"/>
  <path class="cls-1" d="M178.76,201.37c1.26.05,3.24-2.18,4.94-3.57,3.05-2.73,7.79-3.36,11.05-.73,4.79,3.94,4.13,11.5,1.58,16.59-2.11,4.35-6.26,7.39-8.08,11.52-1.72,3.65-1.33,7.84-1.93,11.73-.5,4.15-3.39,8.86-7.75,8.85-10.01-1.1-6.68-14.55-9.19-21.42-2.07-6.47-8.58-11.35-8.61-18.6-.43-5.13,3.29-11.83,9.14-10.19,1.98.49,3.83,2.11,5.29,3.55,1.39,1.36,2.44,2.31,3.47,2.27h.09Z"/>
  <path class="cls-1" d="M201.05,229.8c.08-9.27,1.66-18.59,6.27-26.7,7.73-13.67,19.53-1.66,21.24,9.11,8.08,35.57-27.4,50.47-27.51,17.79v-.2ZM216.34,208.86c-3.28,2.08-4.48,17.53-4.49,21.72-.08,1.59.9,7.3,2.4,3.31,1.38-5.56,1.28-11.72,2.51-17.33.2-1.69,1.27-6.96-.37-7.71h-.06Z"/>
</svg>