<?xml version="1.0" encoding="UTF-8"?>
<svg id="Layer_1" data-name="Layer 1" xmlns="http://www.w3.org/2000/svg" viewBox="0 0 317.51 70.14">
  <defs>
    <style>
      .cls-1 {
        stroke-width: 0px;
      }
    </style>
  </defs>
  <path class="cls-1" d="M158.44,26.55c-.24,1.27-.57,3.62-1.14,5.92-.29,1.17-.9,2.32-1.59,3.33-2.23,3.3-4.95,3.21-6.77-.31-1-1.93-1.57-4.09-2.49-6.07-.88-1.89-1.75-3.85-3.01-5.47-2.43-3.13-5.12-2.63-6.69,1.03-2.4,5.63-.37,11.02,5.17,13.57,1.82.83,3.78,1.37,5.52,2.34,1.8,1.01,3.68,2.13,5.05,3.63,3.72,4.07,2.98,9.69-1.45,12.98-2.62,1.95-5.69,2.7-8.85,2.89-5.74.34-11.18-.9-16.17-3.81-3.11-1.82-5.77-4.17-7.1-7.57-.67-1.71-1.04-3.7-.92-5.53.18-2.89,2.68-4.35,5.36-3.23,1.45.61,2.85,1.58,3.98,2.68,1.71,1.65,3.12,3.59,4.74,5.33,1.49,1.6,2.95,3.27,4.68,4.57,1.16.87,2.72,1.44,4.17,1.63,2.27.3,3.66-1.5,2.84-3.64-.53-1.37-1.39-2.77-2.49-3.72-1.71-1.48-3.7-2.67-5.64-3.85-1.79-1.09-3.76-1.87-5.5-3.03-3.29-2.19-5.55-4.99-5.47-9.3.08-4.2.07-8.38,1.24-12.47,1.32-4.6,3.58-8.61,7.28-11.72,6.39-5.38,14.11-4.72,19.42,1.72,4.05,4.91,5.6,10.73,5.85,18.09Z"/>
  <path class="cls-1" d="M201.35,37.4c-.22,1.04-.68,2.1-.62,3.13.21,3.6.58,7.19.91,10.78.12,1.32.35,2.64.41,3.97.15,3.27-1.46,5.57-4.1,7.34-2.92,1.96-5.88.12-6.58-2.42-.97-3.55-1.14-7.07-.2-10.7,1.43-5.52,2.96-11.05,3.84-16.67.92-5.9,1.12-11.92,1.6-17.89.14-1.8.07-3.62.24-5.42.46-4.92,3.19-7.97,8.06-9.1,10.23-2.39,19.9,5.6,19.67,16.21-.1,4.37-1.62,8.18-4.41,11.49-1.04,1.24-2.15,2.42-3.28,3.57-2.09,2.13-2.63,4.59-1.6,7.35.73,1.96,1.67,3.84,2.41,5.8.67,1.77,1.37,3.56,1.74,5.41.56,2.79-.81,5.32-3.32,6.66-2.49,1.33-5.41,1.07-7.31-1.12-1.4-1.62-2.57-3.57-3.32-5.57-1.06-2.84-1.62-5.85-2.41-8.79-.36-1.35-.74-2.69-1.11-4.03-.2,0-.41,0-.61,0ZM206.1,12.55c-.31,5.26-.6,10.32-.92,15.77,2.2.03,3.99.26,5.72,0,.86-.13,1.9-.97,2.32-1.78,3.16-6-.05-12.47-7.12-13.99Z"/>
  <path class="cls-1" d="M263.16,36.49c.74-1.61,1.65-3.17,2.2-4.84,1.09-3.35,1.89-6.79,3-10.13,1.05-3.15,2.19-6.3,3.59-9.31.7-1.5,1.9-2.89,3.19-3.96,2.23-1.83,4.61-1.08,5.2,1.73.46,2.19.6,4.57.28,6.78-.98,6.69-2.14,13.35-3.45,19.99-1.03,5.23-2.35,10.4-3.62,15.58-.34,1.37-.84,2.75-1.51,3.99-1.97,3.65-5.81,4.39-8.82,1.51-1.48-1.41-2.76-3.22-3.58-5.09-1.68-3.83-3.05-7.8-4.42-11.76-1.11-3.24-2.01-6.55-3.04-9.82-.3-.94-.75-1.84-1.3-3.16-1.22,1.85-1.34,3.44-1.46,5.03-.42,5.57.66,11,1.34,16.48.36,2.89.23,5.9-.11,8.8-.35,3-2.31,4.55-4.96,4.57-2.42.02-4.18-1.56-4.83-4.41-.58-2.53-.53-5.02-.14-7.63,1.34-9.04,2.37-18.13,3.6-27.19.45-3.3,1.01-6.59,1.72-9.84.3-1.36.94-2.72,1.72-3.89,1.39-2.07,3.42-2.2,4.98-.28,1,1.23,1.89,2.69,2.36,4.19,1.29,4.08,2.34,8.23,3.49,12.36.72,2.57,1.38,5.15,2.19,7.69.3.93.95,1.74,1.45,2.6.31,0,.62-.01.93-.02Z"/>
  <path class="cls-1" d="M31.04,28.22c-.31,1.54-.45,3.31-1.04,4.91-.87,2.36-2.95,3.2-5.23,2.08-1.53-.75-2.9-1.89-4.24-2.97-4.31-3.45-7.94-2.43-9.38,2.96-1.62,6.05.07,11.56,3.74,16.44,1.57,2.08,3.09,1.94,4.8-.09,1.05-1.25,1.93-2.64,2.92-3.95,1.38-1.82,3.01-3.36,5.18-4.19,4.52-1.73,9.06.68,9.7,5.46.93,6.92-1.51,12.76-6.77,17.22-5.01,4.25-10.84,5.04-17.01,2.9-4.28-1.49-7.22-4.55-9.3-8.48-2.39-4.5-3.55-9.37-4.09-14.38-.8-7.34-.17-14.51,2.83-21.36,1.62-3.71,3.85-6.99,7.03-9.55,6.28-5.05,12.93-4.11,17.35,2.59,1.28,1.94,2.25,4.14,3.08,6.32.45,1.18.3,2.58.44,4.09Z"/>
  <path class="cls-1" d="M311.83,41.16c-.37,2.72-.62,5.46-1.14,8.14-.43,2.22-1.01,4.46-1.84,6.56-.88,2.22-2.66,3.57-5.02,4.31-3.2,1-6.38,1.76-9.79,1.5-4.79-.36-8.05-2.52-9.56-7.19-1.46-4.5-1.93-9.12-1.69-13.81.45-8.67,2.35-16.99,6.82-24.51,1.54-2.59,3.61-4.88,5.51-7.25.52-.65,1.28-1.14,1.99-1.61,5.05-3.38,10.11-1.82,12.15,3.86,1.69,4.7,1.82,9.52.37,14.31-.35,1.15-.94,2.32-1.71,3.24-1.19,1.43-2.75,1.29-3.86-.19-.4-.53-.62-1.18-.97-1.75-1.03-1.69-1.95-2.05-3.82-1.35-3.14,1.17-5.27,3.45-6.34,6.56-1.86,5.44-1.44,10.9.51,16.21.45,1.24,1.55,2.44,2.66,3.19,2.2,1.49,5.04.72,6.05-1.64.85-1.98,1.46-4.13,1.78-6.26.4-2.6-.34-3.42-2.97-3.85-1.54-.25-2.95-.38-3.62-2.18-1.04-2.84.58-6.01,3.7-6.48,1.65-.25,3.41-.01,5.09.23,2.25.32,4.46.93,6.71,1.29,2.06.32,3.47,1.19,4.22,3.28.97,2.68.33,4.17-2.46,4.86-.82.2-1.66.31-2.8.52Z"/>
  <path class="cls-1" d="M192.86,15.74c-.47,6.33-4.18,11.92-11,15.44-1.35.7-2.79,1.23-4.21,1.78-1.86.73-2.99,2.07-3.16,4.05-.25,2.84-.36,5.7-.55,8.55-.18,2.75-.24,5.52-.59,8.25-.3,2.41-1.36,4.55-3.19,6.24-1.41,1.3-3.06,1.92-4.97,1.74-2.3-.22-3.65-1.51-3.8-3.84-.11-1.79-.19-3.64.1-5.4,1.74-10.28,2.39-20.62,2.24-31.03-.04-3.05-.03-6.1.18-9.14.54-7.6,4.67-10.87,11.95-11.74,2.97-.36,5.9.13,8.69,1.26,5.36,2.17,8.36,6.69,8.29,13.84ZM173.49,8.89c-.27.4-.47.55-.47.69.15,3.97.2,7.94.53,11.9.24,2.85,1.85,3.49,4.31,1.96,3.48-2.17,4.38-6.82,1.91-10.16-1.57-2.12-3.73-3.43-6.28-4.39Z"/>
  <path class="cls-1" d="M38.29,38.17c.36-7.37.95-14.72,3.05-21.84,1.66-5.64,2.69-6.09,8.05-3.71,5.47,2.43,9.15,6.55,10.96,12.18,3.5,10.9,2.66,21.63-2.05,32-.94,2.08-2.49,4.04-4.18,5.6-3.43,3.16-7.88,2.87-10.82-.76-1.5-1.85-2.61-4.17-3.37-6.45-1.83-5.52-1.78-11.28-1.65-17.03ZM48.89,29.43c-.53,3.61-1.22,7.21-1.54,10.83-.26,2.92-.14,5.89-.03,8.83.03.77.66,1.52,1.03,2.32,5.4-3.35,5.83-15.2.54-21.99Z"/>
  <path class="cls-1" d="M91.71,46.04c-3.39-.32-6.15-.51-8.88-.86-3.06-.39-3.26-.77-2.75-3.72.88-5.04,1.81-10.06,2.56-15.12.67-4.55,1.15-9.13,1.68-13.69.28-2.42,1.1-3.62,3.26-3.72,3.46-.16,7-.4,10.4.08,7.93,1.13,12.58,6.05,13.8,14.26.67,4.51.24,8.98-1.39,13.29-1.99,5.27-5.78,8.35-11.36,9.06-2.63.33-5.3.32-7.32.43ZM88.52,37.65c.61.28.79.44.98.44,5.73-.1,11.92-7.01,11.44-12.7-.19-2.21-1.39-3.59-3.4-4.27-2.26-.77-4.56-.91-6.87-.24-.72,5.66-1.43,11.2-2.14,16.78Z"/>
  <path class="cls-1" d="M64.63,30.66c0-6.76,0-13.51,0-20.27,0-.1-.01-.2,0-.31.04-1.63-.16-3.47,1.64-4.29,1.79-.81,3.63-.42,5.27.65,2.12,1.38,3.07,3.5,3.56,5.87.95,4.67.68,9.37.3,14.07-.34,4.28-.81,8.56-1.15,12.84-.11,1.42-.09,2.87.06,4.29.39,3.57,1.78,4.67,5.28,4.3,1.42-.15,2.84-.36,4.26-.55.51-.07,1.01-.18,1.52-.22,5.9-.52,8.41,2.5,6.84,8.27-.97,3.54-3.27,5.87-6.75,6.95-4.5,1.39-9.09,1.47-13.65.39-3.61-.86-5.93-3.14-6.63-6.85-.32-1.7-.55-3.44-.57-5.17-.06-6.65-.03-13.31-.03-19.96.02,0,.03,0,.05,0Z"/>
  <path class="cls-1" d="M238.88,16.78c-.66,12-2.32,22.51-5.61,32.72-.9,2.78-2.22,5.46-3.65,8.03-1.25,2.25-2.81,3.03-4.05,2.43-1.77-.86-1.8-2.65-1.7-4.22.25-3.8.66-7.59,1.13-11.36,1.45-11.62,2.96-23.23,4.47-34.84.17-1.32.33-2.67.76-3.91.63-1.81,1.91-2.21,3.62-1.31,2.16,1.13,3.55,2.98,4.02,5.29.57,2.78.8,5.63,1.01,7.18Z"/>
</svg>